<svg width="81" height="35" viewBox="0 0 81 35" fill="none" xmlns="http://www.w3.org/2000/svg">
<g clip-path="url(#clip0_1015_4227)">
<path d="M80.8239 28.1518L79.6943 27.644C79.4389 27.5131 79.1256 27.623 79.0124 27.8874C78.7833 28.4188 78.4305 29.0471 77.8881 29.6518C75.9106 31.8586 73.275 32.0078 72.2165 32.0366C68.0537 32.1492 65.0757 29.5707 64.2805 28.8586C59.7939 24.8534 59.707 19.2906 59.6885 18.0393C59.6622 16.377 59.5806 10.9502 63.5565 7.30103C66.7161 4.40051 70.4998 4.25915 72.1217 4.2513C74.2202 4.24082 76.0318 4.71203 77.2851 5.0602C77.5695 5.13873 77.8723 5.0026 77.996 4.73035C78.2672 4.14397 78.5621 3.46857 78.8333 2.87957C78.986 2.55234 78.8912 2.27486 78.5647 2.11779C78.0697 1.87695 76.8006 1.41622 75.8711 1.23297C74.2255 0.910981 72.6852 0.790562 71.7741 0.79318C70.5077 0.798416 68.9331 0.86386 67.3217 1.24082C66.1395 1.51831 62.4559 2.43454 59.4463 5.68585C57.9323 7.32198 57.1134 8.98166 56.7448 9.74606C56.0207 11.2408 55.6626 12.5131 55.4994 13.1728C54.9649 15.3115 54.9701 17.0105 54.9807 18.2827C54.9886 19.2251 54.9596 19.4921 55.1834 20.8822C55.2097 21.0471 55.0254 21.1675 54.8885 21.0707C52.6083 19.4895 51.5103 19.0235 48.9616 17.7958C48.7298 17.6859 47.3975 17.144 46.7761 16.8953C46.6682 16.8508 46.6629 16.7016 46.7682 16.6492C47.5581 16.2539 49.2407 15.0497 49.5856 14.5707C49.5856 14.5707 50.2254 13.9162 50.6888 13.2042C51.8737 11.3769 51.9237 8.98952 51.9263 8.75915C51.9263 8.75915 51.9579 6.04449 50.6388 4.03402C50.2201 3.39527 49.7067 2.88742 49.7067 2.88742C49.7014 2.88219 49.6935 2.87433 49.6883 2.8691C49.3012 2.48952 48.8457 2.13611 48.3112 1.82721C48.3112 1.82721 46.2311 0.562813 43.4454 0.188468C43.4216 0.18585 43.3769 0.177997 43.3216 0.172761C41.7918 -0.0183384 40.6649 -1.37639e-05 40.1093 -1.37639e-05C38.9718 0.00783964 36.7179 -0.00263156 33.7189 -1.37639e-05C33.3345 -1.37639e-05 33.0212 0.31674 33.0212 0.706793V14.4529C33.0212 14.6099 32.8974 14.7382 32.7447 14.7408C32.1549 14.7565 31.0385 14.7958 29.9142 14.9293C28.4397 15.1021 27.2338 15.301 26.041 15.5497C25.1247 15.7408 23.5238 16.1937 22.9314 16.3639C22.8129 16.3979 22.6918 16.3351 22.6496 16.2199C21.9809 14.3639 17.0729 0.837683 17.0071 0.691086C16.9992 0.677997 16.9939 0.664908 16.986 0.649201C16.8886 0.431923 16.6147 0.253913 16.3804 0.253913H13.8816C13.6394 0.253913 13.3603 0.437159 13.2629 0.659672L13.2497 0.688468C12.7837 2.19894 8.26802 14.9345 6.81722 19.0209C6.69347 19.3665 7.10949 19.6518 7.37806 19.4057C7.70192 19.1073 8.03368 18.7906 8.42337 18.4921C8.99474 18.0523 9.89524 17.4398 10.3508 17.1309C10.5377 17.0052 10.6799 16.822 10.7562 16.6073L14.1476 7.19109C14.2345 6.90051 14.64 6.88742 14.7427 7.17538C15.8591 10.3063 18.163 16.623 18.5816 17.7722C18.6185 17.8743 18.5711 17.9895 18.4737 18.034C15.1429 19.6047 12.3624 21.3586 10.0085 23.4005C7.77038 25.3403 4.56071 29.4293 2.73339 32.9869C2.65439 33.1387 2.52011 33.2513 2.35686 33.2932C1.80919 33.4319 1.15357 33.5497 0.387353 33.6492C0.226738 33.6701 0.118783 33.7618 0.0555904 33.9241C0.0503243 33.9424 0.0450582 33.9607 0.0397922 33.979C0.0345261 33.9948 0.0318931 34.0078 0.026627 34.0235C0.0187279 34.055 0.0134618 34.089 0.0108288 34.123C0.0108288 34.1283 0.0108288 34.1309 0.0108288 34.1361C0.00556272 34.1754 0.00292969 34.2199 0.00292969 34.2644C0.00292969 34.2801 0.00292969 34.2932 0.00292969 34.3089C0.00292969 34.3272 0.00292969 34.3482 0.00292969 34.3717C0.00292969 34.5393 0.0213609 34.8429 0.205673 34.9555C0.271499 34.9948 0.342591 34.9974 0.342591 34.9974C0.35049 34.9974 0.355756 34.9974 0.358389 34.9974C3.77607 34.9974 7.19374 34.9974 10.6114 35C10.6536 35 10.7141 34.9895 10.772 34.9555C11.009 34.8194 10.9774 34.411 10.9774 34.3246C10.9774 33.8743 10.8853 33.6518 10.7036 33.6518C9.68986 33.5968 8.65508 33.411 8.22326 33.2539C8.1311 33.2199 7.94942 33.0471 7.92046 32.9529C7.82041 32.6413 7.94942 31.9188 8.32595 31.2958C9.70566 29.0183 10.6167 28.0262 12.5256 26.4293C14.2555 24.9843 15.1929 24.1989 17.3151 22.9843C18.1814 22.4895 19.2846 21.9084 19.7533 21.6701C19.7796 21.6571 19.8402 21.6361 19.9008 21.6544C19.9692 21.6754 20.0114 21.7408 20.0298 21.7801C21.5675 26.4895 22.7049 29.8953 23.2684 31.267C23.3737 31.5209 23.6897 32.2696 23.3553 32.7513C23.1789 33.0026 22.8155 33.1413 22.0651 33.2487C20.3405 33.5 19.9376 33.5419 19.232 33.623C19.074 33.6413 18.9371 33.911 18.9371 34.3194C18.9371 34.4372 18.9344 34.6649 19.0266 34.9031C19.0608 34.9895 19.0977 34.9921 19.1188 34.9974C27.0336 34.9974 34.9485 34.9974 42.8634 34.9974C42.8845 34.9921 42.9214 34.9895 42.9556 34.9031C43.0478 34.6649 43.0451 34.4372 43.0451 34.3194C43.0451 33.911 42.9082 33.6387 42.7502 33.623C41.41 33.4712 40.4121 33.4293 39.6669 33.2487C38.8138 33.0419 38.174 32.7696 37.9607 32.2749C37.7448 31.7749 37.7475 30.6413 37.7475 29.5131C37.7527 26.144 37.7659 19.8403 37.7685 18.7801C37.7685 18.6963 37.8344 18.6335 37.9186 18.644C38.6611 18.7251 42.0446 19.1387 45.1647 20.4136C47.7135 21.4555 51.1628 22.7068 54.3777 25.4372C56.1919 26.9764 58.2167 29.0288 59.1804 31.2853C59.4753 32.0262 59.5385 32.5628 59.3357 32.9372C59.2725 33.055 59.1646 33.144 59.0461 33.1937C58.4431 33.4424 56.3735 33.5995 55.1966 33.6571C55.0149 33.6571 54.9227 33.8822 54.9227 34.3298C54.9227 34.3848 54.8885 34.8377 55.1281 34.9607C55.1755 34.9843 55.2203 34.9921 55.2545 34.9921C60.9787 34.9921 66.7056 34.9895 72.4298 34.9869C73.5251 34.9581 74.8232 34.8482 76.2608 34.5681C77.5563 34.3141 79.2862 33.7801 79.7944 33.5785C79.9787 33.5052 80.1419 33.3246 80.1972 33.1021C80.3973 32.3141 80.8607 29.2696 80.9977 28.4948C81.024 28.3534 80.9529 28.212 80.8265 28.1492L80.8239 28.1518ZM32.8105 32.3639C32.7368 32.4607 32.6499 32.5707 32.5262 32.6571C32.1707 32.9084 31.81 33.0628 31.365 33.089C30.8305 33.1649 29.6772 33.1047 29.1506 32.2827C27.0126 28.9345 24.6244 21.7434 24.1426 20.2696C24.0952 20.1204 24.1742 19.966 24.3216 19.9241C25.2669 19.6466 26.8098 19.233 28.3897 18.9686C30.2591 18.6544 32.0575 18.5393 32.642 18.5183C32.6736 18.5183 32.721 18.5183 32.7737 18.5157C32.9053 18.5131 33.0133 18.6178 33.0133 18.7513C33.0133 20.5471 33.0238 31.712 33.0238 31.712C33.0238 31.9476 32.9527 32.1806 32.8105 32.3665V32.3639ZM40.2989 15.0052C40.2883 15.0052 40.2357 15.0052 38.4558 15.0052H38.0134C37.866 15.0052 37.7448 14.8822 37.7448 14.733V3.23297C37.7448 3.08376 37.866 2.96072 38.0134 2.96072H40.7307C42.4158 2.96072 44.9514 3.4869 46.3233 5.49737C47.208 6.79056 47.2211 8.23035 47.2264 8.76438C47.2317 9.29318 47.2343 10.5288 46.5181 11.7461C46.5181 11.7461 44.7803 15.1283 40.2962 15.0052H40.2989Z" fill="#231916"/>
</g>
<defs>
<clipPath id="clip0_1015_4227">
<rect width="81" height="35" fill="white"/>
</clipPath>
</defs>
</svg>
