<svg width="1546" height="1546" viewBox="0 0 1546 1546" fill="none" xmlns="http://www.w3.org/2000/svg">
<rect width="1546" height="1546" fill="white"/>
<g clip-path="url(#clip0_775_322)">
<path d="M1542.63 977.515L1521.07 967.764C1516.2 965.251 1510.22 967.362 1508.06 972.438C1503.68 982.642 1496.95 994.704 1486.6 1006.31C1448.86 1048.69 1398.55 1051.55 1378.35 1052.1C1298.9 1054.26 1242.06 1004.76 1226.88 991.085C1141.24 914.185 1139.59 807.379 1139.23 783.354C1138.73 751.437 1137.17 647.245 1213.06 577.18C1273.37 521.49 1345.58 518.776 1376.54 518.625C1416.59 518.424 1451.17 527.471 1475.09 534.156C1480.52 535.663 1486.3 533.05 1488.66 527.823C1493.83 516.564 1499.46 503.596 1504.64 492.288C1507.55 486.005 1505.75 480.677 1499.51 477.661C1490.07 473.037 1465.84 464.191 1448.1 460.673C1416.69 454.491 1387.29 452.179 1369.91 452.229C1345.73 452.329 1315.68 453.586 1284.92 460.824C1262.36 466.151 1192.05 483.743 1134.61 546.168C1105.71 577.582 1090.08 609.448 1083.05 624.124C1069.23 652.824 1062.39 677.251 1059.28 689.917C1049.08 730.981 1049.18 763.601 1049.38 788.028C1049.53 806.122 1048.98 811.249 1053.25 837.938C1053.75 841.104 1050.23 843.416 1047.62 841.557C1004.1 811.199 983.142 802.252 934.495 778.679C930.072 776.568 904.643 766.164 892.783 761.389C890.723 760.535 890.622 757.67 892.632 756.665C907.709 749.075 939.822 725.955 946.405 716.757C946.405 716.757 958.617 704.191 967.462 690.52C990.077 655.437 991.032 609.599 991.082 605.176C991.082 605.176 991.685 553.054 966.507 514.453C958.517 502.189 948.717 492.438 948.717 492.438C948.617 492.338 948.466 492.187 948.365 492.087C940.978 484.799 932.284 478.013 922.082 472.082C922.082 472.082 882.38 447.806 829.21 440.618C828.758 440.568 827.904 440.417 826.848 440.317C797.65 436.648 776.141 437 765.537 437C743.827 437.15 700.808 436.949 643.568 437C636.23 437 630.25 443.081 630.25 450.57V714.495C630.25 717.511 627.888 719.973 624.973 720.024C613.716 720.325 592.408 721.079 570.949 723.643C542.806 726.96 519.789 730.78 497.024 735.555C479.535 739.224 448.98 747.919 437.672 751.186C435.411 751.839 433.099 750.633 432.295 748.422C419.53 712.786 325.854 453.083 324.598 450.269C324.447 450.017 324.347 449.766 324.196 449.465C322.337 445.293 317.11 441.875 312.637 441.875H264.945C260.322 441.875 254.995 445.393 253.135 449.666L252.884 450.218C243.989 479.219 157.801 723.743 130.11 802.202C127.748 808.836 135.689 814.315 140.815 809.59C146.996 803.86 153.328 797.779 160.766 792.049C171.671 783.605 188.859 771.844 197.553 765.913C201.121 763.5 203.835 759.982 205.292 755.86L270.021 575.069C271.679 569.49 279.419 569.238 281.379 574.767C302.687 634.88 346.66 756.162 354.651 778.227C355.354 780.187 354.45 782.399 352.59 783.253C289.017 813.41 235.948 847.085 191.02 886.29C148.303 923.534 87.0418 1002.04 52.1647 1070.35C50.657 1073.26 48.094 1075.42 44.9782 1076.23C34.5251 1078.89 22.0116 1081.15 7.38731 1083.06C4.32174 1083.47 2.26128 1085.23 1.05515 1088.34C0.954642 1088.69 0.854132 1089.05 0.753621 1089.4C0.653111 1089.7 0.602856 1089.95 0.502345 1090.25C0.35158 1090.86 0.25107 1091.51 0.200814 1092.16C0.200814 1092.26 0.200814 1092.31 0.200814 1092.41C0.100304 1093.17 0.0500488 1094.02 0.0500488 1094.88C0.0500488 1095.18 0.0500488 1095.43 0.0500488 1095.73C0.0500488 1096.08 0.0500488 1096.48 0.0500488 1096.94C0.0500488 1100.15 0.401835 1105.98 3.9197 1108.15C5.17608 1108.9 6.53297 1108.95 6.53297 1108.95C6.68373 1108.95 6.78424 1108.95 6.8345 1108.95C72.0657 1108.95 137.297 1108.95 202.528 1109C203.332 1109 204.488 1108.8 205.594 1108.15C210.117 1105.53 209.514 1097.69 209.514 1096.03C209.514 1087.39 207.755 1083.11 204.287 1083.11C184.939 1082.06 165.189 1078.49 156.947 1075.48C155.188 1074.82 151.72 1071.5 151.167 1069.69C149.258 1063.71 151.72 1049.84 158.907 1037.88C185.24 994.151 202.629 975.102 239.064 944.443C272.081 916.698 289.972 901.62 330.478 878.298C347.012 868.799 368.069 857.64 377.014 853.067C377.517 852.815 378.673 852.413 379.828 852.765C381.135 853.167 381.939 854.424 382.291 855.178C411.64 945.599 433.35 1010.99 444.105 1037.33C446.115 1042.2 452.146 1056.58 445.763 1065.82C442.396 1070.65 435.461 1073.31 421.138 1075.37C388.221 1080.2 380.532 1081 367.064 1082.56C364.048 1082.91 361.435 1088.09 361.435 1095.93C361.435 1098.19 361.385 1102.57 363.144 1107.14C363.797 1108.8 364.501 1108.85 364.903 1108.95C515.97 1108.95 667.037 1108.95 818.104 1108.95C818.506 1108.85 819.209 1108.8 819.863 1107.14C821.622 1102.57 821.571 1098.19 821.571 1095.93C821.571 1088.09 818.958 1082.86 815.943 1082.56C790.363 1079.65 771.316 1078.84 757.094 1075.37C740.811 1071.4 728.599 1066.18 724.529 1056.68C720.408 1047.08 720.458 1025.31 720.458 1003.65C720.559 938.964 720.81 817.934 720.86 797.578C720.86 795.969 722.116 794.763 723.725 794.964C737.897 796.522 802.475 804.464 862.027 828.941C910.674 848.945 976.508 872.97 1037.87 925.393C1072.5 954.947 1111.14 994.353 1129.54 1037.68C1135.16 1051.9 1136.37 1062.21 1132.5 1069.39C1131.29 1071.66 1129.23 1073.36 1126.97 1074.32C1115.46 1079.09 1075.96 1082.11 1053.5 1083.22C1050.03 1083.22 1048.27 1087.54 1048.27 1096.13C1048.27 1097.19 1047.62 1105.88 1052.19 1108.25C1053.1 1108.7 1053.95 1108.85 1054.6 1108.85C1163.86 1108.85 1273.16 1108.8 1382.42 1108.75C1403.33 1108.2 1428.1 1106.08 1455.54 1100.71C1480.27 1095.83 1513.28 1085.58 1522.98 1081.71C1526.5 1080.3 1529.62 1076.83 1530.67 1072.56C1534.49 1057.43 1543.34 998.977 1545.95 984.099C1546.45 981.385 1545.1 978.671 1542.68 977.465L1542.63 977.515ZM626.23 1058.39C624.822 1060.25 623.164 1062.36 620.802 1064.02C614.018 1068.84 607.133 1071.81 598.639 1072.31C588.438 1073.77 566.426 1072.61 556.375 1056.83C515.568 992.543 469.986 854.474 460.79 826.177C459.885 823.312 461.393 820.346 464.207 819.542C482.248 814.214 511.698 806.273 541.851 801.196C577.532 795.165 611.857 792.954 623.013 792.551C623.616 792.551 624.521 792.551 625.526 792.501C628.039 792.451 630.099 794.461 630.099 797.025C630.099 831.504 630.3 1045.87 630.3 1045.87C630.3 1050.39 628.943 1054.87 626.23 1058.44V1058.39ZM769.155 725.1C768.954 725.1 767.949 725.1 733.977 725.1H725.534C722.72 725.1 720.408 722.738 720.408 719.873V499.073C720.408 496.208 722.72 493.846 725.534 493.846H777.397C809.561 493.846 857.956 503.948 884.139 542.549C901.025 567.379 901.276 595.023 901.377 605.276C901.477 615.429 901.527 639.152 887.858 662.524C887.858 662.524 854.69 727.462 769.105 725.1H769.155Z" fill="#231916"/>
</g>
<defs>
<clipPath id="clip0_775_322">
<rect width="1546" height="672" fill="white" transform="translate(0 437)"/>
</clipPath>
</defs>
</svg>
