<svg width="1440" height="1024" viewBox="0 0 1440 1025" fill="none" xmlns="http://www.w3.org/2000/svg">
<path d="M695.77 558.79C723.21 558.79 743.01 562.51 755.16 569.96C767.7 577.02 773.98 595.64 773.98 625.82V1024.01H695.77V558.79ZM978.02 856.09C988.38 902.03 1008.31 940.13 1037.81 970.4C1061.5 994.49 1089.06 1012.36 1120.48 1024.01H978.02V856.09ZM1440 1024.01H1332.03C1362.67 1013.83 1389.06 998.9 1411.2 979.22C1422.1 969.44 1431.69 958.26 1440 945.68V1024.02V1024.01ZM299.7 863.96L313.79 1024H162.65L175.05 863.96H299.71H299.7ZM1223.63 177.17C1240.09 177.17 1252.24 182.66 1260.08 193.63C1267.92 204.21 1271.84 224.99 1271.84 255.96V408.84H1440V585.24H1271.84V771.64C1271.84 794.77 1268.12 813.59 1260.67 828.09C1253.61 842.59 1241.27 849.85 1223.63 849.85C1207.95 849.85 1195.79 843.97 1187.17 832.21C1178.94 820.45 1174.82 800.26 1174.82 771.64V253.61C1174.82 230.48 1178.15 212.06 1184.82 198.34C1191.48 184.23 1204.42 177.17 1223.63 177.17ZM486.44 780.49L412.38 0.01H486.44V780.49ZM238.54 172.46L283.82 698.73H189.74L229.14 172.46H238.55H238.54ZM0 627.19V0.01H60.58L0 627.19ZM969.6 569.66C966.56 558.82 962.7 548.93 958.02 539.97C945.08 514.1 922.35 497.83 889.81 491.17C928.7 478.47 955.29 455.74 969.6 422.99V569.66ZM745.16 187.75C762.41 187.75 774.17 194.02 780.44 206.57C786.71 219.11 789.85 245.58 789.85 285.95C789.85 348.28 775.54 379.44 746.93 379.44H696.95V187.75H745.17H745.16ZM1126.03 0.01C1084.98 12.89 1052.64 35.1 1028.99 66.62C1008.88 93.7 993.88 126.85 983.98 166.06C982.26 154.82 980.27 144.01 978.01 133.65C968.99 90.14 950.96 56.42 923.91 32.51C905.78 16.21 881.82 5.38 852.03 0.01H1126.03ZM1440 87.42C1418.51 55.04 1389.9 30.47 1354.17 13.69C1342.86 8.33 1331.08 3.77 1318.81 0H1440V87.42Z" fill="#FF5050"/>
</svg>
