<svg width="59" height="25" viewBox="0 0 59 25" fill="none" xmlns="http://www.w3.org/2000/svg">
<path d="M58.8695 20.1085L58.0467 19.7458C57.8606 19.6523 57.6324 19.7308 57.5499 19.9197C57.3831 20.2992 57.1261 20.748 56.731 21.1799C55.2907 22.7562 53.3709 22.8628 52.5999 22.8834C49.5677 22.9638 47.3986 21.122 46.8194 20.6134C43.5513 17.7525 43.488 13.7791 43.4746 12.8854C43.4554 11.698 43.396 7.82185 46.292 5.2153C48.5934 3.14353 51.3494 3.04256 52.5308 3.03695C54.0594 3.02947 55.3789 3.36604 56.2918 3.61473C56.4989 3.67082 56.7195 3.57359 56.8096 3.37913C57.0072 2.96028 57.222 2.47787 57.4195 2.05715C57.5308 1.82343 57.4617 1.62522 57.2239 1.51303C56.8633 1.34101 55.9389 1.01192 55.2619 0.88103C54.0632 0.651041 52.9413 0.565028 52.2777 0.566898C51.3552 0.570638 50.2083 0.617384 49.0345 0.886639C48.1734 1.08484 45.4903 1.73928 43.2982 4.06161C42.1954 5.23026 41.5989 6.41573 41.3304 6.96173C40.803 8.0294 40.5422 8.93814 40.4232 9.40934C40.0339 10.937 40.0378 12.1505 40.0454 13.0592C40.0512 13.7324 40.0301 13.9231 40.1931 14.916C40.2123 15.0338 40.078 15.1198 39.9783 15.0506C38.3174 13.9212 37.5177 13.5884 35.6611 12.7115C35.4924 12.6329 34.5219 12.2459 34.0693 12.0682C33.9907 12.0365 33.9868 11.9299 34.0635 11.8925C34.6389 11.6101 35.8644 10.75 36.1157 10.4078C36.1157 10.4078 36.5817 9.94037 36.9193 9.43177C37.7823 8.12663 37.8188 6.42134 37.8207 6.2568C37.8207 6.2568 37.8437 4.31778 36.8828 2.88175C36.5779 2.42551 36.2039 2.06276 36.2039 2.06276C36.2001 2.05902 36.1943 2.05342 36.1905 2.04968C35.9085 1.77855 35.5768 1.52612 35.1874 1.30548C35.1874 1.30548 33.6723 0.402353 31.6432 0.134967C31.6259 0.133097 31.5933 0.127488 31.553 0.123748C30.4387 -0.0127499 29.6179 0.000338936 29.2132 0.000338936C28.3847 0.00594843 26.743 -0.0015309 24.5585 0.000338936C24.2785 0.000338936 24.0503 0.226589 24.0503 0.505194V10.3237C24.0503 10.4359 23.9601 10.5275 23.8489 10.5294C23.4193 10.5406 22.6061 10.5686 21.7872 10.664C20.7132 10.7874 19.8348 10.9295 18.966 11.1071C18.2985 11.2436 17.1325 11.5671 16.7009 11.6887C16.6146 11.713 16.5264 11.6681 16.4957 11.5858C16.0086 10.2601 12.4336 0.598685 12.3857 0.493975C12.3799 0.484626 12.3761 0.475276 12.3704 0.464057C12.2994 0.308861 12.0999 0.181713 11.9292 0.181713H10.1092C9.93272 0.181713 9.72943 0.312601 9.65847 0.471537L9.64888 0.492105C9.30941 1.571 6.02024 10.6677 4.96348 13.5865C4.87334 13.8334 5.17637 14.0372 5.37199 13.8614C5.60789 13.6482 5.84955 13.422 6.13339 13.2088C6.54957 12.8947 7.20549 12.4572 7.53729 12.2365C7.67346 12.1468 7.77702 12.0159 7.83264 11.8626L10.3029 5.13677C10.3662 4.92922 10.6615 4.91987 10.7363 5.12555C11.5495 7.36187 13.2276 11.8738 13.5326 12.6946C13.5594 12.7676 13.5249 12.8498 13.454 12.8816C11.0278 14.0035 9.00255 15.2563 7.28796 16.7148C5.65776 18.1003 3.31986 21.021 1.98885 23.5621C1.93131 23.6706 1.8335 23.751 1.71459 23.7809C1.31567 23.88 0.838115 23.9641 0.280011 24.0352C0.16302 24.0501 0.0843869 24.1156 0.0383577 24.2315C0.0345219 24.2446 0.0306861 24.2577 0.0268504 24.2708C0.0230146 24.282 0.0210967 24.2913 0.017261 24.3026C0.0115073 24.325 0.00767154 24.3493 0.00575365 24.3736C0.00575365 24.3773 0.00575365 24.3792 0.00575365 24.383C0.00191788 24.411 0 24.4428 0 24.4746C0 24.4858 0 24.4951 0 24.5064C0 24.5195 0 24.5344 0 24.5512C0 24.6709 0.0134252 24.8878 0.147677 24.9682C0.195624 24.9963 0.247407 24.9981 0.247407 24.9981C0.253161 24.9981 0.256996 24.9981 0.258914 24.9981C2.74833 24.9981 5.23774 24.9981 7.72716 25C7.75784 25 7.80195 24.9925 7.84415 24.9682C8.01676 24.871 7.99374 24.5793 7.99374 24.5176C7.99374 24.196 7.92662 24.037 7.79428 24.037C7.0559 23.9978 6.30217 23.865 5.98763 23.7528C5.92051 23.7285 5.78817 23.6051 5.76708 23.5378C5.6942 23.3153 5.78817 22.7992 6.06243 22.3542C7.0674 20.7274 7.73099 20.0188 9.12146 18.8782C10.3815 17.846 11.0643 17.2851 12.6101 16.4175C13.2411 16.0641 14.0447 15.649 14.386 15.4788C14.4052 15.4695 14.4493 15.4545 14.4935 15.4676C14.5433 15.4826 14.574 15.5293 14.5874 15.5573C15.7075 18.9212 16.536 21.3538 16.9464 22.3336C17.0231 22.515 17.2533 23.0498 17.0097 23.3938C16.8812 23.5733 16.6165 23.6724 16.07 23.7491C14.8137 23.9286 14.5203 23.9585 14.0063 24.0165C13.8912 24.0296 13.7915 24.2222 13.7915 24.5138C13.7915 24.598 13.7896 24.7607 13.8567 24.9308C13.8816 24.9925 13.9085 24.9944 13.9238 24.9981C19.689 24.9981 25.4542 24.9981 31.2193 24.9981C31.2347 24.9944 31.2615 24.9925 31.2864 24.9308C31.3536 24.7607 31.3517 24.598 31.3517 24.5138C31.3517 24.2222 31.2519 24.0277 31.1369 24.0165C30.1606 23.908 29.4338 23.8781 28.891 23.7491C28.2696 23.6014 27.8036 23.4069 27.6482 23.0535C27.491 22.6964 27.4929 21.8867 27.4929 21.0808C27.4967 18.6744 27.5063 14.1718 27.5082 13.4145C27.5082 13.3547 27.5562 13.3098 27.6175 13.3173C28.1584 13.3753 30.6229 13.6707 32.8955 14.5813C34.7521 15.3255 37.2645 16.2193 39.6062 18.1695C40.9277 19.269 42.4025 20.7349 43.1044 22.3467C43.3193 22.8759 43.3653 23.2592 43.2176 23.5266C43.1716 23.6107 43.0929 23.6743 43.0066 23.7098C42.5674 23.8875 41.06 23.9996 40.2027 24.0408C40.0704 24.0408 40.0032 24.2016 40.0032 24.5213C40.0032 24.5606 39.9783 24.8841 40.1528 24.972C40.1873 24.9888 40.22 24.9944 40.2449 24.9944C44.4144 24.9944 48.5858 24.9925 52.7552 24.9907C53.5531 24.9701 54.4986 24.8916 55.5458 24.6915C56.4894 24.5101 57.7494 24.1287 58.1196 23.9847C58.2538 23.9323 58.3727 23.8033 58.413 23.6444C58.5588 23.0816 58.8963 20.9069 58.996 20.3535C59.0152 20.2525 58.9634 20.1515 58.8714 20.1066L58.8695 20.1085ZM23.8968 23.1171C23.8431 23.1863 23.7798 23.2648 23.6897 23.3265C23.4308 23.506 23.168 23.6163 22.8439 23.635C22.4546 23.6892 21.6146 23.6462 21.231 23.0591C19.6737 20.6676 17.9341 15.5312 17.5832 14.4785C17.5486 14.3719 17.6062 14.2616 17.7136 14.2316C18.4021 14.0334 19.526 13.738 20.6767 13.5491C22.0384 13.3248 23.3483 13.2425 23.7741 13.2275C23.7971 13.2275 23.8316 13.2275 23.87 13.2257C23.9659 13.2238 24.0445 13.2986 24.0445 13.3939C24.0445 14.6767 24.0522 22.6515 24.0522 22.6515C24.0522 22.8198 24.0004 22.9862 23.8968 23.1189V23.1171ZM29.3513 10.7182C29.3436 10.7182 29.3053 10.7182 28.0088 10.7182H27.6866C27.5792 10.7182 27.491 10.6303 27.491 10.5238V2.30958C27.491 2.203 27.5792 2.11512 27.6866 2.11512H29.6658C30.8933 2.11512 32.7402 2.49096 33.7394 3.92699C34.3838 4.85068 34.3934 5.87909 34.3973 6.26054C34.4011 6.63824 34.403 7.52081 33.8813 8.39028C33.8813 8.39028 32.6155 10.8061 29.3494 10.7182H29.3513Z" fill="#231916"/>
</svg>
