<svg width="663" height="113" viewBox="0 0 663 113" fill="none" xmlns="http://www.w3.org/2000/svg">
<path d="M399.222 113C396.803 113 394.815 112.222 393.26 110.666C391.704 109.111 390.926 107.123 390.926 104.704C390.926 102.457 391.704 100.555 393.26 99C394.815 97.2716 396.803 96.4074 399.222 96.4074C401.469 96.4074 403.37 97.2716 404.926 99C406.654 100.555 407.518 102.457 407.518 104.704C407.518 107.123 406.654 109.111 404.926 110.666C403.37 112.222 401.469 113 399.222 113ZM415.815 113C413.395 113 411.407 112.222 409.852 110.666C408.296 109.111 407.518 107.123 407.518 104.704C407.518 102.457 408.296 100.555 409.852 99C411.407 97.2716 413.395 96.4074 415.815 96.4074C418.061 96.4074 419.963 97.2716 421.518 99C423.247 100.555 424.111 102.457 424.111 104.704C424.111 107.123 423.247 109.111 421.518 110.666C419.963 112.222 418.061 113 415.815 113ZM432.407 113C429.987 113 428 112.222 426.444 110.666C424.889 109.111 424.111 107.123 424.111 104.704C424.111 102.457 424.889 100.555 426.444 99C428 97.2716 429.987 96.4074 432.407 96.4074C434.654 96.4074 436.555 97.2716 438.11 99C439.839 100.555 440.703 102.457 440.703 104.704C440.703 107.123 439.839 109.111 438.11 110.666C436.555 112.222 434.654 113 432.407 113ZM448.999 113C446.579 113 444.592 112.222 443.036 110.666C441.481 109.111 440.703 107.123 440.703 104.704C440.703 102.457 441.481 100.555 443.036 99C444.592 97.2716 446.579 96.4074 448.999 96.4074C451.246 96.4074 453.147 97.2716 454.703 99C456.431 100.555 457.295 102.457 457.295 104.704C457.295 107.123 456.431 109.111 454.703 110.666C453.147 112.222 451.246 113 448.999 113ZM415.815 96.4074C413.395 96.4074 411.407 95.6297 409.852 94.0742C408.296 92.5186 407.518 90.531 407.518 88.1113C407.518 85.8645 408.296 83.9633 409.852 82.4077C411.407 80.6794 413.395 79.8152 415.815 79.8152C418.061 79.8152 419.963 80.6794 421.518 82.4077C423.247 83.9633 424.111 85.8645 424.111 88.1113C424.111 90.531 423.247 92.5186 421.518 94.0742C419.963 95.6297 418.061 96.4074 415.815 96.4074ZM432.407 79.8152C429.987 79.8152 428 79.0374 426.444 77.4819C424.889 75.9264 424.111 73.9388 424.111 71.5191C424.111 69.2722 424.889 67.371 426.444 65.8155C428 64.0871 429.987 63.2229 432.407 63.2229C434.654 63.2229 436.555 64.0871 438.11 65.8155C439.839 67.371 440.703 69.2722 440.703 71.5191C440.703 73.9388 439.839 75.9264 438.11 77.4819C436.555 79.0374 434.654 79.8152 432.407 79.8152ZM399.222 63.2229C396.803 63.2229 394.815 62.4452 393.26 60.8897C391.704 59.3341 390.926 57.3465 390.926 54.9268C390.926 52.68 391.704 50.7788 393.26 49.2232C394.815 47.4949 396.803 46.6307 399.222 46.6307C401.469 46.6307 403.37 47.4949 404.926 49.2232C406.654 50.7788 407.518 52.68 407.518 54.9268C407.518 57.3465 406.654 59.3341 404.926 60.8897C403.37 62.4452 401.469 63.2229 399.222 63.2229ZM448.999 63.2229C446.579 63.2229 444.592 62.4452 443.036 60.8897C441.481 59.3341 440.703 57.3465 440.703 54.9268C440.703 52.68 441.481 50.7788 443.036 49.2232C444.592 47.4949 446.579 46.6307 448.999 46.6307C451.246 46.6307 453.147 47.4949 454.703 49.2232C456.431 50.7788 457.295 52.68 457.295 54.9268C457.295 57.3465 456.431 59.3341 454.703 60.8897C453.147 62.4452 451.246 63.2229 448.999 63.2229ZM415.815 46.6307C413.395 46.6307 411.407 45.8529 409.852 44.2974C408.296 42.7419 407.518 40.7543 407.518 38.3346C407.518 36.0877 408.296 34.1865 409.852 32.631C411.407 30.9026 413.395 30.0385 415.815 30.0385C418.061 30.0385 419.963 30.9026 421.518 32.631C423.247 34.1865 424.111 36.0877 424.111 38.3346C424.111 40.7543 423.247 42.7419 421.518 44.2974C419.963 45.8529 418.061 46.6307 415.815 46.6307ZM432.407 46.6307C429.987 46.6307 428 45.8529 426.444 44.2974C424.889 42.7419 424.111 40.7543 424.111 38.3346C424.111 36.0877 424.889 34.1865 426.444 32.631C428 30.9026 429.987 30.0385 432.407 30.0385C434.654 30.0385 436.555 30.9026 438.11 32.631C439.839 34.1865 440.703 36.0877 440.703 38.3346C440.703 40.7543 439.839 42.7419 438.11 44.2974C436.555 45.8529 434.654 46.6307 432.407 46.6307Z" fill="#1C1F1C"/>
<path d="M343.473 113C341.053 113 339.066 112.222 337.51 110.666C335.955 109.111 335.177 107.123 335.177 104.704C335.177 102.457 335.955 100.555 337.51 99C339.066 97.2716 341.053 96.4074 343.473 96.4074C345.72 96.4074 347.621 97.2716 349.177 99C350.905 100.555 351.769 102.457 351.769 104.704C351.769 107.123 350.905 109.111 349.177 110.666C347.621 112.222 345.72 113 343.473 113ZM360.065 113C357.646 113 355.658 112.222 354.102 110.666C352.547 109.111 351.769 107.123 351.769 104.704C351.769 102.457 352.547 100.555 354.102 99C355.658 97.2716 357.646 96.4074 360.065 96.4074C362.312 96.4074 364.213 97.2716 365.769 99C367.497 100.555 368.361 102.457 368.361 104.704C368.361 107.123 367.497 109.111 365.769 110.666C364.213 112.222 362.312 113 360.065 113ZM326.881 96.4074C324.461 96.4074 322.473 95.6297 320.918 94.0742C319.362 92.5186 318.585 90.531 318.585 88.1113C318.585 85.8645 319.362 83.9633 320.918 82.4077C322.473 80.6794 324.461 79.8152 326.881 79.8152C329.128 79.8152 331.029 80.6794 332.584 82.4077C334.313 83.9633 335.177 85.8645 335.177 88.1113C335.177 90.531 334.313 92.5186 332.584 94.0742C331.029 95.6297 329.128 96.4074 326.881 96.4074ZM376.657 96.4074C374.238 96.4074 372.25 95.6297 370.695 94.0742C369.139 92.5186 368.361 90.531 368.361 88.1113C368.361 85.8645 369.139 83.9633 370.695 82.4077C372.25 80.6794 374.238 79.8152 376.657 79.8152C378.904 79.8152 380.806 80.6794 382.361 82.4077C384.089 83.9633 384.954 85.8645 384.954 88.1113C384.954 90.531 384.089 92.5186 382.361 94.0742C380.806 95.6297 378.904 96.4074 376.657 96.4074ZM326.881 79.8152C324.461 79.8152 322.473 79.0374 320.918 77.4819C319.362 75.9264 318.585 73.9388 318.585 71.5191C318.585 69.2722 319.362 67.371 320.918 65.8155C322.473 64.0871 324.461 63.2229 326.881 63.2229C329.128 63.2229 331.029 64.0871 332.584 65.8155C334.313 67.371 335.177 69.2722 335.177 71.5191C335.177 73.9388 334.313 75.9264 332.584 77.4819C331.029 79.0374 329.128 79.8152 326.881 79.8152ZM376.657 79.8152C374.238 79.8152 372.25 79.0374 370.695 77.4819C369.139 75.9264 368.361 73.9388 368.361 71.5191C368.361 69.2722 369.139 67.371 370.695 65.8155C372.25 64.0871 374.238 63.2229 376.657 63.2229C378.904 63.2229 380.806 64.0871 382.361 65.8155C384.089 67.371 384.954 69.2722 384.954 71.5191C384.954 73.9388 384.089 75.9264 382.361 77.4819C380.806 79.0374 378.904 79.8152 376.657 79.8152ZM326.881 63.2229C324.461 63.2229 322.473 62.4452 320.918 60.8897C319.362 59.3341 318.585 57.3465 318.585 54.9268C318.585 52.68 319.362 50.7788 320.918 49.2232C322.473 47.4949 324.461 46.6307 326.881 46.6307C329.128 46.6307 331.029 47.4949 332.584 49.2232C334.313 50.7788 335.177 52.68 335.177 54.9268C335.177 57.3465 334.313 59.3341 332.584 60.8897C331.029 62.4452 329.128 63.2229 326.881 63.2229ZM376.657 63.2229C374.238 63.2229 372.25 62.4452 370.695 60.8897C369.139 59.3341 368.361 57.3465 368.361 54.9268C368.361 52.68 369.139 50.7788 370.695 49.2232C372.25 47.4949 374.238 46.6307 376.657 46.6307C378.904 46.6307 380.806 47.4949 382.361 49.2232C384.089 50.7788 384.954 52.68 384.954 54.9268C384.954 57.3465 384.089 59.3341 382.361 60.8897C380.806 62.4452 378.904 63.2229 376.657 63.2229ZM343.473 46.6307C341.053 46.6307 339.066 45.8529 337.51 44.2974C335.955 42.7419 335.177 40.7543 335.177 38.3346C335.177 36.0877 335.955 34.1865 337.51 32.631C339.066 30.9026 341.053 30.0385 343.473 30.0385C345.72 30.0385 347.621 30.9026 349.177 32.631C350.905 34.1865 351.769 36.0877 351.769 38.3346C351.769 40.7543 350.905 42.7419 349.177 44.2974C347.621 45.8529 345.72 46.6307 343.473 46.6307ZM360.065 46.6307C357.646 46.6307 355.658 45.8529 354.102 44.2974C352.547 42.7419 351.769 40.7543 351.769 38.3346C351.769 36.0877 352.547 34.1865 354.102 32.631C355.658 30.9026 357.646 30.0385 360.065 30.0385C362.312 30.0385 364.213 30.9026 365.769 32.631C367.497 34.1865 368.361 36.0877 368.361 38.3346C368.361 40.7543 367.497 42.7419 365.769 44.2974C364.213 45.8529 362.312 46.6307 360.065 46.6307Z" fill="#1C1F1C"/>
<path d="M304.316 112.999C301.897 112.999 299.909 112.221 298.354 110.666C296.798 109.11 296.02 107.122 296.02 104.703C296.02 102.456 296.798 100.555 298.354 98.9992C299.909 97.2708 301.897 96.4066 304.316 96.4066C306.563 96.4066 308.464 97.2708 310.02 98.9992C311.748 100.555 312.613 102.456 312.613 104.703C312.613 107.122 311.748 109.11 310.02 110.666C308.464 112.221 306.563 112.999 304.316 112.999Z" fill="#1C1F1C"/>
<path d="M226 113C223.58 113 221.593 112.222 220.037 110.666C218.482 109.111 217.704 107.123 217.704 104.704C217.704 102.457 218.482 100.555 220.037 99C221.593 97.2716 223.58 96.4074 226 96.4074C228.247 96.4074 230.148 97.2716 231.704 99C233.432 100.555 234.296 102.457 234.296 104.704C234.296 107.123 233.432 109.111 231.704 110.666C230.148 112.222 228.247 113 226 113ZM242.592 113C240.173 113 238.185 112.222 236.629 110.666C235.074 109.111 234.296 107.123 234.296 104.704C234.296 102.457 235.074 100.555 236.629 99C238.185 97.2716 240.173 96.4074 242.592 96.4074C244.839 96.4074 246.74 97.2716 248.296 99C250.024 100.555 250.888 102.457 250.888 104.704C250.888 107.123 250.024 109.111 248.296 110.666C246.74 112.222 244.839 113 242.592 113ZM209.408 96.4074C206.988 96.4074 205.001 95.6297 203.445 94.0742C201.889 92.5186 201.112 90.531 201.112 88.1113C201.112 85.8645 201.889 83.9633 203.445 82.4077C205.001 80.6794 206.988 79.8152 209.408 79.8152C211.655 79.8152 213.556 80.6794 215.111 82.4077C216.84 83.9633 217.704 85.8645 217.704 88.1113C217.704 90.531 216.84 92.5186 215.111 94.0742C213.556 95.6297 211.655 96.4074 209.408 96.4074ZM259.185 96.4074C256.765 96.4074 254.777 95.6297 253.222 94.0742C251.666 92.5186 250.888 90.531 250.888 88.1113C250.888 85.8645 251.666 83.9633 253.222 82.4077C254.777 80.6794 256.765 79.8152 259.185 79.8152C261.431 79.8152 263.333 80.6794 264.888 82.4077C266.617 83.9633 267.481 85.8645 267.481 88.1113C267.481 90.531 266.617 92.5186 264.888 94.0742C263.333 95.6297 261.431 96.4074 259.185 96.4074ZM209.408 79.8152C206.988 79.8152 205.001 79.0374 203.445 77.4819C201.889 75.9264 201.112 73.9388 201.112 71.5191C201.112 69.2722 201.889 67.371 203.445 65.8155C205.001 64.0871 206.988 63.2229 209.408 63.2229C211.655 63.2229 213.556 64.0871 215.111 65.8155C216.84 67.371 217.704 69.2722 217.704 71.5191C217.704 73.9388 216.84 75.9264 215.111 77.4819C213.556 79.0374 211.655 79.8152 209.408 79.8152ZM259.185 79.8152C256.765 79.8152 254.777 79.0374 253.222 77.4819C251.666 75.9264 250.888 73.9388 250.888 71.5191C250.888 69.2722 251.666 67.371 253.222 65.8155C254.777 64.0871 256.765 63.2229 259.185 63.2229C261.431 63.2229 263.333 64.0871 264.888 65.8155C266.617 67.371 267.481 69.2722 267.481 71.5191C267.481 73.9388 266.617 75.9264 264.888 77.4819C263.333 79.0374 261.431 79.8152 259.185 79.8152ZM209.408 63.2229C206.988 63.2229 205.001 62.4452 203.445 60.8897C201.889 59.3341 201.112 57.3465 201.112 54.9268C201.112 52.68 201.889 50.7788 203.445 49.2232C205.001 47.4949 206.988 46.6307 209.408 46.6307C211.655 46.6307 213.556 47.4949 215.111 49.2232C216.84 50.7788 217.704 52.68 217.704 54.9268C217.704 57.3465 216.84 59.3341 215.111 60.8897C213.556 62.4452 211.655 63.2229 209.408 63.2229ZM259.185 63.2229C256.765 63.2229 254.777 62.4452 253.222 60.8897C251.666 59.3341 250.888 57.3465 250.888 54.9268C250.888 52.68 251.666 50.7788 253.222 49.2232C254.777 47.4949 256.765 46.6307 259.185 46.6307C261.431 46.6307 263.333 47.4949 264.888 49.2232C266.617 50.7788 267.481 52.68 267.481 54.9268C267.481 57.3465 266.617 59.3341 264.888 60.8897C263.333 62.4452 261.431 63.2229 259.185 63.2229ZM226 46.6307C223.58 46.6307 221.593 45.8529 220.037 44.2974C218.482 42.7419 217.704 40.7543 217.704 38.3346C217.704 36.0877 218.482 34.1865 220.037 32.631C221.593 30.9026 223.58 30.0385 226 30.0385C228.247 30.0385 230.148 30.9026 231.704 32.631C233.432 34.1865 234.296 36.0877 234.296 38.3346C234.296 40.7543 233.432 42.7419 231.704 44.2974C230.148 45.8529 228.247 46.6307 226 46.6307ZM242.592 46.6307C240.173 46.6307 238.185 45.8529 236.629 44.2974C235.074 42.7419 234.296 40.7543 234.296 38.3346C234.296 36.0877 235.074 34.1865 236.629 32.631C238.185 30.9026 240.173 30.0385 242.592 30.0385C244.839 30.0385 246.74 30.9026 248.296 32.631C250.024 34.1865 250.888 36.0877 250.888 38.3346C250.888 40.7543 250.024 42.7419 248.296 44.2974C246.74 45.8529 244.839 46.6307 242.592 46.6307Z" fill="#1C1F1C"/>
<path d="M137.066 113C134.646 113 132.659 112.222 131.103 110.666C129.548 109.111 128.77 107.123 128.77 104.704C128.77 102.457 129.548 100.555 131.103 99C132.659 97.2716 134.646 96.4074 137.066 96.4074C139.313 96.4074 141.214 97.2716 142.77 99C144.498 100.555 145.362 102.457 145.362 104.704C145.362 107.123 144.498 109.111 142.77 110.666C141.214 112.222 139.313 113 137.066 113ZM153.658 113C151.239 113 149.251 112.222 147.695 110.666C146.14 109.111 145.362 107.123 145.362 104.704C145.362 102.457 146.14 100.555 147.695 99C149.251 97.2716 151.239 96.4074 153.658 96.4074C155.905 96.4074 157.806 97.2716 159.362 99C161.09 100.555 161.954 102.457 161.954 104.704C161.954 107.123 161.09 109.111 159.362 110.666C157.806 112.222 155.905 113 153.658 113ZM170.251 113C167.831 113 165.843 112.222 164.288 110.666C162.732 109.111 161.954 107.123 161.954 104.704C161.954 102.457 162.732 100.555 164.288 99C165.843 97.2716 167.831 96.4074 170.251 96.4074C172.497 96.4074 174.399 97.2716 175.954 99C177.682 100.555 178.547 102.457 178.547 104.704C178.547 107.123 177.682 109.111 175.954 110.666C174.399 112.222 172.497 113 170.251 113ZM186.843 113C184.423 113 182.435 112.222 180.88 110.666C179.324 109.111 178.547 107.123 178.547 104.704C178.547 102.457 179.324 100.555 180.88 99C182.435 97.2716 184.423 96.4074 186.843 96.4074C189.09 96.4074 190.991 97.2716 192.546 99C194.275 100.555 195.139 102.457 195.139 104.704C195.139 107.123 194.275 109.111 192.546 110.666C190.991 112.222 189.09 113 186.843 113ZM170.251 96.4074C167.831 96.4074 165.843 95.6297 164.288 94.0742C162.732 92.5186 161.954 90.531 161.954 88.1113C161.954 85.8645 162.732 83.9633 164.288 82.4077C165.843 80.6794 167.831 79.8152 170.251 79.8152C172.497 79.8152 174.399 80.6794 175.954 82.4077C177.682 83.9633 178.547 85.8645 178.547 88.1113C178.547 90.531 177.682 92.5186 175.954 94.0742C174.399 95.6297 172.497 96.4074 170.251 96.4074ZM170.251 79.8152C167.831 79.8152 165.843 79.0374 164.288 77.4819C162.732 75.9264 161.954 73.9388 161.954 71.5191C161.954 69.2722 162.732 67.371 164.288 65.8155C165.843 64.0871 167.831 63.2229 170.251 63.2229C172.497 63.2229 174.399 64.0871 175.954 65.8155C177.682 67.371 178.547 69.2722 178.547 71.5191C178.547 73.9388 177.682 75.9264 175.954 77.4819C174.399 79.0374 172.497 79.8152 170.251 79.8152ZM137.066 63.2229C134.646 63.2229 132.659 62.4452 131.103 60.8897C129.548 59.3341 128.77 57.3465 128.77 54.9268C128.77 52.68 129.548 50.7788 131.103 49.2232C132.659 47.4949 134.646 46.6307 137.066 46.6307C139.313 46.6307 141.214 47.4949 142.77 49.2232C144.498 50.7788 145.362 52.68 145.362 54.9268C145.362 57.3465 144.498 59.3341 142.77 60.8897C141.214 62.4452 139.313 63.2229 137.066 63.2229ZM170.251 63.2229C167.831 63.2229 165.843 62.4452 164.288 60.8897C162.732 59.3341 161.954 57.3465 161.954 54.9268C161.954 52.68 162.732 50.7788 164.288 49.2232C165.843 47.4949 167.831 46.6307 170.251 46.6307C172.497 46.6307 174.399 47.4949 175.954 49.2232C177.682 50.7788 178.547 52.68 178.547 54.9268C178.547 57.3465 177.682 59.3341 175.954 60.8897C174.399 62.4452 172.497 63.2229 170.251 63.2229ZM153.658 46.6307C151.239 46.6307 149.251 45.8529 147.695 44.2974C146.14 42.7419 145.362 40.7543 145.362 38.3346C145.362 36.0877 146.14 34.1865 147.695 32.631C149.251 30.9026 151.239 30.0385 153.658 30.0385C155.905 30.0385 157.806 30.9026 159.362 32.631C161.09 34.1865 161.954 36.0877 161.954 38.3346C161.954 40.7543 161.09 42.7419 159.362 44.2974C157.806 45.8529 155.905 46.6307 153.658 46.6307ZM170.251 46.6307C167.831 46.6307 165.843 45.8529 164.288 44.2974C162.732 42.7419 161.954 40.7543 161.954 38.3346C161.954 36.0877 162.732 34.1865 164.288 32.631C165.843 30.9026 167.831 30.0385 170.251 30.0385C172.497 30.0385 174.399 30.9026 175.954 32.631C177.682 34.1865 178.547 36.0877 178.547 38.3346C178.547 40.7543 177.682 42.7419 175.954 44.2974C174.399 45.8529 172.497 46.6307 170.251 46.6307Z" fill="#1C1F1C"/>
<path d="M81.3152 79.8148C78.8955 79.8148 76.9079 79.037 75.3523 77.4815C73.7968 75.926 73.019 73.9384 73.019 71.5187C73.019 69.2718 73.7968 67.3706 75.3523 65.8151C76.9079 64.0867 78.8955 63.2225 81.3152 63.2225C83.562 63.2225 85.4632 64.0867 87.0187 65.8151C88.7471 67.3706 89.6113 69.2718 89.6113 71.5187C89.6113 73.9384 88.7471 75.926 87.0187 77.4815C85.4632 79.037 83.562 79.8148 81.3152 79.8148ZM97.9074 79.8148C95.4877 79.8148 93.5001 79.037 91.9446 77.4815C90.3891 75.926 89.6113 73.9384 89.6113 71.5187C89.6113 69.2718 90.3891 67.3706 91.9446 65.8151C93.5001 64.0867 95.4877 63.2225 97.9074 63.2225C100.154 63.2225 102.055 64.0867 103.611 65.8151C105.339 67.3706 106.204 69.2718 106.204 71.5187C106.204 73.9384 105.339 75.926 103.611 77.4815C102.055 79.037 100.154 79.8148 97.9074 79.8148ZM114.5 79.8148C112.08 79.8148 110.092 79.037 108.537 77.4815C106.981 75.926 106.204 73.9384 106.204 71.5187C106.204 69.2718 106.981 67.3706 108.537 65.8151C110.092 64.0867 112.08 63.2225 114.5 63.2225C116.747 63.2225 118.648 64.0867 120.203 65.8151C121.932 67.3706 122.796 69.2718 122.796 71.5187C122.796 73.9384 121.932 75.926 120.203 77.4815C118.648 79.037 116.747 79.8148 114.5 79.8148Z" fill="#1C1F1C"/>
<path d="M25.5656 113C23.1459 113 21.1583 112.222 19.6028 110.666C18.0473 109.111 17.2695 107.123 17.2695 104.704C17.2695 102.457 18.0473 100.555 19.6028 99C21.1583 97.2716 23.1459 96.4074 25.5656 96.4074C27.8125 96.4074 29.7137 97.2716 31.2692 99C32.9976 100.555 33.8617 102.457 33.8617 104.704C33.8617 107.123 32.9976 109.111 31.2692 110.666C29.7137 112.222 27.8125 113 25.5656 113ZM42.1579 113C39.7382 113 37.7505 112.222 36.195 110.666C34.6395 109.111 33.8617 107.123 33.8617 104.704C33.8617 102.457 34.6395 100.555 36.195 99C37.7505 97.2716 39.7382 96.4074 42.1579 96.4074C44.4047 96.4074 46.3059 97.2716 47.8614 99C49.5898 100.555 50.454 102.457 50.454 104.704C50.454 107.123 49.5898 109.111 47.8614 110.666C46.3059 112.222 44.4047 113 42.1579 113ZM8.97337 96.4074C6.55367 96.4074 4.56605 95.6297 3.01053 94.0742C1.45501 92.5186 0.677246 90.531 0.677246 88.1113C0.677246 85.8645 1.45501 83.9633 3.01053 82.4077C4.56605 80.6794 6.55367 79.8152 8.97337 79.8152C11.2202 79.8152 13.1214 80.6794 14.677 82.4077C16.4053 83.9633 17.2695 85.8645 17.2695 88.1113C17.2695 90.531 16.4053 92.5186 14.677 94.0742C13.1214 95.6297 11.2202 96.4074 8.97337 96.4074ZM58.7501 96.4074C56.3304 96.4074 54.3428 95.6297 52.7873 94.0742C51.2317 92.5186 50.454 90.531 50.454 88.1113C50.454 85.8645 51.2317 83.9633 52.7873 82.4077C54.3428 80.6794 56.3304 79.8152 58.7501 79.8152C60.997 79.8152 62.8982 80.6794 64.4537 82.4077C66.182 83.9633 67.0462 85.8645 67.0462 88.1113C67.0462 90.531 66.182 92.5186 64.4537 94.0742C62.8982 95.6297 60.997 96.4074 58.7501 96.4074ZM42.1579 79.8152C39.7382 79.8152 37.7505 79.0374 36.195 77.4819C34.6395 75.9264 33.8617 73.9388 33.8617 71.5191C33.8617 69.2722 34.6395 67.371 36.195 65.8155C37.7505 64.0871 39.7382 63.2229 42.1579 63.2229C44.4047 63.2229 46.3059 64.0871 47.8614 65.8155C49.5898 67.371 50.454 69.2722 50.454 71.5191C50.454 73.9388 49.5898 75.9264 47.8614 77.4819C46.3059 79.0374 44.4047 79.8152 42.1579 79.8152ZM58.7501 63.2229C56.3304 63.2229 54.3428 62.4452 52.7873 60.8897C51.2317 59.3341 50.454 57.3465 50.454 54.9268C50.454 52.68 51.2317 50.7788 52.7873 49.2232C54.3428 47.4949 56.3304 46.6307 58.7501 46.6307C60.997 46.6307 62.8982 47.4949 64.4537 49.2232C66.182 50.7788 67.0462 52.68 67.0462 54.9268C67.0462 57.3465 66.182 59.3341 64.4537 60.8897C62.8982 62.4452 60.997 63.2229 58.7501 63.2229ZM8.97337 46.6307C6.55367 46.6307 4.56605 45.8529 3.01053 44.2974C1.45501 42.7419 0.677246 40.7543 0.677246 38.3346C0.677246 36.0877 1.45501 34.1865 3.01053 32.631C4.56605 30.9026 6.55367 30.0385 8.97337 30.0385C11.2202 30.0385 13.1214 30.9026 14.677 32.631C16.4053 34.1865 17.2695 36.0877 17.2695 38.3346C17.2695 40.7543 16.4053 42.7419 14.677 44.2974C13.1214 45.8529 11.2202 46.6307 8.97337 46.6307ZM25.5656 46.6307C23.1459 46.6307 21.1583 45.8529 19.6028 44.2974C18.0473 42.7419 17.2695 40.7543 17.2695 38.3346C17.2695 36.0877 18.0473 34.1865 19.6028 32.631C21.1583 30.9026 23.1459 30.0385 25.5656 30.0385C27.8125 30.0385 29.7137 30.9026 31.2692 32.631C32.9976 34.1865 33.8617 36.0877 33.8617 38.3346C33.8617 40.7543 32.9976 42.7419 31.2692 44.2974C29.7137 45.8529 27.8125 46.6307 25.5656 46.6307ZM42.1579 46.6307C39.7382 46.6307 37.7505 45.8529 36.195 44.2974C34.6395 42.7419 33.8617 40.7543 33.8617 38.3346C33.8617 36.0877 34.6395 34.1865 36.195 32.631C37.7505 30.9026 39.7382 30.0385 42.1579 30.0385C44.4047 30.0385 46.3059 30.9026 47.8614 32.631C49.5898 34.1865 50.454 36.0877 50.454 38.3346C50.454 40.7543 49.5898 42.7419 47.8614 44.2974C46.3059 45.8529 44.4047 46.6307 42.1579 46.6307ZM58.7501 46.6307C56.3304 46.6307 54.3428 45.8529 52.7873 44.2974C51.2317 42.7419 50.454 40.7543 50.454 38.3346C50.454 36.0877 51.2317 34.1865 52.7873 32.631C54.3428 30.9026 56.3304 30.0385 58.7501 30.0385C60.997 30.0385 62.8982 30.9026 64.4537 32.631C66.182 34.1865 67.0462 36.0877 67.0462 38.3346C67.0462 40.7543 66.182 42.7419 64.4537 44.2974C62.8982 45.8529 60.997 46.6307 58.7501 46.6307Z" fill="#1C1F1C"/>
<path d="M499.183 49.7767C501.603 49.7767 503.59 48.999 505.146 47.4435C506.702 45.8879 507.479 43.9003 507.479 41.4806C507.479 39.2337 506.702 37.3326 505.146 35.777C503.59 34.0487 501.603 33.1845 499.183 33.1845C496.936 33.1845 495.035 34.0487 493.48 35.777C491.751 37.3326 490.887 39.2337 490.887 41.4806C490.887 43.9003 491.751 45.8879 493.48 47.4435C495.035 48.999 496.936 49.7767 499.183 49.7767ZM515.775 33.1845C518.195 33.1845 520.183 32.4067 521.738 30.8512C523.294 29.2957 524.072 27.3081 524.072 24.8884C524.072 22.6415 523.294 20.7403 521.738 19.1848C520.183 17.4564 518.195 16.5922 515.775 16.5922C513.529 16.5922 511.627 17.4564 510.072 19.1848C508.343 20.7403 507.479 22.6415 507.479 24.8884C507.479 27.3081 508.343 29.2957 510.072 30.8512C511.627 32.4067 513.529 33.1845 515.775 33.1845ZM515.775 16.5922C518.195 16.5922 520.183 15.8145 521.738 14.259C523.294 12.7034 524.072 10.7158 524.072 8.29612C524.072 6.04926 523.294 4.14806 521.738 2.59253C520.183 0.864175 518.195 0 515.775 0C513.529 0 511.627 0.864175 510.072 2.59253C508.343 4.14806 507.479 6.04926 507.479 8.29612C507.479 10.7158 508.343 12.7034 510.072 14.259C511.627 15.8145 513.529 16.5922 515.775 16.5922Z" fill="#1C1F1C"/>
<path d="M621.263 113C618.844 113 616.856 112.222 615.301 110.666C613.745 109.111 612.967 107.123 612.967 104.704C612.967 102.457 613.745 100.555 615.301 99C616.856 97.2716 618.844 96.4074 621.263 96.4074C623.51 96.4074 625.412 97.2716 626.967 99C628.695 100.555 629.56 102.457 629.56 104.704C629.56 107.123 628.695 109.111 626.967 110.666C625.412 112.222 623.51 113 621.263 113ZM637.856 113C635.436 113 633.448 112.222 631.893 110.666C630.337 109.111 629.56 107.123 629.56 104.704C629.56 102.457 630.337 100.555 631.893 99C633.448 97.2716 635.436 96.4074 637.856 96.4074C640.103 96.4074 642.004 97.2716 643.559 99C645.288 100.555 646.152 102.457 646.152 104.704C646.152 107.123 645.288 109.111 643.559 110.666C642.004 112.222 640.103 113 637.856 113ZM604.671 96.4074C602.252 96.4074 600.264 95.6297 598.708 94.0742C597.153 92.5186 596.375 90.531 596.375 88.1113C596.375 85.8645 597.153 83.9633 598.708 82.4077C600.264 80.6794 602.252 79.8152 604.671 79.8152C606.918 79.8152 608.819 80.6794 610.375 82.4077C612.103 83.9633 612.967 85.8645 612.967 88.1113C612.967 90.531 612.103 92.5186 610.375 94.0742C608.819 95.6297 606.918 96.4074 604.671 96.4074ZM654.448 96.4074C652.028 96.4074 650.041 95.6297 648.485 94.0742C646.93 92.5186 646.152 90.531 646.152 88.1113C646.152 85.8645 646.93 83.9633 648.485 82.4077C650.041 80.6794 652.028 79.8152 654.448 79.8152C656.695 79.8152 658.596 80.6794 660.152 82.4077C661.88 83.9633 662.744 85.8645 662.744 88.1113C662.744 90.531 661.88 92.5186 660.152 94.0742C658.596 95.6297 656.695 96.4074 654.448 96.4074ZM604.671 79.8152C602.252 79.8152 600.264 79.0374 598.708 77.4819C597.153 75.9264 596.375 73.9388 596.375 71.5191C596.375 69.2722 597.153 67.371 598.708 65.8155C600.264 64.0871 602.252 63.2229 604.671 63.2229C606.918 63.2229 608.819 64.0871 610.375 65.8155C612.103 67.371 612.967 69.2722 612.967 71.5191C612.967 73.9388 612.103 75.9264 610.375 77.4819C608.819 79.0374 606.918 79.8152 604.671 79.8152ZM621.263 79.8152C618.844 79.8152 616.856 79.0374 615.301 77.4819C613.745 75.9264 612.967 73.9388 612.967 71.5191C612.967 69.2722 613.745 67.371 615.301 65.8155C616.856 64.0871 618.844 63.2229 621.263 63.2229C623.51 63.2229 625.412 64.0871 626.967 65.8155C628.695 67.371 629.56 69.2722 629.56 71.5191C629.56 73.9388 628.695 75.9264 626.967 77.4819C625.412 79.0374 623.51 79.8152 621.263 79.8152ZM637.856 79.8152C635.436 79.8152 633.448 79.0374 631.893 77.4819C630.337 75.9264 629.56 73.9388 629.56 71.5191C629.56 69.2722 630.337 67.371 631.893 65.8155C633.448 64.0871 635.436 63.2229 637.856 63.2229C640.103 63.2229 642.004 64.0871 643.559 65.8155C645.288 67.371 646.152 69.2722 646.152 71.5191C646.152 73.9388 645.288 75.9264 643.559 77.4819C642.004 79.0374 640.103 79.8152 637.856 79.8152ZM604.671 63.2229C602.252 63.2229 600.264 62.4452 598.708 60.8897C597.153 59.3341 596.375 57.3465 596.375 54.9268C596.375 52.68 597.153 50.7788 598.708 49.2232C600.264 47.4949 602.252 46.6307 604.671 46.6307C606.918 46.6307 608.819 47.4949 610.375 49.2232C612.103 50.7788 612.967 52.68 612.967 54.9268C612.967 57.3465 612.103 59.3341 610.375 60.8897C608.819 62.4452 606.918 63.2229 604.671 63.2229ZM621.263 46.6307C618.844 46.6307 616.856 45.8529 615.301 44.2974C613.745 42.7419 612.967 40.7543 612.967 38.3346C612.967 36.0877 613.745 34.1865 615.301 32.631C616.856 30.9026 618.844 30.0385 621.263 30.0385C623.51 30.0385 625.412 30.9026 626.967 32.631C628.695 34.1865 629.56 36.0877 629.56 38.3346C629.56 40.7543 628.695 42.7419 626.967 44.2974C625.412 45.8529 623.51 46.6307 621.263 46.6307ZM637.856 46.6307C635.436 46.6307 633.448 45.8529 631.893 44.2974C630.337 42.7419 629.56 40.7543 629.56 38.3346C629.56 36.0877 630.337 34.1865 631.893 32.631C633.448 30.9026 635.436 30.0385 637.856 30.0385C640.103 30.0385 642.004 30.9026 643.559 32.631C645.288 34.1865 646.152 36.0877 646.152 38.3346C646.152 40.7543 645.288 42.7419 643.559 44.2974C642.004 45.8529 640.103 46.6307 637.856 46.6307ZM654.448 46.6307C652.028 46.6307 650.041 45.8529 648.485 44.2974C646.93 42.7419 646.152 40.7543 646.152 38.3346C646.152 36.0877 646.93 34.1865 648.485 32.631C650.041 30.9026 652.028 30.0385 654.448 30.0385C656.695 30.0385 658.596 30.9026 660.152 32.631C661.88 34.1865 662.744 36.0877 662.744 38.3346C662.744 40.7543 661.88 42.7419 660.152 44.2974C658.596 45.8529 656.695 46.6307 654.448 46.6307Z" fill="#1C1F1C"/>
<path d="M532.33 113C529.91 113 527.922 112.222 526.367 110.666C524.811 109.111 524.033 107.123 524.033 104.704C524.033 102.457 524.811 100.555 526.367 99C527.922 97.2716 529.91 96.4074 532.33 96.4074C534.576 96.4074 536.478 97.2716 538.033 99C539.762 100.555 540.626 102.457 540.626 104.704C540.626 107.123 539.762 109.111 538.033 110.666C536.478 112.222 534.576 113 532.33 113ZM548.922 113C546.502 113 544.514 112.222 542.959 110.666C541.403 109.111 540.626 107.123 540.626 104.704C540.626 102.457 541.403 100.555 542.959 99C544.514 97.2716 546.502 96.4074 548.922 96.4074C551.169 96.4074 553.07 97.2716 554.625 99C556.354 100.555 557.218 102.457 557.218 104.704C557.218 107.123 556.354 109.111 554.625 110.666C553.07 112.222 551.169 113 548.922 113ZM565.514 113C563.094 113 561.107 112.222 559.551 110.666C557.996 109.111 557.218 107.123 557.218 104.704C557.218 102.457 557.996 100.555 559.551 99C561.107 97.2716 563.094 96.4074 565.514 96.4074C567.761 96.4074 569.662 97.2716 571.218 99C572.946 100.555 573.81 102.457 573.81 104.704C573.81 107.123 572.946 109.111 571.218 110.666C569.662 112.222 567.761 113 565.514 113ZM582.106 113C579.687 113 577.699 112.222 576.143 110.666C574.588 109.111 573.81 107.123 573.81 104.704C573.81 102.457 574.588 100.555 576.143 99C577.699 97.2716 579.687 96.4074 582.106 96.4074C584.353 96.4074 586.254 97.2716 587.81 99C589.538 100.555 590.402 102.457 590.402 104.704C590.402 107.123 589.538 109.111 587.81 110.666C586.254 112.222 584.353 113 582.106 113ZM548.922 96.4074C546.502 96.4074 544.514 95.6297 542.959 94.0742C541.403 92.5186 540.626 90.531 540.626 88.1113C540.626 85.8645 541.403 83.9633 542.959 82.4077C544.514 80.6794 546.502 79.8152 548.922 79.8152C551.169 79.8152 553.07 80.6794 554.625 82.4077C556.354 83.9633 557.218 85.8645 557.218 88.1113C557.218 90.531 556.354 92.5186 554.625 94.0742C553.07 95.6297 551.169 96.4074 548.922 96.4074ZM565.514 79.8152C563.094 79.8152 561.107 79.0374 559.551 77.4819C557.996 75.9264 557.218 73.9388 557.218 71.5191C557.218 69.2722 557.996 67.371 559.551 65.8155C561.107 64.0871 563.094 63.2229 565.514 63.2229C567.761 63.2229 569.662 64.0871 571.218 65.8155C572.946 67.371 573.81 69.2722 573.81 71.5191C573.81 73.9388 572.946 75.9264 571.218 77.4819C569.662 79.0374 567.761 79.8152 565.514 79.8152ZM532.33 63.2229C529.91 63.2229 527.922 62.4452 526.367 60.8897C524.811 59.3341 524.033 57.3465 524.033 54.9268C524.033 52.68 524.811 50.7788 526.367 49.2232C527.922 47.4949 529.91 46.6307 532.33 46.6307C534.576 46.6307 536.478 47.4949 538.033 49.2232C539.762 50.7788 540.626 52.68 540.626 54.9268C540.626 57.3465 539.762 59.3341 538.033 60.8897C536.478 62.4452 534.576 63.2229 532.33 63.2229ZM582.106 63.2229C579.687 63.2229 577.699 62.4452 576.143 60.8897C574.588 59.3341 573.81 57.3465 573.81 54.9268C573.81 52.68 574.588 50.7788 576.143 49.2232C577.699 47.4949 579.687 46.6307 582.106 46.6307C584.353 46.6307 586.254 47.4949 587.81 49.2232C589.538 50.7788 590.402 52.68 590.402 54.9268C590.402 57.3465 589.538 59.3341 587.81 60.8897C586.254 62.4452 584.353 63.2229 582.106 63.2229ZM548.922 46.6307C546.502 46.6307 544.514 45.8529 542.959 44.2974C541.403 42.7419 540.626 40.7543 540.626 38.3346C540.626 36.0877 541.403 34.1865 542.959 32.631C544.514 30.9026 546.502 30.0385 548.922 30.0385C551.169 30.0385 553.07 30.9026 554.625 32.631C556.354 34.1865 557.218 36.0877 557.218 38.3346C557.218 40.7543 556.354 42.7419 554.625 44.2974C553.07 45.8529 551.169 46.6307 548.922 46.6307ZM565.514 46.6307C563.094 46.6307 561.107 45.8529 559.551 44.2974C557.996 42.7419 557.218 40.7543 557.218 38.3346C557.218 36.0877 557.996 34.1865 559.551 32.631C561.107 30.9026 563.094 30.0385 565.514 30.0385C567.761 30.0385 569.662 30.9026 571.218 32.631C572.946 34.1865 573.81 36.0877 573.81 38.3346C573.81 40.7543 572.946 42.7419 571.218 44.2974C569.662 45.8529 567.761 46.6307 565.514 46.6307Z" fill="#1C1F1C"/>
</svg>
