<svg width="610" height="116" viewBox="0 0 610 116" fill="none" xmlns="http://www.w3.org/2000/svg">
<path d="M345.836 113.07C343.417 113.07 341.429 112.292 339.873 110.737C338.318 109.181 337.54 107.194 337.54 104.774C337.54 102.527 338.318 100.626 339.873 99.0704C341.429 97.342 343.417 96.4779 345.836 96.4779C348.083 96.4779 349.984 97.342 351.54 99.0704C353.268 100.626 354.132 102.527 354.132 104.774C354.132 107.194 353.268 109.181 351.54 110.737C349.984 112.292 348.083 113.07 345.836 113.07ZM362.429 113.07C360.009 113.07 358.021 112.292 356.466 110.737C354.91 109.181 354.132 107.194 354.132 104.774C354.132 102.527 354.91 100.626 356.466 99.0704C358.021 97.342 360.009 96.4779 362.429 96.4779C364.675 96.4779 366.577 97.342 368.132 99.0704C369.861 100.626 370.725 102.527 370.725 104.774C370.725 107.194 369.861 109.181 368.132 110.737C366.577 112.292 364.675 113.07 362.429 113.07ZM379.021 113.07C376.601 113.07 374.613 112.292 373.058 110.737C371.502 109.181 370.725 107.194 370.725 104.774C370.725 102.527 371.502 100.626 373.058 99.0704C374.613 97.342 376.601 96.4779 379.021 96.4779C381.268 96.4779 383.169 97.342 384.724 99.0704C386.453 100.626 387.317 102.527 387.317 104.774C387.317 107.194 386.453 109.181 384.724 110.737C383.169 112.292 381.268 113.07 379.021 113.07ZM395.613 113.07C393.193 113.07 391.206 112.292 389.65 110.737C388.095 109.181 387.317 107.194 387.317 104.774C387.317 102.527 388.095 100.626 389.65 99.0704C391.206 97.342 393.193 96.4779 395.613 96.4779C397.86 96.4779 399.761 97.342 401.317 99.0704C403.045 100.626 403.909 102.527 403.909 104.774C403.909 107.194 403.045 109.181 401.317 110.737C399.761 112.292 397.86 113.07 395.613 113.07ZM362.429 96.4779C360.009 96.4779 358.021 95.7001 356.466 94.1446C354.91 92.5891 354.132 90.6015 354.132 88.1818C354.132 85.9349 354.91 84.0337 356.466 82.4782C358.021 80.7498 360.009 79.8856 362.429 79.8856C364.675 79.8856 366.577 80.7498 368.132 82.4782C369.861 84.0337 370.725 85.9349 370.725 88.1818C370.725 90.6015 369.861 92.5891 368.132 94.1446C366.577 95.7001 364.675 96.4779 362.429 96.4779ZM379.021 79.8856C376.601 79.8856 374.613 79.1079 373.058 77.5523C371.502 75.9968 370.725 74.0092 370.725 71.5895C370.725 69.3426 371.502 67.4414 373.058 65.8859C374.613 64.1576 376.601 63.2934 379.021 63.2934C381.268 63.2934 383.169 64.1576 384.724 65.8859C386.453 67.4414 387.317 69.3426 387.317 71.5895C387.317 74.0092 386.453 75.9968 384.724 77.5523C383.169 79.1079 381.268 79.8856 379.021 79.8856ZM345.836 63.2934C343.417 63.2934 341.429 62.5156 339.873 60.9601C338.318 59.4046 337.54 57.417 337.54 54.9973C337.54 52.7504 338.318 50.8492 339.873 49.2937C341.429 47.5653 343.417 46.7011 345.836 46.7011C348.083 46.7011 349.984 47.5653 351.54 49.2937C353.268 50.8492 354.132 52.7504 354.132 54.9973C354.132 57.417 353.268 59.4046 351.54 60.9601C349.984 62.5156 348.083 63.2934 345.836 63.2934ZM395.613 63.2934C393.193 63.2934 391.206 62.5156 389.65 60.9601C388.095 59.4046 387.317 57.417 387.317 54.9973C387.317 52.7504 388.095 50.8492 389.65 49.2937C391.206 47.5653 393.193 46.7011 395.613 46.7011C397.86 46.7011 399.761 47.5653 401.317 49.2937C403.045 50.8492 403.909 52.7504 403.909 54.9973C403.909 57.417 403.045 59.4046 401.317 60.9601C399.761 62.5156 397.86 63.2934 395.613 63.2934ZM362.429 46.7011C360.009 46.7011 358.021 45.9234 356.466 44.3679C354.91 42.8123 354.132 40.8247 354.132 38.405C354.132 36.1581 354.91 34.2569 356.466 32.7014C358.021 30.9731 360.009 30.1089 362.429 30.1089C364.675 30.1089 366.577 30.9731 368.132 32.7014C369.861 34.2569 370.725 36.1581 370.725 38.405C370.725 40.8247 369.861 42.8123 368.132 44.3679C366.577 45.9234 364.675 46.7011 362.429 46.7011ZM379.021 46.7011C376.601 46.7011 374.613 45.9234 373.058 44.3679C371.502 42.8123 370.725 40.8247 370.725 38.405C370.725 36.1581 371.502 34.2569 373.058 32.7014C374.613 30.9731 376.601 30.1089 379.021 30.1089C381.268 30.1089 383.169 30.9731 384.724 32.7014C386.453 34.2569 387.317 36.1581 387.317 38.405C387.317 40.8247 386.453 42.8123 384.724 44.3679C383.169 45.9234 381.268 46.7011 379.021 46.7011Z" fill="#1C1F1C"/>
<path d="M290.087 113.07C287.667 113.07 285.68 112.292 284.124 110.737C282.569 109.181 281.791 107.194 281.791 104.774C281.791 102.527 282.569 100.626 284.124 99.0704C285.68 97.342 287.667 96.4779 290.087 96.4779C292.334 96.4779 294.235 97.342 295.79 99.0704C297.519 100.626 298.383 102.527 298.383 104.774C298.383 107.194 297.519 109.181 295.79 110.737C294.235 112.292 292.334 113.07 290.087 113.07ZM306.679 113.07C304.259 113.07 302.272 112.292 300.716 110.737C299.161 109.181 298.383 107.194 298.383 104.774C298.383 102.527 299.161 100.626 300.716 99.0704C302.272 97.342 304.259 96.4779 306.679 96.4779C308.926 96.4779 310.827 97.342 312.383 99.0704C314.111 100.626 314.975 102.527 314.975 104.774C314.975 107.194 314.111 109.181 312.383 110.737C310.827 112.292 308.926 113.07 306.679 113.07ZM273.495 96.4779C271.075 96.4779 269.087 95.7001 267.532 94.1446C265.976 92.5891 265.199 90.6015 265.199 88.1818C265.199 85.9349 265.976 84.0337 267.532 82.4782C269.087 80.7498 271.075 79.8856 273.495 79.8856C275.742 79.8856 277.643 80.7498 279.198 82.4782C280.927 84.0337 281.791 85.9349 281.791 88.1818C281.791 90.6015 280.927 92.5891 279.198 94.1446C277.643 95.7001 275.742 96.4779 273.495 96.4779ZM323.271 96.4779C320.852 96.4779 318.864 95.7001 317.309 94.1446C315.753 92.5891 314.975 90.6015 314.975 88.1818C314.975 85.9349 315.753 84.0337 317.309 82.4782C318.864 80.7498 320.852 79.8856 323.271 79.8856C325.518 79.8856 327.419 80.7498 328.975 82.4782C330.703 84.0337 331.567 85.9349 331.567 88.1818C331.567 90.6015 330.703 92.5891 328.975 94.1446C327.419 95.7001 325.518 96.4779 323.271 96.4779ZM273.495 79.8856C271.075 79.8856 269.087 79.1079 267.532 77.5523C265.976 75.9968 265.199 74.0092 265.199 71.5895C265.199 69.3426 265.976 67.4414 267.532 65.8859C269.087 64.1576 271.075 63.2934 273.495 63.2934C275.742 63.2934 277.643 64.1576 279.198 65.8859C280.927 67.4414 281.791 69.3426 281.791 71.5895C281.791 74.0092 280.927 75.9968 279.198 77.5523C277.643 79.1079 275.742 79.8856 273.495 79.8856ZM323.271 79.8856C320.852 79.8856 318.864 79.1079 317.309 77.5523C315.753 75.9968 314.975 74.0092 314.975 71.5895C314.975 69.3426 315.753 67.4414 317.309 65.8859C318.864 64.1576 320.852 63.2934 323.271 63.2934C325.518 63.2934 327.419 64.1576 328.975 65.8859C330.703 67.4414 331.567 69.3426 331.567 71.5895C331.567 74.0092 330.703 75.9968 328.975 77.5523C327.419 79.1079 325.518 79.8856 323.271 79.8856ZM273.495 63.2934C271.075 63.2934 269.087 62.5156 267.532 60.9601C265.976 59.4046 265.199 57.417 265.199 54.9973C265.199 52.7504 265.976 50.8492 267.532 49.2937C269.087 47.5653 271.075 46.7011 273.495 46.7011C275.742 46.7011 277.643 47.5653 279.198 49.2937C280.927 50.8492 281.791 52.7504 281.791 54.9973C281.791 57.417 280.927 59.4046 279.198 60.9601C277.643 62.5156 275.742 63.2934 273.495 63.2934ZM323.271 63.2934C320.852 63.2934 318.864 62.5156 317.309 60.9601C315.753 59.4046 314.975 57.417 314.975 54.9973C314.975 52.7504 315.753 50.8492 317.309 49.2937C318.864 47.5653 320.852 46.7011 323.271 46.7011C325.518 46.7011 327.419 47.5653 328.975 49.2937C330.703 50.8492 331.567 52.7504 331.567 54.9973C331.567 57.417 330.703 59.4046 328.975 60.9601C327.419 62.5156 325.518 63.2934 323.271 63.2934ZM290.087 46.7011C287.667 46.7011 285.68 45.9234 284.124 44.3679C282.569 42.8123 281.791 40.8247 281.791 38.405C281.791 36.1581 282.569 34.2569 284.124 32.7014C285.68 30.9731 287.667 30.1089 290.087 30.1089C292.334 30.1089 294.235 30.9731 295.79 32.7014C297.519 34.2569 298.383 36.1581 298.383 38.405C298.383 40.8247 297.519 42.8123 295.79 44.3679C294.235 45.9234 292.334 46.7011 290.087 46.7011ZM306.679 46.7011C304.259 46.7011 302.272 45.9234 300.716 44.3679C299.161 42.8123 298.383 40.8247 298.383 38.405C298.383 36.1581 299.161 34.2569 300.716 32.7014C302.272 30.9731 304.259 30.1089 306.679 30.1089C308.926 30.1089 310.827 30.9731 312.383 32.7014C314.111 34.2569 314.975 36.1581 314.975 38.405C314.975 40.8247 314.111 42.8123 312.383 44.3679C310.827 45.9234 308.926 46.7011 306.679 46.7011Z" fill="#1C1F1C"/>
<path d="M250.93 113.069C248.511 113.069 246.523 112.292 244.967 110.736C243.412 109.18 242.634 107.193 242.634 104.773C242.634 102.526 243.412 100.625 244.967 99.0696C246.523 97.3412 248.511 96.4771 250.93 96.4771C253.177 96.4771 255.078 97.3412 256.634 99.0696C258.362 100.625 259.226 102.526 259.226 104.773C259.226 107.193 258.362 109.18 256.634 110.736C255.078 112.292 253.177 113.069 250.93 113.069Z" fill="#1C1F1C"/>
<path d="M445.797 49.847C448.217 49.847 450.204 49.0693 451.76 47.5138C453.315 45.9582 454.093 43.9706 454.093 41.5509C454.093 39.3041 453.315 37.4029 451.76 35.8473C450.204 34.119 448.217 33.2548 445.797 33.2548C443.55 33.2548 441.649 34.119 440.093 35.8473C438.365 37.4029 437.501 39.3041 437.501 41.5509C437.501 43.9706 438.365 45.9582 440.093 47.5138C441.649 49.0693 443.55 49.847 445.797 49.847ZM462.389 33.2548C464.809 33.2548 466.797 32.477 468.352 30.9215C469.908 29.366 470.685 27.3784 470.685 24.9587C470.685 22.7118 469.908 20.8106 468.352 19.2551C466.797 17.5267 464.809 16.6626 462.389 16.6626C460.142 16.6626 458.241 17.5267 456.686 19.2551C454.957 20.8106 454.093 22.7118 454.093 24.9587C454.093 27.3784 454.957 29.366 456.686 30.9215C458.241 32.477 460.142 33.2548 462.389 33.2548ZM462.389 16.6626C464.809 16.6626 466.797 15.8848 468.352 14.3293C469.908 12.7738 470.685 10.7861 470.685 8.36644C470.685 6.11957 469.908 4.21837 468.352 2.66285C466.797 0.934488 464.809 0.0703125 462.389 0.0703125C460.142 0.0703125 458.241 0.934488 456.686 2.66285C454.957 4.21837 454.093 6.11957 454.093 8.36644C454.093 10.7861 454.957 12.7738 456.686 14.3293C458.241 15.8848 460.142 16.6626 462.389 16.6626Z" fill="#1C1F1C"/>
<path d="M567.877 113.07C565.458 113.07 563.47 112.292 561.915 110.737C560.359 109.181 559.581 107.194 559.581 104.774C559.581 102.527 560.359 100.626 561.915 99.0704C563.47 97.342 565.458 96.4779 567.877 96.4779C570.124 96.4779 572.025 97.342 573.581 99.0704C575.309 100.626 576.174 102.527 576.174 104.774C576.174 107.194 575.309 109.181 573.581 110.737C572.025 112.292 570.124 113.07 567.877 113.07ZM584.47 113.07C582.05 113.07 580.062 112.292 578.507 110.737C576.951 109.181 576.174 107.194 576.174 104.774C576.174 102.527 576.951 100.626 578.507 99.0704C580.062 97.342 582.05 96.4779 584.47 96.4779C586.716 96.4779 588.618 97.342 590.173 99.0704C591.902 100.626 592.766 102.527 592.766 104.774C592.766 107.194 591.902 109.181 590.173 110.737C588.618 112.292 586.716 113.07 584.47 113.07ZM551.285 96.4779C548.865 96.4779 546.878 95.7001 545.322 94.1446C543.767 92.5891 542.989 90.6015 542.989 88.1818C542.989 85.9349 543.767 84.0337 545.322 82.4782C546.878 80.7498 548.865 79.8856 551.285 79.8856C553.532 79.8856 555.433 80.7498 556.989 82.4782C558.717 84.0337 559.581 85.9349 559.581 88.1818C559.581 90.6015 558.717 92.5891 556.989 94.1446C555.433 95.7001 553.532 96.4779 551.285 96.4779ZM601.062 96.4779C598.642 96.4779 596.655 95.7001 595.099 94.1446C593.544 92.5891 592.766 90.6015 592.766 88.1818C592.766 85.9349 593.544 84.0337 595.099 82.4782C596.655 80.7498 598.642 79.8856 601.062 79.8856C603.309 79.8856 605.21 80.7498 606.765 82.4782C608.494 84.0337 609.358 85.9349 609.358 88.1818C609.358 90.6015 608.494 92.5891 606.765 94.1446C605.21 95.7001 603.309 96.4779 601.062 96.4779ZM551.285 79.8856C548.865 79.8856 546.878 79.1079 545.322 77.5523C543.767 75.9968 542.989 74.0092 542.989 71.5895C542.989 69.3426 543.767 67.4414 545.322 65.8859C546.878 64.1576 548.865 63.2934 551.285 63.2934C553.532 63.2934 555.433 64.1576 556.989 65.8859C558.717 67.4414 559.581 69.3426 559.581 71.5895C559.581 74.0092 558.717 75.9968 556.989 77.5523C555.433 79.1079 553.532 79.8856 551.285 79.8856ZM567.877 79.8856C565.458 79.8856 563.47 79.1079 561.915 77.5523C560.359 75.9968 559.581 74.0092 559.581 71.5895C559.581 69.3426 560.359 67.4414 561.915 65.8859C563.47 64.1576 565.458 63.2934 567.877 63.2934C570.124 63.2934 572.025 64.1576 573.581 65.8859C575.309 67.4414 576.174 69.3426 576.174 71.5895C576.174 74.0092 575.309 75.9968 573.581 77.5523C572.025 79.1079 570.124 79.8856 567.877 79.8856ZM584.47 79.8856C582.05 79.8856 580.062 79.1079 578.507 77.5523C576.951 75.9968 576.174 74.0092 576.174 71.5895C576.174 69.3426 576.951 67.4414 578.507 65.8859C580.062 64.1576 582.05 63.2934 584.47 63.2934C586.716 63.2934 588.618 64.1576 590.173 65.8859C591.902 67.4414 592.766 69.3426 592.766 71.5895C592.766 74.0092 591.902 75.9968 590.173 77.5523C588.618 79.1079 586.716 79.8856 584.47 79.8856ZM551.285 63.2934C548.865 63.2934 546.878 62.5156 545.322 60.9601C543.767 59.4046 542.989 57.417 542.989 54.9973C542.989 52.7504 543.767 50.8492 545.322 49.2937C546.878 47.5653 548.865 46.7011 551.285 46.7011C553.532 46.7011 555.433 47.5653 556.989 49.2937C558.717 50.8492 559.581 52.7504 559.581 54.9973C559.581 57.417 558.717 59.4046 556.989 60.9601C555.433 62.5156 553.532 63.2934 551.285 63.2934ZM567.877 46.7011C565.458 46.7011 563.47 45.9234 561.915 44.3679C560.359 42.8123 559.581 40.8247 559.581 38.405C559.581 36.1581 560.359 34.2569 561.915 32.7014C563.47 30.9731 565.458 30.1089 567.877 30.1089C570.124 30.1089 572.025 30.9731 573.581 32.7014C575.309 34.2569 576.174 36.1581 576.174 38.405C576.174 40.8247 575.309 42.8123 573.581 44.3679C572.025 45.9234 570.124 46.7011 567.877 46.7011ZM584.47 46.7011C582.05 46.7011 580.062 45.9234 578.507 44.3679C576.951 42.8123 576.174 40.8247 576.174 38.405C576.174 36.1581 576.951 34.2569 578.507 32.7014C580.062 30.9731 582.05 30.1089 584.47 30.1089C586.716 30.1089 588.618 30.9731 590.173 32.7014C591.902 34.2569 592.766 36.1581 592.766 38.405C592.766 40.8247 591.902 42.8123 590.173 44.3679C588.618 45.9234 586.716 46.7011 584.47 46.7011ZM601.062 46.7011C598.642 46.7011 596.655 45.9234 595.099 44.3679C593.544 42.8123 592.766 40.8247 592.766 38.405C592.766 36.1581 593.544 34.2569 595.099 32.7014C596.655 30.9731 598.642 30.1089 601.062 30.1089C603.309 30.1089 605.21 30.9731 606.765 32.7014C608.494 34.2569 609.358 36.1581 609.358 38.405C609.358 40.8247 608.494 42.8123 606.765 44.3679C605.21 45.9234 603.309 46.7011 601.062 46.7011Z" fill="#1C1F1C"/>
<path d="M478.943 113.07C476.524 113.07 474.536 112.292 472.981 110.737C471.425 109.181 470.647 107.194 470.647 104.774C470.647 102.527 471.425 100.626 472.981 99.0704C474.536 97.342 476.524 96.4779 478.943 96.4779C481.19 96.4779 483.091 97.342 484.647 99.0704C486.375 100.626 487.24 102.527 487.24 104.774C487.24 107.194 486.375 109.181 484.647 110.737C483.091 112.292 481.19 113.07 478.943 113.07ZM495.536 113.07C493.116 113.07 491.128 112.292 489.573 110.737C488.017 109.181 487.24 107.194 487.24 104.774C487.24 102.527 488.017 100.626 489.573 99.0704C491.128 97.342 493.116 96.4779 495.536 96.4779C497.783 96.4779 499.684 97.342 501.239 99.0704C502.968 100.626 503.832 102.527 503.832 104.774C503.832 107.194 502.968 109.181 501.239 110.737C499.684 112.292 497.783 113.07 495.536 113.07ZM512.128 113.07C509.708 113.07 507.721 112.292 506.165 110.737C504.61 109.181 503.832 107.194 503.832 104.774C503.832 102.527 504.61 100.626 506.165 99.0704C507.721 97.342 509.708 96.4779 512.128 96.4779C514.375 96.4779 516.276 97.342 517.832 99.0704C519.56 100.626 520.424 102.527 520.424 104.774C520.424 107.194 519.56 109.181 517.832 110.737C516.276 112.292 514.375 113.07 512.128 113.07ZM528.72 113.07C526.3 113.07 524.313 112.292 522.757 110.737C521.202 109.181 520.424 107.194 520.424 104.774C520.424 102.527 521.202 100.626 522.757 99.0704C524.313 97.342 526.3 96.4779 528.72 96.4779C530.967 96.4779 532.868 97.342 534.424 99.0704C536.152 100.626 537.016 102.527 537.016 104.774C537.016 107.194 536.152 109.181 534.424 110.737C532.868 112.292 530.967 113.07 528.72 113.07ZM495.536 96.4779C493.116 96.4779 491.128 95.7001 489.573 94.1446C488.017 92.5891 487.24 90.6015 487.24 88.1818C487.24 85.9349 488.017 84.0337 489.573 82.4782C491.128 80.7498 493.116 79.8856 495.536 79.8856C497.783 79.8856 499.684 80.7498 501.239 82.4782C502.968 84.0337 503.832 85.9349 503.832 88.1818C503.832 90.6015 502.968 92.5891 501.239 94.1446C499.684 95.7001 497.783 96.4779 495.536 96.4779ZM512.128 79.8856C509.708 79.8856 507.721 79.1079 506.165 77.5523C504.61 75.9968 503.832 74.0092 503.832 71.5895C503.832 69.3426 504.61 67.4414 506.165 65.8859C507.721 64.1576 509.708 63.2934 512.128 63.2934C514.375 63.2934 516.276 64.1576 517.832 65.8859C519.56 67.4414 520.424 69.3426 520.424 71.5895C520.424 74.0092 519.56 75.9968 517.832 77.5523C516.276 79.1079 514.375 79.8856 512.128 79.8856ZM478.943 63.2934C476.524 63.2934 474.536 62.5156 472.981 60.9601C471.425 59.4046 470.647 57.417 470.647 54.9973C470.647 52.7504 471.425 50.8492 472.981 49.2937C474.536 47.5653 476.524 46.7011 478.943 46.7011C481.19 46.7011 483.091 47.5653 484.647 49.2937C486.375 50.8492 487.24 52.7504 487.24 54.9973C487.24 57.417 486.375 59.4046 484.647 60.9601C483.091 62.5156 481.19 63.2934 478.943 63.2934ZM528.72 63.2934C526.3 63.2934 524.313 62.5156 522.757 60.9601C521.202 59.4046 520.424 57.417 520.424 54.9973C520.424 52.7504 521.202 50.8492 522.757 49.2937C524.313 47.5653 526.3 46.7011 528.72 46.7011C530.967 46.7011 532.868 47.5653 534.424 49.2937C536.152 50.8492 537.016 52.7504 537.016 54.9973C537.016 57.417 536.152 59.4046 534.424 60.9601C532.868 62.5156 530.967 63.2934 528.72 63.2934ZM495.536 46.7011C493.116 46.7011 491.128 45.9234 489.573 44.3679C488.017 42.8123 487.24 40.8247 487.24 38.405C487.24 36.1581 488.017 34.2569 489.573 32.7014C491.128 30.9731 493.116 30.1089 495.536 30.1089C497.783 30.1089 499.684 30.9731 501.239 32.7014C502.968 34.2569 503.832 36.1581 503.832 38.405C503.832 40.8247 502.968 42.8123 501.239 44.3679C499.684 45.9234 497.783 46.7011 495.536 46.7011ZM512.128 46.7011C509.708 46.7011 507.721 45.9234 506.165 44.3679C504.61 42.8123 503.832 40.8247 503.832 38.405C503.832 36.1581 504.61 34.2569 506.165 32.7014C507.721 30.9731 509.708 30.1089 512.128 30.1089C514.375 30.1089 516.276 30.9731 517.832 32.7014C519.56 34.2569 520.424 36.1581 520.424 38.405C520.424 40.8247 519.56 42.8123 517.832 44.3679C516.276 45.9234 514.375 46.7011 512.128 46.7011Z" fill="#1C1F1C"/>
<circle cx="47.2444" cy="39.293" r="8.11719" fill="#1C1F1C"/>
<circle cx="47.2444" cy="55.5273" r="8.11719" fill="#1C1F1C"/>
<circle cx="158.082" cy="47.1367" r="8.11719" fill="#1C1F1C"/>
<circle cx="206.82" cy="45.5781" r="8.11719" fill="#1C1F1C"/>
<circle cx="47.2444" cy="104.344" r="8.11719" fill="#1C1F1C"/>
<circle cx="47.2444" cy="88.1094" r="8.11719" fill="#1C1F1C"/>
<circle cx="16.6721" cy="55.5273" r="8.11719" fill="#1C1F1C"/>
<circle cx="47.6411" cy="71.8315" r="8.11719" transform="rotate(39.0413 47.6411 71.8315)" fill="#1C1F1C"/>
<circle cx="158.479" cy="63.644" r="8.11719" transform="rotate(39.0413 158.479 63.644)" fill="#1C1F1C"/>
<circle cx="207.217" cy="62.0854" r="8.11719" transform="rotate(39.0413 207.217 62.0854)" fill="#1C1F1C"/>
<circle cx="112.317" cy="71.4213" r="8.11719" transform="rotate(39.0413 112.317 71.4213)" fill="#1C1F1C"/>
<circle cx="174.735" cy="38.6791" r="8.11719" transform="rotate(39.0413 174.735 38.6791)" fill="#1C1F1C"/>
<circle cx="174.735" cy="104.503" r="8.11719" transform="rotate(39.0413 174.735 104.503)" fill="#1C1F1C"/>
<circle cx="174.735" cy="76.8393" r="8.11719" transform="rotate(39.0413 174.735 76.8393)" fill="#1C1F1C"/>
<circle cx="65.438" cy="71.601" r="8.11719" transform="rotate(39.0413 65.438 71.601)" fill="#1C1F1C"/>
<circle cx="128.505" cy="71.4213" r="8.11719" transform="rotate(39.0413 128.505 71.4213)" fill="#1C1F1C"/>
<circle cx="190.922" cy="38.6791" r="8.11719" transform="rotate(39.0413 190.922 38.6791)" fill="#1C1F1C"/>
<circle cx="190.922" cy="104.503" r="8.11719" transform="rotate(39.0413 190.922 104.503)" fill="#1C1F1C"/>
<circle cx="190.922" cy="76.8393" r="8.11719" transform="rotate(39.0413 190.922 76.8393)" fill="#1C1F1C"/>
<circle cx="207.184" cy="78.4213" r="8.11719" transform="rotate(39.0413 207.184 78.4213)" fill="#1C1F1C"/>
<circle cx="207.184" cy="94.644" r="8.11719" transform="rotate(39.0413 207.184 94.644)" fill="#1C1F1C"/>
<circle cx="29.5549" cy="42.9297" r="8.11719" fill="#1C1F1C"/>
<circle cx="11.6958" cy="72.6127" r="8.11719" transform="rotate(39.0413 11.6958 72.6127)" fill="#1C1F1C"/>
<circle cx="29.6119" cy="72.1713" r="8.11719" transform="rotate(39.0413 29.6119 72.1713)" fill="#1C1F1C"/>
<circle cx="96.0555" cy="71.601" r="8.11719" transform="rotate(39.0413 96.0555 71.601)" fill="#1C1F1C"/>
</svg>
