<svg width="909" height="151" viewBox="0 0 909 151" fill="none" xmlns="http://www.w3.org/2000/svg">
<path d="M909 151H0V0H909V151ZM870.408 107.328V126.172L872.377 128.141H882.361C882.361 133.203 881.377 137.141 879.408 139.812C877.439 142.344 874.486 144.172 870.549 145.297V150.781C874.346 150.219 877.721 149.234 880.533 148.109C883.346 146.844 885.736 145.297 887.705 143.328C889.533 141.219 890.939 138.969 891.924 136.578C892.768 134.047 893.33 131.234 893.33 128V107.609L891.221 105.5H872.518L870.408 107.328ZM331.499 16.2031C323.624 16.2031 316.733 17.75 310.546 20.8438C304.358 23.9375 299.155 28.0156 294.937 33.0781C290.577 38.4219 287.343 44.4688 285.093 51.5C282.843 58.5312 281.718 66.125 281.718 74.1406C281.718 82.1562 282.843 89.6094 285.093 96.5C287.343 103.391 290.577 109.438 294.937 114.5C299.155 119.562 304.358 123.641 310.546 126.453C316.733 129.266 323.624 130.812 331.499 130.812C343.593 130.812 353.999 127.016 362.718 119.141C371.437 111.406 375.937 99.875 375.937 84.6875V69.9219H335.718V85.3906H358.78V87.7812C358.218 95.9375 355.546 102.266 350.905 106.766C346.124 111.266 339.655 113.516 331.499 113.516C325.874 113.516 321.233 112.531 317.437 110.281C313.499 108.172 310.405 105.219 307.874 101.562C305.343 97.9062 303.655 93.6875 302.53 88.9062C301.405 84.125 300.843 79.2031 300.843 74.1406C300.843 68.9375 301.405 63.875 302.53 58.9531C303.655 54.0312 305.343 49.6719 307.874 46.0156C310.405 42.5 313.499 39.6875 317.437 37.4375C321.233 35.1875 325.874 34.0625 331.499 34.0625C338.108 34.0625 343.452 35.8906 347.671 39.4062C351.749 43.0625 354.421 47.5625 355.827 52.9062H374.249C373.687 47.4219 372.14 42.5 369.608 38C367.077 33.6406 363.983 29.8438 360.187 26.4688C356.249 23.2344 351.89 20.7031 346.968 18.875C342.046 17.1875 336.843 16.2031 331.499 16.2031ZM819.637 16.2031C814.855 16.2031 810.215 16.9062 805.715 18.1719C801.215 19.5781 797.137 21.5469 793.621 24.0781C790.105 26.6094 787.293 29.9844 785.184 34.0625C782.934 38.2812 781.949 43.2031 781.949 48.9688C781.949 54.0312 782.793 58.25 784.762 61.625C786.59 65.1406 789.121 67.9531 792.496 70.2031C795.73 72.4531 799.527 74.4219 804.027 75.8281C808.387 77.375 813.168 78.7812 818.371 80.0469C822.309 81.0312 825.965 82.0156 829.34 83.1406C832.715 84.2656 835.387 85.3906 837.637 86.7969C839.887 88.3438 841.715 90.0312 842.98 92C844.246 93.9688 844.949 96.3594 844.949 99.1719C844.949 102.266 844.105 104.797 842.699 106.625C841.293 108.594 839.465 110 837.215 110.984C834.965 112.109 832.574 112.953 829.902 113.375C827.23 113.797 824.699 113.938 822.168 113.938C818.793 113.938 815.559 113.516 812.465 112.672C809.371 111.828 806.699 110.703 804.449 109.016C802.059 107.469 800.23 105.359 798.824 102.828C797.418 100.297 796.855 97.3438 796.855 93.9688H778.434C778.434 100.438 779.559 105.922 781.809 110.422C784.059 114.922 787.293 118.719 791.23 121.812C795.168 124.906 799.668 127.297 804.871 128.703C810.074 130.109 815.559 130.812 821.465 130.812C827.371 130.812 832.996 130.109 838.059 128.844C843.121 127.578 847.621 125.469 851.418 122.656C855.074 119.844 858.027 116.188 860.277 111.828C862.387 107.609 863.512 102.406 863.512 96.5C863.512 92.2812 862.668 88.4844 861.121 85.1094C859.434 81.7344 857.324 78.9219 854.512 76.3906C851.699 74 848.324 71.8906 844.527 70.2031C840.73 68.5156 836.652 67.25 832.434 66.125C828.074 65 823.996 63.875 820.059 62.8906C816.121 62.0469 812.746 60.9219 809.793 59.5156C806.98 58.1094 804.59 56.2812 802.902 54.3125C801.215 52.3438 800.371 49.8125 800.371 46.7188C800.371 44.4688 800.793 42.5 801.777 40.8125C802.762 39.125 804.168 37.5781 805.855 36.4531C807.543 35.3281 809.371 34.3438 811.621 33.7812C813.871 33.2188 816.121 32.7969 818.512 32.7969C825.543 32.7969 831.027 34.2031 835.105 37.0156C839.184 39.8281 841.293 43.9062 841.574 49.5312H859.855C859.855 43.9062 858.73 38.8438 856.48 34.625C854.23 30.4062 851.418 27.0312 847.762 24.3594C844.105 21.5469 839.746 19.5781 834.965 18.1719C830.184 16.9062 824.98 16.2031 819.637 16.2031ZM15.7793 19.1562V128.141H34.9043V81.7344H79.4824V65.9844H34.9043V36.7344H86.373V19.1562H15.7793ZM95.2383 128.141H114.363V84.125H139.676C146.145 84.125 150.926 85.5312 154.301 88.2031C157.676 90.875 159.363 95.7969 159.504 102.969C159.504 108.312 159.785 113.234 160.348 117.734C160.91 122.375 161.613 125.891 162.738 128.141H182.285C181.16 126.453 180.316 123.5 179.473 119.141C178.629 114.922 178.207 109.578 177.926 103.391C177.504 95.5156 176.098 89.6094 173.566 85.3906C171.035 81.3125 167.098 78.5 161.754 77.0938C164.145 76.1094 166.395 74.8438 168.645 73.2969C170.754 71.75 172.582 69.7812 174.129 67.3906C175.816 65.1406 177.082 62.4688 177.926 59.375C178.77 56.2812 179.332 52.7656 179.332 48.6875C179.332 44.75 178.488 40.9531 177.082 37.2969C175.676 33.6406 173.566 30.5469 170.895 27.7344C168.082 25.2031 164.848 23.0938 161.051 21.5469C157.254 20 153.035 19.1563 148.535 19.1562H95.2383V128.141ZM182.854 128.141H202.963L211.822 103.25H252.885L261.182 128.141H281.432L242.9 19.1562H221.807L182.854 128.141ZM389.302 128.141H407.021V38.2812L436.692 128.141H451.88L481.411 38.2812L481.692 128.141H499.411V19.1562H470.161L445.271 101.422L418.552 19.1562H389.302V128.141ZM514.604 128.141H590.964V110.844H533.589V80.0469H585.198V64.0156H533.589V36.7344H589.698V19.1562H514.604V128.141ZM601.938 128.141H619.657V47.4219L667.329 128.141H687.438V19.1562H669.579V99.875L621.626 19.1562H601.938V128.141ZM694.615 36.7344H726.396V128.141H745.662V36.7344H777.443V19.1562H694.615V36.7344ZM247.822 88.0625H216.744L232.072 42.2188L247.822 88.0625ZM141.926 35.1875C154.02 35.1875 160.066 40.9531 160.066 52.2031C160.066 58.5312 158.52 63.0312 155.426 65.7031C152.332 68.5156 147.832 69.7812 141.926 69.7812H114.363V35.1875H141.926Z" fill="#FF3435"/>
</svg>
