<svg width="422" height="486" viewBox="0 0 422 486" fill="none" xmlns="http://www.w3.org/2000/svg">
<mask id="mask0_476_1948" style="mask-type:alpha" maskUnits="userSpaceOnUse" x="0" y="0" width="422" height="486">
<path d="M0 11.9532V97.0467L8.89339 393.654H161.224V485.5H421.082V105.794L350.781 19.2643H247.231V0H115.606L0 11.9532Z" fill="#D9D9D9"/>
</mask>
<g mask="url(#mask0_476_1948)">
<path opacity="0.34" d="M261.718 -267.539H328.876V20.7012L340.344 97.3916H386.703V443.189H211.435V355.424H42.9775V228.68H116.667V-2.9209H-409.233V-197.813H-198.511V-331.02H261.718V-267.539Z" fill="#FDFFF5"/>
<path d="M117.162 19.22V-222.402H46.2939" stroke="black" stroke-width="3.40553"/>
<rect x="191.731" y="138.934" width="61.841" height="23.4397" transform="rotate(90 191.731 138.934)" fill="black"/>
<rect x="136.279" y="329.137" width="25.8218" height="16.8711" transform="rotate(90 136.279 329.137)" fill="black"/>
<path d="M119.407 264.223L119.407 355.423" stroke="black" stroke-width="2.83794"/>
<path d="M277.959 362.93H242.625" stroke="black" stroke-width="2.83794"/>
<path d="M386.045 362.93H325.162" stroke="black" stroke-width="2.83794"/>
<rect x="358.024" y="179.113" width="28.018" height="183.819" fill="black"/>
<rect x="244.594" y="19.2227" width="101.708" height="79.9308" fill="black"/>
<rect x="236.432" y="59.7266" width="32.0555" height="65.9816" fill="black"/>
<rect x="236.432" y="121.535" width="8.6194" height="38.0152" fill="black"/>
<rect x="211.428" y="354.957" width="4.58181" height="88.1763" fill="black"/>
<rect x="243.878" y="354.961" width="9.38739" height="32.4453" transform="rotate(90 243.878 354.961)" fill="black"/>
<path d="M43.9404 354.96H242.432V182.824" stroke="black" stroke-width="2.83794"/>
<path d="M42.1341 356.445V228.659H117.183V-2.56407H-409.762V-199.473" stroke="black" stroke-width="3.40553"/>
<path d="M261.554 -332.723V-267.414H328.759V97.515H350.141H386.041V441.445H211.79" stroke="black" stroke-width="3.40553"/>
<path d="M170.166 59.7169V1.33984H245.878V26.4445" stroke="black" stroke-width="2.83794"/>
<path d="M118.744 59.4141H169.647" stroke="black" stroke-width="0.627579"/>
<path d="M118.744 45.4336H169.647" stroke="black" stroke-width="0.627579"/>
<path d="M118.744 31.457H169.647" stroke="black" stroke-width="0.627579"/>
<path d="M118.744 52.4258H169.647" stroke="black" stroke-width="0.627579"/>
<path d="M118.744 38.4414H169.647" stroke="black" stroke-width="0.627579"/>
<path d="M118.744 24.4609H169.647" stroke="black" stroke-width="0.627579"/>
<circle cx="208.102" cy="23.0443" r="10.5805" fill="#038DCC" fill-opacity="0.1" stroke="#229BD2" stroke-width="0.755751"/>
<path d="M203.907 22.1016C204.153 22.1016 204.413 22.0879 204.659 22.0469C204.905 22.0195 205.137 21.9512 205.343 21.8555C205.534 21.7598 205.698 21.623 205.821 21.4453C205.944 21.2812 206.012 21.0352 206.012 20.7344C206.012 20.2969 205.876 19.9551 205.602 19.6953C205.329 19.4355 204.973 19.2988 204.522 19.2988C204.003 19.2988 203.593 19.4766 203.319 19.8047C203.032 20.1465 202.895 20.5977 202.895 21.1719H201.173C201.173 20.6797 201.241 20.2012 201.405 19.7637C201.569 19.3262 201.788 18.957 202.075 18.6562C202.362 18.3418 202.718 18.0957 203.128 17.918C203.538 17.7402 203.989 17.6445 204.509 17.6445C204.946 17.6445 205.356 17.7129 205.753 17.8496C206.135 17.9863 206.477 18.1641 206.778 18.4102C207.079 18.6562 207.311 18.957 207.475 19.3125C207.639 19.668 207.735 20.0781 207.735 20.5156C207.735 21.0625 207.612 21.5137 207.38 21.8828C207.147 22.252 206.819 22.5117 206.382 22.6758C206.6 22.7578 206.819 22.8672 207.038 23.0039C207.243 23.1406 207.421 23.3184 207.585 23.5371C207.749 23.7559 207.872 23.9883 207.968 24.248C208.05 24.5078 208.104 24.7812 208.104 25.0684C208.104 25.6289 207.995 26.1211 207.803 26.5449C207.612 26.9688 207.339 27.3242 207.01 27.6113C206.682 27.8984 206.313 28.1035 205.876 28.2402C205.438 28.377 204.987 28.4453 204.522 28.4453C203.962 28.4453 203.456 28.3496 203.005 28.1855C202.553 28.0078 202.171 27.748 201.87 27.4199C201.542 27.0918 201.309 26.709 201.145 26.2441C200.981 25.793 200.899 25.2871 200.926 24.7402H202.649C202.676 25.3691 202.841 25.875 203.141 26.2578C203.442 26.6406 203.893 26.832 204.495 26.832C204.741 26.832 204.96 26.791 205.165 26.6953C205.37 26.6133 205.548 26.4902 205.698 26.3398C205.848 26.1895 205.971 26.0117 206.053 25.793C206.135 25.5879 206.19 25.3555 206.19 25.1094C206.19 24.7266 206.122 24.4395 205.999 24.2207C205.862 24.002 205.698 23.8379 205.493 23.7285C205.274 23.6328 205.028 23.5645 204.755 23.5371C204.481 23.5098 204.194 23.4961 203.907 23.4961V22.1016ZM214.777 19.4902H210.73L210.306 22.1152C210.579 21.7734 210.88 21.541 211.195 21.418C211.509 21.2949 211.906 21.2266 212.37 21.2266C212.781 21.2266 213.177 21.3223 213.546 21.4863C213.902 21.6641 214.216 21.9102 214.476 22.2109C214.736 22.5117 214.941 22.8809 215.091 23.3047C215.241 23.7422 215.324 24.207 215.324 24.7266C215.324 25.3008 215.228 25.8203 215.05 26.2852C214.859 26.75 214.613 27.1328 214.298 27.4609C213.97 27.7891 213.601 28.0352 213.163 28.1992C212.726 28.3633 212.247 28.4453 211.741 28.4453C211.249 28.4453 210.798 28.377 210.374 28.2539C209.937 28.1172 209.568 27.9121 209.24 27.6387C208.911 27.3652 208.638 27.0234 208.447 26.6133C208.255 26.2168 208.146 25.7656 208.146 25.2461H209.978C210.019 25.7109 210.197 26.0801 210.511 26.3809C210.825 26.6816 211.222 26.832 211.7 26.832C211.96 26.832 212.206 26.7773 212.425 26.668C212.644 26.5586 212.835 26.4082 212.999 26.2168C213.163 26.0254 213.286 25.793 213.368 25.5469C213.45 25.3008 213.505 25.0273 213.505 24.7266C213.505 24.4395 213.45 24.166 213.368 23.9199C213.273 23.6738 213.15 23.4688 212.986 23.291C212.822 23.0996 212.644 22.9629 212.425 22.8535C212.206 22.7578 211.96 22.7031 211.7 22.7031C211.318 22.7031 210.99 22.7715 210.743 22.9082C210.497 23.0449 210.279 23.25 210.115 23.5508H208.474L209.445 17.8496H214.777V19.4902Z" fill="#229BD2"/>
<circle cx="134.305" cy="176.333" r="10.5805" fill="#038DCC" fill-opacity="0.1" stroke="#229BD2" stroke-width="0.755751"/>
<path d="M130.11 175.391C130.356 175.391 130.616 175.377 130.862 175.336C131.108 175.309 131.341 175.24 131.546 175.145C131.737 175.049 131.901 174.912 132.024 174.734C132.147 174.57 132.216 174.324 132.216 174.023C132.216 173.586 132.079 173.244 131.805 172.984C131.532 172.725 131.176 172.588 130.725 172.588C130.206 172.588 129.796 172.766 129.522 173.094C129.235 173.436 129.098 173.887 129.098 174.461H127.376C127.376 173.969 127.444 173.49 127.608 173.053C127.772 172.615 127.991 172.246 128.278 171.945C128.565 171.631 128.921 171.385 129.331 171.207C129.741 171.029 130.192 170.934 130.712 170.934C131.149 170.934 131.559 171.002 131.956 171.139C132.339 171.275 132.68 171.453 132.981 171.699C133.282 171.945 133.514 172.246 133.678 172.602C133.843 172.957 133.938 173.367 133.938 173.805C133.938 174.352 133.815 174.803 133.583 175.172C133.35 175.541 133.022 175.801 132.585 175.965C132.803 176.047 133.022 176.156 133.241 176.293C133.446 176.43 133.624 176.607 133.788 176.826C133.952 177.045 134.075 177.277 134.171 177.537C134.253 177.797 134.307 178.07 134.307 178.357C134.307 178.918 134.198 179.41 134.007 179.834C133.815 180.258 133.542 180.613 133.214 180.9C132.885 181.188 132.516 181.393 132.079 181.529C131.641 181.666 131.19 181.734 130.725 181.734C130.165 181.734 129.659 181.639 129.208 181.475C128.757 181.297 128.374 181.037 128.073 180.709C127.745 180.381 127.512 179.998 127.348 179.533C127.184 179.082 127.102 178.576 127.13 178.029H128.852C128.88 178.658 129.044 179.164 129.344 179.547C129.645 179.93 130.096 180.121 130.698 180.121C130.944 180.121 131.163 180.08 131.368 179.984C131.573 179.902 131.751 179.779 131.901 179.629C132.051 179.479 132.175 179.301 132.257 179.082C132.339 178.877 132.393 178.645 132.393 178.398C132.393 178.016 132.325 177.729 132.202 177.51C132.065 177.291 131.901 177.127 131.696 177.018C131.477 176.922 131.231 176.854 130.958 176.826C130.684 176.799 130.397 176.785 130.11 176.785V175.391ZM141.226 172.902C140.706 173.381 140.228 173.955 139.79 174.625C139.339 175.295 138.97 176.02 138.697 176.799C138.423 177.592 138.245 178.303 138.15 178.932C138.04 179.561 137.986 180.436 137.986 181.529H136.017C136.072 180.381 136.167 179.506 136.29 178.904C136.413 178.316 136.618 177.646 136.892 176.895C137.179 176.143 137.534 175.432 137.972 174.748C138.396 174.064 138.847 173.408 139.325 172.779H134.65V171.139H141.226V172.902Z" fill="#229BD2"/>
<circle cx="134.305" cy="117.099" r="10.5805" fill="#038DCC" fill-opacity="0.1" stroke="#229BD2" stroke-width="0.755751"/>
<path d="M130.11 116.156C130.356 116.156 130.616 116.143 130.862 116.102C131.108 116.074 131.341 116.006 131.546 115.91C131.737 115.814 131.901 115.678 132.024 115.5C132.147 115.336 132.216 115.09 132.216 114.789C132.216 114.352 132.079 114.01 131.805 113.75C131.532 113.49 131.176 113.354 130.725 113.354C130.206 113.354 129.796 113.531 129.522 113.859C129.235 114.201 129.098 114.652 129.098 115.227H127.376C127.376 114.734 127.444 114.256 127.608 113.818C127.772 113.381 127.991 113.012 128.278 112.711C128.565 112.396 128.921 112.15 129.331 111.973C129.741 111.795 130.192 111.699 130.712 111.699C131.149 111.699 131.559 111.768 131.956 111.904C132.339 112.041 132.68 112.219 132.981 112.465C133.282 112.711 133.514 113.012 133.678 113.367C133.843 113.723 133.938 114.133 133.938 114.57C133.938 115.117 133.815 115.568 133.583 115.938C133.35 116.307 133.022 116.566 132.585 116.73C132.803 116.812 133.022 116.922 133.241 117.059C133.446 117.195 133.624 117.373 133.788 117.592C133.952 117.811 134.075 118.043 134.171 118.303C134.253 118.562 134.307 118.836 134.307 119.123C134.307 119.684 134.198 120.176 134.007 120.6C133.815 121.023 133.542 121.379 133.214 121.666C132.885 121.953 132.516 122.158 132.079 122.295C131.641 122.432 131.19 122.5 130.725 122.5C130.165 122.5 129.659 122.404 129.208 122.24C128.757 122.062 128.374 121.803 128.073 121.475C127.745 121.146 127.512 120.764 127.348 120.299C127.184 119.848 127.102 119.342 127.13 118.795H128.852C128.88 119.424 129.044 119.93 129.344 120.312C129.645 120.695 130.096 120.887 130.698 120.887C130.944 120.887 131.163 120.846 131.368 120.75C131.573 120.668 131.751 120.545 131.901 120.395C132.051 120.244 132.175 120.066 132.257 119.848C132.339 119.643 132.393 119.41 132.393 119.164C132.393 118.781 132.325 118.494 132.202 118.275C132.065 118.057 131.901 117.893 131.696 117.783C131.477 117.688 131.231 117.619 130.958 117.592C130.684 117.564 130.397 117.551 130.11 117.551V116.156ZM138.054 116.867C137.781 116.867 137.548 116.922 137.343 117.018C137.124 117.113 136.947 117.25 136.796 117.428C136.659 117.605 136.55 117.811 136.468 118.057C136.386 118.303 136.359 118.576 136.359 118.85C136.359 119.137 136.386 119.396 136.468 119.629C136.55 119.875 136.659 120.08 136.796 120.271C136.933 120.463 137.111 120.613 137.329 120.723C137.534 120.832 137.781 120.887 138.054 120.887C138.3 120.887 138.533 120.832 138.738 120.723C138.929 120.613 139.093 120.463 139.23 120.285C139.366 120.094 139.476 119.889 139.544 119.643C139.613 119.41 139.654 119.15 139.654 118.877C139.654 118.617 139.613 118.357 139.544 118.111C139.476 117.865 139.366 117.646 139.23 117.455C139.093 117.264 138.929 117.127 138.738 117.018C138.533 116.922 138.3 116.867 138.054 116.867ZM139.572 114.516C139.503 114.133 139.339 113.818 139.093 113.572C138.833 113.326 138.519 113.203 138.163 113.203C137.781 113.203 137.466 113.312 137.22 113.531C136.96 113.75 136.755 114.037 136.618 114.379C136.468 114.707 136.359 115.09 136.29 115.5C136.222 115.924 136.195 116.334 136.195 116.717C136.427 116.252 136.741 115.896 137.138 115.678C137.521 115.459 137.986 115.35 138.533 115.35C138.915 115.35 139.298 115.432 139.654 115.596C140.009 115.76 140.337 115.992 140.611 116.279C140.87 116.58 141.075 116.936 141.24 117.346C141.404 117.756 141.486 118.221 141.486 118.727C141.486 119.273 141.404 119.793 141.24 120.258C141.075 120.723 140.857 121.133 140.57 121.461C140.269 121.789 139.913 122.049 139.503 122.227C139.093 122.404 138.628 122.5 138.109 122.5C137.398 122.5 136.796 122.35 136.318 122.076C135.839 121.803 135.456 121.406 135.169 120.914C134.896 120.422 134.691 119.848 134.581 119.191C134.458 118.549 134.404 117.865 134.404 117.141C134.404 116.498 134.472 115.842 134.609 115.186C134.745 114.529 134.978 113.955 135.292 113.436C135.593 112.916 135.99 112.506 136.468 112.178C136.933 111.863 137.507 111.699 138.191 111.699C138.601 111.699 138.997 111.768 139.353 111.891C139.708 112.027 140.023 112.205 140.296 112.438C140.57 112.684 140.788 112.984 140.966 113.34C141.13 113.695 141.253 114.078 141.308 114.516H139.572Z" fill="#229BD2"/>
<circle cx="163.909" cy="339.697" r="10.5805" fill="#038DCC" fill-opacity="0.1" stroke="#229BD2" stroke-width="0.755751"/>
<path d="M159.706 338.754C159.952 338.754 160.212 338.74 160.458 338.699C160.704 338.672 160.936 338.604 161.141 338.508C161.333 338.412 161.497 338.275 161.62 338.098C161.743 337.934 161.811 337.688 161.811 337.387C161.811 336.949 161.675 336.607 161.401 336.348C161.128 336.088 160.772 335.951 160.321 335.951C159.801 335.951 159.391 336.129 159.118 336.457C158.831 336.799 158.694 337.25 158.694 337.824H156.971C156.971 337.332 157.04 336.854 157.204 336.416C157.368 335.979 157.587 335.609 157.874 335.309C158.161 334.994 158.516 334.748 158.926 334.57C159.337 334.393 159.788 334.297 160.307 334.297C160.745 334.297 161.155 334.365 161.551 334.502C161.934 334.639 162.276 334.816 162.577 335.062C162.878 335.309 163.11 335.609 163.274 335.965C163.438 336.32 163.534 336.73 163.534 337.168C163.534 337.715 163.411 338.166 163.178 338.535C162.946 338.904 162.618 339.164 162.18 339.328C162.399 339.41 162.618 339.52 162.837 339.656C163.042 339.793 163.219 339.971 163.384 340.189C163.548 340.408 163.671 340.641 163.766 340.9C163.848 341.16 163.903 341.434 163.903 341.721C163.903 342.281 163.794 342.773 163.602 343.197C163.411 343.621 163.137 343.977 162.809 344.264C162.481 344.551 162.112 344.756 161.675 344.893C161.237 345.029 160.786 345.098 160.321 345.098C159.76 345.098 159.255 345.002 158.803 344.838C158.352 344.66 157.969 344.4 157.669 344.072C157.341 343.744 157.108 343.361 156.944 342.896C156.78 342.445 156.698 341.939 156.725 341.393H158.448C158.475 342.021 158.639 342.527 158.94 342.91C159.241 343.293 159.692 343.484 160.294 343.484C160.54 343.484 160.759 343.443 160.964 343.348C161.169 343.266 161.346 343.143 161.497 342.992C161.647 342.842 161.77 342.664 161.852 342.445C161.934 342.24 161.989 342.008 161.989 341.762C161.989 341.379 161.921 341.092 161.798 340.873C161.661 340.654 161.497 340.49 161.292 340.381C161.073 340.285 160.827 340.217 160.553 340.189C160.28 340.162 159.993 340.148 159.706 340.148V338.754ZM167.445 339.957C167.718 339.957 167.964 339.916 168.183 339.807C168.388 339.697 168.552 339.561 168.689 339.383C168.825 339.191 168.935 338.986 169.003 338.74C169.072 338.494 169.113 338.234 169.113 337.934C169.113 337.688 169.072 337.455 169.003 337.209C168.935 336.963 168.825 336.758 168.675 336.566C168.538 336.375 168.361 336.225 168.156 336.115C167.95 336.006 167.718 335.951 167.445 335.951C167.171 335.951 166.939 336.006 166.747 336.115C166.542 336.225 166.378 336.375 166.241 336.566C166.105 336.758 165.995 336.963 165.927 337.209C165.845 337.455 165.818 337.688 165.818 337.906C165.818 338.193 165.845 338.453 165.927 338.699C165.995 338.945 166.105 339.164 166.241 339.355C166.378 339.547 166.542 339.684 166.747 339.793C166.939 339.902 167.171 339.957 167.445 339.957ZM165.9 342.322C165.954 342.705 166.118 343.006 166.378 343.252C166.624 343.498 166.939 343.621 167.308 343.621C167.663 343.621 167.978 343.512 168.224 343.293C168.47 343.074 168.675 342.787 168.825 342.445C168.99 342.104 169.099 341.734 169.181 341.324C169.249 340.928 169.29 340.545 169.304 340.176V340.148C169.085 340.559 168.784 340.887 168.374 341.105C167.964 341.324 167.513 341.434 167.021 341.434C166.638 341.434 166.255 341.352 165.9 341.188C165.544 341.023 165.216 340.805 164.943 340.504C164.656 340.203 164.423 339.848 164.259 339.438C164.081 339.027 163.999 338.576 163.999 338.07C163.999 337.551 164.081 337.059 164.245 336.594C164.409 336.129 164.642 335.732 164.943 335.391C165.23 335.062 165.585 334.789 165.995 334.598C166.406 334.406 166.857 334.297 167.363 334.297C168.074 334.297 168.661 334.447 169.14 334.748C169.618 335.049 170.001 335.445 170.288 335.951C170.575 336.457 170.781 337.031 170.904 337.674C171.013 338.316 171.081 338.986 171.081 339.67C171.081 340.34 170.999 340.996 170.863 341.639C170.726 342.281 170.493 342.869 170.179 343.389C169.865 343.908 169.468 344.318 168.99 344.633C168.511 344.934 167.937 345.098 167.281 345.098C166.419 345.098 165.708 344.865 165.161 344.373C164.601 343.881 164.273 343.197 164.163 342.322H165.9Z" fill="#229BD2"/>
<circle cx="227.274" cy="207.892" r="10.5805" fill="#038DCC" fill-opacity="0.1" stroke="#229BD2" stroke-width="0.755751"/>
<path d="M224.672 205.432L221.951 209.014H224.672V205.432ZM224.685 210.668H219.968V209L224.781 202.52H226.408V209.014H227.447V210.668H226.408V213.088H224.685V210.668ZM227.584 206.648C227.557 206.088 227.625 205.555 227.762 205.049C227.899 204.557 228.117 204.119 228.418 203.736C228.719 203.354 229.088 203.053 229.526 202.834C229.963 202.615 230.483 202.492 231.084 202.492C231.522 202.492 231.932 202.574 232.342 202.725C232.739 202.875 233.094 203.08 233.395 203.354C233.696 203.627 233.942 203.969 234.119 204.365C234.297 204.775 234.393 205.227 234.393 205.719C234.393 206.156 234.338 206.553 234.256 206.881C234.174 207.209 234.037 207.51 233.873 207.783C233.709 208.057 233.518 208.303 233.272 208.521C233.026 208.74 232.766 208.945 232.465 209.123C232.205 209.301 231.918 209.492 231.604 209.684C231.289 209.889 231.002 210.094 230.729 210.299C230.455 210.518 230.223 210.736 230.032 210.941C229.84 211.16 229.744 211.352 229.744 211.516H234.448V213.088H227.366C227.366 212.514 227.448 211.994 227.639 211.516C227.817 211.051 228.063 210.613 228.364 210.23C228.664 209.848 229.006 209.506 229.403 209.205C229.799 208.904 230.209 208.617 230.647 208.371C230.866 208.234 231.098 208.084 231.33 207.92C231.549 207.756 231.754 207.578 231.946 207.373C232.123 207.182 232.274 206.949 232.383 206.703C232.492 206.457 232.561 206.184 232.561 205.883C232.561 205.363 232.41 204.939 232.123 204.611C231.836 204.283 231.453 204.119 230.989 204.119C230.674 204.119 230.414 204.215 230.209 204.379C229.991 204.543 229.826 204.748 229.69 204.994C229.553 205.254 229.457 205.527 229.403 205.814C229.348 206.115 229.321 206.389 229.321 206.648H227.584Z" fill="#229BD2"/>
<circle cx="309.301" cy="114.408" r="10.5805" fill="#038DCC" fill-opacity="0.1" stroke="#229BD2" stroke-width="0.755751"/>
<path d="M306.698 111.947L303.977 115.529H306.698V111.947ZM306.712 117.184H301.995V115.516L306.807 109.035H308.434V115.529H309.473V117.184H308.434V119.604H306.712V117.184ZM312.318 113.465C312.564 113.465 312.824 113.451 313.07 113.41C313.316 113.383 313.548 113.314 313.753 113.219C313.945 113.123 314.109 112.986 314.232 112.809C314.355 112.645 314.423 112.398 314.423 112.098C314.423 111.66 314.286 111.318 314.013 111.059C313.74 110.799 313.384 110.662 312.933 110.662C312.413 110.662 312.003 110.84 311.73 111.168C311.443 111.51 311.306 111.961 311.306 112.535H309.583C309.583 112.043 309.652 111.564 309.816 111.127C309.98 110.689 310.199 110.32 310.486 110.02C310.773 109.705 311.128 109.459 311.538 109.281C311.949 109.104 312.4 109.008 312.919 109.008C313.357 109.008 313.767 109.076 314.163 109.213C314.546 109.35 314.888 109.527 315.189 109.773C315.49 110.02 315.722 110.32 315.886 110.676C316.05 111.031 316.146 111.441 316.146 111.879C316.146 112.426 316.023 112.877 315.79 113.246C315.558 113.615 315.23 113.875 314.792 114.039C315.011 114.121 315.23 114.23 315.449 114.367C315.654 114.504 315.831 114.682 315.995 114.9C316.159 115.119 316.283 115.352 316.378 115.611C316.46 115.871 316.515 116.145 316.515 116.432C316.515 116.992 316.406 117.484 316.214 117.908C316.023 118.332 315.749 118.688 315.421 118.975C315.093 119.262 314.724 119.467 314.286 119.604C313.849 119.74 313.398 119.809 312.933 119.809C312.372 119.809 311.866 119.713 311.415 119.549C310.964 119.371 310.581 119.111 310.281 118.783C309.952 118.455 309.72 118.072 309.556 117.607C309.392 117.156 309.31 116.65 309.337 116.104H311.06C311.087 116.732 311.251 117.238 311.552 117.621C311.853 118.004 312.304 118.195 312.906 118.195C313.152 118.195 313.37 118.154 313.575 118.059C313.781 117.977 313.958 117.854 314.109 117.703C314.259 117.553 314.382 117.375 314.464 117.156C314.546 116.951 314.601 116.719 314.601 116.473C314.601 116.09 314.533 115.803 314.409 115.584C314.273 115.365 314.109 115.201 313.904 115.092C313.685 114.996 313.439 114.928 313.165 114.9C312.892 114.873 312.605 114.859 312.318 114.859V113.465Z" fill="#229BD2"/>
<circle cx="256.832" cy="217.142" r="10.5805" fill="#038DCC" fill-opacity="0.1" stroke="#229BD2" stroke-width="0.755751"/>
<path d="M256.281 213.588H252.234L251.81 216.213C252.084 215.871 252.384 215.639 252.699 215.516C253.013 215.393 253.41 215.324 253.875 215.324C254.285 215.324 254.681 215.42 255.051 215.584C255.406 215.762 255.72 216.008 255.98 216.309C256.24 216.609 256.445 216.979 256.595 217.402C256.746 217.84 256.828 218.305 256.828 218.824C256.828 219.398 256.732 219.918 256.554 220.383C256.363 220.848 256.117 221.23 255.802 221.559C255.474 221.887 255.105 222.133 254.668 222.297C254.23 222.461 253.752 222.543 253.246 222.543C252.754 222.543 252.302 222.475 251.879 222.352C251.441 222.215 251.072 222.01 250.744 221.736C250.416 221.463 250.142 221.121 249.951 220.711C249.759 220.314 249.65 219.863 249.65 219.344H251.482C251.523 219.809 251.701 220.178 252.015 220.479C252.33 220.779 252.726 220.93 253.205 220.93C253.465 220.93 253.711 220.875 253.929 220.766C254.148 220.656 254.34 220.506 254.504 220.314C254.668 220.123 254.791 219.891 254.873 219.645C254.955 219.398 255.009 219.125 255.009 218.824C255.009 218.537 254.955 218.264 254.873 218.018C254.777 217.771 254.654 217.566 254.49 217.389C254.326 217.197 254.148 217.061 253.929 216.951C253.711 216.855 253.465 216.801 253.205 216.801C252.822 216.801 252.494 216.869 252.248 217.006C252.002 217.143 251.783 217.348 251.619 217.648H249.978L250.949 211.947H256.281V213.588ZM257.143 215.898C257.116 215.338 257.184 214.805 257.321 214.299C257.457 213.807 257.676 213.369 257.977 212.986C258.278 212.604 258.647 212.303 259.084 212.084C259.522 211.865 260.041 211.742 260.643 211.742C261.08 211.742 261.491 211.824 261.901 211.975C262.297 212.125 262.653 212.33 262.953 212.604C263.254 212.877 263.5 213.219 263.678 213.615C263.856 214.025 263.951 214.477 263.951 214.969C263.951 215.406 263.897 215.803 263.815 216.131C263.733 216.459 263.596 216.76 263.432 217.033C263.268 217.307 263.076 217.553 262.83 217.771C262.584 217.99 262.324 218.195 262.024 218.373C261.764 218.551 261.477 218.742 261.162 218.934C260.848 219.139 260.561 219.344 260.287 219.549C260.014 219.768 259.782 219.986 259.59 220.191C259.399 220.41 259.303 220.602 259.303 220.766H264.006V222.338H256.924C256.924 221.764 257.006 221.244 257.198 220.766C257.375 220.301 257.621 219.863 257.922 219.48C258.223 219.098 258.565 218.756 258.961 218.455C259.358 218.154 259.768 217.867 260.205 217.621C260.424 217.484 260.657 217.334 260.889 217.17C261.108 217.006 261.313 216.828 261.504 216.623C261.682 216.432 261.832 216.199 261.942 215.953C262.051 215.707 262.119 215.434 262.119 215.133C262.119 214.613 261.969 214.189 261.682 213.861C261.395 213.533 261.012 213.369 260.547 213.369C260.233 213.369 259.973 213.465 259.768 213.629C259.549 213.793 259.385 213.998 259.248 214.244C259.112 214.504 259.016 214.777 258.961 215.064C258.907 215.365 258.879 215.639 258.879 215.898H257.143Z" fill="#229BD2"/>
<circle cx="233.912" cy="402.138" r="10.5805" fill="#038DCC" fill-opacity="0.1" stroke="#229BD2" stroke-width="0.755751"/>
<path d="M231.314 399.678L228.593 403.26H231.314V399.678ZM231.328 404.914H226.611V403.246L231.424 396.766H233.051V403.26H234.09V404.914H233.051V407.334H231.328V404.914ZM237.453 402.398C237.727 402.398 237.973 402.357 238.192 402.248C238.397 402.139 238.561 402.002 238.698 401.824C238.834 401.633 238.944 401.428 239.012 401.182C239.08 400.936 239.121 400.676 239.121 400.375C239.121 400.129 239.08 399.896 239.012 399.65C238.944 399.404 238.834 399.199 238.684 399.008C238.547 398.816 238.369 398.666 238.164 398.557C237.959 398.447 237.727 398.393 237.453 398.393C237.18 398.393 236.948 398.447 236.756 398.557C236.551 398.666 236.387 398.816 236.25 399.008C236.114 399.199 236.004 399.404 235.936 399.65C235.854 399.896 235.826 400.129 235.826 400.348C235.826 400.635 235.854 400.895 235.936 401.141C236.004 401.387 236.114 401.605 236.25 401.797C236.387 401.988 236.551 402.125 236.756 402.234C236.948 402.344 237.18 402.398 237.453 402.398ZM235.908 404.764C235.963 405.146 236.127 405.447 236.387 405.693C236.633 405.939 236.948 406.062 237.317 406.062C237.672 406.062 237.987 405.953 238.233 405.734C238.479 405.516 238.684 405.229 238.834 404.887C238.998 404.545 239.108 404.176 239.19 403.766C239.258 403.369 239.299 402.986 239.313 402.617V402.59C239.094 403 238.793 403.328 238.383 403.547C237.973 403.766 237.522 403.875 237.03 403.875C236.647 403.875 236.264 403.793 235.908 403.629C235.553 403.465 235.225 403.246 234.951 402.945C234.664 402.645 234.432 402.289 234.268 401.879C234.09 401.469 234.008 401.018 234.008 400.512C234.008 399.992 234.09 399.5 234.254 399.035C234.418 398.57 234.651 398.174 234.951 397.832C235.239 397.504 235.594 397.23 236.004 397.039C236.414 396.848 236.866 396.738 237.371 396.738C238.082 396.738 238.67 396.889 239.149 397.189C239.627 397.49 240.01 397.887 240.297 398.393C240.584 398.898 240.789 399.473 240.912 400.115C241.022 400.758 241.09 401.428 241.09 402.111C241.09 402.781 241.008 403.438 240.871 404.08C240.735 404.723 240.502 405.311 240.188 405.83C239.873 406.35 239.477 406.76 238.998 407.074C238.52 407.375 237.946 407.539 237.289 407.539C236.428 407.539 235.717 407.307 235.17 406.814C234.61 406.322 234.282 405.639 234.172 404.764H235.908Z" fill="#229BD2"/>
<circle cx="367.188" cy="402.138" r="10.5805" fill="#038DCC" fill-opacity="0.1" stroke="#229BD2" stroke-width="0.755751"/>
<path d="M364.585 399.678L361.864 403.26H364.585V399.678ZM364.598 404.914H359.882V403.246L364.694 396.766H366.321V403.26H367.36V404.914H366.321V407.334H364.598V404.914ZM374.101 398.707C373.581 399.186 373.103 399.76 372.665 400.43C372.214 401.1 371.845 401.824 371.572 402.604C371.298 403.396 371.12 404.107 371.025 404.736C370.915 405.365 370.861 406.24 370.861 407.334H368.892C368.947 406.186 369.042 405.311 369.165 404.709C369.288 404.121 369.493 403.451 369.767 402.699C370.054 401.947 370.409 401.236 370.847 400.553C371.271 399.869 371.722 399.213 372.2 398.584H367.525V396.943H374.101V398.707Z" fill="#229BD2"/>
<circle cx="298.532" cy="424.033" r="10.5805" fill="#038DCC" fill-opacity="0.1" stroke="#229BD2" stroke-width="0.755751"/>
<path d="M295.928 421.572L293.208 425.154H295.928V421.572ZM295.942 426.809H291.225V425.141L296.038 418.66H297.665V425.154H298.704V426.809H297.665V429.229H295.942V426.809ZM300.564 421.613C300.564 421.818 300.591 422.01 300.673 422.174C300.741 422.352 300.837 422.502 300.974 422.639C301.111 422.775 301.275 422.871 301.48 422.953C301.671 423.035 301.904 423.076 302.15 423.076C302.642 423.076 303.025 422.939 303.312 422.652C303.599 422.379 303.749 422.023 303.749 421.613C303.749 421.422 303.708 421.23 303.64 421.039C303.558 420.861 303.449 420.697 303.312 420.547C303.175 420.41 302.997 420.301 302.806 420.219C302.615 420.137 302.396 420.082 302.15 420.082C301.904 420.082 301.671 420.137 301.48 420.219C301.275 420.314 301.111 420.424 300.974 420.561C300.837 420.711 300.741 420.875 300.673 421.053C300.591 421.244 300.564 421.422 300.564 421.613ZM300.345 426.166C300.345 426.439 300.386 426.686 300.482 426.904C300.577 427.123 300.714 427.314 300.878 427.465C301.042 427.615 301.234 427.738 301.452 427.82C301.671 427.916 301.917 427.957 302.163 427.957C302.409 427.957 302.642 427.916 302.861 427.82C303.079 427.738 303.271 427.615 303.435 427.465C303.599 427.314 303.736 427.137 303.831 426.918C303.927 426.699 303.982 426.467 303.982 426.193C303.982 425.934 303.927 425.688 303.831 425.469C303.736 425.25 303.599 425.072 303.435 424.908C303.271 424.744 303.079 424.607 302.861 424.525C302.642 424.443 302.409 424.389 302.163 424.389C301.917 424.389 301.671 424.43 301.452 424.512C301.234 424.594 301.042 424.717 300.878 424.881C300.714 425.045 300.577 425.223 300.482 425.441C300.386 425.66 300.345 425.893 300.345 426.166ZM298.882 421.449C298.882 421.012 298.964 420.615 299.156 420.26C299.333 419.904 299.579 419.604 299.894 419.357C300.208 419.125 300.564 418.947 300.947 418.824C301.329 418.701 301.74 418.633 302.15 418.633C302.56 418.633 302.956 418.701 303.353 418.824C303.736 418.947 304.091 419.125 304.406 419.357C304.706 419.604 304.952 419.904 305.144 420.246C305.335 420.588 305.431 420.971 305.431 421.408C305.431 421.668 305.39 421.914 305.308 422.16C305.226 422.406 305.13 422.611 304.993 422.803C304.857 423.008 304.706 423.172 304.529 423.309C304.351 423.445 304.159 423.555 303.968 423.637C304.214 423.719 304.46 423.828 304.679 423.979C304.898 424.129 305.103 424.32 305.281 424.539C305.445 424.771 305.581 425.031 305.691 425.305C305.786 425.578 305.841 425.879 305.841 426.207C305.841 426.699 305.745 427.137 305.554 427.533C305.363 427.93 305.103 428.271 304.775 428.559C304.447 428.846 304.05 429.064 303.599 429.215C303.148 429.352 302.669 429.434 302.163 429.434C301.644 429.434 301.152 429.352 300.7 429.215C300.249 429.064 299.853 428.846 299.525 428.559C299.197 428.271 298.937 427.93 298.745 427.533C298.554 427.137 298.472 426.699 298.472 426.221C298.472 425.893 298.527 425.592 298.636 425.305C298.745 425.031 298.882 424.771 299.074 424.539C299.251 424.307 299.456 424.115 299.702 423.965C299.949 423.814 300.195 423.691 300.468 423.609C299.949 423.473 299.566 423.213 299.292 422.816C299.019 422.434 298.882 421.969 298.882 421.449Z" fill="#229BD2"/>
<circle cx="368.979" cy="138.537" r="10.5805" fill="#038DCC" fill-opacity="0.1" stroke="#229BD2" stroke-width="0.755751"/>
<path d="M366.384 136.076L363.663 139.658H366.384V136.076ZM366.397 141.312H361.68V139.645L366.493 133.164H368.12V139.658H369.159V141.312H368.12V143.732H366.397V141.312ZM373.603 136.076L370.882 139.658H373.603V136.076ZM373.616 141.312H368.9V139.645L373.712 133.164H375.339V139.658H376.378V141.312H375.339V143.732H373.616V141.312Z" fill="#229BD2"/>
<circle cx="345.547" cy="262.931" r="10.5805" fill="#038DCC" fill-opacity="0.1" stroke="#229BD2" stroke-width="0.755751"/>
<path d="M342.943 260.471L340.222 264.053H342.943V260.471ZM342.957 265.707H338.24V264.039L343.052 257.559H344.679V264.053H345.718V265.707H344.679V268.127H342.957V265.707ZM352.213 259.377H348.166L347.742 262.002C348.016 261.66 348.317 261.428 348.631 261.305C348.946 261.182 349.342 261.113 349.807 261.113C350.217 261.113 350.614 261.209 350.983 261.373C351.338 261.551 351.653 261.797 351.912 262.098C352.172 262.398 352.377 262.768 352.528 263.191C352.678 263.629 352.76 264.094 352.76 264.613C352.76 265.188 352.664 265.707 352.487 266.172C352.295 266.637 352.049 267.02 351.735 267.348C351.407 267.676 351.037 267.922 350.6 268.086C350.162 268.25 349.684 268.332 349.178 268.332C348.686 268.332 348.235 268.264 347.811 268.141C347.373 268.004 347.004 267.799 346.676 267.525C346.348 267.252 346.074 266.91 345.883 266.5C345.692 266.104 345.582 265.652 345.582 265.133H347.414C347.455 265.598 347.633 265.967 347.948 266.268C348.262 266.568 348.658 266.719 349.137 266.719C349.397 266.719 349.643 266.664 349.862 266.555C350.08 266.445 350.272 266.295 350.436 266.104C350.6 265.912 350.723 265.68 350.805 265.434C350.887 265.188 350.942 264.914 350.942 264.613C350.942 264.326 350.887 264.053 350.805 263.807C350.709 263.561 350.586 263.355 350.422 263.178C350.258 262.986 350.08 262.85 349.862 262.74C349.643 262.645 349.397 262.59 349.137 262.59C348.754 262.59 348.426 262.658 348.18 262.795C347.934 262.932 347.715 263.137 347.551 263.438H345.91L346.881 257.736H352.213V259.377Z" fill="#229BD2"/>
<circle cx="345.547" cy="345.919" r="10.5805" fill="#038DCC" fill-opacity="0.1" stroke="#229BD2" stroke-width="0.755751"/>
<path d="M342.943 343.459L340.222 347.041H342.943V343.459ZM342.957 348.695H338.24V347.027L343.052 340.547H344.679V347.041H345.718V348.695H344.679V351.115H342.957V348.695ZM349.287 345.688C349.014 345.688 348.782 345.742 348.576 345.838C348.358 345.934 348.18 346.07 348.03 346.248C347.893 346.426 347.783 346.631 347.701 346.877C347.619 347.123 347.592 347.396 347.592 347.67C347.592 347.957 347.619 348.217 347.701 348.449C347.783 348.695 347.893 348.9 348.03 349.092C348.166 349.283 348.344 349.434 348.563 349.543C348.768 349.652 349.014 349.707 349.287 349.707C349.533 349.707 349.766 349.652 349.971 349.543C350.162 349.434 350.326 349.283 350.463 349.105C350.6 348.914 350.709 348.709 350.778 348.463C350.846 348.23 350.887 347.971 350.887 347.697C350.887 347.438 350.846 347.178 350.778 346.932C350.709 346.686 350.6 346.467 350.463 346.275C350.326 346.084 350.162 345.947 349.971 345.838C349.766 345.742 349.533 345.688 349.287 345.688ZM350.805 343.336C350.737 342.953 350.573 342.639 350.326 342.393C350.067 342.146 349.752 342.023 349.397 342.023C349.014 342.023 348.699 342.133 348.453 342.352C348.194 342.57 347.989 342.857 347.852 343.199C347.701 343.527 347.592 343.91 347.524 344.32C347.455 344.744 347.428 345.154 347.428 345.537C347.66 345.072 347.975 344.717 348.371 344.498C348.754 344.279 349.219 344.17 349.766 344.17C350.149 344.17 350.532 344.252 350.887 344.416C351.242 344.58 351.571 344.812 351.844 345.1C352.104 345.4 352.309 345.756 352.473 346.166C352.637 346.576 352.719 347.041 352.719 347.547C352.719 348.094 352.637 348.613 352.473 349.078C352.309 349.543 352.09 349.953 351.803 350.281C351.502 350.609 351.147 350.869 350.737 351.047C350.326 351.225 349.862 351.32 349.342 351.32C348.631 351.32 348.03 351.17 347.551 350.896C347.073 350.623 346.69 350.227 346.403 349.734C346.129 349.242 345.924 348.668 345.815 348.012C345.692 347.369 345.637 346.686 345.637 345.961C345.637 345.318 345.705 344.662 345.842 344.006C345.979 343.35 346.211 342.775 346.526 342.256C346.826 341.736 347.223 341.326 347.701 340.998C348.166 340.684 348.741 340.52 349.424 340.52C349.834 340.52 350.231 340.588 350.586 340.711C350.942 340.848 351.256 341.025 351.53 341.258C351.803 341.504 352.022 341.805 352.199 342.16C352.364 342.516 352.487 342.898 352.541 343.336H350.805Z" fill="#229BD2"/>
<circle cx="256.832" cy="345.919" r="10.5805" fill="#038DCC" fill-opacity="0.1" stroke="#229BD2" stroke-width="0.755751"/>
<path d="M256.281 342.365H252.234L251.81 344.99C252.084 344.648 252.384 344.416 252.699 344.293C253.013 344.17 253.41 344.102 253.875 344.102C254.285 344.102 254.681 344.197 255.051 344.361C255.406 344.539 255.72 344.785 255.98 345.086C256.24 345.387 256.445 345.756 256.595 346.18C256.746 346.617 256.828 347.082 256.828 347.602C256.828 348.176 256.732 348.695 256.554 349.16C256.363 349.625 256.117 350.008 255.802 350.336C255.474 350.664 255.105 350.91 254.668 351.074C254.23 351.238 253.752 351.32 253.246 351.32C252.754 351.32 252.302 351.252 251.879 351.129C251.441 350.992 251.072 350.787 250.744 350.514C250.416 350.24 250.142 349.898 249.951 349.488C249.759 349.092 249.65 348.641 249.65 348.121H251.482C251.523 348.586 251.701 348.955 252.015 349.256C252.33 349.557 252.726 349.707 253.205 349.707C253.465 349.707 253.711 349.652 253.929 349.543C254.148 349.434 254.34 349.283 254.504 349.092C254.668 348.9 254.791 348.668 254.873 348.422C254.955 348.176 255.009 347.902 255.009 347.602C255.009 347.314 254.955 347.041 254.873 346.795C254.777 346.549 254.654 346.344 254.49 346.166C254.326 345.975 254.148 345.838 253.929 345.729C253.711 345.633 253.465 345.578 253.205 345.578C252.822 345.578 252.494 345.646 252.248 345.783C252.002 345.92 251.783 346.125 251.619 346.426H249.978L250.949 340.725H256.281V342.365ZM258.742 345.879C258.742 346.385 258.77 346.863 258.824 347.328C258.866 347.793 258.948 348.203 259.084 348.559C259.194 348.914 259.371 349.188 259.59 349.393C259.809 349.611 260.096 349.707 260.451 349.707C260.807 349.707 261.108 349.611 261.34 349.406C261.559 349.201 261.737 348.928 261.873 348.572C261.983 348.217 262.065 347.807 262.106 347.342C262.147 346.877 262.174 346.398 262.174 345.879C262.174 345.373 262.147 344.895 262.106 344.43C262.065 343.965 261.983 343.582 261.873 343.254C261.737 342.926 261.559 342.652 261.34 342.461C261.108 342.27 260.807 342.174 260.451 342.174C260.096 342.174 259.795 342.27 259.576 342.461C259.358 342.652 259.18 342.926 259.071 343.254C258.934 343.582 258.852 343.965 258.811 344.43C258.756 344.895 258.742 345.373 258.742 345.879ZM256.924 345.879C256.924 344.895 257.006 344.061 257.198 343.377C257.375 342.693 257.621 342.146 257.936 341.723C258.25 341.299 258.619 340.998 259.057 340.807C259.494 340.615 259.959 340.52 260.451 340.52C260.944 340.52 261.395 340.615 261.832 340.807C262.27 340.998 262.639 341.299 262.953 341.709C263.282 342.133 263.528 342.693 263.719 343.377C263.91 344.061 264.006 344.895 264.006 345.879C264.006 346.904 263.91 347.766 263.733 348.449C263.541 349.133 263.295 349.693 262.967 350.117C262.639 350.555 262.27 350.869 261.832 351.047C261.395 351.225 260.944 351.32 260.451 351.32C259.959 351.32 259.494 351.225 259.057 351.047C258.619 350.869 258.25 350.555 257.936 350.117C257.621 349.693 257.375 349.133 257.198 348.449C257.006 347.766 256.924 346.904 256.924 345.879Z" fill="#229BD2"/>
<circle cx="256.832" cy="287.837" r="10.5805" fill="#038DCC" fill-opacity="0.1" stroke="#229BD2" stroke-width="0.755751"/>
<path d="M256.281 284.283H252.234L251.81 286.908C252.084 286.566 252.384 286.334 252.699 286.211C253.013 286.088 253.41 286.02 253.875 286.02C254.285 286.02 254.681 286.115 255.051 286.279C255.406 286.457 255.72 286.703 255.98 287.004C256.24 287.305 256.445 287.674 256.595 288.098C256.746 288.535 256.828 289 256.828 289.52C256.828 290.094 256.732 290.613 256.554 291.078C256.363 291.543 256.117 291.926 255.802 292.254C255.474 292.582 255.105 292.828 254.668 292.992C254.23 293.156 253.752 293.238 253.246 293.238C252.754 293.238 252.302 293.17 251.879 293.047C251.441 292.91 251.072 292.705 250.744 292.432C250.416 292.158 250.142 291.816 249.951 291.406C249.759 291.01 249.65 290.559 249.65 290.039H251.482C251.523 290.504 251.701 290.873 252.015 291.174C252.33 291.475 252.726 291.625 253.205 291.625C253.465 291.625 253.711 291.57 253.929 291.461C254.148 291.352 254.34 291.201 254.504 291.01C254.668 290.818 254.791 290.586 254.873 290.34C254.955 290.094 255.009 289.82 255.009 289.52C255.009 289.232 254.955 288.959 254.873 288.713C254.777 288.467 254.654 288.262 254.49 288.084C254.326 287.893 254.148 287.756 253.929 287.646C253.711 287.551 253.465 287.496 253.205 287.496C252.822 287.496 252.494 287.564 252.248 287.701C252.002 287.838 251.783 288.043 251.619 288.344H249.978L250.949 282.643H256.281V284.283ZM261.983 293.033H260.164V285.705C259.864 285.924 259.494 286.033 259.057 286.061C258.619 286.088 258.168 286.102 257.676 286.102V284.748C258.483 284.734 259.112 284.516 259.576 284.105C260.041 283.695 260.315 283.217 260.397 282.643H261.983V293.033Z" fill="#229BD2"/>
<circle cx="227.274" cy="271.033" r="10.5805" fill="#038DCC" fill-opacity="0.1" stroke="#229BD2" stroke-width="0.755751"/>
<path d="M224.672 268.572L221.951 272.154H224.672V268.572ZM224.685 273.809H219.968V272.141L224.781 265.66H226.408V272.154H227.447V273.809H226.408V276.229H224.685V273.809ZM232.424 276.229H230.606V268.9C230.305 269.119 229.936 269.229 229.498 269.256C229.061 269.283 228.61 269.297 228.117 269.297V267.943C228.924 267.93 229.553 267.711 230.018 267.301C230.483 266.891 230.756 266.412 230.838 265.838H232.424V276.229Z" fill="#229BD2"/>
<circle cx="209.682" cy="339.224" r="10.5805" fill="#038DCC" fill-opacity="0.1" stroke="#229BD2" stroke-width="0.755751"/>
<path d="M207.079 336.764L204.358 340.346H207.079V336.764ZM207.093 342H202.376V340.332L207.188 333.852H208.815V340.346H209.854V342H208.815V344.42H207.093V342ZM211.591 339.184C211.591 339.689 211.618 340.168 211.673 340.633C211.714 341.098 211.796 341.508 211.933 341.863C212.042 342.219 212.22 342.492 212.439 342.697C212.658 342.916 212.945 343.012 213.3 343.012C213.656 343.012 213.956 342.916 214.189 342.711C214.408 342.506 214.585 342.232 214.722 341.877C214.831 341.521 214.913 341.111 214.954 340.646C214.995 340.182 215.023 339.703 215.023 339.184C215.023 338.678 214.995 338.199 214.954 337.734C214.913 337.27 214.831 336.887 214.722 336.559C214.585 336.23 214.408 335.957 214.189 335.766C213.956 335.574 213.656 335.479 213.3 335.479C212.945 335.479 212.644 335.574 212.425 335.766C212.206 335.957 212.029 336.23 211.919 336.559C211.783 336.887 211.7 337.27 211.659 337.734C211.605 338.199 211.591 338.678 211.591 339.184ZM209.773 339.184C209.773 338.199 209.855 337.365 210.046 336.682C210.224 335.998 210.47 335.451 210.784 335.027C211.099 334.604 211.468 334.303 211.906 334.111C212.343 333.92 212.808 333.824 213.3 333.824C213.792 333.824 214.243 333.92 214.681 334.111C215.118 334.303 215.488 334.604 215.802 335.014C216.13 335.438 216.376 335.998 216.568 336.682C216.759 337.365 216.855 338.199 216.855 339.184C216.855 340.209 216.759 341.07 216.581 341.754C216.39 342.438 216.144 342.998 215.816 343.422C215.488 343.859 215.118 344.174 214.681 344.352C214.243 344.529 213.792 344.625 213.3 344.625C212.808 344.625 212.343 344.529 211.906 344.352C211.468 344.174 211.099 343.859 210.784 343.422C210.47 342.998 210.224 342.438 210.046 341.754C209.855 341.07 209.773 340.209 209.773 339.184Z" fill="#229BD2"/>
<circle cx="81.0043" cy="291.954" r="10.5805" fill="#038DCC" fill-opacity="0.1" stroke="#229BD2" stroke-width="0.755751"/>
<path d="M76.8093 291.012C77.0554 291.012 77.3152 290.998 77.5613 290.957C77.8073 290.93 78.0398 290.861 78.2448 290.766C78.4363 290.67 78.6003 290.533 78.7234 290.355C78.8464 290.191 78.9148 289.945 78.9148 289.645C78.9148 289.207 78.778 288.865 78.5046 288.605C78.2312 288.346 77.8757 288.209 77.4245 288.209C76.905 288.209 76.4948 288.387 76.2214 288.715C75.9343 289.057 75.7976 289.508 75.7976 290.082H74.0749C74.0749 289.59 74.1433 289.111 74.3073 288.674C74.4714 288.236 74.6902 287.867 74.9773 287.566C75.2644 287.252 75.6198 287.006 76.03 286.828C76.4402 286.65 76.8913 286.555 77.4109 286.555C77.8484 286.555 78.2585 286.623 78.655 286.76C79.0378 286.896 79.3796 287.074 79.6804 287.32C79.9812 287.566 80.2136 287.867 80.3777 288.223C80.5417 288.578 80.6374 288.988 80.6374 289.426C80.6374 289.973 80.5144 290.424 80.282 290.793C80.0495 291.162 79.7214 291.422 79.2839 291.586C79.5027 291.668 79.7214 291.777 79.9402 291.914C80.1452 292.051 80.323 292.229 80.487 292.447C80.6511 292.666 80.7741 292.898 80.8698 293.158C80.9519 293.418 81.0066 293.691 81.0066 293.979C81.0066 294.539 80.8972 295.031 80.7058 295.455C80.5144 295.879 80.2409 296.234 79.9128 296.521C79.5847 296.809 79.2155 297.014 78.778 297.15C78.3405 297.287 77.8894 297.355 77.4245 297.355C76.864 297.355 76.3581 297.26 75.907 297.096C75.4558 296.918 75.073 296.658 74.7722 296.33C74.4441 296.002 74.2116 295.619 74.0476 295.154C73.8835 294.703 73.8015 294.197 73.8288 293.65H75.5515C75.5788 294.279 75.7429 294.785 76.0437 295.168C76.3445 295.551 76.7956 295.742 77.3972 295.742C77.6433 295.742 77.862 295.701 78.0671 295.605C78.2722 295.523 78.4499 295.4 78.6003 295.25C78.7507 295.1 78.8738 294.922 78.9558 294.703C79.0378 294.498 79.0925 294.266 79.0925 294.02C79.0925 293.637 79.0241 293.35 78.9011 293.131C78.7644 292.912 78.6003 292.748 78.3952 292.639C78.1765 292.543 77.9304 292.475 77.657 292.447C77.3835 292.42 77.0964 292.406 76.8093 292.406V291.012ZM83.0442 289.535C83.0442 289.74 83.0716 289.932 83.1536 290.096C83.222 290.273 83.3177 290.424 83.4544 290.561C83.5911 290.697 83.7552 290.793 83.9602 290.875C84.1516 290.957 84.3841 290.998 84.6302 290.998C85.1223 290.998 85.5052 290.861 85.7923 290.574C86.0794 290.301 86.2298 289.945 86.2298 289.535C86.2298 289.344 86.1888 289.152 86.1204 288.961C86.0384 288.783 85.929 288.619 85.7923 288.469C85.6555 288.332 85.4778 288.223 85.2864 288.141C85.095 288.059 84.8763 288.004 84.6302 288.004C84.3841 288.004 84.1516 288.059 83.9602 288.141C83.7552 288.236 83.5911 288.346 83.4544 288.482C83.3177 288.633 83.222 288.797 83.1536 288.975C83.0716 289.166 83.0442 289.344 83.0442 289.535ZM82.8255 294.088C82.8255 294.361 82.8665 294.607 82.9622 294.826C83.0579 295.045 83.1946 295.236 83.3587 295.387C83.5227 295.537 83.7141 295.66 83.9329 295.742C84.1516 295.838 84.3977 295.879 84.6438 295.879C84.8899 295.879 85.1223 295.838 85.3411 295.742C85.5598 295.66 85.7513 295.537 85.9153 295.387C86.0794 295.236 86.2161 295.059 86.3118 294.84C86.4075 294.621 86.4622 294.389 86.4622 294.115C86.4622 293.855 86.4075 293.609 86.3118 293.391C86.2161 293.172 86.0794 292.994 85.9153 292.83C85.7513 292.666 85.5598 292.529 85.3411 292.447C85.1223 292.365 84.8899 292.311 84.6438 292.311C84.3977 292.311 84.1516 292.352 83.9329 292.434C83.7141 292.516 83.5227 292.639 83.3587 292.803C83.1946 292.967 83.0579 293.145 82.9622 293.363C82.8665 293.582 82.8255 293.814 82.8255 294.088ZM81.3626 289.371C81.3626 288.934 81.4446 288.537 81.636 288.182C81.8138 287.826 82.0598 287.525 82.3743 287.279C82.6888 287.047 83.0442 286.869 83.427 286.746C83.8098 286.623 84.22 286.555 84.6302 286.555C85.0403 286.555 85.4368 286.623 85.8333 286.746C86.2161 286.869 86.5716 287.047 86.886 287.279C87.1868 287.525 87.4329 287.826 87.6243 288.168C87.8157 288.51 87.9114 288.893 87.9114 289.33C87.9114 289.59 87.8704 289.836 87.7884 290.082C87.7063 290.328 87.6106 290.533 87.4739 290.725C87.3372 290.93 87.1868 291.094 87.0091 291.23C86.8313 291.367 86.6399 291.477 86.4485 291.559C86.6946 291.641 86.9407 291.75 87.1595 291.9C87.3782 292.051 87.5833 292.242 87.761 292.461C87.9251 292.693 88.0618 292.953 88.1712 293.227C88.2669 293.5 88.3216 293.801 88.3216 294.129C88.3216 294.621 88.2259 295.059 88.0345 295.455C87.843 295.852 87.5833 296.193 87.2552 296.48C86.927 296.768 86.5305 296.986 86.0794 297.137C85.6282 297.273 85.1497 297.355 84.6438 297.355C84.1243 297.355 83.6321 297.273 83.1809 297.137C82.7298 296.986 82.3333 296.768 82.0052 296.48C81.677 296.193 81.4173 295.852 81.2259 295.455C81.0345 295.059 80.9524 294.621 80.9524 294.143C80.9524 293.814 81.0071 293.514 81.1165 293.227C81.2259 292.953 81.3626 292.693 81.554 292.461C81.7317 292.229 81.9368 292.037 82.1829 291.887C82.429 291.736 82.6751 291.613 82.9485 291.531C82.429 291.395 82.0462 291.135 81.7727 290.738C81.4993 290.355 81.3626 289.891 81.3626 289.371Z" fill="#229BD2"/>
<rect width="79.1876" height="26.0938" transform="translate(23.458 59.1875)" fill="#CBE5ED"/>
<path d="M30.7803 66.2148H35.0635C35.971 66.2148 36.7375 66.3836 37.3628 66.7212C37.9881 67.0532 38.4557 67.5125 38.7656 68.0991C39.0811 68.6802 39.2388 69.3525 39.2388 70.1162C39.2388 70.8688 39.0811 71.5384 38.7656 72.125C38.4502 72.7116 37.9798 73.1737 37.3545 73.5112C36.7292 73.8488 35.9627 74.0176 35.0552 74.0176H32.1001V72.4653H34.8809C35.4564 72.4653 35.9323 72.3657 36.3086 72.1665C36.6849 71.9618 36.9588 71.6851 37.1304 71.3364C37.3075 70.9823 37.396 70.5755 37.396 70.1162C37.396 69.6458 37.3075 69.2363 37.1304 68.8877C36.9588 68.5391 36.6821 68.2679 36.3003 68.0742C35.924 67.8805 35.4481 67.7837 34.8726 67.7837H32.6064V78.2344H30.7803V66.2148ZM41.1562 66.2148H42.9824V76.6655H48.4194V78.2344H41.1562V66.2148ZM49.9717 78.2344L54.2881 66.2148H56.4048L60.7295 78.2344H58.7788L55.3921 68.4146H55.2925L51.8975 78.2344H49.9717ZM58.4634 73.5278V75.0552H52.2212V73.5278H58.4634ZM69.8521 70.1328C69.758 69.6237 69.5615 69.1893 69.2627 68.8296C68.9694 68.4644 68.6014 68.1877 68.1587 67.9995C67.7215 67.8114 67.2484 67.7173 66.7393 67.7173C66.0475 67.7173 65.4277 67.8944 64.8799 68.2485C64.332 68.5972 63.9004 69.1118 63.585 69.7925C63.2751 70.4676 63.1201 71.2783 63.1201 72.2246C63.1201 73.182 63.2751 73.9982 63.585 74.6733C63.9004 75.3485 64.332 75.8604 64.8799 76.209C65.4277 76.5576 66.0448 76.7319 66.731 76.7319C67.2401 76.7319 67.7104 76.6379 68.1421 76.4497C68.5737 76.2616 68.9417 75.9904 69.2461 75.6362C69.5505 75.2765 69.7524 74.8504 69.8521 74.3579L71.6865 74.3662C71.5592 75.1465 71.2687 75.8438 70.8149 76.458C70.3667 77.0723 69.7912 77.5509 69.0884 77.894C68.3856 78.2316 67.597 78.4004 66.7227 78.4004C65.6768 78.4004 64.7443 78.1514 63.9253 77.6533C63.1118 77.1553 62.4727 76.4386 62.0078 75.5034C61.5485 74.5682 61.3188 73.4753 61.3188 72.2246C61.3188 70.9629 61.5513 69.8672 62.0161 68.9375C62.481 68.0078 63.1201 67.2939 63.9336 66.7959C64.7526 66.2979 65.6823 66.0488 66.7227 66.0488C67.5693 66.0488 68.3441 66.2121 69.0469 66.5386C69.7552 66.8595 70.339 67.3271 70.7983 67.9414C71.2576 68.5557 71.5537 69.2861 71.6865 70.1328H69.8521ZM73.6621 66.2148H81.2075V67.7837H75.4883V71.436H80.8091V72.9966H75.4883V76.6655H81.2656V78.2344H73.6621V66.2148ZM87.3999 76.9062L91.5752 72.6978C92.0788 72.1776 92.4661 71.757 92.7373 71.436C93.0085 71.1151 93.2104 70.7996 93.3433 70.4897C93.4816 70.1743 93.5508 69.8478 93.5508 69.5103C93.5508 69.1284 93.4539 68.7909 93.2603 68.4976C93.0666 68.2043 92.8009 67.9774 92.4634 67.8169C92.1258 67.6564 91.7467 67.5762 91.3262 67.5762C90.889 67.5762 90.5044 67.6647 90.1724 67.8418C89.8459 68.0133 89.5913 68.2624 89.4087 68.5889C89.2316 68.9098 89.1431 69.2806 89.1431 69.7012H87.4082C87.4082 68.9818 87.577 68.3454 87.9146 67.792C88.2521 67.2386 88.7197 66.8097 89.3174 66.5054C89.9206 66.201 90.604 66.0488 91.3677 66.0488C92.1258 66.0488 92.8009 66.1982 93.3931 66.4971C93.9852 66.7904 94.4473 67.1971 94.7793 67.7173C95.1169 68.2319 95.2856 68.8102 95.2856 69.4521C95.2856 69.9115 95.1999 70.3542 95.0283 70.7803C94.8568 71.2064 94.5662 71.6768 94.1567 72.1914C93.7472 72.7061 93.1606 73.3397 92.397 74.0923L89.9482 76.5742V76.6655H95.4849V78.2344H87.4082L87.3999 76.9062Z" fill="#1C1F1C"/>
<path d="M101.283 24.4609L101.283 25.4609V25.4609L101.283 24.4609ZM61.8778 24.4609L61.8778 23.4609L60.8778 23.4609L60.8778 24.4609L61.8778 24.4609ZM61.1707 54.3638C61.5612 54.7544 62.1944 54.7544 62.5849 54.3638L68.9488 47.9999C69.3394 47.6093 69.3394 46.9762 68.9488 46.5857C68.5583 46.1951 67.9252 46.1951 67.5346 46.5857L61.8778 52.2425L56.2209 46.5857C55.8304 46.1951 55.1972 46.1951 54.8067 46.5857C54.4162 46.9762 54.4162 47.6093 54.8067 47.9999L61.1707 54.3638ZM192.467 24.4609L192.467 23.4609L101.283 23.4609L101.283 24.4609L101.283 25.4609L192.467 25.4609L192.467 24.4609ZM101.283 24.4609L101.283 23.4609L61.8778 23.4609L61.8778 24.4609L61.8778 25.4609L101.283 25.4609L101.283 24.4609ZM61.8778 24.4609L60.8778 24.4609L60.8778 53.6567L61.8778 53.6567L62.8778 53.6567L62.8778 24.4609L61.8778 24.4609Z" fill="#229BD2"/>
</g>
</svg>
