<svg width="629" height="358" viewBox="0 0 629 358" fill="none" xmlns="http://www.w3.org/2000/svg">
<mask id="mask0_558_431" style="mask-type:alpha" maskUnits="userSpaceOnUse" x="0" y="0" width="629" height="358">
<path d="M0 172.77L142.348 50.0601C182.413 34.5136 342.906 68.1787 428.774 26.1268C498.2 -7.87325 519.348 1.06005 573.348 1.06005L628.436 97.5601L616.176 332.12V334.432H548.288V319.118H494.789H449.202V316.237H446.462L445.6 316.777L428.774 319.946L313.478 357.138H0V172.77Z" fill="#D9D9D9"/>
</mask>
<g mask="url(#mask0_558_431)">
<path opacity="0.34" d="M561.912 105.735H614.924V333.261L623.976 393.797H660.57V666.755H522.222V597.477H389.247V497.43H447.415V314.614H32.291V160.774H198.627V55.627H561.912V105.735Z" fill="#FDFFF5"/>
<path d="M447.807 332.093V141.367H391.867" stroke="black" stroke-width="2.68818"/>
<path d="M199.585 54.8591V195.025" stroke="black" stroke-width="2.9723"/>
<path d="M201.056 194.288H167.526" stroke="black" stroke-width="2.24015"/>
<rect x="548.396" y="332.095" width="80.2838" height="63.094" fill="black"/>
<rect x="566.564" y="243.344" width="48.9134" height="2.24015" fill="black"/>
<path d="M388.582 598.283V497.414H447.823V314.896H31.875V159.465" stroke="black" stroke-width="2.68818"/>
<path d="M561.785 54.2844V105.837H614.833V393.896H631.711H660.049V665.38H522.503" stroke="black" stroke-width="2.68818"/>
<path d="M512.187 54.2844H198.057" stroke="black" stroke-width="2.68818"/>
<path d="M489.646 364.06V317.98H549.409V337.796" stroke="black" stroke-width="2.24015"/>
<path d="M449.056 352.785H489.236" stroke="black" stroke-width="0.495384"/>
<path d="M449.056 341.753H489.236" stroke="black" stroke-width="0.495384"/>
<path d="M449.056 347.267H489.236" stroke="black" stroke-width="0.495384"/>
<path d="M449.056 336.23H489.236" stroke="black" stroke-width="0.495384"/>
<path d="M32.2921 160.774L198.628 160.774" stroke="black" stroke-width="2.68847"/>
<circle cx="80.2341" cy="302.433" r="8.35181" fill="#F6E2DF" stroke="#FF3435" stroke-width="0.596558"/>
<path d="M81.3027 307.013H79.7441V300.731C79.4863 300.919 79.1699 301.013 78.7949 301.036C78.4199 301.059 78.0332 301.071 77.6113 301.071V299.911C78.3027 299.899 78.8418 299.712 79.2402 299.36C79.6387 299.009 79.873 298.599 79.9434 298.106H81.3027V307.013Z" fill="#FF5050"/>
<circle cx="113.646" cy="302.433" r="8.35181" fill="#FF3435" fill-opacity="0.1" stroke="#FF3435" stroke-width="0.596558"/>
<path d="M110.562 301.493C110.539 301.013 110.598 300.556 110.715 300.122C110.832 299.7 111.02 299.325 111.277 298.997C111.535 298.669 111.852 298.411 112.227 298.224C112.602 298.036 113.047 297.931 113.562 297.931C113.938 297.931 114.289 298.001 114.641 298.13C114.98 298.259 115.285 298.434 115.543 298.669C115.801 298.903 116.012 299.196 116.164 299.536C116.316 299.888 116.398 300.274 116.398 300.696C116.398 301.071 116.352 301.411 116.281 301.692C116.211 301.974 116.094 302.231 115.953 302.466C115.812 302.7 115.648 302.911 115.438 303.099C115.227 303.286 115.004 303.462 114.746 303.614C114.523 303.766 114.277 303.931 114.008 304.095C113.738 304.27 113.492 304.446 113.258 304.622C113.023 304.809 112.824 304.997 112.66 305.173C112.496 305.36 112.414 305.524 112.414 305.665H116.445V307.013H110.375C110.375 306.52 110.445 306.075 110.609 305.665C110.762 305.266 110.973 304.891 111.23 304.563C111.488 304.235 111.781 303.942 112.121 303.684C112.461 303.427 112.812 303.181 113.188 302.97C113.375 302.852 113.574 302.724 113.773 302.583C113.961 302.442 114.137 302.29 114.301 302.114C114.453 301.95 114.582 301.751 114.676 301.54C114.77 301.329 114.828 301.095 114.828 300.837C114.828 300.391 114.699 300.028 114.453 299.747C114.207 299.466 113.879 299.325 113.48 299.325C113.211 299.325 112.988 299.407 112.812 299.548C112.625 299.688 112.484 299.864 112.367 300.075C112.25 300.298 112.168 300.532 112.121 300.778C112.074 301.036 112.051 301.27 112.051 301.493H110.562Z" fill="#FF3435"/>
<circle cx="145.642" cy="302.433" r="8.35181" fill="#FF3435" fill-opacity="0.1" stroke="#FF3435" stroke-width="0.596558"/>
<path d="M144.877 301.751C145.088 301.751 145.311 301.739 145.521 301.704C145.732 301.681 145.932 301.622 146.107 301.54C146.271 301.458 146.412 301.341 146.518 301.188C146.623 301.048 146.682 300.837 146.682 300.579C146.682 300.204 146.564 299.911 146.33 299.688C146.096 299.466 145.791 299.349 145.404 299.349C144.959 299.349 144.607 299.501 144.373 299.782C144.127 300.075 144.01 300.462 144.01 300.954H142.533C142.533 300.532 142.592 300.122 142.732 299.747C142.873 299.372 143.061 299.056 143.307 298.798C143.553 298.528 143.857 298.317 144.209 298.165C144.561 298.013 144.947 297.931 145.393 297.931C145.768 297.931 146.119 297.989 146.459 298.106C146.787 298.224 147.08 298.376 147.338 298.587C147.596 298.798 147.795 299.056 147.936 299.36C148.076 299.665 148.158 300.016 148.158 300.391C148.158 300.86 148.053 301.247 147.854 301.563C147.654 301.88 147.373 302.102 146.998 302.243C147.186 302.313 147.373 302.407 147.561 302.524C147.736 302.641 147.889 302.794 148.029 302.981C148.17 303.169 148.275 303.368 148.357 303.591C148.428 303.813 148.475 304.048 148.475 304.294C148.475 304.774 148.381 305.196 148.217 305.559C148.053 305.923 147.818 306.227 147.537 306.474C147.256 306.72 146.939 306.895 146.564 307.013C146.189 307.13 145.803 307.188 145.404 307.188C144.924 307.188 144.49 307.106 144.104 306.966C143.717 306.813 143.389 306.591 143.131 306.309C142.85 306.028 142.65 305.7 142.51 305.302C142.369 304.915 142.299 304.481 142.322 304.013H143.799C143.822 304.552 143.963 304.985 144.221 305.313C144.479 305.641 144.865 305.806 145.381 305.806C145.592 305.806 145.779 305.77 145.955 305.688C146.131 305.618 146.283 305.513 146.412 305.384C146.541 305.255 146.646 305.102 146.717 304.915C146.787 304.739 146.834 304.54 146.834 304.329C146.834 304.001 146.775 303.755 146.67 303.567C146.553 303.38 146.412 303.239 146.236 303.145C146.049 303.063 145.838 303.005 145.604 302.981C145.369 302.958 145.123 302.946 144.877 302.946V301.751Z" fill="#FF3435"/>
<circle cx="178.084" cy="302.433" r="8.35181" fill="#FF3435" fill-opacity="0.1" stroke="#FF3435" stroke-width="0.596558"/>
<path d="M178.689 300.45L176.357 303.52H178.689V300.45ZM178.701 304.938H174.658V303.509L178.783 297.954H180.178V303.52H181.068V304.938H180.178V307.013H178.701V304.938Z" fill="#FF3435"/>
<circle cx="210.523" cy="302.433" r="8.35181" fill="#FF3435" fill-opacity="0.1" stroke="#FF3435" stroke-width="0.596558"/>
<path d="M212.887 299.513H209.418L209.055 301.763C209.289 301.47 209.547 301.27 209.816 301.165C210.086 301.059 210.426 301.001 210.824 301.001C211.176 301.001 211.516 301.083 211.832 301.224C212.137 301.376 212.406 301.587 212.629 301.845C212.852 302.102 213.027 302.419 213.156 302.782C213.285 303.157 213.355 303.556 213.355 304.001C213.355 304.493 213.273 304.938 213.121 305.337C212.957 305.735 212.746 306.063 212.477 306.345C212.195 306.626 211.879 306.837 211.504 306.977C211.129 307.118 210.719 307.188 210.285 307.188C209.863 307.188 209.477 307.13 209.113 307.024C208.738 306.907 208.422 306.731 208.141 306.497C207.859 306.263 207.625 305.97 207.461 305.618C207.297 305.278 207.203 304.891 207.203 304.446H208.773C208.809 304.845 208.961 305.161 209.23 305.419C209.5 305.677 209.84 305.806 210.25 305.806C210.473 305.806 210.684 305.759 210.871 305.665C211.059 305.571 211.223 305.442 211.363 305.278C211.504 305.114 211.609 304.915 211.68 304.704C211.75 304.493 211.797 304.259 211.797 304.001C211.797 303.755 211.75 303.52 211.68 303.309C211.598 303.099 211.492 302.923 211.352 302.77C211.211 302.606 211.059 302.489 210.871 302.395C210.684 302.313 210.473 302.266 210.25 302.266C209.922 302.266 209.641 302.325 209.43 302.442C209.219 302.559 209.031 302.735 208.891 302.993H207.484L208.316 298.106H212.887V299.513Z" fill="#FF3435"/>
<circle cx="287.646" cy="302.433" r="8.35181" fill="#FF3435" fill-opacity="0.1" stroke="#FF3435" stroke-width="0.596558"/>
<path d="M290.222 299.618C289.776 300.028 289.366 300.52 288.991 301.095C288.604 301.669 288.288 302.29 288.054 302.958C287.819 303.638 287.667 304.247 287.585 304.786C287.491 305.325 287.444 306.075 287.444 307.013H285.757C285.804 306.028 285.886 305.278 285.991 304.763C286.097 304.259 286.272 303.684 286.507 303.04C286.753 302.395 287.058 301.786 287.433 301.2C287.796 300.614 288.183 300.052 288.593 299.513H284.585V298.106H290.222V299.618Z" fill="#FF3435"/>
<circle cx="352.539" cy="302.433" r="8.35181" fill="#FF3435" fill-opacity="0.1" stroke="#FF3435" stroke-width="0.596558"/>
<path d="M352.222 302.782C352.456 302.782 352.667 302.747 352.854 302.653C353.03 302.559 353.171 302.442 353.288 302.29C353.405 302.126 353.499 301.95 353.558 301.739C353.616 301.528 353.651 301.306 353.651 301.048C353.651 300.837 353.616 300.638 353.558 300.427C353.499 300.216 353.405 300.04 353.276 299.876C353.159 299.712 353.007 299.583 352.831 299.489C352.655 299.395 352.456 299.349 352.222 299.349C351.987 299.349 351.788 299.395 351.624 299.489C351.448 299.583 351.308 299.712 351.19 299.876C351.073 300.04 350.979 300.216 350.921 300.427C350.851 300.638 350.827 300.837 350.827 301.024C350.827 301.27 350.851 301.493 350.921 301.704C350.979 301.915 351.073 302.102 351.19 302.266C351.308 302.431 351.448 302.548 351.624 302.641C351.788 302.735 351.987 302.782 352.222 302.782ZM350.897 304.809C350.944 305.138 351.085 305.395 351.308 305.606C351.519 305.817 351.788 305.923 352.104 305.923C352.409 305.923 352.679 305.829 352.89 305.641C353.101 305.454 353.276 305.208 353.405 304.915C353.546 304.622 353.64 304.306 353.71 303.954C353.769 303.614 353.804 303.286 353.815 302.97V302.946C353.628 303.298 353.37 303.579 353.019 303.766C352.667 303.954 352.28 304.048 351.858 304.048C351.53 304.048 351.202 303.977 350.897 303.837C350.593 303.696 350.312 303.509 350.077 303.251C349.831 302.993 349.632 302.688 349.491 302.337C349.339 301.985 349.269 301.599 349.269 301.165C349.269 300.72 349.339 300.298 349.479 299.899C349.62 299.501 349.819 299.161 350.077 298.868C350.323 298.587 350.628 298.352 350.979 298.188C351.331 298.024 351.718 297.931 352.151 297.931C352.761 297.931 353.265 298.059 353.675 298.317C354.085 298.575 354.413 298.915 354.659 299.349C354.905 299.782 355.081 300.274 355.187 300.825C355.28 301.376 355.339 301.95 355.339 302.536C355.339 303.11 355.269 303.673 355.151 304.224C355.034 304.774 354.835 305.278 354.565 305.724C354.296 306.169 353.956 306.52 353.546 306.79C353.136 307.048 352.644 307.188 352.081 307.188C351.343 307.188 350.733 306.989 350.265 306.567C349.784 306.145 349.503 305.559 349.409 304.809H350.897Z" fill="#FF3435"/>
<circle cx="258.369" cy="66.1242" r="8.35181" fill="#FF3435" fill-opacity="0.1" stroke="#FF3435" stroke-width="0.596558"/>
<path d="M251.714 65.1842C251.69 64.7037 251.749 64.2467 251.866 63.8131C251.983 63.3912 252.171 63.0162 252.428 62.6881C252.686 62.36 253.003 62.1022 253.378 61.9147C253.753 61.7272 254.198 61.6217 254.714 61.6217C255.089 61.6217 255.44 61.692 255.792 61.8209C256.132 61.9498 256.436 62.1256 256.694 62.36C256.952 62.5944 257.163 62.8873 257.315 63.2272C257.468 63.5787 257.55 63.9655 257.55 64.3873C257.55 64.7623 257.503 65.1022 257.432 65.3834C257.362 65.6647 257.245 65.9225 257.104 66.1569C256.964 66.3912 256.8 66.6022 256.589 66.7897C256.378 66.9772 256.155 67.153 255.897 67.3053C255.675 67.4576 255.428 67.6217 255.159 67.7858C254.889 67.9615 254.643 68.1373 254.409 68.3131C254.175 68.5006 253.975 68.6881 253.811 68.8639C253.647 69.0514 253.565 69.2155 253.565 69.3561H257.596V70.7037H251.526C251.526 70.2115 251.596 69.7662 251.761 69.3561C251.913 68.9576 252.124 68.5826 252.382 68.2545C252.639 67.9264 252.932 67.6334 253.272 67.3756C253.612 67.1178 253.964 66.8717 254.339 66.6608C254.526 66.5436 254.725 66.4147 254.925 66.274C255.112 66.1334 255.288 65.9811 255.452 65.8053C255.604 65.6412 255.733 65.442 255.827 65.2311C255.921 65.0201 255.979 64.7858 255.979 64.528C255.979 64.0826 255.85 63.7194 255.604 63.4381C255.358 63.1569 255.03 63.0162 254.632 63.0162C254.362 63.0162 254.139 63.0983 253.964 63.2389C253.776 63.3795 253.636 63.5553 253.518 63.7662C253.401 63.9889 253.319 64.2233 253.272 64.4694C253.225 64.7272 253.202 64.9615 253.202 65.1842H251.714ZM263.351 63.2037H259.882L259.519 65.4537C259.753 65.1608 260.011 64.9615 260.281 64.8561C260.55 64.7506 260.89 64.692 261.288 64.692C261.64 64.692 261.98 64.774 262.296 64.9147C262.601 65.067 262.87 65.278 263.093 65.5358C263.316 65.7936 263.491 66.11 263.62 66.4733C263.749 66.8483 263.82 67.2467 263.82 67.692C263.82 68.1842 263.738 68.6295 263.585 69.028C263.421 69.4264 263.21 69.7545 262.941 70.0358C262.659 70.317 262.343 70.528 261.968 70.6686C261.593 70.8092 261.183 70.8795 260.749 70.8795C260.327 70.8795 259.941 70.8209 259.577 70.7155C259.202 70.5983 258.886 70.4225 258.605 70.1881C258.323 69.9537 258.089 69.6608 257.925 69.3092C257.761 68.9694 257.667 68.5826 257.667 68.1373H259.238C259.273 68.5358 259.425 68.8522 259.695 69.11C259.964 69.3678 260.304 69.4967 260.714 69.4967C260.937 69.4967 261.148 69.4498 261.335 69.3561C261.523 69.2623 261.687 69.1334 261.827 68.9694C261.968 68.8053 262.073 68.6061 262.144 68.3951C262.214 68.1842 262.261 67.9498 262.261 67.692C262.261 67.4459 262.214 67.2115 262.144 67.0006C262.062 66.7897 261.956 66.6139 261.816 66.4615C261.675 66.2975 261.523 66.1803 261.335 66.0865C261.148 66.0045 260.937 65.9576 260.714 65.9576C260.386 65.9576 260.105 66.0162 259.894 66.1334C259.683 66.2506 259.495 66.4264 259.355 66.6842H257.948L258.781 61.7975H263.351V63.2037Z" fill="#FF3435"/>
<circle cx="310.83" cy="167.794" r="8.35181" fill="#FF3435" fill-opacity="0.1" stroke="#FF3435" stroke-width="0.596558"/>
<path d="M309.113 172.374H307.554V166.092C307.297 166.28 306.98 166.374 306.605 166.397C306.23 166.42 305.844 166.432 305.422 166.432V165.272C306.113 165.26 306.652 165.073 307.051 164.721C307.449 164.37 307.683 163.959 307.754 163.467H309.113V172.374ZM313.918 168.143C314.153 168.143 314.364 168.108 314.551 168.014C314.727 167.92 314.867 167.803 314.985 167.651C315.102 167.487 315.196 167.311 315.254 167.1C315.313 166.889 315.348 166.667 315.348 166.409C315.348 166.198 315.313 165.999 315.254 165.788C315.196 165.577 315.102 165.401 314.973 165.237C314.856 165.073 314.703 164.944 314.528 164.85C314.352 164.756 314.153 164.709 313.918 164.709C313.684 164.709 313.485 164.756 313.321 164.85C313.145 164.944 313.004 165.073 312.887 165.237C312.77 165.401 312.676 165.577 312.617 165.788C312.547 165.999 312.524 166.198 312.524 166.385C312.524 166.631 312.547 166.854 312.617 167.065C312.676 167.276 312.77 167.463 312.887 167.627C313.004 167.792 313.145 167.909 313.321 168.002C313.485 168.096 313.684 168.143 313.918 168.143ZM312.594 170.17C312.641 170.499 312.781 170.756 313.004 170.967C313.215 171.178 313.485 171.284 313.801 171.284C314.106 171.284 314.375 171.19 314.586 171.002C314.797 170.815 314.973 170.569 315.102 170.276C315.242 169.983 315.336 169.667 315.406 169.315C315.465 168.975 315.5 168.647 315.512 168.331V168.307C315.324 168.659 315.067 168.94 314.715 169.127C314.364 169.315 313.977 169.409 313.555 169.409C313.227 169.409 312.899 169.338 312.594 169.198C312.289 169.057 312.008 168.87 311.774 168.612C311.528 168.354 311.328 168.049 311.188 167.698C311.035 167.346 310.965 166.959 310.965 166.526C310.965 166.081 311.035 165.659 311.176 165.26C311.317 164.862 311.516 164.522 311.774 164.229C312.02 163.948 312.324 163.713 312.676 163.549C313.028 163.385 313.414 163.292 313.848 163.292C314.457 163.292 314.961 163.42 315.371 163.678C315.781 163.936 316.11 164.276 316.356 164.709C316.602 165.143 316.778 165.635 316.883 166.186C316.977 166.737 317.035 167.311 317.035 167.897C317.035 168.471 316.965 169.034 316.848 169.584C316.731 170.135 316.531 170.639 316.262 171.084C315.992 171.53 315.653 171.881 315.242 172.151C314.832 172.409 314.34 172.549 313.778 172.549C313.039 172.549 312.43 172.35 311.961 171.928C311.481 171.506 311.199 170.92 311.106 170.17H312.594Z" fill="#FF3435"/>
<circle cx="384.966" cy="302.433" r="8.35181" fill="#FF3435" fill-opacity="0.1" stroke="#FF3435" stroke-width="0.596558"/>
<path d="M383.093 307.013H381.534V300.731C381.276 300.919 380.96 301.013 380.585 301.036C380.21 301.059 379.823 301.071 379.401 301.071V299.911C380.093 299.899 380.632 299.712 381.03 299.36C381.428 299.009 381.663 298.599 381.733 298.106H383.093V307.013ZM386.503 302.524C386.503 302.958 386.527 303.368 386.573 303.766C386.609 304.165 386.679 304.516 386.796 304.821C386.89 305.126 387.042 305.36 387.23 305.536C387.417 305.724 387.663 305.806 387.968 305.806C388.273 305.806 388.531 305.724 388.73 305.548C388.917 305.372 389.07 305.138 389.187 304.833C389.281 304.528 389.351 304.177 389.386 303.778C389.421 303.38 389.445 302.97 389.445 302.524C389.445 302.091 389.421 301.681 389.386 301.282C389.351 300.884 389.281 300.556 389.187 300.274C389.07 299.993 388.917 299.759 388.73 299.595C388.531 299.431 388.273 299.349 387.968 299.349C387.663 299.349 387.406 299.431 387.218 299.595C387.031 299.759 386.878 299.993 386.784 300.274C386.667 300.556 386.597 300.884 386.562 301.282C386.515 301.681 386.503 302.091 386.503 302.524ZM384.945 302.524C384.945 301.681 385.015 300.966 385.179 300.38C385.331 299.794 385.542 299.325 385.812 298.962C386.081 298.599 386.398 298.341 386.773 298.177C387.148 298.013 387.546 297.931 387.968 297.931C388.39 297.931 388.777 298.013 389.152 298.177C389.527 298.341 389.843 298.599 390.113 298.95C390.394 299.313 390.605 299.794 390.769 300.38C390.933 300.966 391.015 301.681 391.015 302.524C391.015 303.403 390.933 304.141 390.781 304.727C390.616 305.313 390.406 305.794 390.124 306.157C389.843 306.532 389.527 306.802 389.152 306.954C388.777 307.106 388.39 307.188 387.968 307.188C387.546 307.188 387.148 307.106 386.773 306.954C386.398 306.802 386.081 306.532 385.812 306.157C385.542 305.794 385.331 305.313 385.179 304.727C385.015 304.141 384.945 303.403 384.945 302.524Z" fill="#FF3435"/>
<circle cx="433.703" cy="276.231" r="8.35181" fill="#FF3435" fill-opacity="0.1" stroke="#FF3435" stroke-width="0.596558"/>
<path d="M431.834 280.81H430.275V274.529C430.017 274.717 429.701 274.81 429.326 274.834C428.951 274.857 428.564 274.869 428.142 274.869V273.709C428.834 273.697 429.373 273.51 429.771 273.158C430.17 272.806 430.404 272.396 430.474 271.904H431.834V280.81ZM438.022 280.81H436.463V274.529C436.205 274.717 435.889 274.81 435.514 274.834C435.139 274.857 434.752 274.869 434.33 274.869V273.709C435.022 273.697 435.561 273.51 435.959 273.158C436.358 272.806 436.592 272.396 436.662 271.904H438.022V280.81Z" fill="#FF3435"/>
<circle cx="433.703" cy="249.407" r="8.35181" fill="#FF3435" fill-opacity="0.1" stroke="#FF3435" stroke-width="0.596558"/>
<path d="M431.506 253.987H429.947V247.706C429.689 247.893 429.373 247.987 428.998 248.01C428.623 248.034 428.236 248.045 427.814 248.045V246.885C428.506 246.874 429.045 246.686 429.443 246.334C429.842 245.983 430.076 245.573 430.146 245.081H431.506V253.987ZM433.545 248.467C433.522 247.987 433.58 247.53 433.697 247.096C433.815 246.674 434.002 246.299 434.26 245.971C434.518 245.643 434.834 245.385 435.209 245.198C435.584 245.01 436.03 244.905 436.545 244.905C436.92 244.905 437.272 244.975 437.623 245.104C437.963 245.233 438.268 245.409 438.526 245.643C438.783 245.877 438.994 246.17 439.147 246.51C439.299 246.862 439.381 247.249 439.381 247.67C439.381 248.045 439.334 248.385 439.264 248.667C439.194 248.948 439.076 249.206 438.936 249.44C438.795 249.674 438.631 249.885 438.42 250.073C438.209 250.26 437.987 250.436 437.729 250.588C437.506 250.741 437.26 250.905 436.99 251.069C436.721 251.245 436.475 251.42 436.24 251.596C436.006 251.784 435.807 251.971 435.643 252.147C435.479 252.334 435.397 252.499 435.397 252.639H439.428V253.987H433.358C433.358 253.495 433.428 253.049 433.592 252.639C433.744 252.241 433.955 251.866 434.213 251.538C434.471 251.209 434.764 250.917 435.104 250.659C435.444 250.401 435.795 250.155 436.17 249.944C436.358 249.827 436.557 249.698 436.756 249.557C436.944 249.417 437.119 249.264 437.283 249.088C437.436 248.924 437.565 248.725 437.658 248.514C437.752 248.303 437.811 248.069 437.811 247.811C437.811 247.366 437.682 247.002 437.436 246.721C437.19 246.44 436.862 246.299 436.463 246.299C436.194 246.299 435.971 246.381 435.795 246.522C435.608 246.663 435.467 246.838 435.35 247.049C435.233 247.272 435.151 247.506 435.104 247.752C435.057 248.01 435.033 248.245 435.033 248.467H433.545Z" fill="#FF3435"/>
<circle cx="433.703" cy="222.589" r="8.35181" fill="#FF3435" fill-opacity="0.1" stroke="#FF3435" stroke-width="0.596558"/>
<path d="M431.521 227.169H429.963V220.887C429.705 221.075 429.388 221.169 429.013 221.192C428.638 221.215 428.252 221.227 427.83 221.227V220.067C428.521 220.055 429.06 219.868 429.459 219.516C429.857 219.165 430.092 218.755 430.162 218.262H431.521V227.169ZM435.881 221.907C436.092 221.907 436.315 221.895 436.526 221.86C436.737 221.837 436.936 221.778 437.112 221.696C437.276 221.614 437.416 221.497 437.522 221.344C437.627 221.204 437.686 220.993 437.686 220.735C437.686 220.36 437.569 220.067 437.334 219.844C437.1 219.622 436.795 219.505 436.408 219.505C435.963 219.505 435.612 219.657 435.377 219.938C435.131 220.231 435.014 220.618 435.014 221.11H433.537C433.537 220.688 433.596 220.278 433.737 219.903C433.877 219.528 434.065 219.212 434.311 218.954C434.557 218.684 434.862 218.473 435.213 218.321C435.565 218.169 435.951 218.087 436.397 218.087C436.772 218.087 437.123 218.145 437.463 218.262C437.791 218.38 438.084 218.532 438.342 218.743C438.6 218.954 438.799 219.212 438.94 219.516C439.08 219.821 439.162 220.172 439.162 220.547C439.162 221.016 439.057 221.403 438.858 221.719C438.658 222.036 438.377 222.258 438.002 222.399C438.19 222.469 438.377 222.563 438.565 222.68C438.74 222.797 438.893 222.95 439.033 223.137C439.174 223.325 439.28 223.524 439.362 223.747C439.432 223.969 439.479 224.204 439.479 224.45C439.479 224.93 439.385 225.352 439.221 225.715C439.057 226.079 438.822 226.383 438.541 226.63C438.26 226.876 437.944 227.051 437.569 227.169C437.194 227.286 436.807 227.344 436.408 227.344C435.928 227.344 435.494 227.262 435.108 227.122C434.721 226.969 434.393 226.747 434.135 226.465C433.854 226.184 433.655 225.856 433.514 225.458C433.373 225.071 433.303 224.637 433.326 224.169H434.803C434.826 224.708 434.967 225.141 435.225 225.469C435.483 225.797 435.869 225.962 436.385 225.962C436.596 225.962 436.783 225.926 436.959 225.844C437.135 225.774 437.287 225.669 437.416 225.54C437.545 225.411 437.651 225.258 437.721 225.071C437.791 224.895 437.838 224.696 437.838 224.485C437.838 224.157 437.78 223.911 437.674 223.723C437.557 223.536 437.416 223.395 437.24 223.301C437.053 223.219 436.842 223.161 436.608 223.137C436.373 223.114 436.127 223.102 435.881 223.102V221.907Z" fill="#FF3435"/>
<circle cx="433.703" cy="195.766" r="8.35181" fill="#FF3435" fill-opacity="0.1" stroke="#FF3435" stroke-width="0.596558"/>
<path d="M431.193 200.346H429.635V194.064C429.377 194.252 429.06 194.346 428.685 194.369C428.31 194.392 427.924 194.404 427.502 194.404V193.244C428.193 193.232 428.732 193.045 429.131 192.693C429.529 192.342 429.763 191.932 429.834 191.439H431.193V200.346ZM436.924 193.783L434.592 196.853H436.924V193.783ZM436.936 198.271H432.893V196.842L437.018 191.287H438.412V196.853H439.303V198.271H438.412V200.346H436.936V198.271Z" fill="#FF3435"/>
<circle cx="401.824" cy="156.448" r="8.35181" fill="#FF3435" fill-opacity="0.1" stroke="#FF3435" stroke-width="0.596558"/>
<path d="M399.57 161.028H398.011V154.746C397.754 154.934 397.437 155.028 397.062 155.051C396.687 155.075 396.301 155.086 395.879 155.086V153.926C396.57 153.914 397.109 153.727 397.508 153.375C397.906 153.024 398.14 152.614 398.211 152.121H399.57V161.028ZM407.059 153.528H403.59L403.227 155.778C403.461 155.485 403.719 155.286 403.989 155.18C404.258 155.075 404.598 155.016 404.996 155.016C405.348 155.016 405.688 155.098 406.004 155.239C406.309 155.391 406.578 155.602 406.801 155.86C407.024 156.118 407.199 156.434 407.328 156.797C407.457 157.172 407.528 157.571 407.528 158.016C407.528 158.508 407.446 158.953 407.293 159.352C407.129 159.75 406.918 160.078 406.649 160.36C406.367 160.641 406.051 160.852 405.676 160.993C405.301 161.133 404.891 161.203 404.457 161.203C404.035 161.203 403.649 161.145 403.285 161.039C402.91 160.922 402.594 160.746 402.313 160.512C402.031 160.278 401.797 159.985 401.633 159.633C401.469 159.293 401.375 158.907 401.375 158.461H402.946C402.981 158.86 403.133 159.176 403.403 159.434C403.672 159.692 404.012 159.821 404.422 159.821C404.645 159.821 404.856 159.774 405.043 159.68C405.231 159.586 405.395 159.457 405.535 159.293C405.676 159.129 405.781 158.93 405.852 158.719C405.922 158.508 405.969 158.274 405.969 158.016C405.969 157.77 405.922 157.536 405.852 157.325C405.77 157.114 405.664 156.938 405.524 156.786C405.383 156.621 405.231 156.504 405.043 156.411C404.856 156.328 404.645 156.282 404.422 156.282C404.094 156.282 403.813 156.34 403.602 156.457C403.391 156.575 403.203 156.75 403.063 157.008H401.656L402.489 152.121H407.059V153.528Z" fill="#FF3435"/>
<circle cx="420.951" cy="126.694" r="8.35181" fill="#FF3435" fill-opacity="0.1" stroke="#FF3435" stroke-width="0.596558"/>
<path d="M418.699 131.274H417.14V124.993C416.883 125.18 416.566 125.274 416.191 125.297C415.816 125.321 415.429 125.332 415.008 125.332V124.172C415.699 124.161 416.238 123.973 416.636 123.621C417.035 123.27 417.269 122.86 417.34 122.368H418.699V131.274ZM423.68 126.621C423.446 126.621 423.246 126.668 423.071 126.75C422.883 126.832 422.731 126.95 422.602 127.102C422.485 127.254 422.391 127.43 422.321 127.641C422.25 127.852 422.227 128.086 422.227 128.321C422.227 128.567 422.25 128.789 422.321 128.989C422.391 129.2 422.485 129.375 422.602 129.539C422.719 129.703 422.871 129.832 423.059 129.926C423.235 130.02 423.446 130.067 423.68 130.067C423.891 130.067 424.09 130.02 424.266 129.926C424.43 129.832 424.571 129.703 424.688 129.551C424.805 129.387 424.899 129.211 424.957 129C425.016 128.801 425.051 128.578 425.051 128.344C425.051 128.121 425.016 127.899 424.957 127.688C424.899 127.477 424.805 127.289 424.688 127.125C424.571 126.961 424.43 126.844 424.266 126.75C424.09 126.668 423.891 126.621 423.68 126.621ZM424.981 124.606C424.922 124.278 424.781 124.008 424.571 123.797C424.348 123.586 424.078 123.481 423.774 123.481C423.446 123.481 423.176 123.575 422.965 123.762C422.742 123.95 422.567 124.196 422.449 124.489C422.321 124.77 422.227 125.098 422.168 125.45C422.11 125.813 422.086 126.164 422.086 126.493C422.285 126.094 422.555 125.789 422.895 125.602C423.223 125.414 423.621 125.321 424.09 125.321C424.418 125.321 424.746 125.391 425.051 125.532C425.356 125.672 425.637 125.871 425.871 126.118C426.094 126.375 426.27 126.68 426.41 127.032C426.551 127.383 426.621 127.782 426.621 128.215C426.621 128.684 426.551 129.129 426.41 129.528C426.27 129.926 426.082 130.278 425.836 130.559C425.578 130.84 425.274 131.063 424.922 131.215C424.571 131.368 424.172 131.45 423.727 131.45C423.117 131.45 422.602 131.321 422.192 131.086C421.781 130.852 421.453 130.512 421.207 130.09C420.973 129.668 420.797 129.176 420.703 128.614C420.598 128.063 420.551 127.477 420.551 126.856C420.551 126.305 420.61 125.743 420.727 125.18C420.844 124.618 421.043 124.125 421.313 123.68C421.571 123.235 421.91 122.883 422.321 122.602C422.719 122.332 423.211 122.192 423.797 122.192C424.149 122.192 424.489 122.25 424.793 122.356C425.098 122.473 425.367 122.625 425.602 122.825C425.836 123.036 426.024 123.293 426.176 123.598C426.317 123.903 426.422 124.231 426.469 124.606H424.981Z" fill="#FF3435"/>
<circle cx="344.443" cy="215.956" r="8.35181" fill="#FF3435" fill-opacity="0.1" stroke="#FF3435" stroke-width="0.596558"/>
<path d="M342.188 220.536H340.63V214.254C340.372 214.442 340.055 214.536 339.68 214.559C339.305 214.582 338.919 214.594 338.497 214.594V213.434C339.188 213.422 339.727 213.235 340.126 212.883C340.524 212.532 340.759 212.121 340.829 211.629H342.188V220.536ZM349.888 213.141C349.443 213.551 349.032 214.043 348.657 214.618C348.271 215.192 347.954 215.813 347.72 216.481C347.486 217.161 347.333 217.77 347.251 218.309C347.157 218.848 347.111 219.598 347.111 220.536H345.423C345.47 219.551 345.552 218.801 345.657 218.286C345.763 217.782 345.939 217.207 346.173 216.563C346.419 215.918 346.724 215.309 347.099 214.723C347.462 214.137 347.849 213.575 348.259 213.036H344.251V211.629H349.888V213.141Z" fill="#FF3435"/>
<circle cx="255.115" cy="302.433" r="8.35181" fill="#FF3435" fill-opacity="0.1" stroke="#FF3435" stroke-width="0.596558"/>
<path d="M254.972 302.36C254.737 302.36 254.538 302.407 254.362 302.489C254.175 302.571 254.022 302.688 253.894 302.841C253.776 302.993 253.683 303.169 253.612 303.38C253.542 303.591 253.519 303.825 253.519 304.059C253.519 304.306 253.542 304.528 253.612 304.727C253.683 304.938 253.776 305.114 253.894 305.278C254.011 305.442 254.163 305.571 254.351 305.665C254.526 305.759 254.737 305.806 254.972 305.806C255.183 305.806 255.382 305.759 255.558 305.665C255.722 305.571 255.862 305.442 255.979 305.29C256.097 305.126 256.19 304.95 256.249 304.739C256.308 304.54 256.343 304.317 256.343 304.083C256.343 303.86 256.308 303.638 256.249 303.427C256.19 303.216 256.097 303.028 255.979 302.864C255.862 302.7 255.722 302.583 255.558 302.489C255.382 302.407 255.183 302.36 254.972 302.36ZM256.272 300.345C256.214 300.016 256.073 299.747 255.862 299.536C255.64 299.325 255.37 299.22 255.065 299.22C254.737 299.22 254.468 299.313 254.257 299.501C254.034 299.688 253.858 299.934 253.741 300.227C253.612 300.509 253.519 300.837 253.46 301.188C253.401 301.552 253.378 301.903 253.378 302.231C253.577 301.833 253.847 301.528 254.187 301.341C254.515 301.153 254.913 301.059 255.382 301.059C255.71 301.059 256.038 301.13 256.343 301.27C256.647 301.411 256.929 301.61 257.163 301.856C257.386 302.114 257.562 302.419 257.702 302.77C257.843 303.122 257.913 303.52 257.913 303.954C257.913 304.423 257.843 304.868 257.702 305.266C257.562 305.665 257.374 306.016 257.128 306.298C256.87 306.579 256.565 306.802 256.214 306.954C255.862 307.106 255.464 307.188 255.019 307.188C254.409 307.188 253.894 307.059 253.483 306.825C253.073 306.591 252.745 306.251 252.499 305.829C252.265 305.407 252.089 304.915 251.995 304.352C251.89 303.802 251.843 303.216 251.843 302.595C251.843 302.044 251.901 301.481 252.019 300.919C252.136 300.356 252.335 299.864 252.604 299.419C252.862 298.974 253.202 298.622 253.612 298.341C254.011 298.071 254.503 297.931 255.089 297.931C255.44 297.931 255.78 297.989 256.085 298.095C256.39 298.212 256.659 298.364 256.894 298.563C257.128 298.774 257.315 299.032 257.468 299.337C257.608 299.641 257.714 299.97 257.761 300.345H256.272Z" fill="#FF3435"/>
<circle cx="320.002" cy="302.433" r="8.35181" fill="#FF3435" fill-opacity="0.1" stroke="#FF3435" stroke-width="0.596558"/>
<path d="M318.399 300.485C318.399 300.661 318.423 300.825 318.493 300.966C318.552 301.118 318.634 301.247 318.751 301.364C318.868 301.481 319.009 301.563 319.185 301.634C319.349 301.704 319.548 301.739 319.759 301.739C320.181 301.739 320.509 301.622 320.755 301.376C321.001 301.141 321.13 300.837 321.13 300.485C321.13 300.321 321.095 300.157 321.036 299.993C320.966 299.841 320.872 299.7 320.755 299.571C320.638 299.454 320.485 299.36 320.321 299.29C320.157 299.22 319.97 299.173 319.759 299.173C319.548 299.173 319.349 299.22 319.185 299.29C319.009 299.372 318.868 299.466 318.751 299.583C318.634 299.712 318.552 299.852 318.493 300.005C318.423 300.169 318.399 300.321 318.399 300.485ZM318.212 304.388C318.212 304.622 318.247 304.833 318.329 305.02C318.411 305.208 318.528 305.372 318.669 305.501C318.81 305.63 318.974 305.735 319.161 305.806C319.349 305.888 319.56 305.923 319.771 305.923C319.981 305.923 320.181 305.888 320.368 305.806C320.556 305.735 320.72 305.63 320.86 305.501C321.001 305.372 321.118 305.22 321.2 305.032C321.282 304.845 321.329 304.645 321.329 304.411C321.329 304.188 321.282 303.977 321.2 303.79C321.118 303.602 321.001 303.45 320.86 303.309C320.72 303.169 320.556 303.052 320.368 302.981C320.181 302.911 319.981 302.864 319.771 302.864C319.56 302.864 319.349 302.899 319.161 302.97C318.974 303.04 318.81 303.145 318.669 303.286C318.528 303.427 318.411 303.579 318.329 303.766C318.247 303.954 318.212 304.153 318.212 304.388ZM316.958 300.345C316.958 299.97 317.028 299.63 317.192 299.325C317.345 299.02 317.556 298.763 317.825 298.552C318.095 298.352 318.399 298.2 318.728 298.095C319.056 297.989 319.407 297.931 319.759 297.931C320.11 297.931 320.45 297.989 320.79 298.095C321.118 298.2 321.423 298.352 321.692 298.552C321.95 298.763 322.161 299.02 322.325 299.313C322.489 299.606 322.571 299.934 322.571 300.309C322.571 300.532 322.536 300.743 322.466 300.954C322.396 301.165 322.313 301.341 322.196 301.505C322.079 301.681 321.95 301.821 321.798 301.938C321.646 302.056 321.481 302.149 321.317 302.22C321.528 302.29 321.739 302.384 321.927 302.513C322.114 302.641 322.29 302.806 322.442 302.993C322.583 303.192 322.7 303.415 322.794 303.649C322.876 303.884 322.923 304.141 322.923 304.423C322.923 304.845 322.841 305.22 322.677 305.559C322.513 305.899 322.29 306.192 322.009 306.438C321.728 306.684 321.388 306.872 321.001 307.001C320.614 307.118 320.204 307.188 319.771 307.188C319.325 307.188 318.903 307.118 318.517 307.001C318.13 306.872 317.79 306.684 317.509 306.438C317.228 306.192 317.005 305.899 316.841 305.559C316.677 305.22 316.606 304.845 316.606 304.434C316.606 304.153 316.653 303.895 316.747 303.649C316.841 303.415 316.958 303.192 317.122 302.993C317.274 302.794 317.45 302.63 317.661 302.501C317.872 302.372 318.083 302.266 318.317 302.196C317.872 302.079 317.544 301.856 317.31 301.516C317.075 301.188 316.958 300.79 316.958 300.345Z" fill="#FF3435"/>
<circle cx="275.916" cy="214.809" r="8.35181" fill="#FF3435" fill-opacity="0.1" stroke="#FF3435" stroke-width="0.596558"/>
<path d="M273.59 219.388H272.031V213.107C271.773 213.294 271.457 213.388 271.082 213.412C270.707 213.435 270.32 213.447 269.898 213.447V212.287C270.59 212.275 271.129 212.087 271.527 211.736C271.926 211.384 272.16 210.974 272.23 210.482H273.59V219.388ZM277.106 212.861C277.106 213.037 277.129 213.201 277.199 213.341C277.258 213.494 277.34 213.623 277.457 213.74C277.574 213.857 277.715 213.939 277.891 214.009C278.055 214.08 278.254 214.115 278.465 214.115C278.887 214.115 279.215 213.998 279.461 213.751C279.707 213.517 279.836 213.212 279.836 212.861C279.836 212.697 279.801 212.533 279.742 212.369C279.672 212.216 279.578 212.076 279.461 211.947C279.344 211.83 279.192 211.736 279.028 211.666C278.864 211.595 278.676 211.548 278.465 211.548C278.254 211.548 278.055 211.595 277.891 211.666C277.715 211.748 277.574 211.841 277.457 211.958C277.34 212.087 277.258 212.228 277.199 212.38C277.129 212.544 277.106 212.697 277.106 212.861ZM276.918 216.763C276.918 216.998 276.953 217.208 277.035 217.396C277.117 217.583 277.235 217.748 277.375 217.876C277.516 218.005 277.68 218.111 277.867 218.181C278.055 218.263 278.266 218.298 278.477 218.298C278.688 218.298 278.887 218.263 279.074 218.181C279.262 218.111 279.426 218.005 279.567 217.876C279.707 217.748 279.824 217.595 279.906 217.408C279.989 217.22 280.035 217.021 280.035 216.787C280.035 216.564 279.989 216.353 279.906 216.166C279.824 215.978 279.707 215.826 279.567 215.685C279.426 215.544 279.262 215.427 279.074 215.357C278.887 215.287 278.688 215.24 278.477 215.24C278.266 215.24 278.055 215.275 277.867 215.345C277.68 215.416 277.516 215.521 277.375 215.662C277.235 215.802 277.117 215.955 277.035 216.142C276.953 216.33 276.918 216.529 276.918 216.763ZM275.664 212.72C275.664 212.345 275.735 212.005 275.899 211.701C276.051 211.396 276.262 211.138 276.531 210.927C276.801 210.728 277.106 210.576 277.434 210.47C277.762 210.365 278.114 210.306 278.465 210.306C278.817 210.306 279.156 210.365 279.496 210.47C279.824 210.576 280.129 210.728 280.399 210.927C280.656 211.138 280.867 211.396 281.031 211.689C281.196 211.982 281.278 212.31 281.278 212.685C281.278 212.908 281.242 213.119 281.172 213.33C281.102 213.541 281.02 213.716 280.903 213.88C280.785 214.056 280.656 214.197 280.504 214.314C280.352 214.431 280.188 214.525 280.024 214.595C280.235 214.666 280.446 214.759 280.633 214.888C280.821 215.017 280.996 215.181 281.149 215.369C281.289 215.568 281.406 215.791 281.5 216.025C281.582 216.259 281.629 216.517 281.629 216.798C281.629 217.22 281.547 217.595 281.383 217.935C281.219 218.275 280.996 218.568 280.715 218.814C280.434 219.06 280.094 219.248 279.707 219.376C279.321 219.494 278.91 219.564 278.477 219.564C278.031 219.564 277.61 219.494 277.223 219.376C276.836 219.248 276.496 219.06 276.215 218.814C275.934 218.568 275.711 218.275 275.547 217.935C275.383 217.595 275.313 217.22 275.313 216.81C275.313 216.529 275.36 216.271 275.453 216.025C275.547 215.791 275.664 215.568 275.828 215.369C275.981 215.169 276.156 215.005 276.367 214.876C276.578 214.748 276.789 214.642 277.024 214.572C276.578 214.455 276.25 214.232 276.016 213.892C275.781 213.564 275.664 213.166 275.664 212.72Z" fill="#FF3435"/>
<circle cx="211.134" cy="182.624" r="8.35181" fill="#FF3435" fill-opacity="0.1" stroke="#FF3435" stroke-width="0.596558"/>
<path d="M205.748 181.684C205.724 181.204 205.783 180.747 205.9 180.313C206.017 179.891 206.205 179.516 206.463 179.188C206.72 178.86 207.037 178.602 207.412 178.415C207.787 178.227 208.232 178.122 208.748 178.122C209.123 178.122 209.474 178.192 209.826 178.321C210.166 178.45 210.47 178.626 210.728 178.86C210.986 179.094 211.197 179.387 211.349 179.727C211.502 180.079 211.584 180.466 211.584 180.887C211.584 181.262 211.537 181.602 211.467 181.884C211.396 182.165 211.279 182.423 211.138 182.657C210.998 182.891 210.834 183.102 210.623 183.29C210.412 183.477 210.189 183.653 209.931 183.805C209.709 183.958 209.463 184.122 209.193 184.286C208.924 184.462 208.677 184.637 208.443 184.813C208.209 185.001 208.01 185.188 207.845 185.364C207.681 185.552 207.599 185.716 207.599 185.856H211.631V187.204H205.56C205.56 186.712 205.631 186.266 205.795 185.856C205.947 185.458 206.158 185.083 206.416 184.755C206.674 184.427 206.967 184.134 207.306 183.876C207.646 183.618 207.998 183.372 208.373 183.161C208.56 183.044 208.76 182.915 208.959 182.774C209.146 182.634 209.322 182.481 209.486 182.305C209.638 182.141 209.767 181.942 209.861 181.731C209.955 181.52 210.013 181.286 210.013 181.028C210.013 180.583 209.885 180.219 209.638 179.938C209.392 179.657 209.064 179.516 208.666 179.516C208.396 179.516 208.174 179.598 207.998 179.739C207.81 179.88 207.67 180.055 207.552 180.266C207.435 180.489 207.353 180.723 207.306 180.969C207.26 181.227 207.236 181.462 207.236 181.684H205.748ZM213.307 182.716C213.307 183.149 213.33 183.559 213.377 183.958C213.412 184.356 213.483 184.708 213.6 185.012C213.694 185.317 213.846 185.552 214.033 185.727C214.221 185.915 214.467 185.997 214.772 185.997C215.076 185.997 215.334 185.915 215.533 185.739C215.721 185.563 215.873 185.329 215.99 185.024C216.084 184.719 216.155 184.368 216.19 183.969C216.225 183.571 216.248 183.161 216.248 182.716C216.248 182.282 216.225 181.872 216.19 181.473C216.155 181.075 216.084 180.747 215.99 180.466C215.873 180.184 215.721 179.95 215.533 179.786C215.334 179.622 215.076 179.54 214.772 179.54C214.467 179.54 214.209 179.622 214.022 179.786C213.834 179.95 213.682 180.184 213.588 180.466C213.471 180.747 213.401 181.075 213.365 181.473C213.319 181.872 213.307 182.282 213.307 182.716ZM211.748 182.716C211.748 181.872 211.819 181.157 211.983 180.571C212.135 179.985 212.346 179.516 212.615 179.153C212.885 178.79 213.201 178.532 213.576 178.368C213.951 178.204 214.35 178.122 214.772 178.122C215.194 178.122 215.58 178.204 215.955 178.368C216.33 178.532 216.647 178.79 216.916 179.141C217.197 179.505 217.408 179.985 217.572 180.571C217.737 181.157 217.819 181.872 217.819 182.716C217.819 183.594 217.737 184.333 217.584 184.919C217.42 185.505 217.209 185.985 216.928 186.348C216.647 186.723 216.33 186.993 215.955 187.145C215.58 187.298 215.194 187.38 214.772 187.38C214.35 187.38 213.951 187.298 213.576 187.145C213.201 186.993 212.885 186.723 212.615 186.348C212.346 185.985 212.135 185.505 211.983 184.919C211.819 184.333 211.748 183.594 211.748 182.716Z" fill="#FF3435"/>
<circle cx="211.134" cy="156.259" r="8.35181" fill="#FF3435" fill-opacity="0.1" stroke="#FF3435" stroke-width="0.596558"/>
<path d="M205.113 155.319C205.09 154.839 205.148 154.382 205.265 153.948C205.383 153.526 205.57 153.151 205.828 152.823C206.086 152.495 206.402 152.237 206.777 152.05C207.152 151.862 207.597 151.757 208.113 151.757C208.488 151.757 208.84 151.827 209.191 151.956C209.531 152.085 209.836 152.261 210.094 152.495C210.351 152.729 210.562 153.022 210.715 153.362C210.867 153.714 210.949 154.101 210.949 154.522C210.949 154.897 210.902 155.237 210.832 155.519C210.761 155.8 210.644 156.058 210.504 156.292C210.363 156.526 210.199 156.737 209.988 156.925C209.777 157.112 209.554 157.288 209.297 157.44C209.074 157.593 208.828 157.757 208.558 157.921C208.289 158.097 208.043 158.272 207.808 158.448C207.574 158.636 207.375 158.823 207.211 158.999C207.047 159.187 206.965 159.351 206.965 159.491H210.996V160.839H204.926C204.926 160.347 204.996 159.901 205.16 159.491C205.312 159.093 205.523 158.718 205.781 158.39C206.039 158.062 206.332 157.769 206.672 157.511C207.011 157.253 207.363 157.007 207.738 156.796C207.926 156.679 208.125 156.55 208.324 156.409C208.511 156.269 208.687 156.116 208.851 155.94C209.004 155.776 209.133 155.577 209.226 155.366C209.32 155.155 209.379 154.921 209.379 154.663C209.379 154.218 209.25 153.854 209.004 153.573C208.758 153.292 208.429 153.151 208.031 153.151C207.761 153.151 207.539 153.233 207.363 153.374C207.176 153.515 207.035 153.69 206.918 153.901C206.801 154.124 206.719 154.358 206.672 154.604C206.625 154.862 206.601 155.097 206.601 155.319H205.113ZM215.449 160.839H213.891V154.558C213.633 154.745 213.317 154.839 212.942 154.862C212.567 154.886 212.18 154.897 211.758 154.897V153.737C212.449 153.726 212.989 153.538 213.387 153.187C213.785 152.835 214.02 152.425 214.09 151.933H215.449V160.839Z" fill="#FF3435"/>
<circle cx="211.134" cy="129.899" r="8.35181" fill="#FF3435" fill-opacity="0.1" stroke="#FF3435" stroke-width="0.596558"/>
<path d="M205.113 128.959C205.09 128.479 205.148 128.022 205.265 127.588C205.383 127.167 205.57 126.792 205.828 126.463C206.086 126.135 206.402 125.877 206.777 125.69C207.152 125.502 207.597 125.397 208.113 125.397C208.488 125.397 208.84 125.467 209.191 125.596C209.531 125.725 209.836 125.901 210.094 126.135C210.351 126.37 210.562 126.663 210.715 127.002C210.867 127.354 210.949 127.741 210.949 128.163C210.949 128.538 210.902 128.877 210.832 129.159C210.761 129.44 210.644 129.698 210.504 129.932C210.363 130.167 210.199 130.377 209.988 130.565C209.777 130.752 209.554 130.928 209.297 131.081C209.074 131.233 208.828 131.397 208.558 131.561C208.289 131.737 208.043 131.913 207.808 132.088C207.574 132.276 207.375 132.463 207.211 132.639C207.047 132.827 206.965 132.991 206.965 133.131H210.996V134.479H204.926C204.926 133.987 204.996 133.542 205.16 133.131C205.312 132.733 205.523 132.358 205.781 132.03C206.039 131.702 206.332 131.409 206.672 131.151C207.011 130.893 207.363 130.647 207.738 130.436C207.926 130.319 208.125 130.19 208.324 130.049C208.511 129.909 208.687 129.756 208.851 129.581C209.004 129.417 209.133 129.217 209.226 129.006C209.32 128.795 209.379 128.561 209.379 128.303C209.379 127.858 209.25 127.495 209.004 127.213C208.758 126.932 208.429 126.792 208.031 126.792C207.761 126.792 207.539 126.874 207.363 127.014C207.176 127.155 207.035 127.331 206.918 127.542C206.801 127.764 206.719 127.999 206.672 128.245C206.625 128.502 206.601 128.737 206.601 128.959H205.113ZM211.301 128.959C211.278 128.479 211.336 128.022 211.453 127.588C211.571 127.167 211.758 126.792 212.016 126.463C212.274 126.135 212.59 125.877 212.965 125.69C213.34 125.502 213.785 125.397 214.301 125.397C214.676 125.397 215.028 125.467 215.379 125.596C215.719 125.725 216.024 125.901 216.281 126.135C216.539 126.37 216.75 126.663 216.903 127.002C217.055 127.354 217.137 127.741 217.137 128.163C217.137 128.538 217.09 128.877 217.02 129.159C216.949 129.44 216.832 129.698 216.692 129.932C216.551 130.167 216.387 130.377 216.176 130.565C215.965 130.752 215.742 130.928 215.485 131.081C215.262 131.233 215.016 131.397 214.746 131.561C214.477 131.737 214.231 131.913 213.996 132.088C213.762 132.276 213.563 132.463 213.399 132.639C213.235 132.827 213.153 132.991 213.153 133.131H217.184V134.479H211.114C211.114 133.987 211.184 133.542 211.348 133.131C211.5 132.733 211.711 132.358 211.969 132.03C212.227 131.702 212.52 131.409 212.86 131.151C213.199 130.893 213.551 130.647 213.926 130.436C214.114 130.319 214.313 130.19 214.512 130.049C214.699 129.909 214.875 129.756 215.039 129.581C215.192 129.417 215.321 129.217 215.414 129.006C215.508 128.795 215.567 128.561 215.567 128.303C215.567 127.858 215.438 127.495 215.192 127.213C214.946 126.932 214.617 126.792 214.219 126.792C213.949 126.792 213.727 126.874 213.551 127.014C213.364 127.155 213.223 127.331 213.106 127.542C212.989 127.764 212.906 127.999 212.86 128.245C212.813 128.502 212.789 128.737 212.789 128.959H211.301Z" fill="#FF3435"/>
<circle cx="211.134" cy="103.534" r="8.35181" fill="#FF3435" fill-opacity="0.1" stroke="#FF3435" stroke-width="0.596558"/>
<path d="M205.113 102.594C205.09 102.114 205.148 101.657 205.265 101.223C205.383 100.801 205.57 100.426 205.828 100.098C206.086 99.77 206.402 99.5122 206.777 99.3247C207.152 99.1372 207.597 99.0317 208.113 99.0317C208.488 99.0317 208.84 99.1021 209.191 99.231C209.531 99.3599 209.836 99.5356 210.094 99.77C210.351 100.004 210.562 100.297 210.715 100.637C210.867 100.989 210.949 101.375 210.949 101.797C210.949 102.172 210.902 102.512 210.832 102.793C210.761 103.075 210.644 103.333 210.504 103.567C210.363 103.801 210.199 104.012 209.988 104.2C209.777 104.387 209.554 104.563 209.297 104.715C209.074 104.868 208.828 105.032 208.558 105.196C208.289 105.372 208.043 105.547 207.808 105.723C207.574 105.911 207.375 106.098 207.211 106.274C207.047 106.461 206.965 106.625 206.965 106.766H210.996V108.114H204.926C204.926 107.622 204.996 107.176 205.16 106.766C205.312 106.368 205.523 105.993 205.781 105.665C206.039 105.336 206.332 105.043 206.672 104.786C207.011 104.528 207.363 104.282 207.738 104.071C207.926 103.954 208.125 103.825 208.324 103.684C208.511 103.543 208.687 103.391 208.851 103.215C209.004 103.051 209.133 102.852 209.226 102.641C209.32 102.43 209.379 102.196 209.379 101.938C209.379 101.493 209.25 101.129 209.004 100.848C208.758 100.567 208.429 100.426 208.031 100.426C207.761 100.426 207.539 100.508 207.363 100.649C207.176 100.79 207.035 100.965 206.918 101.176C206.801 101.399 206.719 101.633 206.672 101.879C206.625 102.137 206.601 102.372 206.601 102.594H205.113ZM213.621 102.852C213.832 102.852 214.055 102.84 214.266 102.805C214.477 102.782 214.676 102.723 214.852 102.641C215.016 102.559 215.156 102.442 215.262 102.29C215.367 102.149 215.426 101.938 215.426 101.68C215.426 101.305 215.309 101.012 215.074 100.79C214.84 100.567 214.535 100.45 214.149 100.45C213.703 100.45 213.352 100.602 213.117 100.883C212.871 101.176 212.754 101.563 212.754 102.055H211.278C211.278 101.633 211.336 101.223 211.477 100.848C211.617 100.473 211.805 100.157 212.051 99.8989C212.297 99.6294 212.602 99.4185 212.953 99.2661C213.305 99.1138 213.692 99.0317 214.137 99.0317C214.512 99.0317 214.864 99.0903 215.203 99.2075C215.531 99.3247 215.824 99.4771 216.082 99.688C216.34 99.8989 216.539 100.157 216.68 100.461C216.821 100.766 216.903 101.118 216.903 101.493C216.903 101.961 216.797 102.348 216.598 102.665C216.399 102.981 216.117 103.204 215.742 103.344C215.93 103.415 216.117 103.508 216.305 103.625C216.481 103.743 216.633 103.895 216.774 104.083C216.914 104.27 217.02 104.469 217.102 104.692C217.172 104.915 217.219 105.149 217.219 105.395C217.219 105.875 217.125 106.297 216.961 106.661C216.797 107.024 216.563 107.329 216.281 107.575C216 107.821 215.684 107.997 215.309 108.114C214.934 108.231 214.547 108.29 214.149 108.29C213.668 108.29 213.235 108.208 212.848 108.067C212.461 107.915 212.133 107.692 211.875 107.411C211.594 107.129 211.395 106.801 211.254 106.403C211.114 106.016 211.043 105.583 211.067 105.114H212.543C212.567 105.653 212.707 106.086 212.965 106.415C213.223 106.743 213.61 106.907 214.125 106.907C214.336 106.907 214.524 106.872 214.699 106.79C214.875 106.719 215.028 106.614 215.156 106.485C215.285 106.356 215.391 106.204 215.461 106.016C215.531 105.84 215.578 105.641 215.578 105.43C215.578 105.102 215.52 104.856 215.414 104.668C215.297 104.481 215.156 104.34 214.981 104.247C214.793 104.165 214.582 104.106 214.348 104.083C214.114 104.059 213.867 104.047 213.621 104.047V102.852Z" fill="#FF3435"/>
<circle cx="211.134" cy="77.1691" r="8.35181" fill="#FF3435" fill-opacity="0.1" stroke="#FF3435" stroke-width="0.596558"/>
<path d="M205.113 76.2292C205.09 75.7488 205.148 75.2917 205.265 74.8582C205.383 74.4363 205.57 74.0613 205.828 73.7332C206.086 73.405 206.402 73.1472 206.777 72.9597C207.152 72.7722 207.597 72.6667 208.113 72.6667C208.488 72.6667 208.84 72.7371 209.191 72.866C209.531 72.9949 209.836 73.1707 210.094 73.405C210.351 73.6394 210.562 73.9324 210.715 74.2722C210.867 74.6238 210.949 75.0105 210.949 75.4324C210.949 75.8074 210.902 76.1472 210.832 76.4285C210.761 76.7097 210.644 76.9675 210.504 77.2019C210.363 77.4363 210.199 77.6472 209.988 77.8347C209.777 78.0222 209.554 78.198 209.297 78.3503C209.074 78.5027 208.828 78.6667 208.558 78.8308C208.289 79.0066 208.043 79.1824 207.808 79.3582C207.574 79.5457 207.375 79.7332 207.211 79.9089C207.047 80.0964 206.965 80.2605 206.965 80.4011H210.996V81.7488H204.926C204.926 81.2566 204.996 80.8113 205.16 80.4011C205.312 80.0027 205.523 79.6277 205.781 79.2996C206.039 78.9714 206.332 78.6785 206.672 78.4207C207.011 78.1628 207.363 77.9167 207.738 77.7058C207.926 77.5886 208.125 77.4597 208.324 77.3191C208.511 77.1785 208.687 77.0261 208.851 76.8503C209.004 76.6863 209.133 76.4871 209.226 76.2761C209.32 76.0652 209.379 75.8308 209.379 75.573C209.379 75.1277 209.25 74.7644 209.004 74.4832C208.758 74.2019 208.429 74.0613 208.031 74.0613C207.761 74.0613 207.539 74.1433 207.363 74.2839C207.176 74.4246 207.035 74.6003 206.918 74.8113C206.801 75.0339 206.719 75.2683 206.672 75.5144C206.625 75.7722 206.601 76.0066 206.601 76.2292H205.113ZM214.992 75.1863L212.66 78.2566H214.992V75.1863ZM215.004 79.6746H210.961V78.2449L215.086 72.6902H216.481V78.2566H217.371V79.6746H216.481V81.7488H215.004V79.6746Z" fill="#FF3435"/>
<circle cx="293.435" cy="66.1242" r="8.35181" fill="#FF3435" fill-opacity="0.1" stroke="#FF3435" stroke-width="0.596558"/>
<path d="M287.414 65.1842C287.39 64.7037 287.449 64.2467 287.566 63.8131C287.683 63.3912 287.871 63.0162 288.129 62.6881C288.386 62.36 288.703 62.1022 289.078 61.9147C289.453 61.7272 289.898 61.6217 290.414 61.6217C290.789 61.6217 291.14 61.692 291.492 61.8209C291.832 61.9498 292.136 62.1256 292.394 62.36C292.652 62.5944 292.863 62.8873 293.015 63.2272C293.168 63.5787 293.25 63.9655 293.25 64.3873C293.25 64.7623 293.203 65.1022 293.133 65.3834C293.062 65.6647 292.945 65.9225 292.804 66.1569C292.664 66.3912 292.5 66.6022 292.289 66.7897C292.078 66.9772 291.855 67.153 291.597 67.3053C291.375 67.4576 291.129 67.6217 290.859 67.7858C290.59 67.9615 290.344 68.1373 290.109 68.3131C289.875 68.5006 289.676 68.6881 289.511 68.8639C289.347 69.0514 289.265 69.2155 289.265 69.3561H293.297V70.7037H287.226C287.226 70.2115 287.297 69.7662 287.461 69.3561C287.613 68.9576 287.824 68.5826 288.082 68.2545C288.34 67.9264 288.633 67.6334 288.972 67.3756C289.312 67.1178 289.664 66.8717 290.039 66.6608C290.226 66.5436 290.426 66.4147 290.625 66.274C290.812 66.1334 290.988 65.9811 291.152 65.8053C291.304 65.6412 291.433 65.442 291.527 65.2311C291.621 65.0201 291.679 64.7858 291.679 64.528C291.679 64.0826 291.551 63.7194 291.304 63.4381C291.058 63.1569 290.73 63.0162 290.332 63.0162C290.062 63.0162 289.84 63.0983 289.664 63.2389C289.476 63.3795 289.336 63.5553 289.219 63.7662C289.101 63.9889 289.019 64.2233 288.972 64.4694C288.926 64.7272 288.902 64.9615 288.902 65.1842H287.414ZM296.543 66.0514C296.309 66.0514 296.11 66.0983 295.934 66.1803C295.746 66.2623 295.594 66.3795 295.465 66.5319C295.348 66.6842 295.254 66.86 295.184 67.0709C295.114 67.2819 295.09 67.5162 295.09 67.7506C295.09 67.9967 295.114 68.2194 295.184 68.4186C295.254 68.6295 295.348 68.8053 295.465 68.9694C295.582 69.1334 295.735 69.2623 295.922 69.3561C296.098 69.4498 296.309 69.4967 296.543 69.4967C296.754 69.4967 296.953 69.4498 297.129 69.3561C297.293 69.2623 297.434 69.1334 297.551 68.9811C297.668 68.817 297.762 68.6412 297.821 68.4303C297.879 68.2311 297.914 68.0084 297.914 67.774C297.914 67.5514 297.879 67.3287 297.821 67.1178C297.762 66.9069 297.668 66.7194 297.551 66.5553C297.434 66.3912 297.293 66.274 297.129 66.1803C296.953 66.0983 296.754 66.0514 296.543 66.0514ZM297.844 64.0358C297.785 63.7076 297.645 63.4381 297.434 63.2272C297.211 63.0162 296.942 62.9108 296.637 62.9108C296.309 62.9108 296.039 63.0045 295.828 63.192C295.606 63.3795 295.43 63.6256 295.313 63.9186C295.184 64.1998 295.09 64.528 295.031 64.8795C294.973 65.2428 294.949 65.5944 294.949 65.9225C295.149 65.524 295.418 65.2194 295.758 65.0319C296.086 64.8444 296.485 64.7506 296.953 64.7506C297.281 64.7506 297.61 64.8209 297.914 64.9615C298.219 65.1022 298.5 65.3014 298.735 65.5475C298.957 65.8053 299.133 66.11 299.274 66.4615C299.414 66.8131 299.485 67.2115 299.485 67.6451C299.485 68.1139 299.414 68.5592 299.274 68.9576C299.133 69.3561 298.946 69.7076 298.699 69.9889C298.442 70.2701 298.137 70.4928 297.785 70.6451C297.434 70.7975 297.035 70.8795 296.59 70.8795C295.981 70.8795 295.465 70.7506 295.055 70.5162C294.645 70.2819 294.317 69.942 294.071 69.5201C293.836 69.0983 293.66 68.6061 293.567 68.0436C293.461 67.4928 293.414 66.9069 293.414 66.2858C293.414 65.735 293.473 65.1725 293.59 64.61C293.707 64.0475 293.906 63.5553 294.176 63.11C294.434 62.6647 294.774 62.3131 295.184 62.0319C295.582 61.7623 296.074 61.6217 296.66 61.6217C297.012 61.6217 297.352 61.6803 297.656 61.7858C297.961 61.903 298.231 62.0553 298.465 62.2545C298.699 62.4655 298.887 62.7233 299.039 63.028C299.18 63.3326 299.285 63.6608 299.332 64.0358H297.844Z" fill="#FF3435"/>
<circle cx="327.736" cy="66.1242" r="8.35181" fill="#FF3435" fill-opacity="0.1" stroke="#FF3435" stroke-width="0.596558"/>
<path d="M321.719 65.1842C321.695 64.7037 321.754 64.2467 321.871 63.8131C321.988 63.3912 322.176 63.0162 322.433 62.6881C322.691 62.36 323.008 62.1022 323.383 61.9147C323.758 61.7272 324.203 61.6217 324.719 61.6217C325.094 61.6217 325.445 61.692 325.797 61.8209C326.136 61.9498 326.441 62.1256 326.699 62.36C326.957 62.5944 327.168 62.8873 327.32 63.2272C327.472 63.5787 327.554 63.9655 327.554 64.3873C327.554 64.7623 327.508 65.1022 327.437 65.3834C327.367 65.6647 327.25 65.9225 327.109 66.1569C326.969 66.3912 326.804 66.6022 326.594 66.7897C326.383 66.9772 326.16 67.153 325.902 67.3053C325.679 67.4576 325.433 67.6217 325.164 67.7858C324.894 67.9615 324.648 68.1373 324.414 68.3131C324.179 68.5006 323.98 68.6881 323.816 68.8639C323.652 69.0514 323.57 69.2155 323.57 69.3561H327.601V70.7037H321.531C321.531 70.2115 321.601 69.7662 321.765 69.3561C321.918 68.9576 322.129 68.5826 322.386 68.2545C322.644 67.9264 322.937 67.6334 323.277 67.3756C323.617 67.1178 323.969 66.8717 324.344 66.6608C324.531 66.5436 324.73 66.4147 324.929 66.274C325.117 66.1334 325.293 65.9811 325.457 65.8053C325.609 65.6412 325.738 65.442 325.832 65.2311C325.926 65.0201 325.984 64.7858 325.984 64.528C325.984 64.0826 325.855 63.7194 325.609 63.4381C325.363 63.1569 325.035 63.0162 324.636 63.0162C324.367 63.0162 324.144 63.0983 323.969 63.2389C323.781 63.3795 323.64 63.5553 323.523 63.7662C323.406 63.9889 323.324 64.2233 323.277 64.4694C323.23 64.7272 323.207 64.9615 323.207 65.1842H321.719ZM333.567 63.3092C333.121 63.7194 332.711 64.2115 332.336 64.7858C331.949 65.36 331.633 65.9811 331.399 66.649C331.164 67.3287 331.012 67.9381 330.93 68.4772C330.836 69.0162 330.789 69.7662 330.789 70.7037H329.102C329.149 69.7194 329.231 68.9694 329.336 68.4537C329.442 67.9498 329.617 67.3756 329.852 66.7311C330.098 66.0865 330.403 65.4772 330.778 64.8912C331.141 64.3053 331.528 63.7428 331.938 63.2037H327.93V61.7975H333.567V63.3092Z" fill="#FF3435"/>
<circle cx="362.038" cy="66.1241" r="8.35181" fill="#FF3435" fill-opacity="0.1" stroke="#FF3435" stroke-width="0.596558"/>
<path d="M356.016 65.1842C355.993 64.7037 356.052 64.2467 356.169 63.8131C356.286 63.3912 356.473 63.0162 356.731 62.6881C356.989 62.36 357.305 62.1022 357.68 61.9147C358.055 61.7272 358.501 61.6217 359.016 61.6217C359.391 61.6217 359.743 61.692 360.094 61.8209C360.434 61.9498 360.739 62.1256 360.997 62.36C361.255 62.5944 361.466 62.8873 361.618 63.2272C361.77 63.5787 361.852 63.9655 361.852 64.3873C361.852 64.7623 361.805 65.1022 361.735 65.3834C361.665 65.6647 361.548 65.9225 361.407 66.1569C361.266 66.3912 361.102 66.6022 360.891 66.7897C360.68 66.9772 360.458 67.153 360.2 67.3053C359.977 67.4576 359.731 67.6217 359.462 67.7858C359.192 67.9615 358.946 68.1373 358.712 68.3131C358.477 68.5006 358.278 68.6881 358.114 68.8639C357.95 69.0514 357.868 69.2155 357.868 69.3561H361.899V70.7037H355.829C355.829 70.2115 355.899 69.7662 356.063 69.3561C356.216 68.9576 356.427 68.5826 356.684 68.2545C356.942 67.9264 357.235 67.6334 357.575 67.3756C357.915 67.1178 358.266 66.8717 358.641 66.6608C358.829 66.5436 359.028 66.4147 359.227 66.274C359.415 66.1334 359.591 65.9811 359.755 65.8053C359.907 65.6412 360.036 65.442 360.13 65.2311C360.223 65.0201 360.282 64.7858 360.282 64.528C360.282 64.0826 360.153 63.7194 359.907 63.4381C359.661 63.1569 359.333 63.0162 358.934 63.0162C358.665 63.0162 358.442 63.0983 358.266 63.2389C358.079 63.3795 357.938 63.5553 357.821 63.7662C357.704 63.9889 357.622 64.2233 357.575 64.4694C357.528 64.7272 357.505 64.9615 357.505 65.1842H356.016ZM363.681 64.1764C363.681 64.3522 363.704 64.5162 363.775 64.6569C363.833 64.8092 363.915 64.9381 364.032 65.0553C364.15 65.1725 364.29 65.2545 364.466 65.3248C364.63 65.3951 364.829 65.4303 365.04 65.4303C365.462 65.4303 365.79 65.3131 366.036 65.067C366.282 64.8326 366.411 64.528 366.411 64.1764C366.411 64.0123 366.376 63.8483 366.318 63.6842C366.247 63.5319 366.154 63.3912 366.036 63.2623C365.919 63.1451 365.767 63.0514 365.603 62.9811C365.439 62.9108 365.251 62.8639 365.04 62.8639C364.829 62.8639 364.63 62.9108 364.466 62.9811C364.29 63.0631 364.15 63.1569 364.032 63.274C363.915 63.403 363.833 63.5436 363.775 63.6959C363.704 63.86 363.681 64.0123 363.681 64.1764ZM363.493 68.0787C363.493 68.3131 363.529 68.524 363.611 68.7115C363.693 68.899 363.81 69.0631 363.95 69.192C364.091 69.3209 364.255 69.4264 364.443 69.4967C364.63 69.5787 364.841 69.6139 365.052 69.6139C365.263 69.6139 365.462 69.5787 365.65 69.4967C365.837 69.4264 366.001 69.3209 366.142 69.192C366.282 69.0631 366.4 68.9108 366.482 68.7233C366.564 68.5358 366.611 68.3365 366.611 68.1022C366.611 67.8795 366.564 67.6686 366.482 67.4811C366.4 67.2936 366.282 67.1412 366.142 67.0006C366.001 66.86 365.837 66.7428 365.65 66.6725C365.462 66.6022 365.263 66.5553 365.052 66.5553C364.841 66.5553 364.63 66.5905 364.443 66.6608C364.255 66.7311 364.091 66.8365 363.95 66.9772C363.81 67.1178 363.693 67.2701 363.611 67.4576C363.529 67.6451 363.493 67.8444 363.493 68.0787ZM362.239 64.0358C362.239 63.6608 362.31 63.3209 362.474 63.0162C362.626 62.7115 362.837 62.4537 363.107 62.2428C363.376 62.0436 363.681 61.8912 364.009 61.7858C364.337 61.6803 364.689 61.6217 365.04 61.6217C365.392 61.6217 365.732 61.6803 366.072 61.7858C366.4 61.8912 366.704 62.0436 366.974 62.2428C367.232 62.4537 367.443 62.7115 367.607 63.0045C367.771 63.2975 367.853 63.6256 367.853 64.0006C367.853 64.2233 367.818 64.4342 367.747 64.6451C367.677 64.8561 367.595 65.0319 367.478 65.1959C367.361 65.3717 367.232 65.5123 367.079 65.6295C366.927 65.7467 366.763 65.8405 366.599 65.9108C366.81 65.9811 367.021 66.0748 367.208 66.2037C367.396 66.3326 367.572 66.4967 367.724 66.6842C367.864 66.8834 367.982 67.1061 368.075 67.3405C368.157 67.5748 368.204 67.8326 368.204 68.1139C368.204 68.5358 368.122 68.9108 367.958 69.2506C367.794 69.5905 367.572 69.8834 367.29 70.1295C367.009 70.3756 366.669 70.5631 366.282 70.692C365.896 70.8092 365.486 70.8795 365.052 70.8795C364.607 70.8795 364.185 70.8092 363.798 70.692C363.411 70.5631 363.072 70.3756 362.79 70.1295C362.509 69.8834 362.286 69.5905 362.122 69.2506C361.958 68.9108 361.888 68.5358 361.888 68.1256C361.888 67.8444 361.935 67.5865 362.029 67.3405C362.122 67.1061 362.239 66.8834 362.404 66.6842C362.556 66.485 362.732 66.3209 362.943 66.192C363.154 66.0631 363.364 65.9576 363.599 65.8873C363.154 65.7701 362.825 65.5475 362.591 65.2076C362.357 64.8795 362.239 64.4811 362.239 64.0358Z" fill="#FF3435"/>
<circle cx="396.341" cy="66.1242" r="8.35181" fill="#FF3435" fill-opacity="0.1" stroke="#FF3435" stroke-width="0.596558"/>
<path d="M390.319 65.1842C390.296 64.7037 390.354 64.2467 390.471 63.8131C390.589 63.3912 390.776 63.0162 391.034 62.6881C391.292 62.36 391.608 62.1022 391.983 61.9147C392.358 61.7272 392.803 61.6217 393.319 61.6217C393.694 61.6217 394.046 61.692 394.397 61.8209C394.737 61.9498 395.042 62.1256 395.3 62.36C395.557 62.5944 395.768 62.8873 395.921 63.2272C396.073 63.5787 396.155 63.9655 396.155 64.3873C396.155 64.7623 396.108 65.1022 396.038 65.3834C395.968 65.6647 395.85 65.9225 395.71 66.1569C395.569 66.3912 395.405 66.6022 395.194 66.7897C394.983 66.9772 394.761 67.153 394.503 67.3053C394.28 67.4576 394.034 67.6217 393.764 67.7858C393.495 67.9615 393.249 68.1373 393.014 68.3131C392.78 68.5006 392.581 68.6881 392.417 68.8639C392.253 69.0514 392.171 69.2155 392.171 69.3561H396.202V70.7037H390.132C390.132 70.2115 390.202 69.7662 390.366 69.3561C390.518 68.9576 390.729 68.5826 390.987 68.2545C391.245 67.9264 391.538 67.6334 391.878 67.3756C392.218 67.1178 392.569 66.8717 392.944 66.6608C393.132 66.5436 393.331 66.4147 393.53 66.274C393.718 66.1334 393.893 65.9811 394.057 65.8053C394.21 65.6412 394.339 65.442 394.432 65.2311C394.526 65.0201 394.585 64.7858 394.585 64.528C394.585 64.0826 394.456 63.7194 394.21 63.4381C393.964 63.1569 393.636 63.0162 393.237 63.0162C392.968 63.0162 392.745 63.0983 392.569 63.2389C392.382 63.3795 392.241 63.5553 392.124 63.7662C392.007 63.9889 391.925 64.2233 391.878 64.4694C391.831 64.7272 391.807 64.9615 391.807 65.1842H390.319ZM399.273 66.4733C399.507 66.4733 399.718 66.4381 399.906 66.3444C400.081 66.2506 400.222 66.1334 400.339 65.9811C400.456 65.817 400.55 65.6412 400.609 65.4303C400.667 65.2194 400.702 64.9967 400.702 64.7389C400.702 64.528 400.667 64.3287 400.609 64.1178C400.55 63.9069 400.456 63.7311 400.327 63.567C400.21 63.403 400.058 63.274 399.882 63.1803C399.706 63.0865 399.507 63.0397 399.273 63.0397C399.038 63.0397 398.839 63.0865 398.675 63.1803C398.499 63.274 398.359 63.403 398.241 63.567C398.124 63.7311 398.031 63.9069 397.972 64.1178C397.902 64.3287 397.878 64.528 397.878 64.7155C397.878 64.9615 397.902 65.1842 397.972 65.3951C398.031 65.6061 398.124 65.7936 398.241 65.9576C398.359 66.1217 398.499 66.2389 398.675 66.3326C398.839 66.4264 399.038 66.4733 399.273 66.4733ZM397.948 68.5006C397.995 68.8287 398.136 69.0865 398.359 69.2975C398.57 69.5084 398.839 69.6139 399.156 69.6139C399.46 69.6139 399.73 69.5201 399.941 69.3326C400.152 69.1451 400.327 68.899 400.456 68.6061C400.597 68.3131 400.691 67.9967 400.761 67.6451C400.82 67.3053 400.855 66.9772 400.866 66.6608V66.6373C400.679 66.9889 400.421 67.2701 400.07 67.4576C399.718 67.6451 399.331 67.7389 398.909 67.7389C398.581 67.7389 398.253 67.6686 397.948 67.528C397.644 67.3873 397.363 67.1998 397.128 66.942C396.882 66.6842 396.683 66.3795 396.542 66.028C396.39 65.6764 396.32 65.2897 396.32 64.8561C396.32 64.4108 396.39 63.9889 396.531 63.5905C396.671 63.192 396.87 62.8522 397.128 62.5592C397.374 62.278 397.679 62.0436 398.031 61.8795C398.382 61.7155 398.769 61.6217 399.202 61.6217C399.812 61.6217 400.316 61.7506 400.726 62.0084C401.136 62.2662 401.464 62.6061 401.71 63.0397C401.956 63.4733 402.132 63.9655 402.238 64.5162C402.331 65.067 402.39 65.6412 402.39 66.2272C402.39 66.8014 402.32 67.3639 402.202 67.9147C402.085 68.4655 401.886 68.9694 401.616 69.4147C401.347 69.86 401.007 70.2115 400.597 70.4811C400.187 70.7389 399.695 70.8795 399.132 70.8795C398.394 70.8795 397.784 70.6803 397.316 70.2584C396.835 69.8365 396.554 69.2506 396.46 68.5006H397.948Z" fill="#FF3435"/>
<circle cx="430.646" cy="66.1242" r="8.35181" fill="#FF3435" fill-opacity="0.1" stroke="#FF3435" stroke-width="0.596558"/>
<path d="M426.944 65.442C427.155 65.442 427.378 65.4303 427.589 65.3951C427.8 65.3717 427.999 65.3131 428.175 65.2311C428.339 65.149 428.479 65.0319 428.585 64.8795C428.69 64.7389 428.749 64.528 428.749 64.2701C428.749 63.8951 428.632 63.6022 428.397 63.3795C428.163 63.1569 427.858 63.0397 427.471 63.0397C427.026 63.0397 426.675 63.192 426.44 63.4733C426.194 63.7662 426.077 64.153 426.077 64.6451H424.6C424.6 64.2233 424.659 63.8131 424.8 63.4381C424.94 63.0631 425.128 62.7467 425.374 62.4889C425.62 62.2194 425.925 62.0084 426.276 61.8561C426.628 61.7037 427.014 61.6217 427.46 61.6217C427.835 61.6217 428.186 61.6803 428.526 61.7975C428.854 61.9147 429.147 62.067 429.405 62.278C429.663 62.4889 429.862 62.7467 430.003 63.0514C430.143 63.3561 430.225 63.7076 430.225 64.0826C430.225 64.5514 430.12 64.9381 429.921 65.2545C429.721 65.5709 429.44 65.7936 429.065 65.9342C429.253 66.0045 429.44 66.0983 429.628 66.2155C429.803 66.3326 429.956 66.485 430.096 66.6725C430.237 66.86 430.343 67.0592 430.425 67.2819C430.495 67.5045 430.542 67.7389 430.542 67.985C430.542 68.4655 430.448 68.8873 430.284 69.2506C430.12 69.6139 429.886 69.9186 429.604 70.1647C429.323 70.4108 429.007 70.5865 428.632 70.7037C428.257 70.8209 427.87 70.8795 427.471 70.8795C426.991 70.8795 426.557 70.7975 426.171 70.6569C425.784 70.5045 425.456 70.2819 425.198 70.0006C424.917 69.7194 424.718 69.3912 424.577 68.9928C424.436 68.6061 424.366 68.1725 424.389 67.7037H425.866C425.889 68.2428 426.03 68.6764 426.288 69.0045C426.546 69.3326 426.932 69.4967 427.448 69.4967C427.659 69.4967 427.846 69.4615 428.022 69.3795C428.198 69.3092 428.35 69.2037 428.479 69.0748C428.608 68.9459 428.714 68.7936 428.784 68.6061C428.854 68.4303 428.901 68.2311 428.901 68.0201C428.901 67.692 428.843 67.4459 428.737 67.2584C428.62 67.0709 428.479 66.9303 428.303 66.8365C428.116 66.7545 427.905 66.6959 427.671 66.6725C427.436 66.649 427.19 66.6373 426.944 66.6373V65.442ZM432.183 66.2155C432.183 66.649 432.206 67.0592 432.253 67.4576C432.288 67.8561 432.359 68.2076 432.476 68.5123C432.57 68.817 432.722 69.0514 432.909 69.2272C433.097 69.4147 433.343 69.4967 433.648 69.4967C433.952 69.4967 434.21 69.4147 434.409 69.2389C434.597 69.0631 434.749 68.8287 434.866 68.524C434.96 68.2194 435.031 67.8678 435.066 67.4694C435.101 67.0709 435.124 66.6608 435.124 66.2155C435.124 65.7819 435.101 65.3717 435.066 64.9733C435.031 64.5748 434.96 64.2467 434.866 63.9655C434.749 63.6842 434.597 63.4498 434.409 63.2858C434.21 63.1217 433.952 63.0397 433.648 63.0397C433.343 63.0397 433.085 63.1217 432.898 63.2858C432.71 63.4498 432.558 63.6842 432.464 63.9655C432.347 64.2467 432.277 64.5748 432.241 64.9733C432.195 65.3717 432.183 65.7819 432.183 66.2155ZM430.624 66.2155C430.624 65.3717 430.695 64.6569 430.859 64.0709C431.011 63.485 431.222 63.0162 431.491 62.653C431.761 62.2897 432.077 62.0319 432.452 61.8678C432.827 61.7037 433.226 61.6217 433.648 61.6217C434.07 61.6217 434.456 61.7037 434.831 61.8678C435.206 62.0319 435.523 62.2897 435.792 62.6412C436.073 63.0045 436.284 63.485 436.448 64.0709C436.613 64.6569 436.695 65.3717 436.695 66.2155C436.695 67.0944 436.613 67.8326 436.46 68.4186C436.296 69.0045 436.085 69.485 435.804 69.8483C435.523 70.2233 435.206 70.4928 434.831 70.6451C434.456 70.7975 434.07 70.8795 433.648 70.8795C433.226 70.8795 432.827 70.7975 432.452 70.6451C432.077 70.4928 431.761 70.2233 431.491 69.8483C431.222 69.485 431.011 69.0045 430.859 68.4186C430.695 67.8326 430.624 67.0944 430.624 66.2155Z" fill="#FF3435"/>
<circle cx="599.474" cy="177.701" r="8.35181" fill="#FF3435" fill-opacity="0.1" stroke="#FF3435" stroke-width="0.596558"/>
<path d="M595.775 177.019C595.986 177.019 596.209 177.007 596.42 176.972C596.631 176.949 596.83 176.89 597.006 176.808C597.17 176.726 597.31 176.609 597.416 176.456C597.521 176.316 597.58 176.105 597.58 175.847C597.58 175.472 597.463 175.179 597.228 174.956C596.994 174.734 596.689 174.617 596.302 174.617C595.857 174.617 595.506 174.769 595.271 175.05C595.025 175.343 594.908 175.73 594.908 176.222H593.431C593.431 175.8 593.49 175.39 593.631 175.015C593.771 174.64 593.959 174.324 594.205 174.066C594.451 173.796 594.756 173.585 595.107 173.433C595.459 173.281 595.845 173.199 596.291 173.199C596.666 173.199 597.017 173.257 597.357 173.374C597.685 173.492 597.978 173.644 598.236 173.855C598.494 174.066 598.693 174.324 598.834 174.628C598.974 174.933 599.056 175.285 599.056 175.66C599.056 176.128 598.951 176.515 598.752 176.831C598.552 177.148 598.271 177.37 597.896 177.511C598.084 177.581 598.271 177.675 598.459 177.792C598.635 177.91 598.787 178.062 598.927 178.249C599.068 178.437 599.174 178.636 599.256 178.859C599.326 179.081 599.373 179.316 599.373 179.562C599.373 180.042 599.279 180.464 599.115 180.828C598.951 181.191 598.717 181.495 598.435 181.742C598.154 181.988 597.838 182.163 597.463 182.281C597.088 182.398 596.701 182.456 596.302 182.456C595.822 182.456 595.388 182.374 595.002 182.234C594.615 182.081 594.287 181.859 594.029 181.578C593.748 181.296 593.549 180.968 593.408 180.57C593.267 180.183 593.197 179.749 593.22 179.281H594.697C594.72 179.82 594.861 180.253 595.119 180.581C595.377 180.91 595.763 181.074 596.279 181.074C596.49 181.074 596.677 181.038 596.853 180.956C597.029 180.886 597.181 180.781 597.31 180.652C597.439 180.523 597.545 180.37 597.615 180.183C597.685 180.007 597.732 179.808 597.732 179.597C597.732 179.269 597.674 179.023 597.568 178.835C597.451 178.648 597.31 178.507 597.135 178.413C596.947 178.331 596.736 178.273 596.502 178.249C596.267 178.226 596.021 178.214 595.775 178.214V177.019ZM599.643 176.761C599.619 176.281 599.678 175.824 599.795 175.39C599.912 174.968 600.1 174.593 600.358 174.265C600.615 173.937 600.932 173.679 601.307 173.492C601.682 173.304 602.127 173.199 602.643 173.199C603.018 173.199 603.369 173.269 603.721 173.398C604.061 173.527 604.365 173.703 604.623 173.937C604.881 174.171 605.092 174.464 605.244 174.804C605.397 175.156 605.479 175.542 605.479 175.964C605.479 176.339 605.432 176.679 605.362 176.96C605.291 177.242 605.174 177.499 605.033 177.734C604.893 177.968 604.729 178.179 604.518 178.367C604.307 178.554 604.084 178.73 603.826 178.882C603.604 179.035 603.358 179.199 603.088 179.363C602.819 179.538 602.572 179.714 602.338 179.89C602.104 180.078 601.905 180.265 601.74 180.441C601.576 180.628 601.494 180.792 601.494 180.933H605.526V182.281H599.455C599.455 181.788 599.526 181.343 599.69 180.933C599.842 180.535 600.053 180.16 600.311 179.831C600.569 179.503 600.862 179.21 601.201 178.953C601.541 178.695 601.893 178.449 602.268 178.238C602.455 178.12 602.655 177.992 602.854 177.851C603.041 177.71 603.217 177.558 603.381 177.382C603.533 177.218 603.662 177.019 603.756 176.808C603.85 176.597 603.908 176.363 603.908 176.105C603.908 175.66 603.78 175.296 603.533 175.015C603.287 174.734 602.959 174.593 602.561 174.593C602.291 174.593 602.069 174.675 601.893 174.816C601.705 174.956 601.565 175.132 601.447 175.343C601.33 175.566 601.248 175.8 601.201 176.046C601.155 176.304 601.131 176.538 601.131 176.761H599.643Z" fill="#FF3435"/>
<circle cx="466.064" cy="177.284" r="8.35181" fill="#FF3435" fill-opacity="0.1" stroke="#FF3435" stroke-width="0.596558"/>
<path d="M462.366 176.602C462.577 176.602 462.8 176.59 463.011 176.555C463.221 176.531 463.421 176.473 463.596 176.391C463.761 176.309 463.901 176.192 464.007 176.039C464.112 175.899 464.171 175.688 464.171 175.43C464.171 175.055 464.053 174.762 463.819 174.539C463.585 174.317 463.28 174.199 462.893 174.199C462.448 174.199 462.096 174.352 461.862 174.633C461.616 174.926 461.499 175.313 461.499 175.805H460.022C460.022 175.383 460.081 174.973 460.221 174.598C460.362 174.223 460.55 173.906 460.796 173.649C461.042 173.379 461.346 173.168 461.698 173.016C462.05 172.863 462.436 172.781 462.882 172.781C463.257 172.781 463.608 172.84 463.948 172.957C464.276 173.074 464.569 173.227 464.827 173.438C465.085 173.649 465.284 173.906 465.425 174.211C465.565 174.516 465.647 174.867 465.647 175.242C465.647 175.711 465.542 176.098 465.343 176.414C465.143 176.731 464.862 176.953 464.487 177.094C464.675 177.164 464.862 177.258 465.05 177.375C465.225 177.492 465.378 177.645 465.518 177.832C465.659 178.02 465.764 178.219 465.846 178.442C465.917 178.664 465.964 178.899 465.964 179.145C465.964 179.625 465.87 180.047 465.706 180.41C465.542 180.774 465.307 181.078 465.026 181.324C464.745 181.57 464.428 181.746 464.053 181.863C463.678 181.981 463.292 182.039 462.893 182.039C462.413 182.039 461.979 181.957 461.593 181.817C461.206 181.664 460.878 181.442 460.62 181.16C460.339 180.879 460.139 180.551 459.999 180.152C459.858 179.766 459.788 179.332 459.811 178.863H461.288C461.311 179.402 461.452 179.836 461.71 180.164C461.968 180.492 462.354 180.656 462.87 180.656C463.081 180.656 463.268 180.621 463.444 180.539C463.62 180.469 463.772 180.363 463.901 180.234C464.03 180.106 464.136 179.953 464.206 179.766C464.276 179.59 464.323 179.391 464.323 179.18C464.323 178.852 464.264 178.606 464.159 178.418C464.042 178.231 463.901 178.09 463.725 177.996C463.538 177.914 463.327 177.856 463.093 177.832C462.858 177.809 462.612 177.797 462.366 177.797V176.602ZM469.925 175.301L467.593 178.371H469.925V175.301ZM469.937 179.789H465.894V178.359L470.019 172.805H471.413V178.371H472.304V179.789H471.413V181.863H469.937V179.789Z" fill="#FF3435"/>
<circle cx="587.617" cy="121.381" r="8.35181" fill="#FF3435" fill-opacity="0.1" stroke="#FF3435" stroke-width="0.596558"/>
<path d="M583.92 120.699C584.131 120.699 584.353 120.687 584.564 120.652C584.775 120.629 584.974 120.57 585.15 120.488C585.314 120.406 585.455 120.289 585.56 120.137C585.666 119.996 585.724 119.785 585.724 119.527C585.724 119.152 585.607 118.859 585.373 118.637C585.138 118.414 584.834 118.297 584.447 118.297C584.002 118.297 583.65 118.449 583.416 118.73C583.17 119.023 583.052 119.41 583.052 119.902H581.576C581.576 119.48 581.635 119.07 581.775 118.695C581.916 118.32 582.103 118.004 582.349 117.746C582.595 117.476 582.9 117.266 583.252 117.113C583.603 116.961 583.99 116.879 584.435 116.879C584.81 116.879 585.162 116.937 585.502 117.055C585.83 117.172 586.123 117.324 586.381 117.535C586.638 117.746 586.838 118.004 586.978 118.308C587.119 118.613 587.201 118.965 587.201 119.34C587.201 119.808 587.095 120.195 586.896 120.512C586.697 120.828 586.416 121.051 586.041 121.191C586.228 121.262 586.416 121.355 586.603 121.473C586.779 121.59 586.931 121.742 587.072 121.93C587.213 122.117 587.318 122.316 587.4 122.539C587.47 122.762 587.517 122.996 587.517 123.242C587.517 123.723 587.424 124.144 587.26 124.508C587.095 124.871 586.861 125.176 586.58 125.422C586.299 125.668 585.982 125.844 585.607 125.961C585.232 126.078 584.845 126.137 584.447 126.137C583.967 126.137 583.533 126.055 583.146 125.914C582.76 125.762 582.431 125.539 582.174 125.258C581.892 124.976 581.693 124.648 581.552 124.25C581.412 123.863 581.342 123.43 581.365 122.961H582.842C582.865 123.5 583.006 123.933 583.263 124.262C583.521 124.59 583.908 124.754 584.424 124.754C584.635 124.754 584.822 124.719 584.998 124.637C585.174 124.566 585.326 124.461 585.455 124.332C585.584 124.203 585.689 124.051 585.76 123.863C585.83 123.687 585.877 123.488 585.877 123.277C585.877 122.949 585.818 122.703 585.713 122.516C585.595 122.328 585.455 122.187 585.279 122.094C585.092 122.012 584.881 121.953 584.646 121.93C584.412 121.906 584.166 121.894 583.92 121.894V120.699ZM591.936 125.961H590.377V119.68C590.119 119.867 589.803 119.961 589.428 119.984C589.053 120.008 588.666 120.019 588.244 120.019V118.859C588.936 118.848 589.475 118.66 589.873 118.308C590.272 117.957 590.506 117.547 590.576 117.055H591.936V125.961Z" fill="#FF3435"/>
<circle cx="587.617" cy="229.77" r="8.35181" fill="#FF3435" fill-opacity="0.1" stroke="#FF3435" stroke-width="0.596558"/>
<path d="M583.92 229.088C584.131 229.088 584.353 229.077 584.564 229.041C584.775 229.018 584.974 228.959 585.15 228.877C585.314 228.795 585.455 228.678 585.56 228.526C585.666 228.385 585.724 228.174 585.724 227.916C585.724 227.541 585.607 227.248 585.373 227.026C585.138 226.803 584.834 226.686 584.447 226.686C584.002 226.686 583.65 226.838 583.416 227.12C583.17 227.412 583.052 227.799 583.052 228.291H581.576C581.576 227.87 581.635 227.459 581.775 227.084C581.916 226.709 582.103 226.393 582.349 226.135C582.595 225.866 582.9 225.655 583.252 225.502C583.603 225.35 583.99 225.268 584.435 225.268C584.81 225.268 585.162 225.327 585.502 225.444C585.83 225.561 586.123 225.713 586.381 225.924C586.638 226.135 586.838 226.393 586.978 226.698C587.119 227.002 587.201 227.354 587.201 227.729C587.201 228.198 587.095 228.584 586.896 228.901C586.697 229.217 586.416 229.44 586.041 229.58C586.228 229.651 586.416 229.745 586.603 229.862C586.779 229.979 586.931 230.131 587.072 230.319C587.213 230.506 587.318 230.705 587.4 230.928C587.47 231.151 587.517 231.385 587.517 231.631C587.517 232.112 587.424 232.534 587.26 232.897C587.095 233.26 586.861 233.565 586.58 233.811C586.299 234.057 585.982 234.233 585.607 234.35C585.232 234.467 584.845 234.526 584.447 234.526C583.967 234.526 583.533 234.444 583.146 234.303C582.76 234.151 582.431 233.928 582.174 233.647C581.892 233.366 581.693 233.037 581.552 232.639C581.412 232.252 581.342 231.819 581.365 231.35H582.842C582.865 231.889 583.006 232.323 583.263 232.651C583.521 232.979 583.908 233.143 584.424 233.143C584.635 233.143 584.822 233.108 584.998 233.026C585.174 232.955 585.326 232.85 585.455 232.721C585.584 232.592 585.689 232.44 585.76 232.252C585.83 232.077 585.877 231.877 585.877 231.666C585.877 231.338 585.818 231.092 585.713 230.905C585.595 230.717 585.455 230.577 585.279 230.483C585.092 230.401 584.881 230.342 584.646 230.319C584.412 230.295 584.166 230.284 583.92 230.284V229.088ZM590.108 229.088C590.319 229.088 590.541 229.077 590.752 229.041C590.963 229.018 591.162 228.959 591.338 228.877C591.502 228.795 591.643 228.678 591.748 228.526C591.854 228.385 591.912 228.174 591.912 227.916C591.912 227.541 591.795 227.248 591.561 227.026C591.326 226.803 591.022 226.686 590.635 226.686C590.19 226.686 589.838 226.838 589.604 227.12C589.358 227.412 589.24 227.799 589.24 228.291H587.764C587.764 227.87 587.822 227.459 587.963 227.084C588.104 226.709 588.291 226.393 588.537 226.135C588.783 225.866 589.088 225.655 589.44 225.502C589.791 225.35 590.178 225.268 590.623 225.268C590.998 225.268 591.35 225.327 591.69 225.444C592.018 225.561 592.311 225.713 592.569 225.924C592.826 226.135 593.026 226.393 593.166 226.698C593.307 227.002 593.389 227.354 593.389 227.729C593.389 228.198 593.283 228.584 593.084 228.901C592.885 229.217 592.604 229.44 592.229 229.58C592.416 229.651 592.604 229.745 592.791 229.862C592.967 229.979 593.119 230.131 593.26 230.319C593.401 230.506 593.506 230.705 593.588 230.928C593.658 231.151 593.705 231.385 593.705 231.631C593.705 232.112 593.612 232.534 593.447 232.897C593.283 233.26 593.049 233.565 592.768 233.811C592.487 234.057 592.17 234.233 591.795 234.35C591.42 234.467 591.033 234.526 590.635 234.526C590.155 234.526 589.721 234.444 589.334 234.303C588.947 234.151 588.619 233.928 588.362 233.647C588.08 233.366 587.881 233.037 587.74 232.639C587.6 232.252 587.53 231.819 587.553 231.35H589.03C589.053 231.889 589.194 232.323 589.451 232.651C589.709 232.979 590.096 233.143 590.612 233.143C590.822 233.143 591.01 233.108 591.186 233.026C591.362 232.955 591.514 232.85 591.643 232.721C591.772 232.592 591.877 232.44 591.947 232.252C592.018 232.077 592.065 231.877 592.065 231.666C592.065 231.338 592.006 231.092 591.901 230.905C591.783 230.717 591.643 230.577 591.467 230.483C591.28 230.401 591.069 230.342 590.834 230.319C590.6 230.295 590.354 230.284 590.108 230.284V229.088Z" fill="#FF3435"/>
<circle cx="519.594" cy="335.113" r="8.35181" fill="#038DCC" fill-opacity="0.1" stroke="#229BD2" stroke-width="0.596558"/>
<path d="M515.99 334.911C516.196 334.911 516.413 334.899 516.618 334.865C516.824 334.842 517.018 334.785 517.189 334.705C517.349 334.625 517.486 334.511 517.588 334.363C517.691 334.226 517.748 334.02 517.748 333.769C517.748 333.404 517.634 333.119 517.406 332.902C517.177 332.685 516.881 332.571 516.504 332.571C516.07 332.571 515.728 332.719 515.499 332.993C515.26 333.278 515.146 333.655 515.146 334.135H513.707C513.707 333.724 513.764 333.324 513.901 332.959C514.038 332.594 514.221 332.285 514.461 332.034C514.7 331.772 514.997 331.566 515.34 331.418C515.682 331.269 516.059 331.19 516.493 331.19C516.858 331.19 517.2 331.247 517.531 331.361C517.851 331.475 518.136 331.623 518.387 331.829C518.639 332.034 518.833 332.285 518.97 332.582C519.107 332.879 519.186 333.221 519.186 333.587C519.186 334.043 519.084 334.42 518.89 334.728C518.696 335.036 518.422 335.253 518.056 335.39C518.239 335.459 518.422 335.55 518.604 335.664C518.776 335.778 518.924 335.927 519.061 336.109C519.198 336.292 519.301 336.486 519.381 336.703C519.449 336.92 519.495 337.148 519.495 337.388C519.495 337.856 519.403 338.267 519.244 338.621C519.084 338.975 518.855 339.271 518.581 339.511C518.308 339.751 517.999 339.922 517.634 340.036C517.269 340.15 516.892 340.207 516.504 340.207C516.036 340.207 515.614 340.128 515.237 339.991C514.86 339.842 514.541 339.625 514.289 339.351C514.015 339.077 513.821 338.758 513.684 338.37C513.547 337.993 513.479 337.571 513.502 337.114H514.94C514.963 337.639 515.1 338.061 515.351 338.381C515.602 338.701 515.979 338.86 516.481 338.86C516.687 338.86 516.869 338.826 517.04 338.746C517.212 338.678 517.36 338.575 517.486 338.45C517.611 338.324 517.714 338.176 517.782 337.993C517.851 337.822 517.897 337.628 517.897 337.422C517.897 337.103 517.839 336.863 517.737 336.68C517.623 336.498 517.486 336.361 517.314 336.269C517.132 336.189 516.926 336.132 516.698 336.109C516.47 336.087 516.23 336.075 515.99 336.075V334.911ZM525.066 332.731H521.687L521.333 334.922C521.561 334.637 521.812 334.443 522.075 334.34C522.337 334.237 522.669 334.18 523.057 334.18C523.399 334.18 523.73 334.26 524.038 334.397C524.335 334.546 524.598 334.751 524.815 335.002C525.031 335.253 525.203 335.561 525.328 335.915C525.454 336.281 525.522 336.669 525.522 337.103C525.522 337.582 525.442 338.016 525.294 338.404C525.134 338.792 524.929 339.112 524.666 339.386C524.392 339.659 524.084 339.865 523.719 340.002C523.353 340.139 522.954 340.207 522.532 340.207C522.121 340.207 521.744 340.15 521.39 340.048C521.025 339.933 520.717 339.762 520.443 339.534C520.169 339.306 519.94 339.02 519.781 338.678C519.621 338.347 519.529 337.97 519.529 337.536H521.059C521.093 337.924 521.242 338.233 521.504 338.484C521.767 338.735 522.098 338.86 522.497 338.86C522.714 338.86 522.92 338.815 523.102 338.723C523.285 338.632 523.445 338.507 523.582 338.347C523.719 338.187 523.821 337.993 523.89 337.787C523.958 337.582 524.004 337.354 524.004 337.103C524.004 336.863 523.958 336.635 523.89 336.429C523.81 336.224 523.707 336.052 523.57 335.904C523.433 335.744 523.285 335.63 523.102 335.539C522.92 335.459 522.714 335.413 522.497 335.413C522.178 335.413 521.904 335.47 521.698 335.584C521.493 335.698 521.31 335.87 521.173 336.121H519.803L520.614 331.361H525.066V332.731Z" fill="#229BD2"/>
<rect width="98.6204" height="24.8102" transform="translate(95.7529 129.273)" fill="#B6DA03" fill-opacity="0.36"/>
<path d="M101.792 135.658H109.337V137.227H103.618V140.879H108.939V142.44H103.618V146.109H109.396V147.678H101.792V135.658ZM121.257 147.678H119.581L113.488 138.887H113.38V147.678H111.554V135.658H113.247L119.332 144.457H119.439V135.658H121.257V147.678ZM123.1 135.658H132.422V137.227H128.687V147.678H126.852V137.227H123.1V135.658ZM134.281 135.658H138.564C139.483 135.658 140.252 135.816 140.872 136.131C141.497 136.441 141.965 136.881 142.275 137.451C142.585 138.021 142.74 138.682 142.74 139.435C142.74 140.177 142.585 140.827 142.275 141.386C141.965 141.939 141.495 142.371 140.864 142.681C140.238 142.991 139.469 143.146 138.556 143.146H135.311V141.56H138.382C138.968 141.56 139.447 141.477 139.818 141.311C140.189 141.145 140.46 140.904 140.631 140.589C140.808 140.273 140.897 139.889 140.897 139.435C140.897 138.965 140.808 138.566 140.631 138.24C140.46 137.908 140.186 137.656 139.81 137.484C139.433 137.313 138.955 137.227 138.374 137.227H136.107V147.678H134.281V135.658ZM143.188 147.678H141.104L138.199 142.257H140.225L143.188 147.678ZM143.844 147.678L148.16 135.658H150.277L154.602 147.678H152.651L149.264 137.858H149.165L145.77 147.678H143.844ZM152.335 142.971V144.499H146.093V142.971H152.335ZM165.849 147.678H164.172L158.08 138.887H157.972V147.678H156.146V135.658H157.839L163.923 144.457H164.031V135.658H165.849V147.678ZM176.441 139.576C176.347 139.067 176.15 138.633 175.852 138.273C175.558 137.908 175.19 137.631 174.748 137.443C174.31 137.255 173.837 137.161 173.328 137.161C172.636 137.161 172.017 137.338 171.469 137.692C170.921 138.041 170.489 138.555 170.174 139.236C169.864 139.911 169.709 140.722 169.709 141.668C169.709 142.625 169.864 143.442 170.174 144.117C170.489 144.792 170.921 145.304 171.469 145.652C172.017 146.001 172.634 146.175 173.32 146.175C173.829 146.175 174.299 146.081 174.731 145.893C175.163 145.705 175.531 145.434 175.835 145.08C176.139 144.72 176.341 144.294 176.441 143.801L178.275 143.81C178.148 144.59 177.858 145.287 177.404 145.901C176.956 146.516 176.38 146.994 175.677 147.337C174.974 147.675 174.186 147.844 173.312 147.844C172.266 147.844 171.333 147.595 170.514 147.097C169.701 146.599 169.062 145.882 168.597 144.947C168.137 144.012 167.908 142.919 167.908 141.668C167.908 140.406 168.14 139.311 168.605 138.381C169.07 137.451 169.709 136.737 170.522 136.239C171.341 135.741 172.271 135.492 173.312 135.492C174.158 135.492 174.933 135.655 175.636 135.982C176.344 136.303 176.928 136.771 177.387 137.385C177.847 137.999 178.143 138.729 178.275 139.576H176.441ZM180.251 135.658H187.796V137.227H182.077V140.879H187.398V142.44H182.077V146.109H187.854V147.678H180.251V135.658Z" fill="#1C1F1C"/>
<path d="M184.296 179.395V180.395H185.296V179.395H184.296ZM162.67 178.688C162.279 179.078 162.279 179.711 162.67 180.102L169.034 186.466C169.424 186.856 170.057 186.856 170.448 186.466C170.839 186.075 170.839 185.442 170.448 185.052L164.791 179.395L170.448 173.738C170.839 173.347 170.839 172.714 170.448 172.324C170.057 171.933 169.424 171.933 169.034 172.324L162.67 178.688ZM184.296 154.17H183.296V179.395H184.296H185.296V154.17H184.296ZM184.296 179.395V178.395H163.377V179.395V180.395H184.296V179.395Z" fill="#A7C900"/>
<rect width="98.6204" height="24.8102" transform="translate(465.434 19.2191)" fill="#B6DA03" fill-opacity="0.36"/>
<path d="M471.473 25.6047H479.018V27.1736H473.299V30.8259H478.62V32.3865H473.299V36.0554H479.076V37.6243H471.473V25.6047ZM490.938 37.6243H489.261L483.168 28.8337H483.061V37.6243H481.234V25.6047H482.928L489.012 34.4036H489.12V25.6047H490.938V37.6243ZM492.781 25.6047H502.103V27.1736H498.367V37.6243H496.533V27.1736H492.781V25.6047ZM503.962 25.6047H508.245C509.164 25.6047 509.933 25.7625 510.553 26.0779C511.178 26.3878 511.646 26.8277 511.956 27.3977C512.265 27.9677 512.42 28.629 512.42 29.3816C512.42 30.1231 512.265 30.7734 511.956 31.3323C511.646 31.8857 511.175 32.3173 510.544 32.6272C509.919 32.9371 509.15 33.092 508.237 33.092H504.991V31.5066H508.062C508.649 31.5066 509.128 31.4236 509.499 31.2576C509.869 31.0916 510.14 30.8508 510.312 30.5354C510.489 30.22 510.578 29.8354 510.578 29.3816C510.578 28.9112 510.489 28.5128 510.312 28.1863C510.14 27.8542 509.867 27.6025 509.49 27.4309C509.114 27.2594 508.635 27.1736 508.054 27.1736H505.788V37.6243H503.962V25.6047ZM512.869 37.6243H510.785L507.88 32.2039H509.905L512.869 37.6243ZM513.524 37.6243L517.841 25.6047H519.958L524.282 37.6243H522.332L518.945 27.8044H518.845L515.45 37.6243H513.524ZM522.016 32.9177V34.4451H515.774V32.9177H522.016ZM535.53 37.6243H533.853L527.76 28.8337H527.652V37.6243H525.826V25.6047H527.52L533.604 34.4036H533.712V25.6047H535.53V37.6243ZM546.122 29.5227C546.028 29.0136 545.831 28.5792 545.532 28.2195C545.239 27.8542 544.871 27.5776 544.428 27.3894C543.991 27.2013 543.518 27.1072 543.009 27.1072C542.317 27.1072 541.697 27.2843 541.149 27.6384C540.602 27.9871 540.17 28.5017 539.854 29.1824C539.545 29.8575 539.39 30.6682 539.39 31.6145C539.39 32.5719 539.545 33.3881 539.854 34.0632C540.17 34.7384 540.602 35.2502 541.149 35.5989C541.697 35.9475 542.314 36.1218 543 36.1218C543.51 36.1218 543.98 36.0278 544.412 35.8396C544.843 35.6514 545.211 35.3803 545.516 35.0261C545.82 34.6664 546.022 34.2403 546.122 33.7478L547.956 33.7561C547.829 34.5364 547.538 35.2336 547.084 35.8479C546.636 36.4622 546.061 36.9408 545.358 37.2839C544.655 37.6215 543.867 37.7903 542.992 37.7903C541.946 37.7903 541.014 37.5413 540.195 37.0432C539.381 36.5452 538.742 35.8285 538.277 34.8933C537.818 33.9581 537.588 32.8652 537.588 31.6145C537.588 30.3528 537.821 29.2571 538.286 28.3274C538.75 27.3977 539.39 26.6838 540.203 26.1858C541.022 25.6877 541.952 25.4387 542.992 25.4387C543.839 25.4387 544.614 25.602 545.316 25.9285C546.025 26.2494 546.609 26.717 547.068 27.3313C547.527 27.9456 547.823 28.676 547.956 29.5227H546.122ZM549.932 25.6047H557.477V27.1736H551.758V30.8259H557.079V32.3865H551.758V36.0554H557.535V37.6243H549.932V25.6047Z" fill="#1C1F1C"/>
<path d="M535.567 69.3414L536.567 69.3415V69.3414H535.567ZM534.859 74.6519C535.25 75.0424 535.883 75.0425 536.273 74.652L542.638 68.2884C543.028 67.8979 543.028 67.2647 542.638 66.8742C542.247 66.4836 541.614 66.4836 541.224 66.8741L535.566 72.5306L529.91 66.8734C529.519 66.4829 528.886 66.4828 528.496 66.8733C528.105 67.2638 528.105 67.897 528.496 68.2876L534.859 74.6519ZM535.567 44.1169H534.567V69.3414H535.567H536.567V44.1169H535.567ZM535.567 69.3414L534.567 69.3414L534.566 73.9448L535.566 73.9448L536.566 73.9449L536.567 69.3415L535.567 69.3414Z" fill="#A7C900"/>
<rect width="74.6204" height="24.8102" transform="translate(69.709 322.266)" fill="#FFCDCD"/>
<path d="M75.748 328.651H80.0312C80.9388 328.651 81.7052 328.82 82.3306 329.158C82.9559 329.49 83.4235 329.949 83.7334 330.536C84.0488 331.117 84.2065 331.789 84.2065 332.553C84.2065 333.305 84.0488 333.975 83.7334 334.562C83.418 335.148 82.9476 335.61 82.3223 335.948C81.6969 336.285 80.9305 336.454 80.0229 336.454H77.0679V334.902H79.8486C80.4242 334.902 80.9001 334.802 81.2764 334.603C81.6527 334.398 81.9266 334.122 82.0981 333.773C82.2752 333.419 82.3638 333.012 82.3638 332.553C82.3638 332.082 82.2752 331.673 82.0981 331.324C81.9266 330.976 81.6499 330.704 81.2681 330.511C80.8918 330.317 80.4159 330.22 79.8403 330.22H77.5742V340.671H75.748V328.651ZM86.124 328.651H87.9502V339.102H93.3872V340.671H86.124V328.651ZM94.9395 340.671L99.2559 328.651H101.373L105.697 340.671H103.747L100.36 330.851H100.26L96.8652 340.671H94.9395ZM103.431 335.964V337.492H97.189V335.964H103.431ZM114.82 332.569C114.726 332.06 114.529 331.626 114.23 331.266C113.937 330.901 113.569 330.624 113.126 330.436C112.689 330.248 112.216 330.154 111.707 330.154C111.015 330.154 110.396 330.331 109.848 330.685C109.3 331.034 108.868 331.548 108.553 332.229C108.243 332.904 108.088 333.715 108.088 334.661C108.088 335.618 108.243 336.435 108.553 337.11C108.868 337.785 109.3 338.297 109.848 338.646C110.396 338.994 111.013 339.168 111.699 339.168C112.208 339.168 112.678 339.074 113.11 338.886C113.542 338.698 113.91 338.427 114.214 338.073C114.518 337.713 114.72 337.287 114.82 336.794L116.654 336.803C116.527 337.583 116.236 338.28 115.783 338.895C115.334 339.509 114.759 339.987 114.056 340.331C113.353 340.668 112.565 340.837 111.69 340.837C110.645 340.837 109.712 340.588 108.893 340.09C108.08 339.592 107.44 338.875 106.976 337.94C106.516 337.005 106.287 335.912 106.287 334.661C106.287 333.399 106.519 332.304 106.984 331.374C107.449 330.444 108.088 329.73 108.901 329.232C109.72 328.734 110.65 328.485 111.69 328.485C112.537 328.485 113.312 328.649 114.015 328.975C114.723 329.296 115.307 329.764 115.766 330.378C116.225 330.992 116.521 331.723 116.654 332.569H114.82ZM118.63 328.651H126.175V330.22H120.456V333.873H125.777V335.433H120.456V339.102H126.233V340.671H118.63V328.651ZM136.941 340.671H135.099V330.486H135.032L132.168 332.362V330.61L135.148 328.651H136.941V340.671Z" fill="#1C1F1C"/>
<path d="M50.2236 301.623V300.623H49.2236V301.623H50.2236ZM50.2236 332.728H49.2236V333.728H50.2236V332.728ZM65.6748 333.435C66.0653 333.045 66.0653 332.412 65.6748 332.021L59.3109 325.657C58.9203 325.267 58.2872 325.267 57.8966 325.657C57.5061 326.048 57.5061 326.681 57.8966 327.071L63.5535 332.728L57.8966 338.385C57.5061 338.776 57.5061 339.409 57.8966 339.799C58.2872 340.19 58.9203 340.19 59.3109 339.799L65.6748 333.435ZM64.9677 301.623V300.623H50.2236V301.623V302.623H64.9677V301.623ZM50.2236 301.623H49.2236V332.728H50.2236H51.2236V301.623H50.2236ZM50.2236 332.728V333.728H64.9677V332.728V331.728H50.2236V332.728Z" fill="#FF3435"/>
<path d="M435.277 336.229L435.277 337.292V337.292L435.277 336.229ZM404.171 336.229L404.171 335.167L403.109 335.167L403.109 336.229L404.171 336.229ZM403.42 360.027C403.835 360.442 404.508 360.442 404.923 360.027L411.685 353.264C412.1 352.849 412.1 352.176 411.685 351.761C411.27 351.346 410.598 351.346 410.183 351.761L404.171 357.773L398.16 351.761C397.745 351.346 397.072 351.346 396.658 351.761C396.243 352.176 396.243 352.849 396.658 353.264L403.42 360.027ZM507.253 336.229L507.253 335.167L435.277 335.167L435.277 336.229L435.277 337.292L507.253 337.292L507.253 336.229ZM435.277 336.229L435.277 335.167L404.171 335.167L404.171 336.229L404.171 337.292L435.277 337.292L435.277 336.229ZM404.171 336.229L403.109 336.229L403.109 359.275L404.171 359.275L405.234 359.275L405.234 336.229L404.171 336.229Z" fill="#229BD2"/>
</g>
</svg>
