<svg width="649" height="339" viewBox="0 0 649 339" fill="none" xmlns="http://www.w3.org/2000/svg">
<mask id="mask0_696_5445" style="mask-type:alpha" maskUnits="userSpaceOnUse" x="0" y="4" width="649" height="335">
<path d="M0 339V4H241.944L648.73 23.6746L616.294 314.008H548.23V297.524H488.356V294.865H446.135L426.992 339H0Z" fill="#D9D9D9"/>
</mask>
<g mask="url(#mask0_696_5445)">
<path opacity="0.34" d="M561.836 84.207H614.89V311.915L623.95 372.5H660.573V645.678H522.112V576.343H389.032V476.217H447.247V293.254H31.7891V139.29H198.259V34.0576H561.836V84.207Z" fill="#FDFFF5"/>
<path d="M447.639 310.745V119.865H391.654" stroke="black" stroke-width="2.69035"/>
<path d="M199.218 33.2861V173.565" stroke="black" stroke-width="2.9747"/>
<path d="M200.688 172.828H167.132" stroke="black" stroke-width="2.24196"/>
<rect x="548.31" y="310.745" width="80.3484" height="63.1448" fill="black"/>
<rect x="566.492" y="221.923" width="48.9528" height="2.24196" fill="black"/>
<path d="M388.368 577.149V476.199H447.656V293.534H31.373V137.978" stroke="black" stroke-width="2.69035"/>
<path d="M561.708 32.7129V84.3066H614.799V372.598H631.691H660.051V644.3H522.395" stroke="black" stroke-width="2.69035"/>
<path d="M513 32.7129H197.688" stroke="black" stroke-width="2.69035"/>
<path d="M489.512 342.738V296.621H549.323V316.453" stroke="black" stroke-width="2.24196"/>
<path d="M448.89 331.454H489.102" stroke="black" stroke-width="0.495783"/>
<path d="M448.89 320.412H489.102" stroke="black" stroke-width="0.495783"/>
<path d="M448.89 336.975H489.102" stroke="black" stroke-width="0.495783"/>
<path d="M448.89 325.929H489.102" stroke="black" stroke-width="0.495783"/>
<path d="M448.89 314.887H489.102" stroke="black" stroke-width="0.495783"/>
<path d="M31.789 139.286L198.259 139.286" stroke="black" stroke-width="2.69063"/>
<circle cx="79.7703" cy="281.06" r="8.35853" fill="#FF3435" fill-opacity="0.1" stroke="#FF3435" stroke-width="0.597038"/>
<path d="M80.6855 285.415H79.127V279.133C78.8691 279.321 78.5527 279.415 78.1777 279.438C77.8027 279.461 77.416 279.473 76.9941 279.473V278.313C77.6855 278.301 78.2246 278.114 78.623 277.762C79.0215 277.411 79.2559 277 79.3262 276.508H80.6855V285.415Z" fill="#FF3435"/>
<circle cx="113.208" cy="281.06" r="8.35853" fill="#FF3435" fill-opacity="0.1" stroke="#FF3435" stroke-width="0.597038"/>
<path d="M109.971 279.895C109.947 279.415 110.006 278.958 110.123 278.524C110.24 278.102 110.428 277.727 110.686 277.399C110.943 277.071 111.26 276.813 111.635 276.625C112.01 276.438 112.455 276.333 112.971 276.333C113.346 276.333 113.697 276.403 114.049 276.532C114.389 276.661 114.693 276.836 114.951 277.071C115.209 277.305 115.42 277.598 115.572 277.938C115.725 278.29 115.807 278.676 115.807 279.098C115.807 279.473 115.76 279.813 115.689 280.094C115.619 280.375 115.502 280.633 115.361 280.868C115.221 281.102 115.057 281.313 114.846 281.5C114.635 281.688 114.412 281.864 114.154 282.016C113.932 282.168 113.686 282.333 113.416 282.497C113.146 282.672 112.9 282.848 112.666 283.024C112.432 283.211 112.232 283.399 112.068 283.575C111.904 283.762 111.822 283.926 111.822 284.067H115.854V285.415H109.783C109.783 284.922 109.854 284.477 110.018 284.067C110.17 283.668 110.381 283.293 110.639 282.965C110.896 282.637 111.189 282.344 111.529 282.086C111.869 281.829 112.221 281.583 112.596 281.372C112.783 281.254 112.982 281.125 113.182 280.985C113.369 280.844 113.545 280.692 113.709 280.516C113.861 280.352 113.99 280.153 114.084 279.942C114.178 279.731 114.236 279.497 114.236 279.239C114.236 278.793 114.107 278.43 113.861 278.149C113.615 277.868 113.287 277.727 112.889 277.727C112.619 277.727 112.396 277.809 112.221 277.95C112.033 278.09 111.893 278.266 111.775 278.477C111.658 278.7 111.576 278.934 111.529 279.18C111.482 279.438 111.459 279.672 111.459 279.895H109.971Z" fill="#FF3435"/>
<circle cx="145.229" cy="281.06" r="8.35853" fill="#FF3435" fill-opacity="0.1" stroke="#FF3435" stroke-width="0.597038"/>
<path d="M144.312 280.153C144.523 280.153 144.746 280.141 144.957 280.106C145.168 280.083 145.367 280.024 145.543 279.942C145.707 279.86 145.848 279.743 145.953 279.59C146.059 279.45 146.117 279.239 146.117 278.981C146.117 278.606 146 278.313 145.766 278.09C145.531 277.868 145.227 277.75 144.84 277.75C144.395 277.75 144.043 277.903 143.809 278.184C143.562 278.477 143.445 278.864 143.445 279.356H141.969C141.969 278.934 142.027 278.524 142.168 278.149C142.309 277.774 142.496 277.458 142.742 277.2C142.988 276.93 143.293 276.719 143.645 276.567C143.996 276.415 144.383 276.333 144.828 276.333C145.203 276.333 145.555 276.391 145.895 276.508C146.223 276.625 146.516 276.778 146.773 276.989C147.031 277.2 147.23 277.458 147.371 277.762C147.512 278.067 147.594 278.418 147.594 278.793C147.594 279.262 147.488 279.649 147.289 279.965C147.09 280.282 146.809 280.504 146.434 280.645C146.621 280.715 146.809 280.809 146.996 280.926C147.172 281.043 147.324 281.196 147.465 281.383C147.605 281.571 147.711 281.77 147.793 281.993C147.863 282.215 147.91 282.45 147.91 282.696C147.91 283.176 147.816 283.598 147.652 283.961C147.488 284.325 147.254 284.629 146.973 284.875C146.691 285.122 146.375 285.297 146 285.415C145.625 285.532 145.238 285.59 144.84 285.59C144.359 285.59 143.926 285.508 143.539 285.368C143.152 285.215 142.824 284.993 142.566 284.711C142.285 284.43 142.086 284.102 141.945 283.704C141.805 283.317 141.734 282.883 141.758 282.415H143.234C143.258 282.954 143.398 283.387 143.656 283.715C143.914 284.043 144.301 284.208 144.816 284.208C145.027 284.208 145.215 284.172 145.391 284.09C145.566 284.02 145.719 283.915 145.848 283.786C145.977 283.657 146.082 283.504 146.152 283.317C146.223 283.141 146.27 282.942 146.27 282.731C146.27 282.403 146.211 282.157 146.105 281.969C145.988 281.782 145.848 281.641 145.672 281.547C145.484 281.465 145.273 281.407 145.039 281.383C144.805 281.36 144.559 281.348 144.312 281.348V280.153Z" fill="#FF3435"/>
<circle cx="177.696" cy="281.06" r="8.35853" fill="#FF3435" fill-opacity="0.1" stroke="#FF3435" stroke-width="0.597038"/>
<path d="M178.15 278.852L175.818 281.922H178.15V278.852ZM178.162 283.34H174.119V281.911L178.244 276.356H179.639V281.922H180.529V283.34H179.639V285.415H178.162V283.34Z" fill="#FF3435"/>
<circle cx="210.163" cy="281.06" r="8.35853" fill="#FF3435" fill-opacity="0.1" stroke="#FF3435" stroke-width="0.597038"/>
<path d="M212.375 277.915H208.906L208.543 280.165C208.777 279.872 209.035 279.672 209.305 279.567C209.574 279.461 209.914 279.403 210.312 279.403C210.664 279.403 211.004 279.485 211.32 279.625C211.625 279.778 211.895 279.989 212.117 280.247C212.34 280.504 212.516 280.821 212.645 281.184C212.773 281.559 212.844 281.958 212.844 282.403C212.844 282.895 212.762 283.34 212.609 283.739C212.445 284.137 212.234 284.465 211.965 284.747C211.684 285.028 211.367 285.239 210.992 285.379C210.617 285.52 210.207 285.59 209.773 285.59C209.352 285.59 208.965 285.532 208.602 285.426C208.227 285.309 207.91 285.133 207.629 284.899C207.348 284.665 207.113 284.372 206.949 284.02C206.785 283.68 206.691 283.293 206.691 282.848H208.262C208.297 283.247 208.449 283.563 208.719 283.821C208.988 284.079 209.328 284.208 209.738 284.208C209.961 284.208 210.172 284.161 210.359 284.067C210.547 283.973 210.711 283.844 210.852 283.68C210.992 283.516 211.098 283.317 211.168 283.106C211.238 282.895 211.285 282.661 211.285 282.403C211.285 282.157 211.238 281.922 211.168 281.711C211.086 281.5 210.98 281.325 210.84 281.172C210.699 281.008 210.547 280.891 210.359 280.797C210.172 280.715 209.961 280.668 209.738 280.668C209.41 280.668 209.129 280.727 208.918 280.844C208.707 280.961 208.52 281.137 208.379 281.395H206.973L207.805 276.508H212.375V277.915Z" fill="#FF3435"/>
<circle cx="287.35" cy="281.06" r="8.35853" fill="#FF3435" fill-opacity="0.1" stroke="#FF3435" stroke-width="0.597038"/>
<path d="M289.773 278.02C289.328 278.43 288.918 278.922 288.543 279.497C288.156 280.071 287.84 280.692 287.605 281.36C287.371 282.04 287.219 282.649 287.137 283.188C287.043 283.727 286.996 284.477 286.996 285.415H285.309C285.355 284.43 285.438 283.68 285.543 283.165C285.648 282.661 285.824 282.086 286.059 281.442C286.305 280.797 286.609 280.188 286.984 279.602C287.348 279.016 287.734 278.454 288.145 277.915H284.137V276.508H289.773V278.02Z" fill="#FF3435"/>
<circle cx="372.442" cy="281.06" r="8.35853" fill="#FF3435" fill-opacity="0.1" stroke="#FF3435" stroke-width="0.597038"/>
<path d="M371.971 281.184C372.205 281.184 372.416 281.149 372.604 281.055C372.779 280.961 372.92 280.844 373.037 280.692C373.154 280.528 373.248 280.352 373.307 280.141C373.365 279.93 373.4 279.708 373.4 279.45C373.4 279.239 373.365 279.04 373.307 278.829C373.248 278.618 373.154 278.442 373.025 278.278C372.908 278.114 372.756 277.985 372.58 277.891C372.404 277.797 372.205 277.75 371.971 277.75C371.736 277.75 371.537 277.797 371.373 277.891C371.197 277.985 371.057 278.114 370.939 278.278C370.822 278.442 370.729 278.618 370.67 278.829C370.6 279.04 370.576 279.239 370.576 279.426C370.576 279.672 370.6 279.895 370.67 280.106C370.729 280.317 370.822 280.504 370.939 280.668C371.057 280.833 371.197 280.95 371.373 281.043C371.537 281.137 371.736 281.184 371.971 281.184ZM370.646 283.211C370.693 283.54 370.834 283.797 371.057 284.008C371.268 284.219 371.537 284.325 371.854 284.325C372.158 284.325 372.428 284.231 372.639 284.043C372.85 283.856 373.025 283.61 373.154 283.317C373.295 283.024 373.389 282.708 373.459 282.356C373.518 282.016 373.553 281.688 373.564 281.372V281.348C373.377 281.7 373.119 281.981 372.768 282.168C372.416 282.356 372.029 282.45 371.607 282.45C371.279 282.45 370.951 282.379 370.646 282.239C370.342 282.098 370.061 281.911 369.826 281.653C369.58 281.395 369.381 281.09 369.24 280.739C369.088 280.387 369.018 280 369.018 279.567C369.018 279.122 369.088 278.7 369.229 278.301C369.369 277.903 369.568 277.563 369.826 277.27C370.072 276.989 370.377 276.754 370.729 276.59C371.08 276.426 371.467 276.333 371.9 276.333C372.51 276.333 373.014 276.461 373.424 276.719C373.834 276.977 374.162 277.317 374.408 277.75C374.654 278.184 374.83 278.676 374.936 279.227C375.029 279.778 375.088 280.352 375.088 280.938C375.088 281.512 375.018 282.075 374.9 282.625C374.783 283.176 374.584 283.68 374.314 284.125C374.045 284.571 373.705 284.922 373.295 285.192C372.885 285.45 372.393 285.59 371.83 285.59C371.092 285.59 370.482 285.391 370.014 284.969C369.533 284.547 369.252 283.961 369.158 283.211H370.646Z" fill="#FF3435"/>
<circle cx="349.134" cy="193.055" r="8.35853" fill="#FF3435" fill-opacity="0.1" stroke="#FF3435" stroke-width="0.597038"/>
<path d="M346.469 197.41H344.911V191.129C344.653 191.316 344.337 191.41 343.962 191.434C343.587 191.457 343.2 191.469 342.778 191.469V190.309C343.469 190.297 344.009 190.109 344.407 189.758C344.805 189.406 345.04 188.996 345.11 188.504H346.469V197.41ZM349.986 190.883C349.986 191.059 350.009 191.223 350.079 191.363C350.138 191.516 350.22 191.645 350.337 191.762C350.454 191.879 350.595 191.961 350.771 192.031C350.935 192.102 351.134 192.137 351.345 192.137C351.767 192.137 352.095 192.02 352.341 191.773C352.587 191.539 352.716 191.234 352.716 190.883C352.716 190.719 352.681 190.555 352.622 190.391C352.552 190.238 352.458 190.098 352.341 189.969C352.224 189.852 352.072 189.758 351.907 189.688C351.743 189.617 351.556 189.57 351.345 189.57C351.134 189.57 350.935 189.617 350.771 189.688C350.595 189.77 350.454 189.863 350.337 189.98C350.22 190.109 350.138 190.25 350.079 190.402C350.009 190.566 349.986 190.719 349.986 190.883ZM349.798 194.785C349.798 195.02 349.833 195.23 349.915 195.418C349.997 195.605 350.114 195.77 350.255 195.898C350.396 196.027 350.56 196.133 350.747 196.203C350.935 196.285 351.146 196.32 351.357 196.32C351.568 196.32 351.767 196.285 351.954 196.203C352.142 196.133 352.306 196.027 352.447 195.898C352.587 195.77 352.704 195.617 352.786 195.43C352.868 195.242 352.915 195.043 352.915 194.809C352.915 194.586 352.868 194.375 352.786 194.188C352.704 194 352.587 193.848 352.447 193.707C352.306 193.566 352.142 193.449 351.954 193.379C351.767 193.309 351.568 193.262 351.357 193.262C351.146 193.262 350.935 193.297 350.747 193.367C350.56 193.438 350.396 193.543 350.255 193.684C350.114 193.824 349.997 193.977 349.915 194.164C349.833 194.352 349.798 194.551 349.798 194.785ZM348.544 190.742C348.544 190.367 348.614 190.027 348.779 189.723C348.931 189.418 349.142 189.16 349.411 188.949C349.681 188.75 349.986 188.598 350.314 188.492C350.642 188.387 350.993 188.328 351.345 188.328C351.697 188.328 352.036 188.387 352.376 188.492C352.704 188.598 353.009 188.75 353.279 188.949C353.536 189.16 353.747 189.418 353.911 189.711C354.075 190.004 354.157 190.332 354.157 190.707C354.157 190.93 354.122 191.141 354.052 191.352C353.982 191.562 353.9 191.738 353.782 191.902C353.665 192.078 353.536 192.219 353.384 192.336C353.232 192.453 353.068 192.547 352.904 192.617C353.114 192.688 353.325 192.781 353.513 192.91C353.7 193.039 353.876 193.203 354.029 193.391C354.169 193.59 354.286 193.812 354.38 194.047C354.462 194.281 354.509 194.539 354.509 194.82C354.509 195.242 354.427 195.617 354.263 195.957C354.099 196.297 353.876 196.59 353.595 196.836C353.314 197.082 352.974 197.27 352.587 197.398C352.2 197.516 351.79 197.586 351.357 197.586C350.911 197.586 350.489 197.516 350.103 197.398C349.716 197.27 349.376 197.082 349.095 196.836C348.814 196.59 348.591 196.297 348.427 195.957C348.263 195.617 348.193 195.242 348.193 194.832C348.193 194.551 348.239 194.293 348.333 194.047C348.427 193.812 348.544 193.59 348.708 193.391C348.861 193.191 349.036 193.027 349.247 192.898C349.458 192.77 349.669 192.664 349.904 192.594C349.458 192.477 349.13 192.254 348.896 191.914C348.661 191.586 348.544 191.188 348.544 190.742Z" fill="#FF3435"/>
<circle cx="310.55" cy="146.31" r="8.35853" fill="#FF3435" fill-opacity="0.1" stroke="#FF3435" stroke-width="0.597038"/>
<path d="M304.533 145.146C304.51 144.665 304.568 144.208 304.685 143.774C304.802 143.353 304.99 142.978 305.248 142.649C305.506 142.321 305.822 142.063 306.197 141.876C306.572 141.688 307.017 141.583 307.533 141.583C307.908 141.583 308.26 141.653 308.611 141.782C308.951 141.911 309.256 142.087 309.513 142.321C309.771 142.556 309.982 142.849 310.135 143.188C310.287 143.54 310.369 143.927 310.369 144.349C310.369 144.724 310.322 145.063 310.252 145.345C310.181 145.626 310.064 145.884 309.924 146.118C309.783 146.353 309.619 146.563 309.408 146.751C309.197 146.938 308.974 147.114 308.717 147.267C308.494 147.419 308.248 147.583 307.978 147.747C307.709 147.923 307.463 148.099 307.228 148.274C306.994 148.462 306.795 148.649 306.631 148.825C306.467 149.013 306.385 149.177 306.385 149.317H310.416V150.665H304.345C304.345 150.173 304.416 149.728 304.58 149.317C304.732 148.919 304.943 148.544 305.201 148.216C305.459 147.888 305.752 147.595 306.092 147.337C306.431 147.079 306.783 146.833 307.158 146.622C307.345 146.505 307.545 146.376 307.744 146.235C307.931 146.095 308.107 145.942 308.271 145.767C308.424 145.603 308.552 145.403 308.646 145.192C308.74 144.981 308.799 144.747 308.799 144.489C308.799 144.044 308.67 143.681 308.424 143.399C308.177 143.118 307.849 142.978 307.451 142.978C307.181 142.978 306.959 143.06 306.783 143.2C306.595 143.341 306.455 143.517 306.338 143.728C306.22 143.95 306.138 144.185 306.092 144.431C306.045 144.688 306.021 144.923 306.021 145.146H304.533ZM312.092 146.177C312.092 146.61 312.115 147.021 312.162 147.419C312.197 147.817 312.268 148.169 312.385 148.474C312.479 148.778 312.631 149.013 312.819 149.188C313.006 149.376 313.252 149.458 313.557 149.458C313.862 149.458 314.119 149.376 314.319 149.2C314.506 149.024 314.658 148.79 314.776 148.485C314.869 148.181 314.94 147.829 314.975 147.431C315.01 147.032 315.033 146.622 315.033 146.177C315.033 145.743 315.01 145.333 314.975 144.935C314.94 144.536 314.869 144.208 314.776 143.927C314.658 143.646 314.506 143.411 314.319 143.247C314.119 143.083 313.862 143.001 313.557 143.001C313.252 143.001 312.994 143.083 312.807 143.247C312.619 143.411 312.467 143.646 312.373 143.927C312.256 144.208 312.186 144.536 312.151 144.935C312.104 145.333 312.092 145.743 312.092 146.177ZM310.533 146.177C310.533 145.333 310.604 144.618 310.768 144.032C310.92 143.446 311.131 142.978 311.401 142.614C311.67 142.251 311.987 141.993 312.362 141.829C312.737 141.665 313.135 141.583 313.557 141.583C313.979 141.583 314.365 141.665 314.74 141.829C315.115 141.993 315.432 142.251 315.701 142.603C315.983 142.966 316.194 143.446 316.358 144.032C316.522 144.618 316.604 145.333 316.604 146.177C316.604 147.056 316.522 147.794 316.369 148.38C316.205 148.966 315.994 149.446 315.713 149.81C315.432 150.185 315.115 150.454 314.74 150.606C314.365 150.759 313.979 150.841 313.557 150.841C313.135 150.841 312.737 150.759 312.362 150.606C311.987 150.454 311.67 150.185 311.401 149.81C311.131 149.446 310.92 148.966 310.768 148.38C310.604 147.794 310.533 147.056 310.533 146.177Z" fill="#FF3435"/>
<circle cx="404.893" cy="281.06" r="8.35853" fill="#FF3435" fill-opacity="0.1" stroke="#FF3435" stroke-width="0.597038"/>
<path d="M402.865 285.415H401.306V279.133C401.049 279.321 400.732 279.415 400.357 279.438C399.982 279.461 399.595 279.473 399.174 279.473V278.313C399.865 278.301 400.404 278.114 400.802 277.762C401.201 277.411 401.435 277 401.506 276.508H402.865V285.415ZM406.276 280.926C406.276 281.36 406.299 281.77 406.346 282.168C406.381 282.567 406.451 282.918 406.569 283.223C406.662 283.528 406.815 283.762 407.002 283.938C407.19 284.125 407.436 284.208 407.74 284.208C408.045 284.208 408.303 284.125 408.502 283.95C408.69 283.774 408.842 283.54 408.959 283.235C409.053 282.93 409.123 282.579 409.158 282.18C409.194 281.782 409.217 281.372 409.217 280.926C409.217 280.493 409.194 280.083 409.158 279.684C409.123 279.286 409.053 278.958 408.959 278.676C408.842 278.395 408.69 278.161 408.502 277.997C408.303 277.833 408.045 277.75 407.74 277.75C407.436 277.75 407.178 277.833 406.99 277.997C406.803 278.161 406.651 278.395 406.557 278.676C406.44 278.958 406.369 279.286 406.334 279.684C406.287 280.083 406.276 280.493 406.276 280.926ZM404.717 280.926C404.717 280.083 404.787 279.368 404.951 278.782C405.104 278.196 405.315 277.727 405.584 277.364C405.854 277 406.17 276.743 406.545 276.579C406.92 276.415 407.319 276.333 407.74 276.333C408.162 276.333 408.549 276.415 408.924 276.579C409.299 276.743 409.615 277 409.885 277.352C410.166 277.715 410.377 278.196 410.541 278.782C410.705 279.368 410.787 280.083 410.787 280.926C410.787 281.805 410.705 282.543 410.553 283.129C410.389 283.715 410.178 284.196 409.897 284.559C409.615 284.934 409.299 285.204 408.924 285.356C408.549 285.508 408.162 285.59 407.74 285.59C407.319 285.59 406.92 285.508 406.545 285.356C406.17 285.204 405.854 284.934 405.584 284.559C405.315 284.196 405.104 283.715 404.951 283.129C404.787 282.543 404.717 281.805 404.717 280.926Z" fill="#FF3435"/>
<circle cx="436.856" cy="276.154" r="8.35853" fill="#FF3435" fill-opacity="0.1" stroke="#FF3435" stroke-width="0.597038"/>
<path d="M434.834 280.508H433.275V274.227C433.017 274.415 432.701 274.508 432.326 274.532C431.951 274.555 431.564 274.567 431.142 274.567V273.407C431.834 273.395 432.373 273.208 432.771 272.856C433.17 272.504 433.404 272.094 433.474 271.602H434.834V280.508ZM441.022 280.508H439.463V274.227C439.205 274.415 438.889 274.508 438.514 274.532C438.139 274.555 437.752 274.567 437.33 274.567V273.407C438.022 273.395 438.561 273.208 438.959 272.856C439.358 272.504 439.592 272.094 439.662 271.602H441.022V280.508Z" fill="#FF3435"/>
<circle cx="436.856" cy="249.307" r="8.35853" fill="#FF3435" fill-opacity="0.1" stroke="#FF3435" stroke-width="0.597038"/>
<path d="M434.504 253.662H432.945V247.381C432.687 247.568 432.371 247.662 431.996 247.686C431.621 247.709 431.234 247.721 430.812 247.721V246.561C431.504 246.549 432.043 246.361 432.441 246.01C432.84 245.658 433.074 245.248 433.144 244.756H434.504V253.662ZM436.543 248.143C436.52 247.662 436.578 247.205 436.696 246.771C436.813 246.35 437 245.975 437.258 245.646C437.516 245.318 437.832 245.061 438.207 244.873C438.582 244.686 439.028 244.58 439.543 244.58C439.918 244.58 440.27 244.65 440.621 244.779C440.961 244.908 441.266 245.084 441.524 245.318C441.781 245.553 441.992 245.846 442.145 246.186C442.297 246.537 442.379 246.924 442.379 247.346C442.379 247.721 442.332 248.061 442.262 248.342C442.192 248.623 442.074 248.881 441.934 249.115C441.793 249.35 441.629 249.561 441.418 249.748C441.207 249.936 440.985 250.111 440.727 250.264C440.504 250.416 440.258 250.58 439.989 250.744C439.719 250.92 439.473 251.096 439.239 251.271C439.004 251.459 438.805 251.646 438.641 251.822C438.477 252.01 438.395 252.174 438.395 252.314H442.426V253.662H436.356C436.356 253.17 436.426 252.725 436.59 252.314C436.742 251.916 436.953 251.541 437.211 251.213C437.469 250.885 437.762 250.592 438.102 250.334C438.442 250.076 438.793 249.83 439.168 249.619C439.356 249.502 439.555 249.373 439.754 249.232C439.942 249.092 440.117 248.939 440.281 248.764C440.434 248.6 440.563 248.4 440.656 248.189C440.75 247.979 440.809 247.744 440.809 247.486C440.809 247.041 440.68 246.678 440.434 246.396C440.188 246.115 439.86 245.975 439.461 245.975C439.192 245.975 438.969 246.057 438.793 246.197C438.606 246.338 438.465 246.514 438.348 246.725C438.231 246.947 438.149 247.182 438.102 247.428C438.055 247.686 438.031 247.92 438.031 248.143H436.543Z" fill="#FF3435"/>
<circle cx="436.856" cy="222.466" r="8.35853" fill="#FF3435" fill-opacity="0.1" stroke="#FF3435" stroke-width="0.597038"/>
<path d="M434.518 226.821H432.96V220.54C432.702 220.727 432.386 220.821 432.011 220.844C431.636 220.868 431.249 220.879 430.827 220.879V219.719C431.518 219.708 432.057 219.52 432.456 219.168C432.854 218.817 433.089 218.407 433.159 217.915H434.518V226.821ZM438.878 221.559C439.089 221.559 439.312 221.547 439.523 221.512C439.734 221.489 439.933 221.43 440.109 221.348C440.273 221.266 440.413 221.149 440.519 220.997C440.624 220.856 440.683 220.645 440.683 220.387C440.683 220.012 440.566 219.719 440.331 219.497C440.097 219.274 439.792 219.157 439.406 219.157C438.96 219.157 438.609 219.309 438.374 219.59C438.128 219.883 438.011 220.27 438.011 220.762H436.534C436.534 220.34 436.593 219.93 436.734 219.555C436.874 219.18 437.062 218.864 437.308 218.606C437.554 218.336 437.859 218.125 438.21 217.973C438.562 217.821 438.948 217.739 439.394 217.739C439.769 217.739 440.12 217.797 440.46 217.915C440.788 218.032 441.081 218.184 441.339 218.395C441.597 218.606 441.796 218.864 441.937 219.168C442.077 219.473 442.159 219.825 442.159 220.2C442.159 220.668 442.054 221.055 441.855 221.372C441.656 221.688 441.374 221.911 440.999 222.051C441.187 222.122 441.374 222.215 441.562 222.333C441.738 222.45 441.89 222.602 442.031 222.79C442.171 222.977 442.277 223.176 442.359 223.399C442.429 223.622 442.476 223.856 442.476 224.102C442.476 224.583 442.382 225.004 442.218 225.368C442.054 225.731 441.82 226.036 441.538 226.282C441.257 226.528 440.941 226.704 440.566 226.821C440.191 226.938 439.804 226.997 439.406 226.997C438.925 226.997 438.491 226.915 438.105 226.774C437.718 226.622 437.39 226.399 437.132 226.118C436.851 225.836 436.652 225.508 436.511 225.11C436.37 224.723 436.3 224.29 436.323 223.821H437.8C437.823 224.36 437.964 224.793 438.222 225.122C438.48 225.45 438.866 225.614 439.382 225.614C439.593 225.614 439.781 225.579 439.956 225.497C440.132 225.426 440.284 225.321 440.413 225.192C440.542 225.063 440.648 224.911 440.718 224.723C440.788 224.547 440.835 224.348 440.835 224.137C440.835 223.809 440.777 223.563 440.671 223.375C440.554 223.188 440.413 223.047 440.238 222.954C440.05 222.872 439.839 222.813 439.605 222.79C439.37 222.766 439.124 222.754 438.878 222.754V221.559Z" fill="#FF3435"/>
<circle cx="436.856" cy="195.624" r="8.35853" fill="#FF3435" fill-opacity="0.1" stroke="#FF3435" stroke-width="0.597038"/>
<path d="M434.192 199.979H432.634V193.697C432.376 193.885 432.059 193.979 431.684 194.002C431.309 194.025 430.923 194.037 430.501 194.037V192.877C431.192 192.865 431.731 192.678 432.13 192.326C432.528 191.975 432.762 191.564 432.833 191.072H434.192V199.979ZM439.923 193.416L437.591 196.486H439.923V193.416ZM439.935 197.904H435.892V196.475L440.017 190.92H441.411V196.486H442.302V197.904H441.411V199.979H439.935V197.904Z" fill="#FF3435"/>
<circle cx="436.856" cy="168.778" r="8.35853" fill="#FF3435" fill-opacity="0.1" stroke="#FF3435" stroke-width="0.597038"/>
<path d="M434.447 173.133H432.888V166.852C432.631 167.039 432.314 167.133 431.939 167.156C431.564 167.18 431.177 167.191 430.756 167.191V166.031C431.447 166.02 431.986 165.832 432.385 165.48C432.783 165.129 433.017 164.719 433.088 164.227H434.447V173.133ZM441.936 165.633H438.467L438.104 167.883C438.338 167.59 438.596 167.391 438.865 167.285C439.135 167.18 439.475 167.121 439.873 167.121C440.225 167.121 440.565 167.203 440.881 167.344C441.186 167.496 441.455 167.707 441.678 167.965C441.901 168.223 442.076 168.539 442.205 168.902C442.334 169.277 442.405 169.676 442.405 170.121C442.405 170.613 442.322 171.059 442.17 171.457C442.006 171.855 441.795 172.184 441.526 172.465C441.244 172.746 440.928 172.957 440.553 173.098C440.178 173.238 439.768 173.309 439.334 173.309C438.912 173.309 438.526 173.25 438.162 173.145C437.787 173.027 437.471 172.852 437.19 172.617C436.908 172.383 436.674 172.09 436.51 171.738C436.346 171.398 436.252 171.012 436.252 170.566H437.822C437.858 170.965 438.01 171.281 438.28 171.539C438.549 171.797 438.889 171.926 439.299 171.926C439.522 171.926 439.733 171.879 439.92 171.785C440.108 171.691 440.272 171.562 440.412 171.398C440.553 171.234 440.658 171.035 440.729 170.824C440.799 170.613 440.846 170.379 440.846 170.121C440.846 169.875 440.799 169.641 440.729 169.43C440.647 169.219 440.541 169.043 440.401 168.891C440.26 168.727 440.108 168.609 439.92 168.516C439.733 168.434 439.522 168.387 439.299 168.387C438.971 168.387 438.69 168.445 438.479 168.562C438.268 168.68 438.08 168.855 437.94 169.113H436.533L437.365 164.227H441.936V165.633Z" fill="#FF3435"/>
<circle cx="434.641" cy="131.148" r="8.35853" fill="#FF3435" fill-opacity="0.1" stroke="#FF3435" stroke-width="0.597038"/>
<path d="M432.235 135.503H430.677V129.222C430.419 129.409 430.102 129.503 429.727 129.526C429.352 129.55 428.966 129.562 428.544 129.562V128.401C429.235 128.39 429.774 128.202 430.173 127.851C430.571 127.499 430.805 127.089 430.876 126.597H432.235V135.503ZM437.216 130.851C436.982 130.851 436.782 130.897 436.607 130.979C436.419 131.062 436.267 131.179 436.138 131.331C436.021 131.483 435.927 131.659 435.857 131.87C435.786 132.081 435.763 132.315 435.763 132.55C435.763 132.796 435.786 133.019 435.857 133.218C435.927 133.429 436.021 133.604 436.138 133.769C436.255 133.933 436.407 134.062 436.595 134.155C436.771 134.249 436.982 134.296 437.216 134.296C437.427 134.296 437.626 134.249 437.802 134.155C437.966 134.062 438.107 133.933 438.224 133.78C438.341 133.616 438.435 133.44 438.493 133.229C438.552 133.03 438.587 132.808 438.587 132.573C438.587 132.351 438.552 132.128 438.493 131.917C438.435 131.706 438.341 131.519 438.224 131.354C438.107 131.19 437.966 131.073 437.802 130.979C437.626 130.897 437.427 130.851 437.216 130.851ZM438.517 128.835C438.458 128.507 438.318 128.237 438.107 128.026C437.884 127.815 437.614 127.71 437.31 127.71C436.982 127.71 436.712 127.804 436.501 127.991C436.279 128.179 436.103 128.425 435.986 128.718C435.857 128.999 435.763 129.327 435.704 129.679C435.646 130.042 435.622 130.394 435.622 130.722C435.822 130.323 436.091 130.019 436.431 129.831C436.759 129.644 437.157 129.55 437.626 129.55C437.954 129.55 438.282 129.62 438.587 129.761C438.892 129.901 439.173 130.101 439.407 130.347C439.63 130.604 439.806 130.909 439.947 131.261C440.087 131.612 440.157 132.011 440.157 132.444C440.157 132.913 440.087 133.358 439.947 133.757C439.806 134.155 439.618 134.507 439.372 134.788C439.114 135.069 438.81 135.292 438.458 135.444C438.107 135.597 437.708 135.679 437.263 135.679C436.654 135.679 436.138 135.55 435.728 135.315C435.318 135.081 434.989 134.741 434.743 134.319C434.509 133.897 434.333 133.405 434.239 132.843C434.134 132.292 434.087 131.706 434.087 131.085C434.087 130.534 434.146 129.972 434.263 129.409C434.38 128.847 434.579 128.354 434.849 127.909C435.107 127.464 435.447 127.112 435.857 126.831C436.255 126.562 436.747 126.421 437.333 126.421C437.685 126.421 438.025 126.479 438.329 126.585C438.634 126.702 438.904 126.854 439.138 127.054C439.372 127.265 439.56 127.522 439.712 127.827C439.853 128.132 439.958 128.46 440.005 128.835H438.517Z" fill="#FF3435"/>
<circle cx="403.964" cy="131.148" r="8.35853" fill="#FF3435" fill-opacity="0.1" stroke="#FF3435" stroke-width="0.597038"/>
<path d="M401.557 135.503H399.999V129.222C399.741 129.409 399.425 129.503 399.05 129.526C398.675 129.55 398.288 129.562 397.866 129.562V128.401C398.557 128.39 399.096 128.202 399.495 127.851C399.893 127.499 400.128 127.089 400.198 126.597H401.557V135.503ZM409.257 128.108C408.812 128.519 408.402 129.011 408.027 129.585C407.64 130.159 407.323 130.78 407.089 131.448C406.855 132.128 406.702 132.737 406.62 133.276C406.527 133.815 406.48 134.565 406.48 135.503H404.792C404.839 134.519 404.921 133.769 405.027 133.253C405.132 132.749 405.308 132.175 405.542 131.53C405.788 130.886 406.093 130.276 406.468 129.69C406.831 129.104 407.218 128.542 407.628 128.003H403.62V126.597H409.257V128.108Z" fill="#FF3435"/>
<circle cx="254.788" cy="281.06" r="8.35853" fill="#FF3435" fill-opacity="0.1" stroke="#FF3435" stroke-width="0.597038"/>
<path d="M254.492 280.762C254.258 280.762 254.059 280.809 253.883 280.891C253.695 280.973 253.543 281.09 253.414 281.243C253.297 281.395 253.203 281.571 253.133 281.782C253.062 281.993 253.039 282.227 253.039 282.461C253.039 282.708 253.062 282.93 253.133 283.129C253.203 283.34 253.297 283.516 253.414 283.68C253.531 283.844 253.684 283.973 253.871 284.067C254.047 284.161 254.258 284.208 254.492 284.208C254.703 284.208 254.902 284.161 255.078 284.067C255.242 283.973 255.383 283.844 255.5 283.692C255.617 283.528 255.711 283.352 255.77 283.141C255.828 282.942 255.863 282.719 255.863 282.485C255.863 282.262 255.828 282.04 255.77 281.829C255.711 281.618 255.617 281.43 255.5 281.266C255.383 281.102 255.242 280.985 255.078 280.891C254.902 280.809 254.703 280.762 254.492 280.762ZM255.793 278.747C255.734 278.418 255.594 278.149 255.383 277.938C255.16 277.727 254.891 277.622 254.586 277.622C254.258 277.622 253.988 277.715 253.777 277.903C253.555 278.09 253.379 278.336 253.262 278.629C253.133 278.911 253.039 279.239 252.98 279.59C252.922 279.954 252.898 280.305 252.898 280.633C253.098 280.235 253.367 279.93 253.707 279.743C254.035 279.555 254.434 279.461 254.902 279.461C255.23 279.461 255.559 279.532 255.863 279.672C256.168 279.813 256.449 280.012 256.684 280.258C256.906 280.516 257.082 280.821 257.223 281.172C257.363 281.524 257.434 281.922 257.434 282.356C257.434 282.825 257.363 283.27 257.223 283.668C257.082 284.067 256.895 284.418 256.648 284.7C256.391 284.981 256.086 285.204 255.734 285.356C255.383 285.508 254.984 285.59 254.539 285.59C253.93 285.59 253.414 285.461 253.004 285.227C252.594 284.993 252.266 284.653 252.02 284.231C251.785 283.809 251.609 283.317 251.516 282.754C251.41 282.204 251.363 281.618 251.363 280.997C251.363 280.446 251.422 279.883 251.539 279.321C251.656 278.758 251.855 278.266 252.125 277.821C252.383 277.375 252.723 277.024 253.133 276.743C253.531 276.473 254.023 276.333 254.609 276.333C254.961 276.333 255.301 276.391 255.605 276.497C255.91 276.614 256.18 276.766 256.414 276.965C256.648 277.176 256.836 277.434 256.988 277.739C257.129 278.043 257.234 278.372 257.281 278.747H255.793Z" fill="#FF3435"/>
<circle cx="339.876" cy="281.06" r="8.35853" fill="#FF3435" fill-opacity="0.1" stroke="#FF3435" stroke-width="0.597038"/>
<path d="M338.119 278.887C338.119 279.063 338.143 279.227 338.213 279.368C338.271 279.52 338.354 279.649 338.471 279.766C338.588 279.883 338.729 279.965 338.904 280.036C339.068 280.106 339.268 280.141 339.479 280.141C339.9 280.141 340.229 280.024 340.475 279.778C340.721 279.543 340.85 279.239 340.85 278.887C340.85 278.723 340.814 278.559 340.756 278.395C340.686 278.243 340.592 278.102 340.475 277.973C340.357 277.856 340.205 277.762 340.041 277.692C339.877 277.622 339.689 277.575 339.479 277.575C339.268 277.575 339.068 277.622 338.904 277.692C338.729 277.774 338.588 277.868 338.471 277.985C338.354 278.114 338.271 278.254 338.213 278.407C338.143 278.571 338.119 278.723 338.119 278.887ZM337.932 282.79C337.932 283.024 337.967 283.235 338.049 283.422C338.131 283.61 338.248 283.774 338.389 283.903C338.529 284.032 338.693 284.137 338.881 284.208C339.068 284.29 339.279 284.325 339.49 284.325C339.701 284.325 339.9 284.29 340.088 284.208C340.275 284.137 340.439 284.032 340.58 283.903C340.721 283.774 340.838 283.622 340.92 283.434C341.002 283.247 341.049 283.047 341.049 282.813C341.049 282.59 341.002 282.379 340.92 282.192C340.838 282.004 340.721 281.852 340.58 281.711C340.439 281.571 340.275 281.454 340.088 281.383C339.9 281.313 339.701 281.266 339.49 281.266C339.279 281.266 339.068 281.301 338.881 281.372C338.693 281.442 338.529 281.547 338.389 281.688C338.248 281.829 338.131 281.981 338.049 282.168C337.967 282.356 337.932 282.555 337.932 282.79ZM336.678 278.747C336.678 278.372 336.748 278.032 336.912 277.727C337.064 277.422 337.275 277.165 337.545 276.954C337.814 276.754 338.119 276.602 338.447 276.497C338.775 276.391 339.127 276.333 339.479 276.333C339.83 276.333 340.17 276.391 340.51 276.497C340.838 276.602 341.143 276.754 341.412 276.954C341.67 277.165 341.881 277.422 342.045 277.715C342.209 278.008 342.291 278.336 342.291 278.711C342.291 278.934 342.256 279.145 342.186 279.356C342.115 279.567 342.033 279.743 341.916 279.907C341.799 280.083 341.67 280.223 341.518 280.34C341.365 280.458 341.201 280.551 341.037 280.622C341.248 280.692 341.459 280.786 341.646 280.915C341.834 281.043 342.01 281.208 342.162 281.395C342.303 281.594 342.42 281.817 342.514 282.051C342.596 282.286 342.643 282.543 342.643 282.825C342.643 283.247 342.561 283.622 342.396 283.961C342.232 284.301 342.01 284.594 341.729 284.84C341.447 285.086 341.107 285.274 340.721 285.403C340.334 285.52 339.924 285.59 339.49 285.59C339.045 285.59 338.623 285.52 338.236 285.403C337.85 285.274 337.51 285.086 337.229 284.84C336.947 284.594 336.725 284.301 336.561 283.961C336.396 283.622 336.326 283.247 336.326 282.836C336.326 282.555 336.373 282.297 336.467 282.051C336.561 281.817 336.678 281.594 336.842 281.395C336.994 281.196 337.17 281.032 337.381 280.903C337.592 280.774 337.803 280.668 338.037 280.598C337.592 280.481 337.264 280.258 337.029 279.918C336.795 279.59 336.678 279.192 336.678 278.747Z" fill="#FF3435"/>
<circle cx="275.608" cy="193.366" r="8.35853" fill="#FF3435" fill-opacity="0.1" stroke="#FF3435" stroke-width="0.597038"/>
<path d="M273.127 197.721H271.568V191.439C271.31 191.627 270.994 191.721 270.619 191.744C270.244 191.768 269.857 191.779 269.435 191.779V190.619C270.127 190.607 270.666 190.42 271.064 190.068C271.463 189.717 271.697 189.307 271.767 188.814H273.127V197.721ZM277.932 193.49C278.166 193.49 278.377 193.455 278.565 193.361C278.74 193.268 278.881 193.15 278.998 192.998C279.115 192.834 279.209 192.658 279.268 192.447C279.326 192.236 279.362 192.014 279.362 191.756C279.362 191.545 279.326 191.346 279.268 191.135C279.209 190.924 279.115 190.748 278.987 190.584C278.869 190.42 278.717 190.291 278.541 190.197C278.365 190.104 278.166 190.057 277.932 190.057C277.697 190.057 277.498 190.104 277.334 190.197C277.158 190.291 277.018 190.42 276.901 190.584C276.783 190.748 276.69 190.924 276.631 191.135C276.561 191.346 276.537 191.545 276.537 191.732C276.537 191.979 276.561 192.201 276.631 192.412C276.69 192.623 276.783 192.811 276.901 192.975C277.018 193.139 277.158 193.256 277.334 193.35C277.498 193.443 277.697 193.49 277.932 193.49ZM276.608 195.518C276.655 195.846 276.795 196.104 277.018 196.314C277.229 196.525 277.498 196.631 277.815 196.631C278.119 196.631 278.389 196.537 278.6 196.35C278.811 196.162 278.987 195.916 279.115 195.623C279.256 195.33 279.35 195.014 279.42 194.662C279.479 194.322 279.514 193.994 279.526 193.678V193.654C279.338 194.006 279.08 194.287 278.729 194.475C278.377 194.662 277.99 194.756 277.569 194.756C277.24 194.756 276.912 194.686 276.608 194.545C276.303 194.404 276.022 194.217 275.787 193.959C275.541 193.701 275.342 193.396 275.201 193.045C275.049 192.693 274.979 192.307 274.979 191.873C274.979 191.428 275.049 191.006 275.19 190.607C275.33 190.209 275.53 189.869 275.787 189.576C276.033 189.295 276.338 189.061 276.69 188.896C277.041 188.732 277.428 188.639 277.862 188.639C278.471 188.639 278.975 188.768 279.385 189.025C279.795 189.283 280.123 189.623 280.369 190.057C280.615 190.49 280.791 190.982 280.897 191.533C280.99 192.084 281.049 192.658 281.049 193.244C281.049 193.818 280.979 194.381 280.862 194.932C280.744 195.482 280.545 195.986 280.276 196.432C280.006 196.877 279.666 197.229 279.256 197.498C278.846 197.756 278.354 197.896 277.791 197.896C277.053 197.896 276.444 197.697 275.975 197.275C275.494 196.854 275.213 196.268 275.119 195.518H276.608Z" fill="#FF3435"/>
<circle cx="210.774" cy="161.153" r="8.35853" fill="#FF3435" fill-opacity="0.1" stroke="#FF3435" stroke-width="0.597038"/>
<path d="M205.233 159.988C205.21 159.507 205.268 159.05 205.386 158.617C205.503 158.195 205.69 157.82 205.948 157.492C206.206 157.164 206.522 156.906 206.897 156.718C207.272 156.531 207.718 156.425 208.233 156.425C208.608 156.425 208.96 156.496 209.311 156.625C209.651 156.753 209.956 156.929 210.214 157.164C210.471 157.398 210.682 157.691 210.835 158.031C210.987 158.382 211.069 158.769 211.069 159.191C211.069 159.566 211.022 159.906 210.952 160.187C210.882 160.468 210.764 160.726 210.624 160.96C210.483 161.195 210.319 161.406 210.108 161.593C209.897 161.781 209.675 161.957 209.417 162.109C209.194 162.261 208.948 162.425 208.678 162.589C208.409 162.765 208.163 162.941 207.928 163.117C207.694 163.304 207.495 163.492 207.331 163.667C207.167 163.855 207.085 164.019 207.085 164.16H211.116V165.507H205.046C205.046 165.015 205.116 164.57 205.28 164.16C205.432 163.761 205.643 163.386 205.901 163.058C206.159 162.73 206.452 162.437 206.792 162.179C207.132 161.921 207.483 161.675 207.858 161.464C208.046 161.347 208.245 161.218 208.444 161.078C208.632 160.937 208.807 160.785 208.971 160.609C209.124 160.445 209.253 160.246 209.346 160.035C209.44 159.824 209.499 159.589 209.499 159.332C209.499 158.886 209.37 158.523 209.124 158.242C208.878 157.96 208.55 157.82 208.151 157.82C207.882 157.82 207.659 157.902 207.483 158.042C207.296 158.183 207.155 158.359 207.038 158.57C206.921 158.792 206.839 159.027 206.792 159.273C206.745 159.531 206.721 159.765 206.721 159.988H205.233ZM215.57 165.507H214.011V159.226C213.753 159.414 213.437 159.507 213.062 159.531C212.687 159.554 212.3 159.566 211.878 159.566V158.406C212.57 158.394 213.109 158.207 213.507 157.855C213.906 157.503 214.14 157.093 214.21 156.601H215.57V165.507Z" fill="#FF3435"/>
<circle cx="210.774" cy="134.772" r="8.35853" fill="#FF3435" fill-opacity="0.1" stroke="#FF3435" stroke-width="0.597038"/>
<path d="M204.597 133.607C204.574 133.127 204.633 132.67 204.75 132.236C204.867 131.814 205.054 131.439 205.312 131.111C205.57 130.783 205.886 130.525 206.261 130.338C206.636 130.15 207.082 130.045 207.597 130.045C207.972 130.045 208.324 130.115 208.676 130.244C209.015 130.373 209.32 130.549 209.578 130.783C209.836 131.018 210.047 131.311 210.199 131.65C210.351 132.002 210.433 132.389 210.433 132.811C210.433 133.186 210.386 133.525 210.316 133.807C210.246 134.088 210.129 134.346 209.988 134.58C209.847 134.814 209.683 135.025 209.472 135.213C209.261 135.4 209.039 135.576 208.781 135.729C208.558 135.881 208.312 136.045 208.043 136.209C207.773 136.385 207.527 136.561 207.293 136.736C207.058 136.924 206.859 137.111 206.695 137.287C206.531 137.475 206.449 137.639 206.449 137.779H210.48V139.127H204.41C204.41 138.635 204.48 138.189 204.644 137.779C204.797 137.381 205.008 137.006 205.265 136.678C205.523 136.35 205.816 136.057 206.156 135.799C206.496 135.541 206.847 135.295 207.222 135.084C207.41 134.967 207.609 134.838 207.808 134.697C207.996 134.557 208.172 134.404 208.336 134.229C208.488 134.064 208.617 133.865 208.711 133.654C208.804 133.443 208.863 133.209 208.863 132.951C208.863 132.506 208.734 132.143 208.488 131.861C208.242 131.58 207.914 131.439 207.515 131.439C207.246 131.439 207.023 131.521 206.847 131.662C206.66 131.803 206.519 131.979 206.402 132.189C206.285 132.412 206.203 132.646 206.156 132.893C206.109 133.15 206.086 133.385 206.086 133.607H204.597ZM210.785 133.607C210.762 133.127 210.821 132.67 210.938 132.236C211.055 131.814 211.242 131.439 211.5 131.111C211.758 130.783 212.074 130.525 212.449 130.338C212.824 130.15 213.27 130.045 213.785 130.045C214.16 130.045 214.512 130.115 214.864 130.244C215.203 130.373 215.508 130.549 215.766 130.783C216.024 131.018 216.235 131.311 216.387 131.65C216.539 132.002 216.621 132.389 216.621 132.811C216.621 133.186 216.574 133.525 216.504 133.807C216.434 134.088 216.317 134.346 216.176 134.58C216.035 134.814 215.871 135.025 215.66 135.213C215.449 135.4 215.227 135.576 214.969 135.729C214.746 135.881 214.5 136.045 214.231 136.209C213.961 136.385 213.715 136.561 213.481 136.736C213.246 136.924 213.047 137.111 212.883 137.287C212.719 137.475 212.637 137.639 212.637 137.779H216.668V139.127H210.598C210.598 138.635 210.668 138.189 210.832 137.779C210.985 137.381 211.196 137.006 211.453 136.678C211.711 136.35 212.004 136.057 212.344 135.799C212.684 135.541 213.035 135.295 213.41 135.084C213.598 134.967 213.797 134.838 213.996 134.697C214.184 134.557 214.36 134.404 214.524 134.229C214.676 134.064 214.805 133.865 214.899 133.654C214.992 133.443 215.051 133.209 215.051 132.951C215.051 132.506 214.922 132.143 214.676 131.861C214.43 131.58 214.102 131.439 213.703 131.439C213.434 131.439 213.211 131.521 213.035 131.662C212.848 131.803 212.707 131.979 212.59 132.189C212.473 132.412 212.391 132.646 212.344 132.893C212.297 133.15 212.274 133.385 212.274 133.607H210.785Z" fill="#FF3435"/>
<circle cx="210.774" cy="108.388" r="8.35853" fill="#FF3435" fill-opacity="0.1" stroke="#FF3435" stroke-width="0.597038"/>
<path d="M204.597 107.223C204.574 106.742 204.633 106.285 204.75 105.852C204.867 105.43 205.054 105.055 205.312 104.727C205.57 104.398 205.886 104.141 206.261 103.953C206.636 103.766 207.082 103.66 207.597 103.66C207.972 103.66 208.324 103.73 208.676 103.859C209.015 103.988 209.32 104.164 209.578 104.398C209.836 104.633 210.047 104.926 210.199 105.266C210.351 105.617 210.433 106.004 210.433 106.426C210.433 106.801 210.386 107.141 210.316 107.422C210.246 107.703 210.129 107.961 209.988 108.195C209.847 108.43 209.683 108.641 209.472 108.828C209.261 109.016 209.039 109.191 208.781 109.344C208.558 109.496 208.312 109.66 208.043 109.824C207.773 110 207.527 110.176 207.293 110.352C207.058 110.539 206.859 110.727 206.695 110.902C206.531 111.09 206.449 111.254 206.449 111.395H210.48V112.742H204.41C204.41 112.25 204.48 111.805 204.644 111.395C204.797 110.996 205.008 110.621 205.265 110.293C205.523 109.965 205.816 109.672 206.156 109.414C206.496 109.156 206.847 108.91 207.222 108.699C207.41 108.582 207.609 108.453 207.808 108.312C207.996 108.172 208.172 108.02 208.336 107.844C208.488 107.68 208.617 107.48 208.711 107.27C208.804 107.059 208.863 106.824 208.863 106.566C208.863 106.121 208.734 105.758 208.488 105.477C208.242 105.195 207.914 105.055 207.515 105.055C207.246 105.055 207.023 105.137 206.847 105.277C206.66 105.418 206.519 105.594 206.402 105.805C206.285 106.027 206.203 106.262 206.156 106.508C206.109 106.766 206.086 107 206.086 107.223H204.597ZM213.106 107.48C213.317 107.48 213.539 107.469 213.75 107.434C213.961 107.41 214.16 107.352 214.336 107.27C214.5 107.188 214.641 107.07 214.746 106.918C214.852 106.777 214.91 106.566 214.91 106.309C214.91 105.934 214.793 105.641 214.559 105.418C214.324 105.195 214.02 105.078 213.633 105.078C213.188 105.078 212.836 105.23 212.602 105.512C212.356 105.805 212.239 106.191 212.239 106.684H210.762C210.762 106.262 210.821 105.852 210.961 105.477C211.102 105.102 211.289 104.785 211.535 104.527C211.781 104.258 212.086 104.047 212.438 103.895C212.789 103.742 213.176 103.66 213.621 103.66C213.996 103.66 214.348 103.719 214.688 103.836C215.016 103.953 215.309 104.105 215.567 104.316C215.824 104.527 216.024 104.785 216.164 105.09C216.305 105.395 216.387 105.746 216.387 106.121C216.387 106.59 216.281 106.977 216.082 107.293C215.883 107.609 215.602 107.832 215.227 107.973C215.414 108.043 215.602 108.137 215.789 108.254C215.965 108.371 216.117 108.523 216.258 108.711C216.399 108.898 216.504 109.098 216.586 109.32C216.656 109.543 216.703 109.777 216.703 110.023C216.703 110.504 216.61 110.926 216.446 111.289C216.281 111.652 216.047 111.957 215.766 112.203C215.485 112.449 215.168 112.625 214.793 112.742C214.418 112.859 214.031 112.918 213.633 112.918C213.153 112.918 212.719 112.836 212.332 112.695C211.946 112.543 211.617 112.32 211.36 112.039C211.078 111.758 210.879 111.43 210.739 111.031C210.598 110.645 210.528 110.211 210.551 109.742H212.028C212.051 110.281 212.192 110.715 212.449 111.043C212.707 111.371 213.094 111.535 213.61 111.535C213.821 111.535 214.008 111.5 214.184 111.418C214.36 111.348 214.512 111.242 214.641 111.113C214.77 110.984 214.875 110.832 214.946 110.645C215.016 110.469 215.063 110.27 215.063 110.059C215.063 109.73 215.004 109.484 214.899 109.297C214.781 109.109 214.641 108.969 214.465 108.875C214.278 108.793 214.067 108.734 213.832 108.711C213.598 108.688 213.352 108.676 213.106 108.676V107.48Z" fill="#FF3435"/>
<circle cx="210.774" cy="81.9984" r="8.35853" fill="#FF3435" fill-opacity="0.1" stroke="#FF3435" stroke-width="0.597038"/>
<path d="M204.597 80.8335C204.574 80.353 204.633 79.896 204.75 79.4624C204.867 79.0405 205.054 78.6655 205.312 78.3374C205.57 78.0093 205.886 77.7515 206.261 77.564C206.636 77.3765 207.082 77.271 207.597 77.271C207.972 77.271 208.324 77.3413 208.676 77.4702C209.015 77.5991 209.32 77.7749 209.578 78.0093C209.836 78.2437 210.047 78.5366 210.199 78.8765C210.351 79.228 210.433 79.6147 210.433 80.0366C210.433 80.4116 210.386 80.7515 210.316 81.0327C210.246 81.314 210.129 81.5718 209.988 81.8062C209.847 82.0405 209.683 82.2515 209.472 82.439C209.261 82.6265 209.039 82.8022 208.781 82.9546C208.558 83.1069 208.312 83.271 208.043 83.4351C207.773 83.6108 207.527 83.7866 207.293 83.9624C207.058 84.1499 206.859 84.3374 206.695 84.5132C206.531 84.7007 206.449 84.8647 206.449 85.0054H210.48V86.353H204.41C204.41 85.8608 204.48 85.4155 204.644 85.0054C204.797 84.6069 205.008 84.2319 205.265 83.9038C205.523 83.5757 205.816 83.2827 206.156 83.0249C206.496 82.7671 206.847 82.521 207.222 82.3101C207.41 82.1929 207.609 82.064 207.808 81.9233C207.996 81.7827 208.172 81.6304 208.336 81.4546C208.488 81.2905 208.617 81.0913 208.711 80.8804C208.804 80.6694 208.863 80.4351 208.863 80.1772C208.863 79.7319 208.734 79.3687 208.488 79.0874C208.242 78.8062 207.914 78.6655 207.515 78.6655C207.246 78.6655 207.023 78.7476 206.847 78.8882C206.66 79.0288 206.519 79.2046 206.402 79.4155C206.285 79.6382 206.203 79.8726 206.156 80.1187C206.109 80.3765 206.086 80.6108 206.086 80.8335H204.597ZM214.477 79.7905L212.145 82.8608H214.477V79.7905ZM214.489 84.2788H210.446V82.8491L214.571 77.2944H215.965V82.8608H216.856V84.2788H215.965V86.353H214.489V84.2788Z" fill="#FF3435"/>
<circle cx="210.774" cy="55.6136" r="8.35853" fill="#FF3435" fill-opacity="0.1" stroke="#FF3435" stroke-width="0.597038"/>
<path d="M204.597 54.4487C204.574 53.9683 204.633 53.5112 204.75 53.0776C204.867 52.6558 205.054 52.2808 205.312 51.9526C205.57 51.6245 205.886 51.3667 206.261 51.1792C206.636 50.9917 207.082 50.8862 207.597 50.8862C207.972 50.8862 208.324 50.9565 208.676 51.0854C209.015 51.2144 209.32 51.3901 209.578 51.6245C209.836 51.8589 210.047 52.1519 210.199 52.4917C210.351 52.8433 210.433 53.23 210.433 53.6519C210.433 54.0269 210.386 54.3667 210.316 54.6479C210.246 54.9292 210.129 55.187 209.988 55.4214C209.847 55.6558 209.683 55.8667 209.472 56.0542C209.261 56.2417 209.039 56.4175 208.781 56.5698C208.558 56.7222 208.312 56.8862 208.043 57.0503C207.773 57.2261 207.527 57.4019 207.293 57.5776C207.058 57.7651 206.859 57.9526 206.695 58.1284C206.531 58.3159 206.449 58.48 206.449 58.6206H210.48V59.9683H204.41C204.41 59.4761 204.48 59.0308 204.644 58.6206C204.797 58.2222 205.008 57.8472 205.265 57.519C205.523 57.1909 205.816 56.8979 206.156 56.6401C206.496 56.3823 206.847 56.1362 207.222 55.9253C207.41 55.8081 207.609 55.6792 207.808 55.5386C207.996 55.3979 208.172 55.2456 208.336 55.0698C208.488 54.9058 208.617 54.7065 208.711 54.4956C208.804 54.2847 208.863 54.0503 208.863 53.7925C208.863 53.3472 208.734 52.9839 208.488 52.7026C208.242 52.4214 207.914 52.2808 207.515 52.2808C207.246 52.2808 207.023 52.3628 206.847 52.5034C206.66 52.644 206.519 52.8198 206.402 53.0308C206.285 53.2534 206.203 53.4878 206.156 53.7339C206.109 53.9917 206.086 54.2261 206.086 54.4487H204.597ZM216.235 52.4683H212.766L212.403 54.7183C212.637 54.4253 212.895 54.2261 213.164 54.1206C213.434 54.0151 213.774 53.9565 214.172 53.9565C214.524 53.9565 214.864 54.0386 215.18 54.1792C215.485 54.3315 215.754 54.5425 215.977 54.8003C216.199 55.0581 216.375 55.3745 216.504 55.7378C216.633 56.1128 216.703 56.5112 216.703 56.9565C216.703 57.4487 216.621 57.894 216.469 58.2925C216.305 58.6909 216.094 59.019 215.824 59.3003C215.543 59.5815 215.227 59.7925 214.852 59.9331C214.477 60.0737 214.067 60.144 213.633 60.144C213.211 60.144 212.824 60.0854 212.461 59.98C212.086 59.8628 211.77 59.687 211.489 59.4526C211.207 59.2183 210.973 58.9253 210.809 58.5737C210.645 58.2339 210.551 57.8472 210.551 57.4019H212.121C212.156 57.8003 212.309 58.1167 212.578 58.3745C212.848 58.6323 213.188 58.7612 213.598 58.7612C213.821 58.7612 214.031 58.7144 214.219 58.6206C214.406 58.5269 214.571 58.3979 214.711 58.2339C214.852 58.0698 214.957 57.8706 215.028 57.6597C215.098 57.4487 215.145 57.2144 215.145 56.9565C215.145 56.7104 215.098 56.4761 215.028 56.2651C214.946 56.0542 214.84 55.8784 214.699 55.7261C214.559 55.562 214.406 55.4448 214.219 55.3511C214.031 55.269 213.821 55.2222 213.598 55.2222C213.27 55.2222 212.989 55.2808 212.778 55.3979C212.567 55.5151 212.379 55.6909 212.239 55.9487H210.832L211.664 51.062H216.235V52.4683Z" fill="#FF3435"/>
<circle cx="296.057" cy="45.0648" r="8.35853" fill="#FF3435" fill-opacity="0.1" stroke="#FF3435" stroke-width="0.597038"/>
<path d="M289.883 43.8999C289.859 43.4194 289.918 42.9624 290.035 42.5288C290.152 42.1069 290.34 41.7319 290.597 41.4038C290.855 41.0757 291.172 40.8179 291.547 40.6304C291.922 40.4429 292.367 40.3374 292.883 40.3374C293.258 40.3374 293.609 40.4077 293.961 40.5366C294.301 40.6655 294.605 40.8413 294.863 41.0757C295.121 41.3101 295.332 41.603 295.484 41.9429C295.636 42.2944 295.719 42.6812 295.719 43.103C295.719 43.478 295.672 43.8179 295.601 44.0991C295.531 44.3804 295.414 44.6382 295.273 44.8726C295.133 45.1069 294.969 45.3179 294.758 45.5054C294.547 45.6929 294.324 45.8687 294.066 46.021C293.844 46.1733 293.597 46.3374 293.328 46.5015C293.058 46.6772 292.812 46.853 292.578 47.0288C292.344 47.2163 292.144 47.4038 291.98 47.5796C291.816 47.7671 291.734 47.9312 291.734 48.0718H295.765V49.4194H289.695C289.695 48.9272 289.765 48.4819 289.929 48.0718C290.082 47.6733 290.293 47.2983 290.551 46.9702C290.808 46.6421 291.101 46.3491 291.441 46.0913C291.781 45.8335 292.133 45.5874 292.508 45.3765C292.695 45.2593 292.894 45.1304 293.094 44.9897C293.281 44.8491 293.457 44.6968 293.621 44.521C293.773 44.3569 293.902 44.1577 293.996 43.9468C294.09 43.7358 294.148 43.5015 294.148 43.2437C294.148 42.7983 294.019 42.4351 293.773 42.1538C293.527 41.8726 293.199 41.7319 292.801 41.7319C292.531 41.7319 292.308 41.814 292.133 41.9546C291.945 42.0952 291.804 42.271 291.687 42.4819C291.57 42.7046 291.488 42.939 291.441 43.1851C291.394 43.4429 291.371 43.6772 291.371 43.8999H289.883ZM299.012 44.7671C298.778 44.7671 298.578 44.814 298.403 44.896C298.215 44.978 298.063 45.0952 297.934 45.2476C297.817 45.3999 297.723 45.5757 297.653 45.7866C297.582 45.9976 297.559 46.2319 297.559 46.4663C297.559 46.7124 297.582 46.9351 297.653 47.1343C297.723 47.3452 297.817 47.521 297.934 47.6851C298.051 47.8491 298.203 47.978 298.391 48.0718C298.567 48.1655 298.778 48.2124 299.012 48.2124C299.223 48.2124 299.422 48.1655 299.598 48.0718C299.762 47.978 299.903 47.8491 300.02 47.6968C300.137 47.5327 300.231 47.3569 300.289 47.146C300.348 46.9468 300.383 46.7241 300.383 46.4897C300.383 46.2671 300.348 46.0444 300.289 45.8335C300.231 45.6226 300.137 45.4351 300.02 45.271C299.903 45.1069 299.762 44.9897 299.598 44.896C299.422 44.814 299.223 44.7671 299.012 44.7671ZM300.313 42.7515C300.254 42.4233 300.114 42.1538 299.903 41.9429C299.68 41.7319 299.41 41.6265 299.106 41.6265C298.778 41.6265 298.508 41.7202 298.297 41.9077C298.074 42.0952 297.899 42.3413 297.781 42.6343C297.653 42.9155 297.559 43.2437 297.5 43.5952C297.442 43.9585 297.418 44.3101 297.418 44.6382C297.617 44.2397 297.887 43.9351 298.227 43.7476C298.555 43.5601 298.953 43.4663 299.422 43.4663C299.75 43.4663 300.078 43.5366 300.383 43.6772C300.688 43.8179 300.969 44.0171 301.203 44.2632C301.426 44.521 301.602 44.8257 301.742 45.1772C301.883 45.5288 301.953 45.9272 301.953 46.3608C301.953 46.8296 301.883 47.2749 301.742 47.6733C301.602 48.0718 301.414 48.4233 301.168 48.7046C300.91 48.9858 300.606 49.2085 300.254 49.3608C299.903 49.5132 299.504 49.5952 299.059 49.5952C298.449 49.5952 297.934 49.4663 297.524 49.2319C297.114 48.9976 296.785 48.6577 296.539 48.2358C296.305 47.814 296.129 47.3218 296.035 46.7593C295.93 46.2085 295.883 45.6226 295.883 45.0015C295.883 44.4507 295.942 43.8882 296.059 43.3257C296.176 42.7632 296.375 42.271 296.645 41.8257C296.903 41.3804 297.242 41.0288 297.653 40.7476C298.051 40.478 298.543 40.3374 299.129 40.3374C299.481 40.3374 299.821 40.396 300.125 40.5015C300.43 40.6187 300.699 40.771 300.934 40.9702C301.168 41.1812 301.356 41.439 301.508 41.7437C301.649 42.0483 301.754 42.3765 301.801 42.7515H300.313Z" fill="#FF3435"/>
<circle cx="328.528" cy="45.0648" r="8.35853" fill="#FF3435" fill-opacity="0.1" stroke="#FF3435" stroke-width="0.597038"/>
<path d="M322.358 43.8999C322.335 43.4194 322.393 42.9624 322.511 42.5288C322.628 42.1069 322.815 41.7319 323.073 41.4038C323.331 41.0757 323.647 40.8179 324.022 40.6304C324.397 40.4429 324.843 40.3374 325.358 40.3374C325.733 40.3374 326.085 40.4077 326.436 40.5366C326.776 40.6655 327.081 40.8413 327.339 41.0757C327.596 41.3101 327.807 41.603 327.96 41.9429C328.112 42.2944 328.194 42.6812 328.194 43.103C328.194 43.478 328.147 43.8179 328.077 44.0991C328.007 44.3804 327.889 44.6382 327.749 44.8726C327.608 45.1069 327.444 45.3179 327.233 45.5054C327.022 45.6929 326.8 45.8687 326.542 46.021C326.319 46.1733 326.073 46.3374 325.803 46.5015C325.534 46.6772 325.288 46.853 325.053 47.0288C324.819 47.2163 324.62 47.4038 324.456 47.5796C324.292 47.7671 324.21 47.9312 324.21 48.0718H328.241V49.4194H322.171C322.171 48.9272 322.241 48.4819 322.405 48.0718C322.557 47.6733 322.768 47.2983 323.026 46.9702C323.284 46.6421 323.577 46.3491 323.917 46.0913C324.257 45.8335 324.608 45.5874 324.983 45.3765C325.171 45.2593 325.37 45.1304 325.569 44.9897C325.757 44.8491 325.932 44.6968 326.096 44.521C326.249 44.3569 326.378 44.1577 326.471 43.9468C326.565 43.7358 326.624 43.5015 326.624 43.2437C326.624 42.7983 326.495 42.4351 326.249 42.1538C326.003 41.8726 325.675 41.7319 325.276 41.7319C325.007 41.7319 324.784 41.814 324.608 41.9546C324.421 42.0952 324.28 42.271 324.163 42.4819C324.046 42.7046 323.964 42.939 323.917 43.1851C323.87 43.4429 323.846 43.6772 323.846 43.8999H322.358ZM334.206 42.0249C333.761 42.4351 333.351 42.9272 332.976 43.5015C332.589 44.0757 332.273 44.6968 332.038 45.3647C331.804 46.0444 331.652 46.6538 331.57 47.1929C331.476 47.7319 331.429 48.4819 331.429 49.4194H329.741C329.788 48.4351 329.87 47.6851 329.976 47.1694C330.081 46.6655 330.257 46.0913 330.491 45.4468C330.738 44.8022 331.042 44.1929 331.417 43.6069C331.781 43.021 332.167 42.4585 332.577 41.9194H328.57V40.5132H334.206V42.0249Z" fill="#FF3435"/>
<circle cx="370.548" cy="45.0648" r="8.35853" fill="#FF3435" fill-opacity="0.1" stroke="#FF3435" stroke-width="0.597038"/>
<path d="M364.371 43.8999C364.347 43.4194 364.406 42.9624 364.523 42.5288C364.64 42.1069 364.828 41.7319 365.086 41.4038C365.344 41.0757 365.66 40.8179 366.035 40.6304C366.41 40.4429 366.855 40.3374 367.371 40.3374C367.746 40.3374 368.097 40.4077 368.449 40.5366C368.789 40.6655 369.094 40.8413 369.351 41.0757C369.609 41.3101 369.82 41.603 369.972 41.9429C370.125 42.2944 370.207 42.6812 370.207 43.103C370.207 43.478 370.16 43.8179 370.09 44.0991C370.019 44.3804 369.902 44.6382 369.761 44.8726C369.621 45.1069 369.457 45.3179 369.246 45.5054C369.035 45.6929 368.812 45.8687 368.554 46.021C368.332 46.1733 368.086 46.3374 367.816 46.5015C367.547 46.6772 367.301 46.853 367.066 47.0288C366.832 47.2163 366.633 47.4038 366.469 47.5796C366.304 47.7671 366.222 47.9312 366.222 48.0718H370.254V49.4194H364.183C364.183 48.9272 364.254 48.4819 364.418 48.0718C364.57 47.6733 364.781 47.2983 365.039 46.9702C365.297 46.6421 365.59 46.3491 365.929 46.0913C366.269 45.8335 366.621 45.5874 366.996 45.3765C367.183 45.2593 367.383 45.1304 367.582 44.9897C367.769 44.8491 367.945 44.6968 368.109 44.521C368.261 44.3569 368.39 44.1577 368.484 43.9468C368.578 43.7358 368.636 43.5015 368.636 43.2437C368.636 42.7983 368.508 42.4351 368.261 42.1538C368.015 41.8726 367.687 41.7319 367.289 41.7319C367.019 41.7319 366.797 41.814 366.621 41.9546C366.433 42.0952 366.293 42.271 366.176 42.4819C366.058 42.7046 365.976 42.939 365.929 43.1851C365.883 43.4429 365.859 43.6772 365.859 43.8999H364.371ZM372.035 42.8921C372.035 43.0679 372.059 43.2319 372.129 43.3726C372.188 43.5249 372.27 43.6538 372.387 43.771C372.504 43.8882 372.645 43.9702 372.821 44.0405C372.985 44.1108 373.184 44.146 373.395 44.146C373.817 44.146 374.145 44.0288 374.391 43.7827C374.637 43.5483 374.766 43.2437 374.766 42.8921C374.766 42.728 374.731 42.564 374.672 42.3999C374.602 42.2476 374.508 42.1069 374.391 41.978C374.274 41.8608 374.121 41.7671 373.957 41.6968C373.793 41.6265 373.606 41.5796 373.395 41.5796C373.184 41.5796 372.985 41.6265 372.821 41.6968C372.645 41.7788 372.504 41.8726 372.387 41.9897C372.27 42.1187 372.188 42.2593 372.129 42.4116C372.059 42.5757 372.035 42.728 372.035 42.8921ZM371.848 46.7944C371.848 47.0288 371.883 47.2397 371.965 47.4272C372.047 47.6147 372.164 47.7788 372.305 47.9077C372.446 48.0366 372.61 48.1421 372.797 48.2124C372.985 48.2944 373.196 48.3296 373.406 48.3296C373.617 48.3296 373.817 48.2944 374.004 48.2124C374.192 48.1421 374.356 48.0366 374.496 47.9077C374.637 47.7788 374.754 47.6265 374.836 47.439C374.918 47.2515 374.965 47.0522 374.965 46.8179C374.965 46.5952 374.918 46.3843 374.836 46.1968C374.754 46.0093 374.637 45.8569 374.496 45.7163C374.356 45.5757 374.192 45.4585 374.004 45.3882C373.817 45.3179 373.617 45.271 373.406 45.271C373.196 45.271 372.985 45.3062 372.797 45.3765C372.61 45.4468 372.446 45.5522 372.305 45.6929C372.164 45.8335 372.047 45.9858 371.965 46.1733C371.883 46.3608 371.848 46.5601 371.848 46.7944ZM370.594 42.7515C370.594 42.3765 370.664 42.0366 370.828 41.7319C370.981 41.4272 371.192 41.1694 371.461 40.9585C371.731 40.7593 372.035 40.6069 372.364 40.5015C372.692 40.396 373.043 40.3374 373.395 40.3374C373.746 40.3374 374.086 40.396 374.426 40.5015C374.754 40.6069 375.059 40.7593 375.328 40.9585C375.586 41.1694 375.797 41.4272 375.961 41.7202C376.125 42.0132 376.207 42.3413 376.207 42.7163C376.207 42.939 376.172 43.1499 376.102 43.3608C376.031 43.5718 375.949 43.7476 375.832 43.9116C375.715 44.0874 375.586 44.228 375.434 44.3452C375.281 44.4624 375.117 44.5562 374.953 44.6265C375.164 44.6968 375.375 44.7905 375.563 44.9194C375.75 45.0483 375.926 45.2124 376.078 45.3999C376.219 45.5991 376.336 45.8218 376.43 46.0562C376.512 46.2905 376.559 46.5483 376.559 46.8296C376.559 47.2515 376.477 47.6265 376.313 47.9663C376.149 48.3062 375.926 48.5991 375.645 48.8452C375.364 49.0913 375.024 49.2788 374.637 49.4077C374.25 49.5249 373.84 49.5952 373.406 49.5952C372.961 49.5952 372.539 49.5249 372.153 49.4077C371.766 49.2788 371.426 49.0913 371.145 48.8452C370.864 48.5991 370.641 48.3062 370.477 47.9663C370.313 47.6265 370.242 47.2515 370.242 46.8413C370.242 46.5601 370.289 46.3022 370.383 46.0562C370.477 45.8218 370.594 45.5991 370.758 45.3999C370.91 45.2007 371.086 45.0366 371.297 44.9077C371.508 44.7788 371.719 44.6733 371.953 44.603C371.508 44.4858 371.18 44.2632 370.946 43.9233C370.711 43.5952 370.594 43.1968 370.594 42.7515Z" fill="#FF3435"/>
<circle cx="401.575" cy="45.0648" r="8.35853" fill="#FF3435" fill-opacity="0.1" stroke="#FF3435" stroke-width="0.597038"/>
<path d="M395.398 43.8999C395.375 43.4194 395.433 42.9624 395.551 42.5288C395.668 42.1069 395.855 41.7319 396.113 41.4038C396.371 41.0757 396.687 40.8179 397.062 40.6304C397.437 40.4429 397.883 40.3374 398.398 40.3374C398.773 40.3374 399.125 40.4077 399.476 40.5366C399.816 40.6655 400.121 40.8413 400.379 41.0757C400.636 41.3101 400.847 41.603 401 41.9429C401.152 42.2944 401.234 42.6812 401.234 43.103C401.234 43.478 401.187 43.8179 401.117 44.0991C401.047 44.3804 400.929 44.6382 400.789 44.8726C400.648 45.1069 400.484 45.3179 400.273 45.5054C400.062 45.6929 399.84 45.8687 399.582 46.021C399.359 46.1733 399.113 46.3374 398.844 46.5015C398.574 46.6772 398.328 46.853 398.094 47.0288C397.859 47.2163 397.66 47.4038 397.496 47.5796C397.332 47.7671 397.25 47.9312 397.25 48.0718H401.281V49.4194H395.211C395.211 48.9272 395.281 48.4819 395.445 48.0718C395.597 47.6733 395.808 47.2983 396.066 46.9702C396.324 46.6421 396.617 46.3491 396.957 46.0913C397.297 45.8335 397.648 45.5874 398.023 45.3765C398.211 45.2593 398.41 45.1304 398.609 44.9897C398.797 44.8491 398.972 44.6968 399.136 44.521C399.289 44.3569 399.418 44.1577 399.511 43.9468C399.605 43.7358 399.664 43.5015 399.664 43.2437C399.664 42.7983 399.535 42.4351 399.289 42.1538C399.043 41.8726 398.715 41.7319 398.316 41.7319C398.047 41.7319 397.824 41.814 397.648 41.9546C397.461 42.0952 397.32 42.271 397.203 42.4819C397.086 42.7046 397.004 42.939 396.957 43.1851C396.91 43.4429 396.886 43.6772 396.886 43.8999H395.398ZM404.352 45.189C404.586 45.189 404.797 45.1538 404.985 45.0601C405.16 44.9663 405.301 44.8491 405.418 44.6968C405.535 44.5327 405.629 44.3569 405.688 44.146C405.746 43.9351 405.781 43.7124 405.781 43.4546C405.781 43.2437 405.746 43.0444 405.688 42.8335C405.629 42.6226 405.535 42.4468 405.406 42.2827C405.289 42.1187 405.137 41.9897 404.961 41.896C404.785 41.8022 404.586 41.7554 404.352 41.7554C404.117 41.7554 403.918 41.8022 403.754 41.896C403.578 41.9897 403.438 42.1187 403.321 42.2827C403.203 42.4468 403.11 42.6226 403.051 42.8335C402.981 43.0444 402.957 43.2437 402.957 43.4312C402.957 43.6772 402.981 43.8999 403.051 44.1108C403.11 44.3218 403.203 44.5093 403.321 44.6733C403.438 44.8374 403.578 44.9546 403.754 45.0483C403.918 45.1421 404.117 45.189 404.352 45.189ZM403.028 47.2163C403.074 47.5444 403.215 47.8022 403.438 48.0132C403.649 48.2241 403.918 48.3296 404.235 48.3296C404.539 48.3296 404.809 48.2358 405.02 48.0483C405.231 47.8608 405.406 47.6147 405.535 47.3218C405.676 47.0288 405.77 46.7124 405.84 46.3608C405.899 46.021 405.934 45.6929 405.946 45.3765V45.353C405.758 45.7046 405.5 45.9858 405.149 46.1733C404.797 46.3608 404.41 46.4546 403.989 46.4546C403.66 46.4546 403.332 46.3843 403.028 46.2437C402.723 46.103 402.442 45.9155 402.207 45.6577C401.961 45.3999 401.762 45.0952 401.621 44.7437C401.469 44.3921 401.399 44.0054 401.399 43.5718C401.399 43.1265 401.469 42.7046 401.61 42.3062C401.75 41.9077 401.949 41.5679 402.207 41.2749C402.453 40.9937 402.758 40.7593 403.11 40.5952C403.461 40.4312 403.848 40.3374 404.281 40.3374C404.891 40.3374 405.395 40.4663 405.805 40.7241C406.215 40.9819 406.543 41.3218 406.789 41.7554C407.035 42.189 407.211 42.6812 407.317 43.2319C407.41 43.7827 407.469 44.3569 407.469 44.9429C407.469 45.5171 407.399 46.0796 407.281 46.6304C407.164 47.1812 406.965 47.6851 406.696 48.1304C406.426 48.5757 406.086 48.9272 405.676 49.1968C405.266 49.4546 404.774 49.5952 404.211 49.5952C403.473 49.5952 402.864 49.396 402.395 48.9741C401.914 48.5522 401.633 47.9663 401.539 47.2163H403.028Z" fill="#FF3435"/>
<circle cx="432.6" cy="45.0648" r="8.35853" fill="#FF3435" fill-opacity="0.1" stroke="#FF3435" stroke-width="0.597038"/>
<path d="M428.746 44.1577C428.957 44.1577 429.179 44.146 429.39 44.1108C429.601 44.0874 429.801 44.0288 429.976 43.9468C430.14 43.8647 430.281 43.7476 430.386 43.5952C430.492 43.4546 430.551 43.2437 430.551 42.9858C430.551 42.6108 430.433 42.3179 430.199 42.0952C429.965 41.8726 429.66 41.7554 429.273 41.7554C428.828 41.7554 428.476 41.9077 428.242 42.189C427.996 42.4819 427.879 42.8687 427.879 43.3608H426.402C426.402 42.939 426.461 42.5288 426.601 42.1538C426.742 41.7788 426.929 41.4624 427.176 41.2046C427.422 40.9351 427.726 40.7241 428.078 40.5718C428.429 40.4194 428.816 40.3374 429.261 40.3374C429.636 40.3374 429.988 40.396 430.328 40.5132C430.656 40.6304 430.949 40.7827 431.207 40.9937C431.465 41.2046 431.664 41.4624 431.804 41.7671C431.945 42.0718 432.027 42.4233 432.027 42.7983C432.027 43.2671 431.922 43.6538 431.722 43.9702C431.523 44.2866 431.242 44.5093 430.867 44.6499C431.054 44.7202 431.242 44.814 431.429 44.9312C431.605 45.0483 431.758 45.2007 431.898 45.3882C432.039 45.5757 432.144 45.7749 432.226 45.9976C432.297 46.2202 432.344 46.4546 432.344 46.7007C432.344 47.1812 432.25 47.603 432.086 47.9663C431.922 48.3296 431.687 48.6343 431.406 48.8804C431.125 49.1265 430.808 49.3022 430.433 49.4194C430.058 49.5366 429.672 49.5952 429.273 49.5952C428.793 49.5952 428.359 49.5132 427.972 49.3726C427.586 49.2202 427.258 48.9976 427 48.7163C426.719 48.4351 426.519 48.1069 426.379 47.7085C426.238 47.3218 426.168 46.8882 426.191 46.4194H427.668C427.691 46.9585 427.832 47.3921 428.09 47.7202C428.347 48.0483 428.734 48.2124 429.25 48.2124C429.461 48.2124 429.648 48.1772 429.824 48.0952C430 48.0249 430.152 47.9194 430.281 47.7905C430.41 47.6616 430.515 47.5093 430.586 47.3218C430.656 47.146 430.703 46.9468 430.703 46.7358C430.703 46.4077 430.644 46.1616 430.539 45.9741C430.422 45.7866 430.281 45.646 430.105 45.5522C429.918 45.4702 429.707 45.4116 429.472 45.3882C429.238 45.3647 428.992 45.353 428.746 45.353V44.1577ZM433.985 44.9312C433.985 45.3647 434.008 45.7749 434.055 46.1733C434.09 46.5718 434.16 46.9233 434.278 47.228C434.371 47.5327 434.524 47.7671 434.711 47.9429C434.899 48.1304 435.145 48.2124 435.449 48.2124C435.754 48.2124 436.012 48.1304 436.211 47.9546C436.399 47.7788 436.551 47.5444 436.668 47.2397C436.762 46.9351 436.832 46.5835 436.867 46.1851C436.903 45.7866 436.926 45.3765 436.926 44.9312C436.926 44.4976 436.903 44.0874 436.867 43.689C436.832 43.2905 436.762 42.9624 436.668 42.6812C436.551 42.3999 436.399 42.1655 436.211 42.0015C436.012 41.8374 435.754 41.7554 435.449 41.7554C435.145 41.7554 434.887 41.8374 434.699 42.0015C434.512 42.1655 434.36 42.3999 434.266 42.6812C434.149 42.9624 434.078 43.2905 434.043 43.689C433.996 44.0874 433.985 44.4976 433.985 44.9312ZM432.426 44.9312C432.426 44.0874 432.496 43.3726 432.66 42.7866C432.813 42.2007 433.024 41.7319 433.293 41.3687C433.563 41.0054 433.879 40.7476 434.254 40.5835C434.629 40.4194 435.028 40.3374 435.449 40.3374C435.871 40.3374 436.258 40.4194 436.633 40.5835C437.008 40.7476 437.324 41.0054 437.594 41.3569C437.875 41.7202 438.086 42.2007 438.25 42.7866C438.414 43.3726 438.496 44.0874 438.496 44.9312C438.496 45.8101 438.414 46.5483 438.262 47.1343C438.098 47.7202 437.887 48.2007 437.606 48.564C437.324 48.939 437.008 49.2085 436.633 49.3608C436.258 49.5132 435.871 49.5952 435.449 49.5952C435.028 49.5952 434.629 49.5132 434.254 49.3608C433.879 49.2085 433.563 48.939 433.293 48.564C433.024 48.2007 432.813 47.7202 432.66 47.1343C432.496 46.5483 432.426 45.8101 432.426 44.9312Z" fill="#FF3435"/>
<circle cx="463.626" cy="45.0648" r="8.35853" fill="#FF3435" fill-opacity="0.1" stroke="#FF3435" stroke-width="0.597038"/>
<path d="M459.771 44.1577C459.982 44.1577 460.205 44.146 460.416 44.1108C460.627 44.0874 460.826 44.0288 461.002 43.9468C461.166 43.8647 461.306 43.7476 461.412 43.5952C461.517 43.4546 461.576 43.2437 461.576 42.9858C461.576 42.6108 461.459 42.3179 461.224 42.0952C460.99 41.8726 460.685 41.7554 460.299 41.7554C459.853 41.7554 459.502 41.9077 459.267 42.189C459.021 42.4819 458.904 42.8687 458.904 43.3608H457.427C457.427 42.939 457.486 42.5288 457.627 42.1538C457.767 41.7788 457.955 41.4624 458.201 41.2046C458.447 40.9351 458.752 40.7241 459.103 40.5718C459.455 40.4194 459.842 40.3374 460.287 40.3374C460.662 40.3374 461.013 40.396 461.353 40.5132C461.681 40.6304 461.974 40.7827 462.232 40.9937C462.49 41.2046 462.689 41.4624 462.83 41.7671C462.97 42.0718 463.052 42.4233 463.052 42.7983C463.052 43.2671 462.947 43.6538 462.748 43.9702C462.549 44.2866 462.267 44.5093 461.892 44.6499C462.08 44.7202 462.267 44.814 462.455 44.9312C462.631 45.0483 462.783 45.2007 462.924 45.3882C463.064 45.5757 463.17 45.7749 463.252 45.9976C463.322 46.2202 463.369 46.4546 463.369 46.7007C463.369 47.1812 463.275 47.603 463.111 47.9663C462.947 48.3296 462.713 48.6343 462.431 48.8804C462.15 49.1265 461.834 49.3022 461.459 49.4194C461.084 49.5366 460.697 49.5952 460.299 49.5952C459.818 49.5952 459.385 49.5132 458.998 49.3726C458.611 49.2202 458.283 48.9976 458.025 48.7163C457.744 48.4351 457.545 48.1069 457.404 47.7085C457.263 47.3218 457.193 46.8882 457.217 46.4194H458.693C458.717 46.9585 458.857 47.3921 459.115 47.7202C459.373 48.0483 459.76 48.2124 460.275 48.2124C460.486 48.2124 460.674 48.1772 460.849 48.0952C461.025 48.0249 461.177 47.9194 461.306 47.7905C461.435 47.6616 461.541 47.5093 461.611 47.3218C461.681 47.146 461.728 46.9468 461.728 46.7358C461.728 46.4077 461.67 46.1616 461.564 45.9741C461.447 45.7866 461.306 45.646 461.131 45.5522C460.943 45.4702 460.732 45.4116 460.498 45.3882C460.263 45.3647 460.017 45.353 459.771 45.353V44.1577ZM467.787 49.4194H466.229V43.1382C465.971 43.3257 465.655 43.4194 465.28 43.4429C464.905 43.4663 464.518 43.478 464.096 43.478V42.3179C464.787 42.3062 465.326 42.1187 465.725 41.7671C466.123 41.4155 466.358 41.0054 466.428 40.5132H467.787V49.4194Z" fill="#FF3435"/>
<circle cx="494.653" cy="45.0648" r="8.35853" fill="#FF3435" fill-opacity="0.1" stroke="#FF3435" stroke-width="0.597038"/>
<path d="M490.797 44.1577C491.008 44.1577 491.23 44.146 491.441 44.1108C491.652 44.0874 491.851 44.0288 492.027 43.9468C492.191 43.8647 492.332 43.7476 492.437 43.5952C492.543 43.4546 492.601 43.2437 492.601 42.9858C492.601 42.6108 492.484 42.3179 492.25 42.0952C492.015 41.8726 491.711 41.7554 491.324 41.7554C490.879 41.7554 490.527 41.9077 490.293 42.189C490.047 42.4819 489.929 42.8687 489.929 43.3608H488.453C488.453 42.939 488.511 42.5288 488.652 42.1538C488.793 41.7788 488.98 41.4624 489.226 41.2046C489.472 40.9351 489.777 40.7241 490.129 40.5718C490.48 40.4194 490.867 40.3374 491.312 40.3374C491.687 40.3374 492.039 40.396 492.379 40.5132C492.707 40.6304 493 40.7827 493.258 40.9937C493.515 41.2046 493.715 41.4624 493.855 41.7671C493.996 42.0718 494.078 42.4233 494.078 42.7983C494.078 43.2671 493.972 43.6538 493.773 43.9702C493.574 44.2866 493.293 44.5093 492.918 44.6499C493.105 44.7202 493.293 44.814 493.48 44.9312C493.656 45.0483 493.808 45.2007 493.949 45.3882C494.09 45.5757 494.195 45.7749 494.277 45.9976C494.347 46.2202 494.394 46.4546 494.394 46.7007C494.394 47.1812 494.301 47.603 494.136 47.9663C493.972 48.3296 493.738 48.6343 493.457 48.8804C493.176 49.1265 492.859 49.3022 492.484 49.4194C492.109 49.5366 491.722 49.5952 491.324 49.5952C490.844 49.5952 490.41 49.5132 490.023 49.3726C489.636 49.2202 489.308 48.9976 489.051 48.7163C488.769 48.4351 488.57 48.1069 488.429 47.7085C488.289 47.3218 488.219 46.8882 488.242 46.4194H489.719C489.742 46.9585 489.883 47.3921 490.14 47.7202C490.398 48.0483 490.785 48.2124 491.301 48.2124C491.511 48.2124 491.699 48.1772 491.875 48.0952C492.051 48.0249 492.203 47.9194 492.332 47.7905C492.461 47.6616 492.566 47.5093 492.636 47.3218C492.707 47.146 492.754 46.9468 492.754 46.7358C492.754 46.4077 492.695 46.1616 492.59 45.9741C492.472 45.7866 492.332 45.646 492.156 45.5522C491.969 45.4702 491.758 45.4116 491.523 45.3882C491.289 45.3647 491.043 45.353 490.797 45.353V44.1577ZM494.664 43.8999C494.641 43.4194 494.699 42.9624 494.817 42.5288C494.934 42.1069 495.121 41.7319 495.379 41.4038C495.637 41.0757 495.953 40.8179 496.328 40.6304C496.703 40.4429 497.149 40.3374 497.664 40.3374C498.039 40.3374 498.391 40.4077 498.742 40.5366C499.082 40.6655 499.387 40.8413 499.645 41.0757C499.903 41.3101 500.114 41.603 500.266 41.9429C500.418 42.2944 500.5 42.6812 500.5 43.103C500.5 43.478 500.453 43.8179 500.383 44.0991C500.313 44.3804 500.196 44.6382 500.055 44.8726C499.914 45.1069 499.75 45.3179 499.539 45.5054C499.328 45.6929 499.106 45.8687 498.848 46.021C498.625 46.1733 498.379 46.3374 498.11 46.5015C497.84 46.6772 497.594 46.853 497.36 47.0288C497.125 47.2163 496.926 47.4038 496.762 47.5796C496.598 47.7671 496.516 47.9312 496.516 48.0718H500.547V49.4194H494.477C494.477 48.9272 494.547 48.4819 494.711 48.0718C494.864 47.6733 495.074 47.2983 495.332 46.9702C495.59 46.6421 495.883 46.3491 496.223 46.0913C496.563 45.8335 496.914 45.5874 497.289 45.3765C497.477 45.2593 497.676 45.1304 497.875 44.9897C498.063 44.8491 498.239 44.6968 498.403 44.521C498.555 44.3569 498.684 44.1577 498.778 43.9468C498.871 43.7358 498.93 43.5015 498.93 43.2437C498.93 42.7983 498.801 42.4351 498.555 42.1538C498.309 41.8726 497.981 41.7319 497.582 41.7319C497.313 41.7319 497.09 41.814 496.914 41.9546C496.727 42.0952 496.586 42.271 496.469 42.4819C496.352 42.7046 496.27 42.939 496.223 43.1851C496.176 43.4429 496.153 43.6772 496.153 43.8999H494.664Z" fill="#FF3435"/>
<circle cx="465.911" cy="155.807" r="8.35853" fill="#FF3435" fill-opacity="0.1" stroke="#FF3435" stroke-width="0.597038"/>
<path d="M462.058 154.9C462.269 154.9 462.492 154.889 462.703 154.854C462.914 154.83 463.113 154.771 463.289 154.689C463.453 154.607 463.594 154.49 463.699 154.338C463.804 154.197 463.863 153.986 463.863 153.729C463.863 153.354 463.746 153.061 463.511 152.838C463.277 152.615 462.972 152.498 462.586 152.498C462.14 152.498 461.789 152.65 461.554 152.932C461.308 153.225 461.191 153.611 461.191 154.104H459.715C459.715 153.682 459.773 153.271 459.914 152.896C460.054 152.521 460.242 152.205 460.488 151.947C460.734 151.678 461.039 151.467 461.39 151.314C461.742 151.162 462.129 151.08 462.574 151.08C462.949 151.08 463.301 151.139 463.64 151.256C463.969 151.373 464.261 151.525 464.519 151.736C464.777 151.947 464.976 152.205 465.117 152.51C465.258 152.814 465.34 153.166 465.34 153.541C465.34 154.01 465.234 154.396 465.035 154.713C464.836 155.029 464.554 155.252 464.179 155.393C464.367 155.463 464.554 155.557 464.742 155.674C464.918 155.791 465.07 155.943 465.211 156.131C465.351 156.318 465.457 156.518 465.539 156.74C465.609 156.963 465.656 157.197 465.656 157.443C465.656 157.924 465.562 158.346 465.398 158.709C465.234 159.072 465 159.377 464.719 159.623C464.437 159.869 464.121 160.045 463.746 160.162C463.371 160.279 462.984 160.338 462.586 160.338C462.105 160.338 461.672 160.256 461.285 160.115C460.898 159.963 460.57 159.74 460.312 159.459C460.031 159.178 459.832 158.85 459.691 158.451C459.551 158.064 459.48 157.631 459.504 157.162H460.98C461.004 157.701 461.144 158.135 461.402 158.463C461.66 158.791 462.047 158.955 462.562 158.955C462.773 158.955 462.961 158.92 463.136 158.838C463.312 158.768 463.465 158.662 463.594 158.533C463.722 158.404 463.828 158.252 463.898 158.064C463.969 157.889 464.015 157.689 464.015 157.479C464.015 157.15 463.957 156.904 463.851 156.717C463.734 156.529 463.594 156.389 463.418 156.295C463.23 156.213 463.019 156.154 462.785 156.131C462.551 156.107 462.304 156.096 462.058 156.096V154.9ZM468.246 154.9C468.457 154.9 468.68 154.889 468.891 154.854C469.102 154.83 469.301 154.771 469.477 154.689C469.641 154.607 469.781 154.49 469.887 154.338C469.992 154.197 470.051 153.986 470.051 153.729C470.051 153.354 469.934 153.061 469.699 152.838C469.465 152.615 469.16 152.498 468.774 152.498C468.328 152.498 467.977 152.65 467.742 152.932C467.496 153.225 467.379 153.611 467.379 154.104H465.903C465.903 153.682 465.961 153.271 466.102 152.896C466.242 152.521 466.43 152.205 466.676 151.947C466.922 151.678 467.227 151.467 467.578 151.314C467.93 151.162 468.317 151.08 468.762 151.08C469.137 151.08 469.489 151.139 469.828 151.256C470.156 151.373 470.449 151.525 470.707 151.736C470.965 151.947 471.164 152.205 471.305 152.51C471.446 152.814 471.528 153.166 471.528 153.541C471.528 154.01 471.422 154.396 471.223 154.713C471.024 155.029 470.742 155.252 470.367 155.393C470.555 155.463 470.742 155.557 470.93 155.674C471.106 155.791 471.258 155.943 471.399 156.131C471.539 156.318 471.645 156.518 471.727 156.74C471.797 156.963 471.844 157.197 471.844 157.443C471.844 157.924 471.75 158.346 471.586 158.709C471.422 159.072 471.188 159.377 470.906 159.623C470.625 159.869 470.309 160.045 469.934 160.162C469.559 160.279 469.172 160.338 468.774 160.338C468.293 160.338 467.86 160.256 467.473 160.115C467.086 159.963 466.758 159.74 466.5 159.459C466.219 159.178 466.02 158.85 465.879 158.451C465.739 158.064 465.668 157.631 465.692 157.162H467.168C467.192 157.701 467.332 158.135 467.59 158.463C467.848 158.791 468.235 158.955 468.75 158.955C468.961 158.955 469.149 158.92 469.324 158.838C469.5 158.768 469.653 158.662 469.781 158.533C469.91 158.404 470.016 158.252 470.086 158.064C470.156 157.889 470.203 157.689 470.203 157.479C470.203 157.15 470.145 156.904 470.039 156.717C469.922 156.529 469.781 156.389 469.606 156.295C469.418 156.213 469.207 156.154 468.973 156.131C468.739 156.107 468.492 156.096 468.246 156.096V154.9Z" fill="#FF3435"/>
<circle cx="587.559" cy="102.59" r="8.35853" fill="#FF3435" fill-opacity="0.1" stroke="#FF3435" stroke-width="0.597038"/>
<path d="M583.709 101.683C583.92 101.683 584.142 101.671 584.353 101.636C584.564 101.613 584.763 101.554 584.939 101.472C585.103 101.39 585.244 101.273 585.349 101.121C585.455 100.98 585.513 100.769 585.513 100.511C585.513 100.136 585.396 99.8433 585.162 99.6206C584.927 99.3979 584.623 99.2808 584.236 99.2808C583.791 99.2808 583.439 99.4331 583.205 99.7144C582.959 100.007 582.842 100.394 582.842 100.886H581.365C581.365 100.464 581.424 100.054 581.564 99.6792C581.705 99.3042 581.892 98.9878 582.138 98.73C582.385 98.4604 582.689 98.2495 583.041 98.0972C583.392 97.9448 583.779 97.8628 584.224 97.8628C584.599 97.8628 584.951 97.9214 585.291 98.0386C585.619 98.1558 585.912 98.3081 586.17 98.519C586.427 98.73 586.627 98.9878 586.767 99.2925C586.908 99.5972 586.99 99.9487 586.99 100.324C586.99 100.792 586.885 101.179 586.685 101.496C586.486 101.812 586.205 102.035 585.83 102.175C586.017 102.246 586.205 102.339 586.392 102.457C586.568 102.574 586.72 102.726 586.861 102.914C587.002 103.101 587.107 103.3 587.189 103.523C587.26 103.746 587.306 103.98 587.306 104.226C587.306 104.707 587.213 105.128 587.049 105.492C586.885 105.855 586.65 106.16 586.369 106.406C586.088 106.652 585.771 106.828 585.396 106.945C585.021 107.062 584.635 107.121 584.236 107.121C583.756 107.121 583.322 107.039 582.935 106.898C582.549 106.746 582.22 106.523 581.963 106.242C581.681 105.96 581.482 105.632 581.342 105.234C581.201 104.847 581.131 104.414 581.154 103.945H582.631C582.654 104.484 582.795 104.917 583.052 105.246C583.31 105.574 583.697 105.738 584.213 105.738C584.424 105.738 584.611 105.703 584.787 105.621C584.963 105.55 585.115 105.445 585.244 105.316C585.373 105.187 585.478 105.035 585.549 104.847C585.619 104.671 585.666 104.472 585.666 104.261C585.666 103.933 585.607 103.687 585.502 103.5C585.385 103.312 585.244 103.171 585.068 103.078C584.881 102.996 584.67 102.937 584.435 102.914C584.201 102.89 583.955 102.878 583.709 102.878V101.683ZM591.268 100.382L588.936 103.453H591.268V100.382ZM591.28 104.871H587.237V103.441L591.362 97.8862H592.756V103.453H593.647V104.871H592.756V106.945H591.28V104.871Z" fill="#FF3435"/>
<circle cx="587.559" cy="206.816" r="8.35853" fill="#FF3435" fill-opacity="0.1" stroke="#FF3435" stroke-width="0.597038"/>
<path d="M583.709 205.909C583.92 205.909 584.142 205.897 584.353 205.862C584.564 205.838 584.763 205.78 584.939 205.698C585.103 205.616 585.244 205.499 585.349 205.346C585.455 205.206 585.513 204.995 585.513 204.737C585.513 204.362 585.396 204.069 585.162 203.846C584.927 203.624 584.623 203.506 584.236 203.506C583.791 203.506 583.439 203.659 583.205 203.94C582.959 204.233 582.842 204.62 582.842 205.112H581.365C581.365 204.69 581.424 204.28 581.564 203.905C581.705 203.53 581.892 203.213 582.138 202.956C582.385 202.686 582.689 202.475 583.041 202.323C583.392 202.17 583.779 202.088 584.224 202.088C584.599 202.088 584.951 202.147 585.291 202.264C585.619 202.381 585.912 202.534 586.17 202.745C586.427 202.956 586.627 203.213 586.767 203.518C586.908 203.823 586.99 204.174 586.99 204.549C586.99 205.018 586.885 205.405 586.685 205.721C586.486 206.038 586.205 206.26 585.83 206.401C586.017 206.471 586.205 206.565 586.392 206.682C586.568 206.799 586.72 206.952 586.861 207.139C587.002 207.327 587.107 207.526 587.189 207.749C587.26 207.971 587.306 208.206 587.306 208.452C587.306 208.932 587.213 209.354 587.049 209.717C586.885 210.081 586.65 210.385 586.369 210.631C586.088 210.877 585.771 211.053 585.396 211.17C585.021 211.288 584.635 211.346 584.236 211.346C583.756 211.346 583.322 211.264 582.935 211.124C582.549 210.971 582.22 210.749 581.963 210.467C581.681 210.186 581.482 209.858 581.342 209.459C581.201 209.073 581.131 208.639 581.154 208.17H582.631C582.654 208.709 582.795 209.143 583.052 209.471C583.31 209.799 583.697 209.963 584.213 209.963C584.424 209.963 584.611 209.928 584.787 209.846C584.963 209.776 585.115 209.67 585.244 209.542C585.373 209.413 585.478 209.26 585.549 209.073C585.619 208.897 585.666 208.698 585.666 208.487C585.666 208.159 585.607 207.913 585.502 207.725C585.385 207.538 585.244 207.397 585.068 207.303C584.881 207.221 584.67 207.163 584.435 207.139C584.201 207.116 583.955 207.104 583.709 207.104V205.909ZM593.026 203.67H589.557L589.194 205.92C589.428 205.627 589.686 205.428 589.955 205.323C590.225 205.217 590.565 205.159 590.963 205.159C591.315 205.159 591.655 205.241 591.971 205.381C592.276 205.534 592.545 205.745 592.768 206.002C592.99 206.26 593.166 206.577 593.295 206.94C593.424 207.315 593.494 207.713 593.494 208.159C593.494 208.651 593.412 209.096 593.26 209.495C593.096 209.893 592.885 210.221 592.615 210.502C592.334 210.784 592.018 210.995 591.643 211.135C591.268 211.276 590.858 211.346 590.424 211.346C590.002 211.346 589.615 211.288 589.252 211.182C588.877 211.065 588.561 210.889 588.28 210.655C587.998 210.42 587.764 210.127 587.6 209.776C587.436 209.436 587.342 209.049 587.342 208.604H588.912C588.947 209.002 589.1 209.319 589.369 209.577C589.639 209.834 589.979 209.963 590.389 209.963C590.612 209.963 590.822 209.917 591.01 209.823C591.197 209.729 591.362 209.6 591.502 209.436C591.643 209.272 591.748 209.073 591.819 208.862C591.889 208.651 591.936 208.417 591.936 208.159C591.936 207.913 591.889 207.678 591.819 207.467C591.737 207.256 591.631 207.081 591.49 206.928C591.35 206.764 591.197 206.647 591.01 206.553C590.822 206.471 590.612 206.424 590.389 206.424C590.061 206.424 589.78 206.483 589.569 206.6C589.358 206.717 589.17 206.893 589.03 207.151H587.623L588.455 202.264H593.026V203.67Z" fill="#FF3435"/>
<circle cx="519.482" cy="313.771" r="8.35853" fill="#038DCC" fill-opacity="0.1" stroke="#229BD2" stroke-width="0.597038"/>
<path d="M515.659 312.866C515.877 312.866 516.091 312.855 516.301 312.831C516.518 312.8 516.713 312.742 516.884 312.656C517.055 312.571 517.191 312.454 517.292 312.307C517.401 312.159 517.455 311.961 517.455 311.712C517.455 311.339 517.338 311.039 517.105 310.814C516.88 310.589 516.573 310.476 516.184 310.476C515.741 310.476 515.399 310.62 515.158 310.907C514.917 311.195 514.796 311.584 514.796 312.073H513.327C513.327 311.646 513.393 311.249 513.525 310.884C513.665 310.511 513.856 310.192 514.097 309.928C514.345 309.656 514.645 309.446 514.995 309.298C515.344 309.143 515.737 309.065 516.172 309.065C516.545 309.065 516.899 309.123 517.233 309.24C517.568 309.349 517.859 309.508 518.108 309.718C518.365 309.928 518.563 310.184 518.703 310.488C518.85 310.791 518.924 311.133 518.924 311.514C518.924 311.98 518.823 312.373 518.621 312.691C518.427 313.002 518.143 313.224 517.77 313.356C517.964 313.418 518.151 313.512 518.33 313.636C518.508 313.76 518.664 313.912 518.796 314.091C518.936 314.27 519.045 314.472 519.123 314.697C519.2 314.915 519.239 315.148 519.239 315.397C519.239 315.879 519.154 316.302 518.983 316.668C518.819 317.025 518.598 317.325 518.318 317.566C518.038 317.807 517.712 317.989 517.338 318.114C516.973 318.23 516.588 318.289 516.184 318.289C515.71 318.289 515.278 318.211 514.89 318.055C514.509 317.9 514.182 317.682 513.91 317.402C513.646 317.123 513.444 316.788 513.304 316.4C513.164 316.011 513.102 315.583 513.117 315.117H514.586C514.61 315.646 514.75 316.077 515.006 316.411C515.271 316.738 515.655 316.901 516.161 316.901C516.371 316.901 516.561 316.866 516.732 316.796C516.911 316.718 517.062 316.617 517.187 316.493C517.319 316.361 517.42 316.205 517.49 316.026C517.568 315.848 517.607 315.649 517.607 315.432C517.607 315.105 517.552 314.853 517.443 314.674C517.334 314.487 517.187 314.351 517 314.266C516.821 314.172 516.615 314.114 516.382 314.091C516.149 314.067 515.908 314.056 515.659 314.056V312.866ZM522.435 313.473C522.209 313.473 522.007 313.515 521.828 313.601C521.649 313.687 521.498 313.807 521.374 313.962C521.249 314.11 521.152 314.289 521.082 314.499C521.02 314.709 520.989 314.934 520.989 315.175C520.989 315.408 521.02 315.63 521.082 315.84C521.152 316.042 521.245 316.225 521.362 316.388C521.486 316.543 521.638 316.668 521.817 316.761C521.995 316.854 522.201 316.901 522.435 316.901C522.652 316.901 522.847 316.854 523.018 316.761C523.189 316.668 523.333 316.543 523.449 316.388C523.566 316.232 523.651 316.054 523.706 315.852C523.768 315.642 523.799 315.424 523.799 315.199C523.799 314.965 523.768 314.744 523.706 314.534C523.651 314.324 523.566 314.141 523.449 313.986C523.333 313.823 523.189 313.698 523.018 313.613C522.847 313.519 522.652 313.473 522.435 313.473ZM523.729 311.467C523.675 311.141 523.539 310.872 523.321 310.662C523.103 310.453 522.839 310.348 522.528 310.348C522.209 310.348 521.941 310.441 521.723 310.627C521.506 310.814 521.331 311.055 521.199 311.35C521.074 311.638 520.985 311.961 520.93 312.318C520.876 312.668 520.849 313.01 520.849 313.344C521.051 312.948 521.319 312.656 521.653 312.47C521.988 312.283 522.384 312.19 522.843 312.19C523.177 312.19 523.496 312.26 523.799 312.4C524.11 312.532 524.378 312.723 524.604 312.971C524.837 313.22 525.019 313.523 525.152 313.881C525.292 314.231 525.362 314.623 525.362 315.059C525.362 315.533 525.292 315.968 525.152 316.365C525.019 316.761 524.829 317.103 524.58 317.391C524.332 317.671 524.028 317.892 523.671 318.055C523.321 318.211 522.924 318.289 522.481 318.289C521.875 318.289 521.366 318.168 520.954 317.927C520.549 317.678 520.227 317.344 519.986 316.924C519.745 316.505 519.574 316.019 519.473 315.467C519.372 314.915 519.321 314.332 519.321 313.718C519.321 313.158 519.38 312.602 519.496 312.05C519.621 311.49 519.815 310.989 520.079 310.546C520.343 310.103 520.678 309.745 521.082 309.473C521.486 309.201 521.976 309.065 522.551 309.065C522.909 309.065 523.239 309.119 523.542 309.228C523.846 309.337 524.114 309.496 524.347 309.706C524.58 309.908 524.771 310.161 524.918 310.464C525.066 310.76 525.163 311.094 525.21 311.467H523.729Z" fill="#229BD2"/>
<rect width="97.6281" height="24.8141" transform="translate(95.2988 107.76)" fill="#B6DA03" fill-opacity="0.36"/>
<path d="M101.33 114.263H108.803V115.817H103.139V119.434H108.408V120.98H103.139V124.614H108.861V126.167H101.33V114.263ZM120.608 126.167H118.948L112.914 117.461H112.807V126.167H110.998V114.263H112.675L118.701 122.978H118.808V114.263H120.608V126.167ZM122.434 114.263H131.666V115.817H127.966V126.167H126.149V115.817H122.434V114.263ZM133.507 114.263H137.749C138.659 114.263 139.421 114.42 140.035 114.732C140.654 115.039 141.117 115.475 141.424 116.039C141.731 116.604 141.885 117.259 141.885 118.004C141.885 118.738 141.731 119.382 141.424 119.936C141.117 120.484 140.651 120.911 140.027 121.218C139.407 121.525 138.646 121.679 137.741 121.679H134.527V120.109H137.569C138.15 120.109 138.624 120.026 138.991 119.862C139.358 119.697 139.627 119.459 139.796 119.147C139.972 118.834 140.06 118.453 140.06 118.004C140.06 117.538 139.972 117.143 139.796 116.82C139.627 116.491 139.355 116.242 138.983 116.072C138.61 115.902 138.136 115.817 137.56 115.817H135.316V126.167H133.507V114.263ZM142.329 126.167H140.265L137.388 120.799H139.394L142.329 126.167ZM142.978 126.167L147.253 114.263H149.349L153.633 126.167H151.701L148.346 116.442H148.248L144.885 126.167H142.978ZM151.388 121.506V123.019H145.206V121.506H151.388ZM164.772 126.167H163.111L157.077 117.461H156.97V126.167H155.162V114.263H156.839L162.865 122.978H162.972V114.263H164.772V126.167ZM175.262 118.144C175.169 117.639 174.974 117.209 174.679 116.853C174.388 116.491 174.024 116.217 173.585 116.031C173.152 115.845 172.684 115.751 172.179 115.751C171.494 115.751 170.88 115.927 170.338 116.278C169.795 116.623 169.368 117.133 169.055 117.807C168.748 118.475 168.595 119.278 168.595 120.215C168.595 121.164 168.748 121.972 169.055 122.641C169.368 123.309 169.795 123.816 170.338 124.162C170.88 124.507 171.491 124.679 172.171 124.679C172.675 124.679 173.141 124.586 173.569 124.4C173.996 124.214 174.361 123.945 174.662 123.594C174.964 123.238 175.164 122.816 175.262 122.328L177.079 122.336C176.953 123.109 176.665 123.8 176.216 124.408C175.772 125.017 175.202 125.491 174.506 125.83C173.81 126.165 173.029 126.332 172.163 126.332C171.127 126.332 170.204 126.085 169.392 125.592C168.587 125.099 167.954 124.389 167.493 123.463C167.038 122.537 166.811 121.454 166.811 120.215C166.811 118.966 167.041 117.881 167.502 116.96C167.962 116.039 168.595 115.332 169.401 114.839C170.212 114.346 171.133 114.099 172.163 114.099C173.001 114.099 173.769 114.261 174.465 114.584C175.166 114.902 175.745 115.365 176.199 115.973C176.654 116.582 176.948 117.305 177.079 118.144H175.262ZM179.036 114.263H186.509V115.817H180.844V119.434H186.114V120.98H180.844V124.614H186.566V126.167H179.036V114.263Z" fill="#1C1F1C"/>
<path d="M183.913 157.923V158.986H184.976V157.923H183.913ZM162.225 157.171C161.809 157.586 161.809 158.259 162.225 158.675L168.993 165.443C169.408 165.858 170.081 165.858 170.497 165.443C170.912 165.028 170.912 164.354 170.497 163.939L164.481 157.923L170.497 151.907C170.912 151.491 170.912 150.818 170.497 150.403C170.081 149.987 169.408 149.987 168.993 150.403L162.225 157.171ZM183.913 132.678H182.849V157.923H183.913H184.976V132.678H183.913ZM183.913 157.923V156.859H162.977V157.923V158.986H183.913V157.923Z" fill="#A7C900"/>
<rect width="73.6281" height="24.8141" transform="translate(69 301)" fill="#FFCDCD"/>
<path d="M75.0312 307.503H79.2733C80.1721 307.503 80.9312 307.67 81.5505 308.004C82.1698 308.333 82.6329 308.788 82.9399 309.369C83.2523 309.945 83.4085 310.61 83.4085 311.367C83.4085 312.112 83.2523 312.775 82.9399 313.356C82.6275 313.937 82.1616 314.395 81.5423 314.729C80.923 315.064 80.1639 315.231 79.265 315.231H76.3383V313.693H79.0924C79.6624 313.693 80.1337 313.595 80.5064 313.397C80.8791 313.195 81.1504 312.921 81.3203 312.575C81.4957 312.224 81.5834 311.822 81.5834 311.367C81.5834 310.901 81.4957 310.495 81.3203 310.15C81.1504 309.805 80.8764 309.536 80.4982 309.344C80.1255 309.153 79.6542 309.057 79.0842 309.057H76.8398V319.407H75.0312V307.503ZM85.3075 307.503H87.1162V317.853H92.501V319.407H85.3075V307.503ZM94.0383 319.407L98.3133 307.503H100.41L104.693 319.407H102.761L99.4067 309.681H99.308L95.9456 319.407H94.0383ZM102.448 314.746V316.258H96.2662V314.746H102.448ZM113.728 311.383C113.635 310.879 113.44 310.449 113.144 310.092C112.854 309.731 112.489 309.457 112.051 309.27C111.618 309.084 111.149 308.991 110.645 308.991C109.96 308.991 109.346 309.166 108.803 309.517C108.261 309.862 107.833 310.372 107.521 311.046C107.214 311.715 107.061 312.518 107.061 313.455C107.061 314.403 107.214 315.211 107.521 315.88C107.833 316.549 108.261 317.056 108.803 317.401C109.346 317.746 109.957 317.919 110.637 317.919C111.141 317.919 111.607 317.826 112.034 317.639C112.462 317.453 112.826 317.185 113.128 316.834C113.429 316.478 113.629 316.056 113.728 315.568L115.545 315.576C115.419 316.349 115.131 317.039 114.681 317.648C114.238 318.256 113.668 318.73 112.971 319.07C112.275 319.404 111.494 319.571 110.628 319.571C109.593 319.571 108.669 319.325 107.858 318.832C107.052 318.338 106.419 317.628 105.959 316.702C105.504 315.776 105.277 314.694 105.277 313.455C105.277 312.205 105.507 311.12 105.967 310.199C106.428 309.279 107.061 308.572 107.866 308.078C108.677 307.585 109.598 307.338 110.628 307.338C111.467 307.338 112.234 307.5 112.93 307.823C113.632 308.141 114.21 308.604 114.665 309.213C115.12 309.821 115.413 310.545 115.545 311.383H113.728ZM117.501 307.503H124.974V309.057H119.31V312.674H124.58V314.219H119.31V317.853H125.032V319.407H117.501V307.503ZM135.637 319.407H133.812V309.32H133.746L130.91 311.178V309.443L133.861 307.503H135.637V319.407Z" fill="#1C1F1C"/>
<path d="M49.7354 280.25V279.25H48.7354V280.25H49.7354ZM49.7354 311.38H48.7354V312.38H49.7354V311.38ZM65.1984 312.087C65.5889 311.697 65.5889 311.064 65.1984 310.673L58.8344 304.309C58.4439 303.919 57.8108 303.919 57.4202 304.309C57.0297 304.7 57.0297 305.333 57.4202 305.723L63.0771 311.38L57.4202 317.037C57.0297 317.428 57.0297 318.061 57.4202 318.451C57.8108 318.842 58.4439 318.842 58.8344 318.451L65.1984 312.087ZM64.4913 280.25V279.25H49.7354V280.25V281.25H64.4913V280.25ZM49.7354 280.25H48.7354V311.38H49.7354H50.7354V280.25H49.7354ZM49.7354 311.38V312.38H64.4913V311.38V310.38H49.7354V311.38Z" fill="#FF3435"/>
</g>
<rect width="92.0533" height="23.5267" transform="translate(469)" fill="#B6DA03" fill-opacity="0.36"/>
<path d="M474.67 6.06999H481.697V7.53101H476.371V10.9323H481.326V12.3856H476.371V15.8024H481.751V17.2634H474.67V6.06999ZM492.798 17.2634H491.236L485.562 9.07707H485.462V17.2634H483.761V6.06999H485.338L491.005 14.2641H491.105V6.06999H492.798V17.2634ZM494.514 6.06999H503.195V7.53101H499.717V17.2634H498.008V7.53101H494.514V6.06999ZM504.927 6.06999H508.916C509.771 6.06999 510.487 6.21686 511.065 6.51061C511.647 6.79921 512.082 7.20892 512.371 7.73973C512.66 8.27054 512.804 8.88639 512.804 9.58726C512.804 10.2778 512.66 10.8834 512.371 11.4039C512.082 11.9192 511.644 12.3212 511.057 12.6098C510.475 12.8984 509.758 13.0427 508.908 13.0427H505.885V11.5662H508.746C509.292 11.5662 509.738 11.4889 510.083 11.3343C510.428 11.1797 510.681 10.9555 510.84 10.6618C511.005 10.368 511.088 10.0099 511.088 9.58726C511.088 9.14921 511.005 8.77816 510.84 8.4741C510.681 8.16489 510.426 7.93041 510.075 7.77065C509.725 7.61089 509.279 7.53101 508.738 7.53101H506.627V17.2634H504.927V6.06999ZM513.221 17.2634H511.281L508.575 12.2156H510.462L513.221 17.2634ZM513.832 17.2634L517.852 6.06999H519.823L523.85 17.2634H522.034L518.88 8.11851H518.787L515.625 17.2634H513.832ZM521.74 12.8804V14.3027H515.927V12.8804H521.74ZM534.325 17.2634H532.763L527.089 9.07707H526.989V17.2634H525.288V6.06999H526.865L532.532 14.2641H532.632V6.06999H534.325V17.2634ZM544.189 9.71868C544.101 9.24455 543.918 8.84 543.64 8.50503C543.367 8.16489 543.024 7.90722 542.612 7.732C542.205 7.55678 541.764 7.46917 541.29 7.46917C540.646 7.46917 540.069 7.63408 539.558 7.96391C539.048 8.28858 538.646 8.76785 538.352 9.40174C538.064 10.0305 537.92 10.7855 537.92 11.6667C537.92 12.5583 538.064 13.3184 538.352 13.9471C538.646 14.5759 539.048 15.0526 539.558 15.3772C540.069 15.7019 540.643 15.8642 541.282 15.8642C541.756 15.8642 542.194 15.7766 542.596 15.6014C542.998 15.4262 543.341 15.1737 543.625 14.8439C543.908 14.5089 544.096 14.1121 544.189 13.6534L545.897 13.6611C545.779 14.3878 545.508 15.0371 545.086 15.6091C544.668 16.1812 544.132 16.627 543.478 16.9465C542.823 17.2609 542.089 17.418 541.275 17.418C540.3 17.418 539.432 17.1861 538.669 16.7223C537.912 16.2585 537.317 15.5911 536.884 14.7202C536.456 13.8492 536.242 12.8314 536.242 11.6667C536.242 10.4917 536.459 9.47131 536.891 8.60552C537.324 7.73973 537.92 7.07492 538.677 6.61111C539.44 6.14729 540.306 5.91538 541.275 5.91538C542.063 5.91538 542.784 6.06741 543.439 6.37147C544.099 6.67037 544.642 7.10585 545.07 7.67789C545.498 8.24993 545.774 8.93019 545.897 9.71868H544.189ZM547.737 6.06999H554.764V7.53101H549.438V10.9323H554.393V12.3856H549.438V15.8024H554.818V17.2634H547.737V6.06999Z" fill="#1C1F1C"/>
<path d="M535 47.1678L536 47.1679V47.1678H535ZM534.293 52.2069C534.683 52.5975 535.317 52.5975 535.707 52.207L542.071 45.8434C542.462 45.4529 542.462 44.8198 542.071 44.4292C541.681 44.0387 541.048 44.0386 540.657 44.4291L535 50.0857L529.344 44.4285C528.953 44.0379 528.32 44.0379 527.929 44.4284C527.539 44.8189 527.539 45.4521 527.929 45.8426L534.293 52.2069ZM535 23.4302H534V47.1678H535H536V23.4302H535ZM535 47.1678L534 47.1678L534 51.4998L535 51.4999L536 51.4999L536 47.1679L535 47.1678Z" fill="#A7C900"/>
</svg>
