<svg width="260" height="191" viewBox="0 0 260 191" fill="none" xmlns="http://www.w3.org/2000/svg">
<mask id="path-1-inside-1_827_428" fill="white">
<path d="M260 191H96V130H0V61H46V0H260V191Z"/>
</mask>
<path d="M260 191H96V130H0V61H46V0H260V191Z" fill="white"/>
<path d="M260 191V192H261V191H260ZM96 191H95V192H96V191ZM96 130H97V129H96V130ZM0 130H-1V131H0V130ZM0 61V60H-1V61H0ZM46 61V62H47V61H46ZM46 0V-1H45V0H46ZM260 0H261V-1H260V0ZM260 191V190H96V191V192H260V191ZM96 191H97V130H96H95V191H96ZM96 130V129H0V130V131H96V130ZM0 130H1V61H0H-1V130H0ZM0 61V62H46V61V60H0V61ZM46 61H47V0H46H45V61H46ZM46 0V1H260V0V-1H46V0ZM260 0H259V191H260H261V0H260Z" fill="#FF5050" mask="url(#path-1-inside-1_827_428)"/>
</svg>
