<svg width="27" height="27" viewBox="0 0 27 27" fill="none" xmlns="http://www.w3.org/2000/svg">
<path d="M13.5 0C20.9558 0 27 6.04416 27 13.5C27 20.9558 20.9558 27 13.5 27C6.04416 27 0 20.9558 0 13.5C0 6.04416 6.04416 0 13.5 0ZM8.13086 6.72363C7.73809 6.40369 7.15894 6.427 6.79297 6.79297C6.427 7.15894 6.40369 7.73809 6.72363 8.13086L6.79297 8.20703L12.0859 13.5L6.79297 18.793C6.40244 19.1835 6.40244 19.8165 6.79297 20.207C7.18349 20.5976 7.81651 20.5976 8.20703 20.207L13.5 14.9141L18.793 20.207C19.1835 20.5976 19.8165 20.5976 20.207 20.207C20.5976 19.8165 20.5976 19.1835 20.207 18.793L14.9141 13.5L20.207 8.20703L20.2764 8.13086C20.5963 7.73809 20.573 7.15894 20.207 6.79297C19.8411 6.427 19.2619 6.40369 18.8691 6.72363L18.793 6.79297L13.5 12.0859L8.20703 6.79297L8.13086 6.72363Z" fill="#222222"/>
</svg>
